<svg width="36" height="36" viewBox="0 0 36 36" fill="none" xmlns="http://www.w3.org/2000/svg">
<rect width="36" height="36" rx="8" fill="#9DA4BF"/>
<circle cx="18.2105" cy="12.1538" r="5.15384" stroke="#15171E" stroke-width="2"/>
<path d="M23.1335 30C26.5322 30 29.4139 27.0453 27.6214 24.1578C27.1769 23.4417 26.6486 22.7731 26.043 22.1675C23.9656 20.0901 21.1482 18.9231 18.2104 18.9231C15.2726 18.9231 12.4552 20.0901 10.3778 22.1674C9.77219 22.7731 9.24392 23.4417 8.79939 24.1578C7.00692 27.0453 9.88865 30 13.2873 30L23.1335 30Z" fill="#15171E"/>
<path d="M19.4909 12C20.6371 12 21.5327 10.7259 20.6315 9.87868C20.033 9.31607 19.2214 9 18.375 9C17.5286 9 16.717 9.31607 16.1185 9.87868C15.2173 10.7259 16.1129 12 17.2591 12H19.4909Z" fill="#15171E"/>
</svg>
