<svg width="48" height="48" viewBox="0 0 48 48" fill="none" xmlns="http://www.w3.org/2000/svg">
<rect width="48" height="48" rx="8" fill="#9DA4BF"/>
<circle cx="24.2806" cy="16.2051" r="7.20513" stroke="#15171E" stroke-width="2"/>
<path d="M30.8446 39.9999C35.3762 39.9999 39.2185 36.0604 36.8285 32.2103C36.2358 31.2555 35.5315 30.364 34.724 29.5565C31.9542 26.7868 28.1976 25.2307 24.2805 25.2307C20.3635 25.2307 16.6069 26.7868 13.8371 29.5565C13.0296 30.364 12.3252 31.2555 11.7325 32.2103C9.34256 36.0604 13.1849 39.9999 17.7164 39.9999L30.8446 39.9999Z" fill="#15171E"/>
<path d="M25.9879 16C27.5161 16 28.7103 14.3012 27.5087 13.1716C26.7107 12.4214 25.6285 12 24.5 12C23.3715 12 22.2893 12.4214 21.4913 13.1716C20.2897 14.3012 21.4839 16 23.0121 16H25.9879Z" fill="#15171E"/>
</svg>
