<svg width="160" height="132" viewBox="0 0 160 132" fill="none" xmlns="http://www.w3.org/2000/svg">
<path d="M17.7387 84.3203C20.6401 82.3421 23.3583 80.3551 26.2083 78.5791C29.7735 76.3606 33.617 74.7326 37.7991 74.082C39.1179 73.8769 40.4704 73.8886 41.8082 73.8842C42.3782 73.8842 42.5731 73.6747 42.6743 73.1662C42.916 71.947 43.2106 70.7396 43.4567 69.5234C43.514 69.2688 43.4983 69.0031 43.4113 68.757C42.6552 66.9547 43.193 64.9091 44.8561 64.0489C44.965 63.9832 45.0585 63.895 45.1303 63.7901C45.202 63.6852 45.2505 63.5661 45.2723 63.4408C45.284 63.306 44.9792 63.0862 44.7843 63.0012C40.5401 61.1002 36.7199 58.3678 33.5496 54.9653C31.5454 52.8574 29.8493 50.4766 28.5118 47.8936C28.3741 47.6255 28.1851 47.3075 27.9359 47.18C25.6911 45.977 24.0367 44.1995 22.8073 41.9986C22.608 41.6425 22.3999 41.4711 21.9647 41.4608C20.6767 41.4315 19.6627 40.8146 18.9667 39.7596C17.812 38.0012 17.3196 34.924 19.2597 33.1466C19.3908 33.0061 19.4779 32.8304 19.5103 32.641C19.7697 31.4248 20.2151 30.3463 21.487 29.8686C21.3551 28.8912 21.1603 27.9637 21.1251 27.02C21.0938 26.2022 21.1637 25.3838 21.3332 24.5832C21.5544 23.5574 22.3061 22.9566 23.326 22.7779C24.2814 22.6123 24.9555 23.1222 25.4962 23.8505C25.5665 23.9457 25.6427 24.0351 25.8098 24.2505C25.9475 23.8578 26.0369 23.5706 26.1468 23.2907C26.5585 22.2401 27.7015 21.3697 28.566 21.443C29.6006 21.5309 30.3743 22.2958 30.7054 23.5428C31.9978 28.4033 34.0757 32.9092 37.0635 36.9506C37.7214 37.8385 38.7677 38.4613 39.6879 39.1324C42.8907 41.4959 46.3139 43.5451 49.9101 45.2516C50.039 45.3117 50.1738 45.3542 50.5226 45.4876C49.9467 44.5732 49.5525 43.7673 48.9781 43.1181C48.7378 42.8456 48.1238 42.8705 47.6725 42.8251C44.3154 42.4573 41.7027 39.2042 41.7613 36.064C41.8419 31.8409 41.7731 27.6149 41.7848 23.3889C41.7848 20.2809 44.1293 17.9027 47.2358 17.9071C47.9465 17.9071 48.159 17.5349 48.3817 17.0279C49.961 13.4412 52.298 10.2389 55.2321 7.641C59.2225 4.04033 64.1267 1.607 69.4077 0.607413C71.9672 0.0884974 74.5828 -0.099129 77.1901 0.0491308C83.9072 0.474077 89.9312 2.70577 95.1082 7.09004C97.958 9.51536 100.312 12.4684 102.042 15.7868C102.294 16.2613 102.517 16.7506 102.71 17.2521C102.893 17.7298 103.181 17.9013 103.704 17.9057C106.27 17.9262 108.246 19.3886 109.007 21.8269C109.134 22.2453 109.199 22.6804 109.199 23.1178C109.212 27.5392 109.212 31.9596 109.199 36.3791C109.186 39.4563 106.561 42.3869 103.518 42.8104C103.398 42.8265 103.274 42.8309 103.154 42.8529C101.836 43.0888 101.836 43.0903 101.279 44.3065C102.855 44.8926 104.478 45.3908 106.007 46.0942C106.942 46.5221 107.726 47.2665 108.601 47.8526C108.84 48.0222 109.129 48.1082 109.422 48.0973C113.445 47.561 117.021 46.0165 120.019 43.2456C120.126 43.1241 120.207 42.982 120.257 42.8281C120.308 42.6742 120.326 42.5116 120.312 42.3503C120.077 40.3457 119.789 38.347 119.524 36.3424C119.204 33.9305 118.888 31.5186 118.574 29.1066C118.26 26.7445 117.946 24.3814 117.63 22.0174C117.308 19.582 116.987 17.1466 116.668 14.7112C116.597 14.1808 116.521 13.6518 116.427 13.1243C116.305 12.48 116.439 11.8134 116.801 11.2662C117.162 10.7191 117.722 10.3343 118.363 10.1936C119.554 9.91667 120.901 10.768 121.165 12.059C121.276 12.6055 121.48 12.6363 121.95 12.5704C124.794 12.1791 127.643 11.8245 130.489 11.4494C133.117 11.1036 135.746 10.7534 138.374 10.3988C140.807 10.072 143.241 9.7379 145.677 9.41113C148.906 8.97935 152.137 8.54951 155.368 8.12163C155.489 8.10552 155.612 8.09526 155.733 8.0894C156.857 8.03079 157.224 8.57588 156.722 9.5811C155.363 12.3164 153.999 15.0468 152.631 17.7723C152.338 18.3584 152.067 18.9665 151.739 19.5307C151.499 19.9498 151.592 20.2194 151.91 20.5564C154.243 23.0153 156.558 25.4931 158.878 27.9651C158.961 28.0545 159.044 28.1454 159.118 28.2406C159.411 28.6231 159.874 29.0524 159.511 29.5199C159.274 29.8232 158.75 29.9873 158.33 30.0488C155.996 30.3917 153.654 30.6848 151.315 30.9954C148.88 31.3178 146.445 31.6421 144.009 31.9684C141.213 32.3416 138.417 32.7157 135.62 33.0909C132.897 33.4523 130.171 33.8099 127.444 34.1635C126.6 34.2734 125.754 34.3774 124.91 34.4844C124.454 34.5416 124.21 34.7482 124.28 35.2566C124.449 36.4861 124.573 37.7213 124.769 38.9464C124.81 39.0599 124.877 39.162 124.966 39.2439C125.055 39.3257 125.162 39.3851 125.278 39.4167C127.11 39.6951 128.209 40.7575 128.198 42.6492C128.185 44.1395 128.009 45.5667 129.316 46.6774C129.555 46.8811 129.689 47.3588 129.662 47.6944C129.577 48.8124 130.102 49.7458 130.382 50.7716C130.596 51.5203 130.392 52.3834 130.382 53.2011C130.382 53.6157 130.294 54.0524 130.395 54.4408C130.653 55.4445 130.707 56.3999 130.225 57.3612C130.096 57.6403 130.052 57.9511 130.099 58.255C130.348 59.8009 129.706 61.2179 128.31 61.9359C127.921 62.1352 127.87 62.3081 127.923 62.7125C128.216 64.7845 128.453 66.8624 128.729 68.9373C128.887 70.13 128.053 71.3932 126.903 71.6569C125.637 71.95 124.252 71.1836 124.019 69.9234C123.7 68.2031 123.512 66.4594 123.275 64.7244C123.206 64.2174 123.166 63.7075 123.108 63.2005C122.979 62.0927 121.972 61.4934 120.899 61.8407C120.299 62.0341 119.667 62.2876 119.058 62.2641C118.101 62.229 117.418 62.6232 116.684 63.1521C114.565 64.6834 112.141 65.6022 109.675 66.3993C109.326 66.5121 108.979 66.6294 108.623 66.7114C108.169 66.8184 107.959 67.0675 107.843 67.5408C106.163 74.441 103.801 81.0937 100.528 87.4078C98.1092 92.0792 95.2869 96.4811 91.8214 100.462C90.8602 101.566 89.8447 102.445 88.3764 102.766C87.1045 103.043 85.9484 102.766 84.8509 102.18C83.8398 101.642 82.88 101.007 81.8689 100.468C81.6506 100.352 81.2154 100.347 81.0395 100.489C77.8598 103.058 74.299 105.153 71.5295 108.237C68.9046 111.125 66.6153 114.301 64.7055 117.705C63.3764 120.101 61.999 122.541 61.5756 125.241C61.007 128.868 57.244 131.023 54.454 131.621C52.2707 132.089 50.6178 131.146 48.8594 130.099C45.4027 128.038 41.8742 126.1 38.3442 124.167C35.519 122.621 32.6294 121.197 29.8086 119.636C28.9514 119.161 28.1851 118.473 27.4846 117.774C26.5966 116.895 26.3973 115.722 26.56 114.508C26.9322 111.743 27.7748 109.197 29.8863 107.207C31.441 105.742 33.2976 104.973 35.3637 104.649C37.9823 104.237 40.5568 104.592 43.1739 105.245C45.1917 100.802 47.526 96.5646 50.4302 92.6434C49.6199 91.8257 48.7114 92.2565 47.904 92.3928C45.2225 92.8456 42.6596 93.7248 40.1788 94.8282C37.0049 96.2408 33.9423 97.8805 31.2696 100.112C29.9171 101.242 28.7785 102.63 27.5667 103.922C25.4288 106.201 22.9143 107.698 19.6993 107.695C18.4684 107.695 17.2918 107.313 16.4331 106.423C14.3611 104.281 11.8495 102.72 9.48304 100.962C7.21471 99.2769 4.94051 97.5918 2.75131 95.8085C0.230939 93.7482 -0.674637 90.5831 0.524003 87.7213C0.978256 86.6399 1.8428 85.6699 2.68537 84.8244C4.21224 83.2887 5.99848 82.0783 8.13054 81.5171C11.4803 80.6379 14.3714 81.6798 16.9987 83.7342C17.2889 83.9569 17.5702 84.1855 17.7387 84.3203ZM20.8394 39.3112C21.6585 39.9779 22.5084 39.9574 22.5274 39.6292L21.0211 37.4883C20.643 36.7351 20.2649 35.982 19.8708 35.1995C19.3491 36.5813 19.8078 38.4774 20.8394 39.3112V39.3112ZM77.3454 76.3196C78.3902 76.0514 78.6642 75.1385 79.0599 74.3077C79.8526 72.624 79.8585 72.627 79.4072 71.5837C78.6525 73.1692 77.9418 74.674 77.2209 76.1789C77.1916 76.2566 77.1623 76.3328 77.1344 76.409L77.3454 76.3196ZM124.904 60.7563C125.719 60.6801 126.554 60.6904 127.344 60.5043C128.052 60.3372 128.472 59.7965 128.422 59.1547L124.742 59.5284L121.764 58.6741C121.666 59.4522 121.993 60.0764 122.722 60.3314C123.414 60.5746 124.174 60.623 124.904 60.7563V60.7563ZM21.4372 34.4434C21.9706 35.3841 22.4439 36.3659 23.0491 37.251C23.4125 37.7785 24.0279 37.9221 24.7078 37.4956C24.3986 37.2612 24.1217 37.0693 23.8726 36.8568C22.7003 35.8794 21.9984 34.754 22.6476 33.1583C22.7106 33.0029 22.5303 32.7495 22.4629 32.5414C22.334 32.1912 22.2036 31.8395 22.0702 31.4746C21.0914 32.1369 20.9009 33.1041 21.4372 34.4434V34.4434ZM125.476 68.2925C125.51 68.608 125.544 68.9221 125.578 69.2347C125.635 69.7476 125.908 70.0846 126.435 70.0099C126.963 69.9352 127.134 69.5366 127.066 69.0281C126.962 68.2544 126.865 67.4807 126.761 66.707C126.569 65.2915 126.374 63.876 126.175 62.4283L125.442 62.4869L124.649 62.4458C124.938 64.4416 125.208 66.3671 125.479 68.2911L125.476 68.2925ZM124.9 57.8315C126.033 58.0323 127.079 57.7656 128.062 57.219C128.875 56.7692 129.111 56.035 128.76 55.0591C127.386 55.8055 125.856 56.2153 124.293 56.2548L121.263 55.7449C122.123 57.1736 123.455 57.6 124.903 57.8301L124.9 57.8315ZM103.359 48.6131H106.528C106.528 48.5223 106.542 48.4314 106.548 48.3406C105.021 47.2255 103.299 46.5646 101.438 46.229C100.876 46.2481 100.307 45.7337 99.7489 46.3184C99.1203 46.9734 98.6455 47.6475 99.0162 48.6131H103.359ZM44.8224 66.6821C44.6143 67.5701 44.8869 68.42 45.6371 68.7116C46.572 69.075 47.5641 69.2977 48.5766 69.5908C48.7349 69.0501 48.8697 68.6105 48.9913 68.1724L49.784 66.1634C48.6894 65.9099 47.7018 65.6652 46.7068 65.4556C45.7573 65.249 45.0862 65.7047 44.8224 66.6821ZM123.865 52.3556L120.861 52.1973C120.728 52.8318 120.734 53.4897 121.387 53.7608C122.22 54.1066 123.128 54.2737 124.003 54.517C125.36 54.6767 126.6 54.2957 127.787 53.6876C128.973 53.0794 129.275 51.9937 128.568 50.7437C127.151 51.7152 125.543 52.1417 123.865 52.3556ZM23.7495 31.098C23.8257 31.2915 23.896 31.4834 23.9605 31.6343L26.2625 30.9573C26.1995 30.7463 26.1395 30.5383 26.0779 30.3316C25.8705 28.3942 25.2186 26.5307 24.173 24.8865C23.7817 24.2623 23.2161 24.3282 22.9333 25.0066C22.822 25.2759 22.7585 25.5625 22.7457 25.8536C22.6769 27.6765 23.0593 29.4173 23.7495 31.098ZM126.05 46.1909C125.388 46.1323 124.715 45.9697 124.066 46.0356C122.652 46.1821 121.462 46.8254 120.634 48.0065C119.806 49.1875 120.369 50.414 121.776 50.5737C122.278 50.6323 122.788 50.6221 123.294 50.6426C124.67 50.7115 125.931 50.3276 127.126 49.6784C128.222 49.0791 128.444 47.983 127.583 47.0613C127.197 46.651 126.569 46.4767 126.05 46.1836V46.1909ZM27.7674 30.0386C27.9433 30.3976 28.0429 30.9955 28.3052 31.0775C29.5376 31.4658 30.8139 31.712 32.1297 32.0212L31.2315 30.1954C31.1304 29.9228 31.0219 29.6547 30.9296 29.3792C30.3054 27.5387 29.6958 25.6939 29.0511 23.8608C28.9573 23.597 28.7038 23.2102 28.5133 23.2028C28.2803 23.1955 27.9477 23.4827 27.8173 23.7274C27.6251 24.1193 27.4983 24.5401 27.4421 24.9729C27.2 26.6659 27.3108 28.3905 27.7674 30.0386V30.0386ZM118.729 11.8685C118.083 11.9447 118.054 12.396 118.118 12.8942C118.382 14.9515 118.649 17.0079 118.918 19.0633C119.88 26.3196 120.842 33.5749 121.807 40.8293C121.978 42.1202 122.155 43.4112 122.334 44.7373L123.051 44.4926L123.783 44.3373C123.738 43.9182 123.704 43.5577 123.656 43.1973C122.895 37.4727 122.133 31.7472 121.37 26.0207C120.784 21.5758 120.198 17.131 119.611 12.6861C119.537 12.1762 119.362 11.7894 118.729 11.8743V11.8685ZM90.2697 87.04C90.1583 86.8055 90.0923 86.5286 89.9268 86.3425C86.8774 82.9121 83.4485 79.9404 79.4438 77.6574C78.9119 77.3541 78.4972 77.442 78.1528 77.8435C77.9125 78.1249 77.7924 78.5103 77.618 78.8473C77.5726 79.0348 77.511 79.2209 77.4832 79.41C77.363 80.2657 77.5359 80.8753 78.4151 81.3735C79.8974 82.2213 81.3044 83.1944 82.6206 84.2822C84.2677 85.6523 85.7813 87.1836 87.3434 88.6548C88.0013 89.2746 88.7692 89.424 89.4784 89.0313C90.1876 88.6386 90.4953 87.884 90.2697 87.0429V87.04ZM154.042 11.0157C154.083 10.9732 154.126 10.9307 154.167 10.8867C154.313 10.601 154.476 10.3152 154.699 9.90055L121.48 14.2965C121.546 14.635 121.598 14.9149 121.653 15.1948C121.9 17.1745 122.135 19.1512 122.397 21.1352C122.727 23.6263 123.08 26.1027 123.423 28.5864L123.84 31.9948C123.953 32.9238 123.953 32.9385 124.901 32.8154C127.899 32.4246 130.896 32.0295 133.891 31.6299C140.488 30.7507 147.085 29.8764 153.682 29.007C154.774 28.8605 155.864 28.6993 157.062 28.5308C156.821 28.2524 156.683 28.0912 156.535 27.927C154.422 25.6602 152.316 23.3845 150.184 21.1396C149.755 20.6868 149.531 20.2458 149.768 19.6406C151.197 16.8125 152.625 13.9839 154.051 11.1549C154.072 11.1168 154.051 11.0596 154.051 11.0083L154.042 11.0157ZM104.689 34.8786C104.155 36.9725 103.622 39.068 103.084 41.1795C102.984 41.1414 103.03 41.1722 103.074 41.1722C103.172 41.1732 103.271 41.1629 103.367 41.1414C105.518 40.6007 107.03 39.301 107.421 37.1088C107.675 35.7168 107.517 34.25 107.543 32.8183C107.555 29.5477 107.647 26.2756 107.543 23.0094C107.481 21.0019 105.415 19.3212 103.651 19.5937C103.798 20.1095 103.965 20.6194 104.091 21.1382C105.146 25.6404 105.348 30.3003 104.689 34.8771V34.8786ZM46.3127 34.8786C45.6034 29.7016 45.8731 24.5861 47.3384 19.5468C46.4865 19.5379 45.6554 19.8093 44.973 20.3193C44.2907 20.8293 43.7949 21.5495 43.5622 22.369C43.4745 22.6483 43.4252 22.9381 43.4157 23.2307C43.4157 26.427 43.4284 29.6234 43.4538 32.8198C43.486 34.2763 43.3556 35.7592 43.5886 37.1821C43.9491 39.3684 46.1354 41.1678 47.9011 41.1282C47.378 39.068 46.846 36.9725 46.3127 34.8786V34.8786ZM97.2095 50.1078V48.9472C97.0439 49.063 96.9472 49.1231 96.8578 49.1949C93.9799 51.5203 90.7034 53.0326 87.1353 53.9484C80.704 55.6013 74.192 55.6965 67.6596 54.7397C62.6335 54.007 57.965 52.3219 53.9675 49.063C53.9368 49.0366 53.8796 49.0454 53.7844 49.0293V50.1063C53.6173 50.7613 53.9001 51.1877 54.4115 51.5936C56.7942 53.4868 59.4787 54.8027 62.3683 55.676C70.2811 58.0689 78.2789 58.1671 86.3045 56.3252C90.0469 55.4694 93.5373 54.0055 96.5838 51.5965C97.0966 51.1892 97.3736 50.7613 97.2095 50.1078V50.1078ZM118.674 49.9612C118.674 49.4528 118.609 48.9355 118.688 48.4373C118.87 47.3178 119.588 46.5323 120.414 45.7997C120.598 45.6399 120.653 45.3323 120.766 45.0934L120.562 45.004C118.614 46.6366 116.387 47.9034 113.987 48.7435C113.59 48.8968 113.252 49.173 113.022 49.5319C111.939 51.3093 111.737 53.2407 112.219 55.2467C112.563 56.6754 113.031 58.0572 114.179 59.0814C115.453 60.645 118.233 61.1549 120.198 60.239C120.198 59.3598 120.206 58.5232 120.198 57.6865C120.176 57.4537 120.134 57.2233 120.073 56.9978C119.77 55.443 119.279 53.8942 119.235 52.3336C119.204 51.4485 119.085 50.7056 118.674 49.9656V49.9612ZM35.3168 40.1435C35.4002 39.977 35.4641 39.8015 35.5073 39.6204C35.5747 39.0592 35.8487 38.3675 35.6245 37.9514C33.8163 34.5972 33.1833 34.162 29.4877 33.3077C29.278 33.2429 29.0626 33.1982 28.8445 33.1744C27.7557 33.1422 26.6626 33.0718 25.5782 33.129C24.9481 33.1627 24.3078 33.5568 24.2594 34.2016C24.2287 34.6412 24.5701 35.2361 24.9306 35.5453C25.7028 36.2047 26.5791 36.7513 27.4436 37.2949C28.399 37.8957 29.3881 38.4437 30.3625 39.0138C30.3479 39.0636 30.3318 39.1134 30.3171 39.1603L28.9016 39.0548C27.6092 38.6284 26.3124 38.0437 25.0683 39.1793C25.0185 39.2262 24.932 39.2291 24.8661 39.2614C24.4983 39.4431 24.0279 40.7267 24.2184 41.0725C25.2676 42.9995 26.689 44.5732 28.6261 45.6414C28.8324 45.7614 29.0691 45.819 29.3075 45.807C32.0652 45.5022 34.8538 42.8602 35.3168 40.1508V40.1435ZM84.9696 96.528L82.6499 98.9516C83.6288 99.5231 84.53 100.058 85.4341 100.58C87.1412 101.564 88.8322 101.336 90.1026 99.8381C91.4214 98.2761 92.7402 96.6965 93.9271 95.029C99.6199 87.0224 103.343 78.1161 105.831 68.653C105.94 68.2427 106.038 67.8309 106.164 67.3269L102.845 68.0786C101.737 68.2441 100.634 68.4508 99.5218 68.5548C98.984 68.6046 98.7891 68.8244 98.6426 69.308C97.016 75.0697 94.903 80.6394 92.1101 85.9439C91.9771 86.2202 91.9316 86.5305 91.9797 86.8333C92.1328 87.6566 91.9812 88.5074 91.5534 89.2273C91.1255 89.9471 90.4505 90.4868 89.6542 90.7458C89.4117 90.828 89.196 90.9743 89.03 91.1693C87.6584 92.9511 86.3177 94.7461 84.9696 96.5353V96.528ZM58.3562 77.5138C58.409 77.5593 58.4559 77.6281 58.5189 77.6457C63.161 79.0495 67.7255 80.6614 72.0952 82.8989C74.2712 78.4077 76.4311 73.9458 78.6423 69.3798L74.4646 67.2844C69.1616 64.72 63.6373 62.8591 57.7965 61.8934L55.6073 67.724C56.0718 67.8353 56.4469 67.9276 56.8235 68.017C58.135 68.3189 58.2712 68.5607 57.8492 69.8238C57.0858 72.1258 56.3282 74.4278 55.5428 76.8061L58.3562 77.5138ZM51.7901 51.324C51.8882 51.0939 52.0582 50.8668 52.07 50.6324C52.1081 49.9261 52.0553 49.2154 52.0934 48.5091C52.1168 48.0915 51.9542 47.923 51.5835 47.7764C46.7581 45.8847 42.3914 43.1885 38.2299 40.1362C37.9368 39.9237 37.6438 39.7083 37.2935 39.4431C36.6268 42.4177 35.223 44.8135 32.6484 46.4093L30.1486 47.4453C33.8324 53.9953 39.1692 58.6711 46.0225 61.7395C46.3669 60.96 46.6673 60.2742 46.9779 59.5826C48.3133 56.6817 49.9248 53.9161 51.7901 51.324V51.324ZM3.22754 86.7264C1.50285 88.0583 1.18633 90.9451 2.45677 92.8441C2.97306 93.6426 3.61253 94.3543 4.35145 94.9528C7.00809 97.013 9.74533 98.9736 12.424 101.009C13.9948 102.202 15.5964 103.374 17.0295 104.722C18.0875 105.717 19.2084 106.161 20.5961 105.99C23.1678 105.672 25.1606 104.309 26.7051 102.326C28.1162 100.509 29.7955 99.0176 31.655 97.7002C31.8411 97.5684 32.0213 97.4291 32.1649 97.3222L28.2085 94.0867C28.0517 93.9021 27.9008 93.7131 27.7352 93.5372C25.187 90.8322 23.4227 87.7096 22.6725 84.0463C22.608 83.7283 22.545 83.4103 22.4732 83.0557C20.1594 84.5342 18.3908 86.6267 15.7634 87.799C16.1181 87.0033 16.4082 86.3513 16.7042 85.6889C15.129 84.2236 13.3867 83.1378 11.2268 82.9385C7.83161 82.6293 5.36839 84.3525 3.22754 86.7264V86.7264ZM28.9895 111.668C28.7433 112.63 28.503 113.595 28.2569 114.556C27.9916 115.57 28.3345 116.417 29.0833 117.047C29.7209 117.572 30.4079 118.033 31.1348 118.424C37.886 122.182 44.6456 125.924 51.4135 129.653C51.8621 129.892 52.3579 130.03 52.8656 130.056C56.1553 130.212 59.1226 127.945 59.9271 124.799C60.9293 120.877 62.8577 117.38 64.9868 113.979C65.1334 113.743 65.2799 113.507 65.4001 113.307L60.4033 112.27C60.3124 112.232 60.226 112.188 60.1322 112.159C54.6621 110.45 50.2852 107.231 46.9091 102.618C46.8021 102.471 46.679 102.337 46.5442 102.178L42.7885 109.845L42.5673 109.753V106.853C39.8769 106.151 37.1353 105.818 34.3746 106.587C31.7018 107.317 29.8731 109.005 28.9895 111.668V111.668ZM55.575 54.5199L53.0063 52.6149C51.0765 54.8759 47.4161 61.8319 47.1127 63.8027L50.3467 64.6087C50.9973 63.1961 51.6465 61.8099 52.2722 60.412C52.4934 59.9196 52.8319 59.7159 53.3653 59.7657C54.265 59.8507 55.1706 59.8712 56.0644 59.9841C64.5766 61.067 72.4483 64.0108 79.8599 68.2544C80.2138 68.4881 80.4774 68.8354 80.6073 69.2391C80.9233 70.2384 81.1792 71.2557 81.3736 72.2855C81.4428 72.7029 81.3978 73.1313 81.2432 73.5252C80.8959 74.4044 80.4578 75.2338 80.09 76.0163L84.9798 79.3396L90.8924 84.691C93.4831 79.7089 95.476 74.4484 97.0058 69.0706L93.0494 68.4127C93.0494 68.3086 93.0494 68.2031 93.0494 68.0976C93.9594 67.8734 94.8591 67.5892 95.7808 67.4338C98.5649 66.962 101.378 66.622 104.149 66.0769C107.813 65.3575 111.394 64.3083 114.682 62.4532C114.927 62.3066 115.16 62.1601 115.234 62.1088L112.358 59.647C110.298 56.5068 109.712 53.1747 111.098 49.5202C107.046 50.3202 102.998 50.3642 98.9459 50.3173C98.9342 50.4931 98.921 50.5664 98.9254 50.6367C98.9386 50.8067 98.9591 50.9753 98.9767 51.1452C98.729 51.5482 98.5561 52.0244 98.222 52.3409C96.3405 54.0876 94.1191 55.3126 91.7745 56.2973C86.2063 58.6169 80.3538 59.3188 74.3781 59.2074C69.1469 59.1093 64.0373 58.3282 59.1841 56.2768C57.9503 55.7434 56.7751 55.1016 55.575 54.517V54.5199ZM99.11 14.2072C97.7209 11.8099 95.857 9.81115 93.7176 8.09525C86.9873 2.67353 79.2723 0.718774 70.8115 2.08739C61.1975 3.64504 54.0936 8.82792 49.9335 17.6946C47.23 23.4607 47.1025 29.5829 48.1956 35.7548C48.6352 38.2576 49.4338 40.6622 50.8918 42.7957C50.9952 43.0369 51.1126 43.2717 51.2435 43.4991C53.4957 46.9632 56.6081 49.3868 60.3769 51.0075C64.1707 52.6398 68.1695 53.352 72.2607 53.5689C77.8539 53.8707 83.3973 53.5601 88.7428 51.7299C94.7287 49.6784 99.2624 45.9653 101.561 39.9574C104.105 33.3077 103.992 26.5379 101.919 19.7871C101.318 17.7754 100.367 15.8855 99.11 14.2042V14.2072ZM50.4273 80.0547C50.1123 79.9463 49.8016 79.7617 49.4807 79.7441C48.2235 79.6444 47.6329 78.9352 47.5054 77.738C47.4805 77.5193 47.4232 77.3055 47.3355 77.1035C46.9164 76.1335 46.9999 75.1693 47.2813 74.1729C47.5626 73.1765 47.7824 72.202 48.0447 71.1499L44.9558 70.2971C44.6407 71.8694 44.3286 73.3743 44.0414 74.8748C43.9256 75.48 43.6165 75.8243 42.9893 75.6924C41.0844 75.2924 39.197 75.4756 37.3229 75.8507C32.5767 76.7988 28.3843 78.9967 24.4133 81.668C24.2199 81.797 24.0763 82.2073 24.1202 82.4491C24.3107 83.5261 24.4866 84.6207 24.8353 85.6523C25.82 88.5668 27.4348 91.0901 29.772 93.1255C30.9296 94.0486 32.0902 94.9674 33.2404 95.8993C33.6317 96.2159 33.9541 96.1924 34.4127 95.9463C36.0597 95.0465 37.7156 94.1541 39.4168 93.3658C42.1996 92.0558 45.1505 91.1376 48.1854 90.6374C47.1435 89.0255 46.2541 87.44 45.9156 85.4222C47.6095 87.695 48.9928 90.0351 51.5688 91.222C53.4547 89.1178 55.6278 87.5059 58.2097 86.4802L59.1578 86.3469C59.1372 86.4157 59.1387 86.4773 59.1079 86.5051C58.7841 86.7982 58.4705 87.1103 58.1262 87.3843C53.7771 90.7941 50.3936 95.004 47.7633 99.8396C47.5128 100.303 47.5391 100.603 47.8161 101.012C50.2471 104.577 53.358 107.373 57.2616 109.218C58.6346 109.865 60.1293 110.26 61.5682 110.771C62.9764 111.033 64.3861 111.282 65.7898 111.565C66.3643 111.681 66.7115 111.49 67.0647 111.016C69.7023 107.465 72.7443 104.307 76.4428 101.835C80.7289 98.9663 84.1665 95.2751 87.0767 91.0579C87.1573 90.9421 87.2232 90.8102 87.2848 90.6872C86.9624 90.4542 86.6517 90.2607 86.3792 90.0219C86.1066 89.783 85.8678 89.4988 85.6143 89.235C83.2782 86.7669 80.6259 84.6187 77.7264 82.8462C77.5066 82.7128 77.2751 82.5971 77.0099 82.4505C76.1541 84.2324 75.335 85.9468 74.5071 87.6583C74.1041 88.4921 73.7466 88.602 72.945 88.1727C72.3428 87.8503 71.7464 87.5162 71.131 87.2202C65.551 84.5284 59.6721 82.6572 53.7477 80.9193C52.6473 80.5925 51.5322 80.339 50.4273 80.0547ZM53.9558 76.3372C54.7075 74.0542 55.4358 71.8415 56.1802 69.5849L54.7793 69.245C53.6071 68.9622 53.4708 68.6911 53.9001 67.5496C54.6328 65.6183 55.3494 63.6855 56.1084 61.6648C55.4285 61.5915 54.8233 61.5593 54.2313 61.4553C53.7565 61.3718 53.525 61.5417 53.3594 61.974C52.2033 64.9735 50.99 67.9496 49.8837 70.9667C49.4016 72.2855 49.1261 73.6717 48.7495 75.0536L53.9558 76.3372ZM48.9986 76.7768C49.2697 77.9578 49.2712 77.9491 50.228 78.2143C57.5459 80.2042 64.7963 82.3875 71.6819 85.6318C71.7993 85.6766 71.9192 85.7148 72.0409 85.7461C71.9706 84.9782 71.6702 84.5211 70.9991 84.184C66.1166 81.7384 60.9601 80.0415 55.7274 78.5586C53.5323 77.9432 51.3153 77.3952 48.9986 76.7841V76.7768ZM73.8462 85.3709C74.4573 83.2477 76.2215 81.6768 75.7292 79.1726C74.9965 80.7053 74.3899 82.1033 73.6894 83.4455C73.3509 84.0932 73.3729 84.6309 73.8462 85.3783V85.3709ZM126.396 44.4105C126.872 42.3591 126.387 41.1179 125.054 41.1135C125.155 41.9327 125.288 42.743 125.347 43.5592C125.385 44.2318 125.679 44.5146 126.396 44.4105Z" fill="#040373"/>
<path d="M61.568 110.771C60.1291 110.26 58.6374 109.865 57.2614 109.218C53.3578 107.374 50.2469 104.579 47.8159 101.012C47.539 100.606 47.5126 100.306 47.7632 99.8396C50.4008 94.9953 53.771 90.7883 58.126 87.3843C58.4703 87.1147 58.7839 86.8055 59.1077 86.5051C59.1385 86.4773 59.1371 86.4158 59.1576 86.3469L58.2095 86.4802C58.0322 86.4289 57.8417 86.3044 57.6805 86.3337C56.1331 86.6356 54.5696 86.8905 53.053 87.3096C51.8485 87.6422 50.8081 87.5455 49.967 86.6209C48.5588 85.0706 47.2181 83.4573 45.8143 81.9025C45.571 81.6329 45.108 81.3164 44.8384 81.3867C44.5687 81.4571 44.2522 81.945 44.1936 82.2894C44.0654 83.1568 44.0022 84.0326 44.0046 84.9094C43.987 87.0341 43.1151 88.1785 41.0549 88.6606C38.1242 89.3449 35.2697 90.2593 32.556 91.5547C31.5976 92.0118 30.7008 92.598 29.7718 93.1241C27.4273 91.0916 25.8154 88.5683 24.8351 85.6509C24.4864 84.6251 24.3105 83.5247 24.12 82.4476C24.0776 82.2059 24.2212 81.7956 24.4131 81.6666C28.3842 78.9953 32.5765 76.7973 37.3227 75.8492C39.1968 75.4741 41.0842 75.291 42.9891 75.691C43.6163 75.8229 43.9255 75.4785 44.0412 74.8733C44.3343 73.3685 44.6405 71.868 44.9556 70.2957L48.0445 71.1485C47.7822 72.2006 47.5595 73.1999 47.2811 74.1714C47.0027 75.143 46.9162 76.1247 47.3353 77.1021C47.423 77.304 47.4803 77.5179 47.5053 77.7366C47.6327 78.9338 48.2233 79.6415 49.4805 79.7426C49.8014 79.7675 50.1121 79.9448 50.4271 80.0533C50.9737 80.4357 51.4895 80.8768 52.0742 81.1904C55.3946 82.9781 58.9334 84.2412 62.5 85.4311C64.9002 86.2311 66.7641 87.695 67.8792 89.9897C69.8061 93.9607 69.4193 97.882 67.277 101.61C65.9054 103.995 64.2525 106.218 62.7608 108.536C62.3051 109.244 61.9622 110.024 61.568 110.771Z" fill="#FDFDFE"/>
<path d="M50.8916 42.7958C49.4263 40.6622 48.638 38.2532 48.1954 35.7548C47.1023 29.5829 47.2298 23.4607 49.9333 17.6946C54.0934 8.82646 61.1973 3.64505 70.8113 2.0874C79.2722 0.715854 86.9871 2.67354 93.7174 8.09526C95.8568 9.81702 97.7207 11.8099 99.1098 14.2072C99.1166 14.4225 99.1392 14.637 99.1772 14.849C100.128 18.6588 100.38 22.5141 100.093 26.4148C100.075 26.6581 99.9172 26.8896 99.8234 27.1255C99.5567 26.472 99.3238 25.8067 99.016 25.1678C97.01 21.04 93.6295 18.4405 89.4914 16.7231C84.6748 14.7244 79.6209 14.0855 74.4454 14.194C69.8413 14.2921 65.3603 15.0277 61.1196 16.8872C54.7513 19.6831 50.8623 24.3604 50.3788 31.4863C50.0637 36.0596 51.7811 39.9223 54.9213 43.1138C56.284 44.5014 58.0117 45.5301 59.5722 46.7228C59.334 46.7203 59.0966 46.6953 58.863 46.6481C56.24 45.8742 53.764 44.6694 51.5364 43.083C51.3324 42.9644 51.1162 42.8681 50.8916 42.7958V42.7958Z" fill="#FDFDFD"/>
<path d="M112.354 59.6442L115.23 62.1059C115.156 62.1528 114.923 62.3111 114.678 62.4503C111.39 64.3054 107.813 65.3546 104.145 66.0741C101.374 66.6192 98.5636 66.9533 95.7765 67.431C94.8549 67.5863 93.9551 67.8706 93.0452 68.0948C93.0452 68.2003 93.0452 68.3058 93.0452 68.4098L97.0016 69.0677C95.4718 74.4455 93.4848 79.7119 90.8882 84.6882L84.9756 79.3368C86.4409 78.6964 87.707 77.7776 88.4777 76.3533C90.0896 73.3626 90.9688 70.158 90.7256 66.7437C90.4955 63.4746 87.5473 60.837 84.2693 60.837C82.9827 60.837 81.6976 61.0494 80.4082 61.0905C76.188 61.2238 71.9708 61.2062 67.8063 60.3578C63.7986 59.5445 60.002 58.2082 56.724 55.6687C56.2976 55.339 55.9547 54.8995 55.5723 54.5112C56.7724 55.0973 57.9476 55.7376 59.1755 56.2563C64.0287 58.3078 69.1398 59.0962 74.3695 59.187C80.3452 59.2984 86.1948 58.6009 91.7659 56.2768C94.1193 55.2965 96.3334 54.0789 98.2134 52.3205C98.5475 52.0113 98.7204 51.5277 98.968 51.1248C99.0855 51.2608 99.1841 51.4122 99.2611 51.5746C99.9747 53.8356 99.9527 56.142 99.5996 58.4499C99.3065 60.3373 100.551 61.8744 102.478 61.8202C105.908 61.7323 109.184 60.919 112.354 59.6442Z" fill="#B1B1D3"/>
<path d="M61.5684 110.771C61.9626 110.024 62.3011 109.244 62.7612 108.538C64.2529 106.22 65.9058 103.995 67.2773 101.611C69.4196 97.8834 69.8065 93.9622 67.8796 89.9911C66.7645 87.6964 64.9006 86.2326 62.5004 85.4325C58.9337 84.2426 55.395 82.9795 52.0745 81.1918C51.4884 80.8782 50.9741 80.4371 50.4275 80.0547C51.5323 80.339 52.6475 80.5925 53.7421 80.9134C59.6664 82.6571 65.5453 84.5284 71.1253 87.2143C71.7407 87.5074 72.3371 87.8444 72.9394 88.1668C73.7409 88.5961 74.0984 88.4862 74.5014 87.6524C75.3293 85.9409 76.1484 84.2265 77.0042 82.4447C77.2694 82.5912 77.5009 82.7069 77.7207 82.8403C80.6202 84.6128 83.2725 86.7611 85.6086 89.2291C85.8621 89.4929 86.098 89.7772 86.3735 90.016C86.649 90.2549 86.9597 90.4483 87.2791 90.6813C87.2102 90.8044 87.1516 90.9362 87.071 91.052C84.1609 95.2692 80.7232 98.9648 76.4371 101.83C72.7445 104.302 69.7054 107.459 67.059 111.01C66.7059 111.485 66.3586 111.675 65.7842 111.559C64.3862 111.282 62.9766 111.033 61.5684 110.771Z" fill="#B1B1D3"/>
<path d="M28.9893 111.668C29.8685 109.005 31.7016 107.317 34.3743 106.573C37.135 105.803 39.8767 106.133 42.567 106.838V109.738L42.7883 109.83L46.5439 102.159C46.6787 102.325 46.8018 102.452 46.9088 102.599C50.279 107.212 54.6618 110.431 60.1319 112.14C60.2257 112.169 60.3122 112.213 60.403 112.251C60.2902 112.488 60.2228 112.765 60.0557 112.957C59.2117 113.932 58.4292 114.987 57.4636 115.828C53.6537 119.15 49.2064 120.545 44.1833 119.749C39.8825 119.068 36.0507 117.226 32.5749 114.648C31.325 113.735 30.1806 112.669 28.9893 111.668Z" fill="#FDFDFD"/>
<path d="M55.5751 54.517C55.9575 54.9053 56.3004 55.3449 56.7268 55.6746C60.0048 58.2125 63.8014 59.5489 67.8091 60.3636C71.9707 61.2091 76.1879 61.2267 80.411 61.0963C81.7005 61.0553 82.9856 60.8457 84.2721 60.8428C87.5501 60.834 90.4939 63.4804 90.7328 66.7481C90.9833 70.1623 90.1027 73.367 88.485 76.3577C87.7142 77.782 86.4525 78.7023 84.9828 79.3411L80.0915 76.0134C80.4593 75.2338 80.8975 74.4015 81.2447 73.5223C81.3993 73.1284 81.4443 72.7001 81.3752 72.2827C81.1808 71.2528 80.9249 70.2355 80.6088 69.2362C80.479 68.8325 80.2153 68.4852 79.8615 68.2515C72.4498 64.0021 64.5781 61.0714 56.066 59.9812C55.1721 59.8683 54.2665 59.8478 53.3668 59.7628C52.8334 59.713 52.4876 59.9094 52.2737 60.4091C51.648 61.807 50.9989 63.1932 50.3482 64.6058C49.2737 64.3381 48.1957 64.07 47.1143 63.8013C47.4176 61.829 51.0706 54.8731 53.0078 52.6121L55.5751 54.517Z" fill="#FDFDFD"/>
<path d="M28.9894 111.668C30.1807 112.669 31.3251 113.735 32.575 114.66C36.0508 117.237 39.8826 119.079 44.1834 119.761C49.2065 120.556 53.6494 119.161 57.4637 115.84C58.4293 114.998 59.2118 113.943 60.0558 112.969C60.2229 112.777 60.2903 112.5 60.4031 112.263L65.397 113.312C65.2739 113.511 65.1303 113.751 64.9838 113.983C62.859 117.384 60.9263 120.882 59.924 124.803C59.1195 127.949 56.1522 130.216 52.8625 130.061C52.3548 130.034 51.859 129.897 51.4104 129.658C44.6435 125.932 37.8839 122.187 31.1317 118.424C30.4048 118.033 29.7178 117.572 29.0802 117.047C28.3314 116.412 27.9885 115.566 28.2538 114.556C28.5029 113.589 28.7432 112.63 28.9894 111.668Z" fill="#B1B1D3"/>
<path d="M99.8234 27.1225C99.9172 26.8865 100.075 26.655 100.093 26.4118C100.386 22.5111 100.128 18.6455 99.1772 14.8459C99.1391 14.6339 99.1166 14.4194 99.1098 14.2041C100.367 15.8854 101.318 17.7753 101.919 19.787C103.992 26.5378 104.105 33.3076 101.561 39.9573C99.2622 45.9651 94.7284 49.6842 88.7426 51.7298C83.3897 53.56 77.8537 53.8706 72.2605 53.5687C68.1693 53.3475 64.1704 52.6397 60.3767 51.0073C56.6079 49.3867 53.4896 46.963 51.2433 43.499C51.1124 43.2716 50.995 43.0368 50.8916 42.7956C51.1135 42.8675 51.3272 42.9629 51.529 43.0799C53.7567 44.6663 56.2327 45.8711 58.8557 46.645C59.0892 46.6922 59.3267 46.7173 59.5649 46.7198H59.5268L59.8008 46.7711C61.2456 47.347 62.6538 48.0488 64.1411 48.4796C70.4904 50.3172 76.9408 50.3919 83.4176 49.3061C87.2626 48.6628 90.9054 47.4012 94.006 44.9672C98.6218 41.3493 101.138 36.7028 100.533 30.6861C100.418 29.4904 100.068 28.3064 99.8234 27.1225Z" fill="#B0B0D2"/>
<path d="M3.22778 86.7265C5.36863 84.3526 7.83185 82.6236 11.227 82.9415C13.3869 83.1408 15.1292 84.2325 16.7044 85.692C16.4114 86.3543 16.1183 87.0108 15.7637 87.802C18.391 86.6298 20.1597 84.5344 22.4734 83.0514C22.5452 83.406 22.6082 83.724 22.6727 84.042C23.423 87.7053 25.1872 90.8279 27.7354 93.5329C27.901 93.7088 28.052 93.8978 28.2087 94.0824C27.5772 94.5337 26.9295 94.9616 26.317 95.4408C23.4186 97.6989 20.1626 98.5092 16.5682 97.7692C13.6639 97.1714 11.1992 95.6152 8.81802 93.9594C6.21706 92.1409 4.00441 89.9751 3.22778 86.7265Z" fill="#FDFDFD"/>
<path d="M154.051 11.0156C154.051 11.064 154.07 11.1211 154.051 11.1622C152.625 13.9951 151.197 16.8237 149.768 19.6479C148.287 20.7132 146.739 21.6495 144.962 22.1463C144.953 21.9279 144.946 21.7067 144.937 21.4898C144.886 19.9104 144.368 18.3817 143.447 17.0976C142.526 15.8136 141.244 14.832 139.764 14.2777C138.285 13.7233 136.673 13.621 135.136 13.9839C133.598 14.3468 132.202 15.1584 131.126 16.3157C128.524 19.0999 128.061 23.66 131.047 27.1167C130.791 27.2779 130.553 27.4962 130.275 27.5914C128.055 28.3476 125.759 28.6172 123.423 28.5937C123.082 26.1027 122.728 23.6277 122.397 21.1425C122.135 19.1643 121.9 17.1861 121.653 15.2021C126.727 14.5329 131.801 13.8632 136.875 13.1931C141.104 12.6319 145.328 12.0531 149.557 11.5036C151.052 11.2999 152.554 11.1695 154.051 11.0156Z" fill="#FD0031"/>
<path d="M3.22756 86.7263C4.00418 89.975 6.21683 92.1481 8.81779 93.9548C11.199 95.615 13.6636 97.1712 16.5679 97.7647C20.1682 98.5047 23.4183 97.6943 26.3168 95.4363C26.9293 94.9586 27.577 94.5292 28.2085 94.0779L32.1649 97.3133C32.0184 97.4203 31.8411 97.5595 31.655 97.6914C29.7955 99.0102 28.1162 100.5 26.7051 102.317C25.1606 104.304 23.1678 105.667 20.5961 105.981C19.2085 106.152 18.0875 105.708 17.0295 104.713C15.5964 103.365 13.9948 102.193 12.424 101C9.74535 98.9648 7.00225 97.0042 4.35146 94.9439C3.61255 94.3455 2.97308 93.6338 2.45679 92.8353C1.18635 90.945 1.50286 88.0583 3.22756 86.7263Z" fill="#B1B1D3"/>
<path d="M32.6484 46.4034C35.223 44.8077 36.6268 42.4119 37.2935 39.4373C37.6511 39.7025 37.9398 39.9179 38.2299 40.1304C42.3914 43.1826 46.7581 45.8789 51.5834 47.7706C51.9542 47.9171 52.1168 48.0915 52.0934 48.5033C52.0553 49.2096 52.108 49.9202 52.0699 50.6265C52.0582 50.861 51.8882 51.0881 51.7901 51.3182C50.8054 51.9248 49.762 52.4538 48.8447 53.1484C45.1814 55.9164 40.2257 55.5925 37.0063 52.3248C35.2655 50.5664 33.9145 48.5165 32.6484 46.4034Z" fill="#FDFDFD"/>
<path d="M58.3564 77.514L55.5459 76.8092C56.3313 74.4309 57.0889 72.1289 57.8523 69.8269C58.2714 68.5638 58.1351 68.322 56.8266 68.0201C56.45 67.9337 56.0749 67.8413 55.6104 67.727L57.7996 61.8965C63.6404 62.8621 69.1647 64.7231 74.4677 67.2874C74.1918 69.6052 73.1483 71.7639 71.5034 73.4199C71.2555 73.7015 71.0246 73.9975 70.8117 74.3064C69.9413 74.0133 69.065 73.7334 68.2034 73.4169C67.7125 73.2367 67.4283 73.3525 67.2524 73.8565C66.9403 74.7445 66.5974 75.6237 66.2677 76.5058C63.7836 77.1104 61.2338 77.4033 58.6773 77.3777C58.5689 77.3748 58.4619 77.4656 58.3564 77.514ZM67.5103 67.2757C67.3154 67.1072 67.1543 66.8874 66.9403 66.8009C66.1534 66.4815 65.3416 66.2236 64.5518 65.9129C64.0595 65.7195 63.8192 65.9423 63.6594 66.3628C63.3664 67.1365 63.1055 67.9175 62.8154 68.6898C62.641 69.1543 62.7964 69.4342 63.2448 69.5953C64.0228 69.8723 64.7907 70.1815 65.5776 70.4232C65.7944 70.4892 66.2355 70.4511 66.2882 70.3339C66.722 69.3638 67.0868 68.3615 67.5103 67.2757ZM73.1123 69.3726C72.9658 69.2261 72.828 68.9535 72.6111 68.8627C71.8057 68.5154 70.979 68.2193 70.1362 67.9761C69.9179 67.9161 69.4577 68.1315 69.364 68.3381C69.0006 69.1337 68.7456 69.9778 68.4408 70.7998C68.2738 71.2526 68.4833 71.4973 68.8804 71.6439C69.657 71.9281 70.4278 72.2417 71.2249 72.4674C71.4594 72.5333 71.94 72.4161 72.0148 72.2505C72.4133 71.3654 72.7181 70.4364 73.1123 69.3726ZM61.8776 71.1193C61.8366 71.2262 61.7311 71.4724 61.6417 71.723C61.3398 72.5421 60.9999 73.351 60.7625 74.1892C60.7009 74.4134 60.909 74.8837 61.1127 74.9775C61.9025 75.3424 62.7392 75.6076 63.5642 75.8933C63.9701 76.0399 64.2661 75.9212 64.4199 75.4816C64.713 74.658 65.0412 73.8477 65.2991 73.014C65.3592 72.8205 65.2391 72.4058 65.094 72.3428C64.1635 71.9413 63.1979 71.6102 61.8776 71.1193Z" fill="#FBFBFC"/>
<path d="M144.96 22.1376C146.738 21.6408 148.285 20.7045 149.767 19.6392C149.529 20.2443 149.753 20.6854 150.183 21.1382C152.315 23.386 154.42 25.6587 156.533 27.9256C156.68 28.0824 156.819 28.2509 157.061 28.5293C155.862 28.6978 154.772 28.8605 153.68 29.0056C147.084 29.8848 140.487 30.7591 133.89 31.6285C130.894 32.0193 127.897 32.4144 124.9 32.814C123.952 32.937 123.952 32.9224 123.839 31.9934L123.421 28.585C125.757 28.6055 128.053 28.3388 130.273 27.5827C130.552 27.4875 130.789 27.2691 131.046 27.1079C131.122 27.1665 131.194 27.2291 131.264 27.2955C133.997 30.0796 138.218 30.5193 141.426 28.3315C143.603 26.8413 144.694 24.7224 144.96 22.1376Z" fill="#B00045"/>
<path d="M112.354 59.6443C109.184 60.9191 105.906 61.7323 102.483 61.8335C100.556 61.8921 99.3165 60.3549 99.6052 58.4632C99.9583 56.1553 99.9803 53.8488 99.2667 51.5878C99.1897 51.4254 99.0912 51.2741 98.9736 51.138C98.9561 50.968 98.9356 50.7995 98.9224 50.6295C98.9224 50.5592 98.9312 50.483 98.9429 50.3101C102.995 50.357 107.043 50.3101 111.095 49.5129C109.707 53.1719 110.293 56.5041 112.354 59.6443Z" fill="#FDFDFD"/>
<path d="M102.849 68.0903L106.168 67.3386C106.042 67.8427 105.944 68.2544 105.836 68.6647C103.345 78.1234 99.6243 87.0297 93.9315 95.0407C92.7475 96.7082 91.4316 98.2879 90.107 99.8499C88.8365 101.347 87.1455 101.576 85.4384 100.591C84.5299 100.07 83.6287 99.5348 82.6543 98.9634L84.9739 96.5397C87.5324 97.3632 90.0938 96.5075 91.5679 94.2553C95.9231 87.6244 99.3187 80.411 101.654 72.8292C102.118 71.2686 102.451 69.6699 102.849 68.0903Z" fill="#FBFBFD"/>
<path d="M102.849 68.0903C102.451 69.67 102.117 71.2686 101.643 72.8248C99.3077 80.4051 95.9122 87.617 91.5574 94.2465C90.092 96.4987 87.5277 97.3545 84.9634 96.531C86.3115 94.7418 87.6523 92.9467 89.0165 91.1693C89.1879 90.9746 89.4094 90.8307 89.6568 90.7531C90.4532 90.4942 91.1282 89.9545 91.556 89.2346C91.9839 88.5148 92.1354 87.664 91.9823 86.8407C91.9342 86.5379 91.9797 86.2275 92.1127 85.9512C94.9056 80.6467 97.0187 75.077 98.6452 69.3154C98.7814 68.8318 98.9822 68.612 99.5244 68.5622C100.638 68.4567 101.741 68.2559 102.849 68.0903Z" fill="#B1B1D3"/>
<path d="M29.7708 93.1298C30.6968 92.6037 31.5936 92.0176 32.5549 91.5604C35.2731 90.2651 38.1231 89.3507 41.0538 88.6664C43.1141 88.1843 43.9845 87.0399 44.0035 84.9152C44.0011 84.0383 44.0643 83.1625 44.1925 82.2951C44.2482 81.9508 44.5559 81.4628 44.8373 81.3925C45.1186 81.3222 45.5699 81.6387 45.8132 81.9083C47.217 83.463 48.5578 85.0764 49.9659 86.6267C50.807 87.5513 51.8474 87.6524 53.0519 87.3154C54.5685 86.8963 56.1291 86.6413 57.6794 86.3395C57.8406 86.3072 58.0311 86.4318 58.2084 86.486C55.6265 87.5117 53.4534 89.1236 51.5602 91.2293C48.9856 90.0423 47.6038 87.7022 45.907 85.4295C46.2455 87.4473 47.1349 89.0371 48.1768 90.6446C45.1427 91.1431 42.1924 92.0593 39.4097 93.3672C37.7084 94.1555 36.0526 95.0479 34.4056 95.9477C33.9528 96.1953 33.6304 96.2173 33.2333 95.9008C32.0889 94.9791 30.9284 94.053 29.7708 93.1298Z" fill="#B1B1D3"/>
<path d="M70.8086 74.3092C71.0215 74.0003 71.2524 73.7043 71.5002 73.4227C73.1463 71.7652 74.1899 69.6042 74.4646 67.2844L78.6422 69.374C76.4311 73.94 74.2712 78.4019 72.0951 82.8931C67.7255 80.6556 63.1566 79.0437 58.5189 77.6399C58.4559 77.6223 58.409 77.5535 58.3562 77.508C58.4617 77.4597 58.5687 77.3688 58.6742 77.3703C61.2307 77.3959 63.7805 77.103 66.2646 76.4984C66.4185 76.6772 66.5371 76.938 66.732 77.0201C67.5643 77.3615 68.4157 77.6575 69.2685 77.9491C69.7081 78.0956 69.9499 77.8714 70.0906 77.4655C70.347 76.7329 70.6547 76.0105 70.8687 75.2675C70.9507 74.9774 70.835 74.6301 70.8086 74.3092Z" fill="#B0B0D3"/>
<path d="M32.6483 46.4033C33.9143 48.5163 35.2654 50.5663 37.0062 52.3306C40.2299 55.5983 45.1886 55.9221 48.8446 53.1541C49.7619 52.4595 50.8052 51.9306 51.7899 51.3239C49.9239 53.914 48.3115 56.6776 46.9748 59.5766C46.6642 60.2624 46.3638 60.9541 46.0194 61.7336C39.1661 58.6652 33.8293 53.9893 30.1455 47.4393L32.6483 46.4033Z" fill="#B1B1D3"/>
<path d="M28.9044 39.0634L30.3199 39.1689C30.3345 39.1206 30.3506 39.0707 30.3653 39.0224C29.3908 38.4524 28.4017 37.9043 27.4463 37.3036C26.5818 36.7599 25.7055 36.2134 24.9333 35.554C24.5728 35.2448 24.2314 34.6499 24.2622 34.2103C24.3076 33.5655 24.948 33.1713 25.581 33.1376C26.6653 33.0805 27.7585 33.1508 28.8472 33.1831C29.0654 33.2069 29.2808 33.2515 29.4905 33.3164C33.1861 34.1707 33.8191 34.6059 35.6273 37.96C35.8515 38.3762 35.5775 39.0678 35.5101 39.6291C35.4669 39.8102 35.403 39.9857 35.3196 40.1522C35.1115 40.3061 34.8976 40.4452 34.6997 40.6152C33.9905 41.2014 33.3384 41.8813 32.5735 42.3868C30.8151 43.5503 28.2142 43.581 26.7606 42.5465C25.8902 41.9252 25.7685 40.9684 26.5642 40.2621C26.9848 39.8899 27.5606 39.6862 28.0735 39.4225C28.3402 39.2833 28.6259 39.1807 28.9044 39.0634Z" fill="#FCFCFD"/>
<path d="M114.18 59.086C113.031 58.0603 112.568 56.6799 112.219 55.2512C111.737 53.2496 111.939 51.3182 113.022 49.5364C113.252 49.1775 113.59 48.9014 113.988 48.7481C116.387 47.908 118.614 46.6411 120.562 45.0085L120.766 45.0979C120.653 45.3368 120.598 45.6445 120.415 45.8042C119.588 46.5252 118.87 47.3179 118.688 48.4418C118.609 48.9386 118.674 49.4573 118.674 49.9658C118.571 50.1123 118.401 50.2588 118.381 50.4259C118.184 51.7154 118.01 53.0092 117.844 54.3031C117.822 54.4643 117.913 54.6372 117.915 54.8043C117.915 55.2659 118.014 55.7714 117.865 56.1846C117.425 57.395 116.52 58.176 115.309 58.6156C114.924 58.7534 114.555 58.9321 114.18 59.086Z" fill="#FBFBFD"/>
<path d="M53.9556 76.3371L48.7493 75.0505C49.1259 73.6687 49.4013 72.2781 49.8834 70.9637C50.9898 67.9466 52.2031 64.9705 53.3592 61.971C53.5248 61.5314 53.7563 61.3687 54.2311 61.4523C54.8172 61.5563 55.4283 61.5885 56.1082 61.6618C55.3491 63.6825 54.6252 65.6182 53.8999 67.5466C53.4706 68.6881 53.6068 68.9592 54.7791 69.242L56.18 69.5819C55.4356 71.8415 54.7073 74.0541 53.9556 76.3371Z" fill="#FBFBFC"/>
<path d="M53.7847 50.1063V49.0293C53.8799 49.0454 53.9312 49.0293 53.9678 49.063C57.9653 52.3219 62.6338 54.0041 67.6599 54.7397C74.1923 55.6965 80.7013 55.6013 87.1356 53.9484C90.6978 53.0326 93.9802 51.5204 96.8581 49.1949C96.9475 49.1231 97.0442 49.063 97.2097 48.9473V50.1078C95.9041 50.9577 94.6513 51.9072 93.2827 52.637C87.625 55.657 81.4677 56.4937 75.1668 56.5333C73.2736 56.545 71.373 56.3398 69.4857 56.1332C65.6553 55.7127 61.9392 54.7924 58.4957 53.0253C56.8604 52.1915 55.3511 51.0866 53.7847 50.1063Z" fill="#AFAFD2"/>
<path d="M53.7844 50.1064C55.3508 51.0868 56.8616 52.1843 58.4983 53.0254C61.9389 54.7926 65.655 55.7128 69.4883 56.1333C71.3757 56.3399 73.2762 56.5451 75.1694 56.5334C81.4703 56.4938 87.6247 55.6542 93.2853 52.6371C94.6539 51.9044 95.9068 50.9578 97.2124 50.1079C97.3765 50.7614 97.0995 51.1893 96.5867 51.5967C93.5402 54.0057 90.0498 55.4695 86.3074 56.3253C78.2818 58.1628 70.284 58.0691 62.3712 55.6762C59.4816 54.797 56.8029 53.4869 54.4145 51.5937C53.9001 51.1878 53.6173 50.7614 53.7844 50.1064Z" fill="#F6F6FA"/>
<path d="M43.4585 32.8198C43.4429 29.6244 43.4302 26.428 43.4204 23.2307C43.4299 22.9382 43.4792 22.6483 43.5669 22.3691C43.7996 21.5496 44.2954 20.8294 44.9777 20.3194C45.6601 19.8094 46.4913 19.5379 47.3431 19.5468C45.8778 24.5861 45.6067 29.7016 46.3174 34.8786C45.8558 34.6354 45.3546 34.439 44.94 34.1357C44.4066 33.7459 43.945 33.2638 43.4585 32.8198Z" fill="#FBFBFC"/>
<path d="M104.688 34.8772C105.348 30.3007 105.144 25.6414 104.089 21.1397C103.966 20.6195 103.796 20.114 103.649 19.5953C105.408 19.3227 107.48 21.0034 107.541 23.0109C107.641 26.2772 107.549 29.5493 107.541 32.8199C107.361 32.9973 107.17 33.1641 106.97 33.3195C106.214 33.8471 105.449 34.3585 104.688 34.8772Z" fill="#FBFBFC"/>
<path d="M154.051 11.0157C152.554 11.1755 151.052 11.3088 149.557 11.5008C145.328 12.0503 141.103 12.6291 136.875 13.1903C131.802 13.8634 126.728 14.533 121.653 15.1993C121.598 14.9194 121.546 14.6395 121.48 14.301L154.699 9.90503C154.476 10.3197 154.321 10.6055 154.167 10.8912C154.126 10.9352 154.083 10.9776 154.042 11.0201L154.051 11.0157Z" fill="#F77893"/>
<path d="M77.6182 78.8503C77.7925 78.5132 77.9112 78.1279 78.153 77.8465C78.4974 77.445 78.9121 77.3571 79.444 77.6604C83.4487 79.9434 86.8776 82.9151 89.9269 86.3454C90.0925 86.5315 90.1585 86.8085 90.2698 87.0429C88.8485 87.4825 87.7597 87.0342 86.7662 85.9483C84.5348 83.5011 81.9743 81.3756 79.1582 79.6328C78.6703 79.3309 78.1325 79.1096 77.6182 78.8503Z" fill="#FBFBFC"/>
<path d="M48.9988 76.7842C51.3155 77.3952 53.5325 77.9432 55.7276 78.566C60.9603 80.0489 66.1168 81.7458 70.9993 84.1914C71.6704 84.5284 71.9708 84.9856 72.0411 85.7535C71.9194 85.7222 71.7995 85.684 71.6821 85.6392C64.795 82.3949 57.5461 80.2174 50.2282 78.2216C49.2713 77.9608 49.2699 77.9652 48.9988 76.7842Z" fill="#ACACD0"/>
<path d="M28.9045 39.0636C28.6261 39.1808 28.3403 39.2834 28.0707 39.4212C27.5579 39.6849 26.982 39.8886 26.5614 40.2608C25.7658 40.9671 25.8874 41.9239 26.7578 42.5452C28.2114 43.5797 30.8153 43.549 32.5708 42.3855C33.3357 41.88 33.9877 41.2132 34.697 40.6139C34.8948 40.4483 35.1087 40.3048 35.3168 40.1509C34.8537 42.8603 32.0652 45.5023 29.3089 45.8159C29.0706 45.8278 28.8339 45.7703 28.6276 45.6503C26.6904 44.5821 25.269 43.0127 24.2198 41.0814C24.0293 40.7311 24.4997 39.4519 24.8675 39.2702C24.9335 39.238 25.014 39.2351 25.0697 39.1882C26.3138 38.0525 27.6121 38.6372 28.9045 39.0636Z" fill="#B0B0D2"/>
<path d="M77.6178 78.8501C78.1321 79.1095 78.6699 79.3307 79.1578 79.6326C81.974 81.3755 84.5344 83.501 86.7658 85.9482C87.7593 87.034 88.8481 87.4882 90.2694 87.0428C90.4907 87.8839 90.1888 88.6414 89.4782 89.0341C88.7675 89.4269 88.0011 89.2774 87.3432 88.6576C85.7811 87.1923 84.266 85.6551 82.6204 84.285C81.3042 83.1972 79.8972 82.2241 78.4149 81.3763C77.5357 80.8737 77.3628 80.2686 77.483 79.4128C77.5108 79.2238 77.5723 79.0377 77.6178 78.8501Z" fill="#B0B0D2"/>
<path d="M114.179 59.0858C114.555 58.9275 114.924 58.7532 115.305 58.6154C116.515 58.1758 117.421 57.3948 117.86 56.1844C118.007 55.7712 117.912 55.2657 117.91 54.8041C117.91 54.6371 117.818 54.4641 117.84 54.3029C118.005 53.009 118.18 51.7152 118.376 50.4257C118.401 50.2601 118.571 50.118 118.669 49.9656C119.081 50.7056 119.2 51.4485 119.225 52.3379C119.269 53.8985 119.759 55.4474 120.063 57.0021C120.124 57.2276 120.166 57.458 120.187 57.6908C120.202 58.5275 120.187 59.3657 120.187 60.2434C118.233 61.1592 115.453 60.6493 114.179 59.0858Z" fill="#B0B0D2"/>
<path d="M123.051 44.4955L122.334 44.7402C122.155 43.414 121.978 42.1231 121.807 40.8321C120.842 33.5778 119.88 26.3224 118.918 19.0661C118.646 17.0146 118.379 14.9583 118.118 12.8971C118.054 12.4018 118.083 11.9505 118.729 11.8713C119.033 14.2159 119.329 16.5516 119.641 18.8903C120.208 23.1397 120.788 27.3731 121.354 31.6152C121.925 35.9096 122.491 40.203 123.051 44.4955Z" fill="#F4F4F8"/>
<path d="M123.051 44.4955C122.485 40.204 121.919 35.9116 121.354 31.6182C120.788 27.376 120.208 23.1354 119.641 18.8932C119.329 16.5487 119.033 14.2144 118.729 11.8743C119.355 11.7893 119.537 12.1762 119.608 12.6905C120.195 17.1344 120.781 21.5792 121.367 26.025C122.127 31.7515 122.889 37.477 123.653 43.2016C123.701 43.5621 123.735 43.9225 123.78 44.3416L123.051 44.4955Z" fill="#AFAFD2"/>
<path d="M104.689 34.8771C105.449 34.3584 106.214 33.8514 106.969 33.3195C107.169 33.1641 107.36 32.9972 107.54 32.8198C107.514 34.2515 107.672 35.7183 107.419 37.1103C107.02 39.3083 105.514 40.6022 103.364 41.1429C103.268 41.1644 103.17 41.1747 103.071 41.1737C103.027 41.1737 102.982 41.1429 103.081 41.181C103.622 39.0665 104.155 36.9711 104.689 34.8771Z" fill="#AFAFD2"/>
<path d="M43.4581 32.8198C43.9475 33.2594 44.4091 33.7459 44.9381 34.1386C45.3528 34.4463 45.8539 34.6383 46.3155 34.8815C46.8489 36.9755 47.3808 39.0709 47.9054 41.1312C46.1396 41.1707 43.949 39.3728 43.5929 37.1851C43.357 35.7593 43.4874 34.2764 43.4581 32.8198Z" fill="#AFAFD2"/>
<path d="M27.7678 30.0385C27.3111 28.3905 27.2004 26.6658 27.4425 24.9729C27.4987 24.54 27.6254 24.1193 27.8176 23.7274C27.948 23.4826 28.2807 23.1954 28.5136 23.2028C28.7041 23.2028 28.9532 23.5969 29.0514 23.8607C29.6962 25.6938 30.3057 27.5387 30.93 29.3791C31.0223 29.6546 31.1307 29.9228 31.2318 30.1953L27.7678 30.0385Z" fill="#F8F8FB"/>
<path d="M126.05 46.1836C126.569 46.4664 127.198 46.6452 127.583 47.054C128.452 47.9757 128.222 49.0718 127.126 49.6711C125.936 50.3202 124.67 50.6968 123.294 50.6353C122.981 48.7391 123.977 47.5669 125.476 46.6642C125.68 46.5192 125.872 46.3585 126.05 46.1836V46.1836Z" fill="#FBFBFC"/>
<path d="M23.7492 31.098C23.0591 29.4173 22.6766 27.6765 22.7455 25.8536C22.7583 25.5625 22.8217 25.2759 22.9331 25.0066C23.2159 24.3282 23.7815 24.2623 24.1727 24.8865C25.2183 26.5307 25.8702 28.3942 26.0777 30.3316L23.7492 31.098Z" fill="#F8F8FB"/>
<path d="M126.05 46.1836C125.872 46.3585 125.679 46.5192 125.476 46.6642C123.977 47.5669 122.985 48.7391 123.294 50.6353C122.788 50.6147 122.278 50.625 121.776 50.5664C120.369 50.4067 119.811 49.1714 120.634 47.9991C121.458 46.8269 122.652 46.1704 124.066 46.0283C124.715 45.9682 125.388 46.1308 126.05 46.1836Z" fill="#AFAFD2"/>
<path d="M123.865 52.3555C125.543 52.1416 127.151 51.7152 128.567 50.7437C129.275 51.9936 128.982 53.0735 127.786 53.6875C126.591 54.3015 125.36 54.6766 124.003 54.5169C123.958 53.7979 123.912 53.0774 123.865 52.3555Z" fill="#F8F8FB"/>
<path d="M44.8223 66.6821C45.086 65.7047 45.7571 65.249 46.7052 65.4483C47.7016 65.6578 48.6893 65.9026 49.7824 66.1561L48.9911 68.1636C48.8065 68.1035 48.6204 68.0493 48.4372 67.9833C47.2318 67.5515 46.0268 67.1178 44.8223 66.6821Z" fill="#F8F8FB"/>
<path d="M103.355 48.6116H99.0045C98.6411 47.646 99.1159 46.9719 99.7372 46.3169C100.296 45.7307 100.864 46.2466 101.427 46.2275C101.573 46.3828 101.732 46.5206 101.866 46.6935C102.365 47.3294 102.861 47.9713 103.355 48.6116Z" fill="#B0B0D2"/>
<path d="M124.296 56.2533C125.859 56.2138 127.39 55.804 128.763 55.0576C129.114 56.0335 128.878 56.7677 128.065 57.2175C127.082 57.7641 126.036 58.0308 124.903 57.83L124.296 56.2533Z" fill="#F6F6FA"/>
<path d="M125.449 62.4854L126.182 62.4268C126.378 63.8745 126.573 65.29 126.768 66.7055C126.872 67.4792 126.969 68.2529 127.073 69.0266C127.142 69.535 126.966 69.9322 126.443 70.0084C125.92 70.0846 125.643 69.7461 125.585 69.2332C125.55 68.9196 125.516 68.6056 125.483 68.291C126.032 67.8368 126.097 67.255 125.996 66.5853C125.786 65.2226 125.628 63.8525 125.449 62.4854Z" fill="#AFAFD2"/>
<path d="M44.8225 66.6821C46.027 67.1178 47.232 67.5521 48.4374 67.9848C48.6206 68.0508 48.8067 68.105 48.9913 68.1651C48.8639 68.6047 48.7349 69.0442 48.5767 69.5835C47.5641 69.2904 46.5721 69.075 45.6372 68.7043C44.8869 68.42 44.6144 67.5774 44.8225 66.6821Z" fill="#AFAFD2"/>
<path d="M123.865 52.3555C123.912 53.0765 123.958 53.7969 124.003 54.5169C123.124 54.2737 122.22 54.1066 121.387 53.7608C120.734 53.4897 120.728 52.8318 120.861 52.1973L123.865 52.3555Z" fill="#AFAFD2"/>
<path d="M103.355 48.6116C102.861 47.9713 102.37 47.3295 101.869 46.6935C101.739 46.5265 101.576 46.3829 101.43 46.2275C103.291 46.5631 105.012 47.224 106.539 48.3391C106.539 48.4299 106.526 48.5208 106.519 48.6116H103.355Z" fill="#F6F6FA"/>
<path d="M27.7678 30.0386L31.2319 30.1954L32.1301 32.0212C30.8113 31.712 29.5379 31.4658 28.3056 31.0775C28.0433 30.9954 27.9437 30.3976 27.7678 30.0386Z" fill="#ACACD0"/>
<path d="M22.4701 32.5413C22.5375 32.7493 22.7177 33.0028 22.6547 33.1582C22.0056 34.7539 22.7119 35.8793 23.8797 36.8567C24.1347 37.0691 24.4058 37.2611 24.715 37.4955C24.035 37.9219 23.4196 37.7784 23.0562 37.2508C22.4437 36.3716 21.9704 35.384 21.4443 34.4433C21.5557 34.2117 21.6568 33.9744 21.7799 33.7502C21.9982 33.3443 22.2371 32.9442 22.4701 32.5413Z" fill="#ACACD0"/>
<path d="M73.8461 85.3783C73.3728 84.631 73.3553 84.0932 73.6894 83.4529C74.3898 82.1062 75.0081 80.7127 75.7291 79.1799C76.2214 81.6842 74.4572 83.2565 73.8461 85.3783Z" fill="#ACACD0"/>
<path d="M124.742 59.5285L128.423 59.1548C128.472 59.7966 128.052 60.3373 127.344 60.5043C126.554 60.6904 125.719 60.6802 124.904 60.7564L124.742 59.5285Z" fill="#F8F8FB"/>
<path d="M125.449 62.4854C125.628 63.8525 125.786 65.2226 125.991 66.5883C126.093 67.2579 126.028 67.8397 125.479 68.2939C125.207 66.3699 124.938 64.4445 124.656 62.4473L125.449 62.4854Z" fill="#F4F4F8"/>
<path d="M126.396 44.4105C125.682 44.5146 125.388 44.2318 125.344 43.5592C125.288 42.743 125.155 41.9326 125.051 41.1135C126.384 41.1179 126.869 42.3547 126.396 44.4105Z" fill="#F4F4F8"/>
<path d="M77.2209 76.179C77.936 74.6741 78.6526 73.1692 79.4072 71.5837C79.8585 72.6271 79.8468 72.6241 79.0599 74.3078C78.6687 75.1386 78.3903 76.0515 77.3455 76.3197L77.2209 76.179Z" fill="#ACACD0"/>
<path d="M124.742 59.5284L124.904 60.7563C124.172 60.623 123.414 60.5746 122.722 60.3314C121.99 60.0764 121.666 59.4522 121.764 58.6741L124.742 59.5284Z" fill="#AFAFD2"/>
<path d="M124.296 56.2533L124.903 57.83C123.455 57.6 122.118 57.1736 121.266 55.7434L124.296 56.2533Z" fill="#ACACD0"/>
<path d="M20.8392 39.3112C19.8135 38.4774 19.349 36.5813 19.8706 35.1995C20.2648 35.9819 20.6428 36.7351 21.0209 37.4883L20.8392 39.3112Z" fill="#F4F4F8"/>
<path d="M20.8391 39.3112C20.8997 38.7036 20.9602 38.0959 21.0208 37.4883L22.5272 39.6291C22.5037 39.9574 21.6582 39.9779 20.8391 39.3112Z" fill="#ACACD0"/>
<path d="M22.4703 32.5414C22.2373 32.9443 21.9985 33.3444 21.7728 33.7503C21.6497 33.9745 21.5486 34.2118 21.4372 34.4434C20.9009 33.1041 21.0914 32.1369 22.0776 31.4746C22.2109 31.8395 22.3413 32.1912 22.4703 32.5414Z" fill="#F4F4F8"/>
<path d="M23.7493 31.0982L26.0777 30.3318C26.1392 30.5384 26.1993 30.7465 26.2623 30.9575L23.9603 31.6345C23.9017 31.4835 23.8225 31.2916 23.7493 31.0982Z" fill="#AFAFD2"/>
<path d="M77.3455 76.3196L77.1345 76.409C77.1624 76.3328 77.1917 76.2625 77.221 76.179L77.3455 76.3196Z" fill="#ACACD0"/>
<path d="M154.042 11.0147C154.083 10.9725 154.125 10.9303 154.166 10.8867C154.125 10.9289 154.09 10.9711 154.042 11.0147Z" fill="#FD0031"/>
<path d="M99.8235 27.1226C100.068 28.3124 100.418 29.4906 100.54 30.6921C101.145 36.7088 98.6351 41.3554 94.0134 44.9733C90.9128 47.4057 87.2729 48.6688 83.425 49.3121C76.9482 50.3979 70.4978 50.3232 64.1485 48.4856C62.6612 48.0548 61.253 47.353 59.8082 46.7771L59.5342 46.7258H59.5723C58.0117 45.533 56.2841 44.5044 54.9213 43.1167C51.7841 39.9252 50.0667 36.0626 50.3788 31.4893C50.8682 24.3648 54.7514 19.686 61.1197 16.8902C65.3574 15.0307 69.8413 14.2951 74.4454 14.1969C79.621 14.087 84.6749 14.7274 89.4914 16.7261C93.6266 18.4434 97.0071 21.0429 99.0161 25.1708C99.3238 25.7979 99.5568 26.4691 99.8235 27.1226ZM95.7323 23.1515L95.5975 23.0475L95.6326 23.2395L95.8729 23.3025C95.8729 23.3406 95.8729 23.3772 95.8729 23.4138H95.936L95.8598 23.323C95.8187 23.2629 95.7704 23.2072 95.7323 23.1515V23.1515ZM95.4231 23.0285L95.5022 22.9142C95.461 22.8268 95.412 22.7435 95.3557 22.6651C95.2131 22.498 95.0641 22.3368 94.9088 22.1815C92.828 20.1037 90.3311 18.7013 87.5821 17.7533C81.4717 15.6505 75.2147 15.3487 68.8728 16.3656C65.0775 16.9752 61.4934 18.1606 58.2696 20.3425C52.9519 23.9414 51.1672 30.4533 52.335 35.2728C52.3937 35.4585 52.4621 35.6409 52.5402 35.8193C52.6281 34.7833 52.6618 33.8792 52.7863 32.9868C53.2259 29.8027 54.5008 27.0068 56.731 24.6623C57.2322 24.1348 57.7568 23.9589 58.4997 24.1231C59.2382 24.2816 59.9961 24.331 60.749 24.2696C62.8664 24.1025 64.8519 23.4432 66.7304 22.4541C68.2309 21.6642 69.7021 20.7806 70.574 19.2757C71.0737 18.4156 71.7243 18.1137 72.6357 18.0375C76.2243 17.7445 79.8041 17.7533 83.3649 18.3306C87.5748 19.0164 91.5707 20.2678 95.0655 22.8365C95.1788 22.9117 95.2985 22.9769 95.4231 23.0314V23.0285Z" fill="#010172"/>
<path d="M59.5347 46.7258L59.8087 46.7771L59.5347 46.7258Z" fill="#FDFDFD"/>
<path d="M144.96 22.1374C144.694 24.7223 143.603 26.847 141.426 28.3314C138.218 30.5162 133.997 30.0737 131.264 27.2954C131.194 27.229 131.122 27.1664 131.046 27.1078C128.059 23.6511 128.522 19.0954 131.125 16.3069C132.201 15.1495 133.596 14.3379 135.134 13.9751C136.672 13.6122 138.283 13.7144 139.763 14.2688C141.243 14.8232 142.524 15.8047 143.445 17.0888C144.366 18.3729 144.885 19.9016 144.935 21.481C144.944 21.6993 144.951 21.9191 144.96 22.1374ZM136.946 28.6113C137.851 28.6137 138.747 28.4379 139.583 28.094C140.42 27.7502 141.18 27.2449 141.822 26.6071C142.463 25.9692 142.972 25.2114 143.321 24.3767C143.669 23.5421 143.849 22.6469 143.852 21.7425C143.854 20.8381 143.678 19.9421 143.335 19.1056C142.991 18.2691 142.485 17.5085 141.848 16.8673C141.21 16.2261 140.452 15.7167 139.617 15.3684C138.783 15.0201 137.887 14.8396 136.983 14.8372C133.207 14.8372 130.074 17.9495 130.07 21.7242C130.07 23.549 130.794 25.2992 132.083 26.5905C133.373 27.8818 135.122 28.6085 136.946 28.6113Z" fill="#09046F"/>
<path d="M70.8086 74.3091C70.835 74.63 70.9552 74.9773 70.8687 75.2689C70.6548 76.0162 70.3471 76.7343 70.0906 77.4669C69.9441 77.8728 69.7067 78.1014 69.2686 77.9505C68.4158 77.6574 67.5644 77.3643 66.7321 77.0215C66.5372 76.9423 66.4185 76.6786 66.2646 76.4998C66.5943 75.6206 66.9372 74.7414 67.2493 73.8505C67.4252 73.3508 67.7095 73.2351 68.2003 73.4109C69.062 73.7318 69.9382 74.0146 70.8086 74.3091Z" fill="#040373"/>
<path d="M67.5099 67.2755C67.0864 68.3613 66.7216 69.3636 66.2878 70.3337C66.2351 70.4509 65.794 70.489 65.5771 70.423C64.7902 70.1783 64.0224 69.8721 63.2443 69.5951C62.7959 69.4339 62.6406 69.1555 62.815 68.6896C63.108 67.9173 63.3733 67.1363 63.659 66.3626C63.8143 65.9421 64.059 65.7193 64.5514 65.9127C65.3412 66.2234 66.153 66.4813 66.9399 66.8007C67.1538 66.8872 67.315 67.107 67.5099 67.2755Z" fill="#050574"/>
<path d="M73.1119 69.3725C72.7178 70.4363 72.413 71.3653 72.0144 72.2504C71.9397 72.416 71.459 72.5333 71.2246 72.4673C70.4289 72.2416 69.6582 71.9281 68.8801 71.6438C68.4815 71.4972 68.2719 71.2525 68.4405 70.7997C68.7452 69.9777 69.0002 69.1337 69.3636 68.338C69.4574 68.1314 69.9175 67.916 70.1358 67.9761C70.9787 68.2192 71.8053 68.5153 72.6108 68.8626C72.8277 68.9534 72.9698 69.2231 73.1119 69.3725Z" fill="#050574"/>
<path d="M61.8771 71.1191C63.1959 71.61 64.163 71.9412 65.1009 72.3427C65.2474 72.4057 65.3661 72.8204 65.306 73.0138C65.0525 73.8476 64.7199 74.6579 64.4268 75.4814C64.2729 75.921 63.9769 76.0339 63.5711 75.8932C62.7461 75.6075 61.9094 75.3422 61.1196 74.9774C60.9144 74.8836 60.7078 74.4132 60.7693 74.189C60.9994 73.3509 61.3394 72.542 61.6485 71.7229C61.7321 71.4723 61.8361 71.2261 61.8771 71.1191Z" fill="#050574"/>
<path d="M95.4233 23.0313C95.2987 22.9816 95.1785 22.9214 95.0643 22.8511C91.5753 20.2824 87.5735 19.031 83.3636 18.3452C79.8028 17.7591 76.223 17.7474 72.6344 18.0522C71.723 18.1284 71.0724 18.4302 70.5727 19.2904C69.7008 20.7952 68.2282 21.6788 66.7291 22.4687C64.855 23.4578 62.8651 24.1172 60.7477 24.2842C59.9948 24.3456 59.237 24.2962 58.4984 24.1377C57.7555 23.9736 57.2309 24.1494 56.7297 24.6769C54.4995 27.0214 53.2261 29.8173 52.7851 33.0015C52.6605 33.8938 52.6268 34.798 52.5389 35.8339C52.4608 35.6555 52.3924 35.4731 52.3337 35.2874C51.1615 30.4664 52.9506 23.956 58.2683 20.3571C61.4921 18.1752 65.0763 16.9869 68.8715 16.3802C75.2134 15.3633 81.4733 15.6651 87.5808 17.7679C90.3356 18.7159 92.8326 20.1124 94.9075 22.1961C95.0628 22.3514 95.2118 22.5126 95.3544 22.6797C95.4107 22.7581 95.4597 22.8415 95.5009 22.9288L95.4233 23.0313Z" fill="#7E7EB7"/>
<path d="M95.8625 23.3243L95.9382 23.4145H95.8756C95.8756 23.3781 95.8756 23.3418 95.8756 23.304L95.8625 23.3243Z" fill="#7E7EB7"/>
<path d="M95.8731 23.3025L95.6328 23.2395C95.6697 23.2146 95.7032 23.1851 95.7325 23.1516L95.8629 23.3172L95.8731 23.3025Z" fill="#7E7EB7"/>
<path d="M95.6326 23.2393L95.5974 23.0474L95.7322 23.1514C95.7029 23.1849 95.6694 23.2144 95.6326 23.2393V23.2393Z" fill="#7E7EB7"/>
<path d="M136.946 28.6113C135.121 28.6086 133.372 27.8818 132.083 26.5905C130.793 25.2992 130.069 23.549 130.069 21.7242C130.069 17.9539 133.206 14.8372 136.983 14.8372C137.887 14.8396 138.782 15.0201 139.617 15.3684C140.451 15.7167 141.209 16.2261 141.847 16.8673C142.485 17.5085 142.99 18.2691 143.334 19.1056C143.678 19.9421 143.854 20.8381 143.851 21.7425C143.849 22.647 143.668 23.5421 143.32 24.3767C142.972 25.2114 142.462 25.9692 141.821 26.6071C141.18 27.2449 140.419 27.7502 139.583 28.094C138.746 28.4379 137.85 28.6137 136.946 28.6113V28.6113ZM136.2 25.1018L136.219 25.0681C136.22 25.0832 136.22 25.0984 136.219 25.1135L136.018 25.2073C135.541 25.9737 135.652 26.7415 136.311 27.2588C136.612 27.4913 136.985 27.609 137.364 27.5908C137.744 27.5725 138.104 27.4194 138.38 27.1591C138.936 26.6316 139.002 25.9077 138.527 25.2776C138.546 25.4564 138.572 25.5956 138.575 25.7363C138.593 26.5642 138.027 27.1738 137.257 27.1635C136.486 27.1533 135.963 26.5349 136.002 25.6982C136.002 25.5311 136.002 25.3641 136.002 25.1985L136.2 25.1018ZM136.401 19.2845C136.118 17.8191 134.836 16.9223 133.42 17.2154C133.06 17.2854 132.719 17.4284 132.416 17.6356C132.114 17.8429 131.857 18.1099 131.662 18.4203C131.467 18.7307 131.337 19.0778 131.282 19.4401C131.226 19.8025 131.245 20.1724 131.338 20.527C131.631 21.7535 132.899 22.5932 134.012 22.3045C132.507 21.7096 131.885 20.9725 131.933 19.8398C131.953 19.3864 132.114 18.9506 132.394 18.5934C132.675 18.2363 133.059 17.9758 133.495 17.8484C134.566 17.5114 135.401 17.9246 136.393 19.2845H136.401ZM142.048 22.1565C142.686 21.6847 142.766 21.185 142.579 20.6618C142.368 20.0757 141.886 19.7827 141.26 19.8457C140.634 19.9087 140.28 20.3351 140.234 21.0472C140.775 20.2237 141.308 19.9863 141.88 20.3146C142.403 20.6252 142.489 21.1894 142.041 22.1521L142.048 22.1565Z" fill="#FBCD09"/>
<path d="M136.394 19.2846C135.402 17.9248 134.567 17.5116 133.488 17.8486C133.052 17.976 132.668 18.2365 132.388 18.5936C132.107 18.9507 131.946 19.3865 131.926 19.84C131.878 20.9727 132.5 21.7098 134.005 22.3047C132.892 22.5977 131.629 21.7537 131.331 20.5272C131.238 20.1726 131.219 19.8026 131.275 19.4403C131.331 19.0779 131.46 18.7308 131.655 18.4205C131.85 18.1101 132.107 17.8431 132.409 17.6358C132.712 17.4286 133.054 17.2856 133.413 17.2156C134.829 16.9225 136.111 17.812 136.394 19.2846Z" fill="#13106B"/>
<path d="M135.991 25.1914C135.991 25.3585 135.991 25.5255 135.991 25.6926C135.951 26.5337 136.476 27.1506 137.245 27.1579C138.015 27.1652 138.579 26.5586 138.564 25.7307C138.564 25.5841 138.535 25.4508 138.516 25.272C138.998 25.9021 138.932 26.626 138.369 27.1535C138.093 27.4138 137.732 27.5669 137.353 27.5851C136.974 27.6034 136.6 27.4857 136.3 27.2531C135.639 26.7373 135.528 25.9695 136.007 25.2017L135.991 25.1914Z" fill="#13106B"/>
<path d="M142.041 22.1523C142.489 21.1851 142.403 20.621 141.862 20.3103C141.291 19.9821 140.757 20.2195 140.217 21.043C140.268 20.3309 140.62 19.8986 141.242 19.8414C141.865 19.7843 142.354 20.0686 142.561 20.6576C142.759 21.1851 142.678 21.6848 142.041 22.1523Z" fill="#13106B"/>
<path d="M136.214 25.1152V25.0684C136.214 25.0684 136.195 25.1021 136.193 25.1021C136.2 25.1057 136.207 25.1102 136.214 25.1152V25.1152Z" fill="#13106B"/>
<path d="M136.004 25.2073L136.206 25.115C136.202 25.1102 136.197 25.1058 136.191 25.1018C136.126 25.1326 136.06 25.1633 135.991 25.1927L136.004 25.2073Z" fill="#13106B"/>
</svg>
