<svg width="584" height="924" viewBox="0 0 584 924" fill="none" xmlns="http://www.w3.org/2000/svg">
<path d="M45.1173 895.886C40.3773 873.586 45.6772 860.116 64.7872 847.176C69.8952 843.737 75.3078 840.775 80.9572 838.326C84.6572 836.716 85.6771 834.686 84.6871 830.926C72.2971 830.256 59.8272 830.046 47.4572 828.776C34.0572 827.406 20.7272 825.216 7.45716 823.026C0.457163 821.876 -0.922837 818.516 2.45716 812.516C28.2672 767.516 49.4572 720.276 67.7172 671.746C68.3472 670.056 68.5373 667.136 67.5573 666.076C54.4773 652.076 51.8272 635.306 54.4872 617.216C54.9772 613.876 54.1373 612.356 51.6273 610.266C42.3173 602.506 32.4172 595.146 24.4472 586.116C2.65715 561.426 -0.972847 533.436 12.4472 503.396C21.4472 483.276 35.5073 466.836 51.3673 451.886C81.3673 423.626 115.427 401.486 152.637 384.026L159.407 380.816C157.872 380.105 156.4 379.266 155.007 378.306C131.428 358.278 112.51 333.339 99.577 305.236C98.237 302.326 96.7673 301.146 93.3373 301.086C66.3373 300.616 45.8673 280.946 43.8173 253.916C42.8173 240.626 41.6873 227.346 40.8173 214.036C39.0673 185.976 55.9173 164.506 83.5773 159.736C87.1073 159.126 87.5773 157.036 88.3773 154.456C114.107 75.5356 166.977 24.9556 247.727 5.60563C345.027 -17.7144 447.937 33.6056 489.367 124.606C490.747 127.606 492.217 128.986 495.897 129.016C508.36 129.105 520.334 133.874 529.445 142.378C538.556 150.882 544.14 162.499 545.087 174.926C546.227 189.046 547.207 203.166 548.267 217.286C550.157 242.466 532.927 265.286 508.157 269.906C503.847 270.706 502.207 272.516 501.057 276.496C489.557 316.406 466.617 348.956 436.137 376.586C434.537 378.046 432.867 379.426 431.247 380.856C431.034 381.172 430.85 381.506 430.697 381.856C432.697 382.856 434.647 383.856 436.647 384.806C474.127 402.526 508.387 425.016 538.327 453.806C552.827 467.726 565.637 483.026 574.327 501.376C589.247 532.926 585.327 562.066 561.827 587.846C554.157 596.266 544.777 603.166 535.907 610.426C533.497 612.426 533.057 614.046 533.127 617.026C533.337 625.626 534.057 634.466 532.427 642.796C529.067 659.956 517.847 671.156 501.927 677.796C499.787 678.686 497.587 679.436 494.927 680.456C498.037 688.456 501.017 696.316 504.177 704.116C519.477 741.796 536.597 778.606 556.657 814.016C560.467 820.736 559.217 823.806 551.487 825.016C535.887 827.506 520.227 829.596 504.067 831.936C503.157 834.546 503.947 836.396 507.407 838.096C514.097 841.386 520.847 844.856 526.827 849.256C544.337 862.146 548.877 876.086 543.167 896.776C537.317 907.926 527.527 913.966 515.777 916.696C488.127 923.096 459.937 924.986 431.947 921.176C405.027 917.516 381.067 907.696 372.607 877.796C367.447 856.516 362.297 835.226 357.087 813.676C337.817 824.526 316.957 831.986 294.537 834.626C271.957 837.286 250.187 833.406 229.197 825.806L216.197 877.746C211.657 893.506 202.497 905.576 187.197 912.006C178.657 915.596 169.767 919.146 160.697 920.556C132.277 924.946 103.867 922.936 75.7572 917.426C62.6072 914.886 51.4673 908.606 45.1173 895.886ZM173.027 377.886L173.597 378.756L173.927 378.466L172.927 377.946L171.927 377.196L171.677 377.576L173.027 377.886ZM273.727 445.656L266.577 446.546L265.577 447.456C275.947 453.386 279.247 461.776 274.327 473.006L275.737 473.126L281.137 470.126C289.137 463.396 295.707 469.856 303.207 473.026C302.951 470.715 302.547 468.424 301.997 466.166C300.077 460.066 301.277 455.056 306.567 451.166C307.176 450.603 307.713 449.968 308.167 449.276L312.077 447.386C305.797 445.086 300.137 445.146 296.417 442.496C292.697 439.846 290.997 434.496 288.187 429.996L286.597 433.806C283.937 439.496 281.577 445.546 273.757 445.626L273.727 445.656ZM357.987 420.536C352.737 421.876 347.437 423.066 342.247 424.606C339.997 425.276 337.977 426.676 335.847 427.746C331.047 431.266 326.157 434.746 321.497 438.396C321.027 438.879 320.68 439.469 320.485 440.114C320.29 440.76 320.253 441.443 320.377 442.106C321.667 445.926 320.687 448.886 317.947 451.596C315.437 454.076 313.047 456.666 310.077 459.756C311.742 459.857 313.412 459.857 315.077 459.756C332.387 457.196 348.817 451.916 363.077 441.636C370.637 436.186 377.077 429.226 384.077 422.946C389.819 417.387 394.672 410.979 398.467 403.946L363.937 418.756L357.987 420.536ZM245.027 430.886C239.835 424.824 232.979 420.418 225.307 418.216C208.477 413.146 192.907 405.116 178.137 395.596C176.687 394.656 175.137 393.796 173.697 392.896C178.071 404.097 184.717 414.27 193.217 422.776C193.795 423.757 194.447 424.693 195.167 425.576C210.534 441.926 230.53 453.189 252.477 457.856C256.907 458.856 261.427 459.436 265.897 460.206L266.517 458.956C263.817 456.356 260.337 454.166 258.647 451.016C256.957 447.866 257.207 443.926 256.597 440.326L258.127 439.716L245.027 430.886ZM496.027 732.546C496.367 736.856 496.637 741.176 497.027 745.476C498.207 757.886 499.437 770.306 500.637 782.716C501.35 792.776 502.054 802.839 502.747 812.906C502.847 815.146 502.947 817.396 503.107 820.906L540.767 815.906L543.367 815.486L493.027 708.726C494.027 716.356 495.027 724.436 496.087 732.516L496.027 732.546ZM171.027 577.886C172.347 575.886 173.427 573.666 175.027 571.936C180.837 565.696 186.817 559.626 193.297 552.936C186.757 553.316 181.297 553.876 175.837 553.936C160.837 553.936 145.917 553.836 130.967 553.666C120.877 553.546 113.047 558.996 110.807 567.926C106.697 579.926 114.417 592.766 127.287 593.766C143.847 595.056 160.497 595.236 177.117 595.816C178.833 595.734 180.54 595.506 182.217 595.136L171.027 577.886ZM479.537 567.886C476.867 558.696 469.357 553.646 459.267 553.606C439.157 553.536 419.047 553.176 398.927 552.946C398.391 552.973 397.857 553.03 397.327 553.116L396.197 554.756C401.027 559.056 406.037 563.176 410.627 567.756C413.627 570.756 416.057 574.346 418.727 577.686L407.727 595.006C408.204 595.238 408.713 595.396 409.237 595.476C427.637 594.896 446.117 595.056 464.437 593.416C476.527 592.306 483.357 579.266 479.557 567.886H479.537ZM84.1173 259.886C84.0924 258.881 84.0055 257.879 83.8573 256.886C79.095 232.668 78.4897 207.816 82.0673 183.396C82.6573 179.226 83.3973 175.086 84.0673 170.736C66.4273 173.806 52.3572 188.256 51.9872 205.386C51.6872 219.116 53.6473 232.886 54.5973 246.636C52.8473 270.096 73.5972 293.476 92.4972 289.386C89.7372 279.566 86.9507 269.732 84.1373 259.886H84.1173ZM509.027 228.886C508.027 238.886 506.977 248.886 505.947 258.886C527.197 256.206 541.017 234.146 536.507 210.676C535.367 196.776 535.377 182.676 532.807 169.046C529.557 151.896 512.267 139.216 495.987 140.196C506.717 168.886 510.627 198.486 509.027 228.886ZM20.2172 814.146C39.6172 815.986 59.0071 817.986 78.4271 819.566C86.2071 820.206 86.2472 819.796 85.9772 811.916C86.2772 809.786 86.6873 807.666 86.8673 805.536C88.5073 785.816 90.0472 766.096 91.7372 746.376C92.8372 733.476 94.1273 720.596 95.3273 707.706L99.327 682.156L87.5072 678.876L78.5072 674.346C60.3572 722.456 39.6172 768.736 14.5072 813.626L20.2172 814.146ZM478.807 130.086L479.597 131.086L479.487 129.486C478.197 127.556 477.057 125.486 475.607 123.716C460.377 104.866 441.427 90.7157 419.827 80.0157C387.237 63.8557 352.437 56.3957 316.347 54.5157C271.087 52.1457 226.887 57.2656 184.717 74.8556C154.147 87.5956 128.007 106.226 108.717 133.576C107.207 135.696 106.057 138.076 104.717 140.336C109.997 135.436 114.237 129.876 119.037 124.846C141.617 101.146 169.767 86.8456 200.777 77.9756C253.027 62.9756 306.197 61.0956 359.627 69.4556C405.787 76.6056 447.587 93.2157 478.847 130.066L478.807 130.086ZM397.027 747.546C425.337 737.306 454.637 733.136 485.367 733.756C481.697 707.756 478.127 682.416 474.507 656.696C473.771 656.971 473.059 657.306 472.377 657.696C449.319 677.124 424.401 694.234 397.987 708.776C384.437 714.646 370.857 720.476 357.347 726.456C356.347 726.916 354.887 728.546 355.027 729.406C357.027 741.286 359.237 753.126 361.337 764.576L397.027 747.546ZM191.297 707.596C190.817 707.144 190.299 706.736 189.747 706.376C164.137 692.286 140.447 675.426 118.017 656.736C117.207 656.056 116.257 655.556 114.587 654.456C110.857 681.176 107.237 707.176 103.587 733.316C104.446 733.543 105.323 733.701 106.207 733.786C135.398 733.067 164.476 737.654 192.027 747.326L227.527 764.326C229.657 752.956 231.877 741.546 233.817 730.096C234.047 728.776 233.177 726.346 232.157 725.876C218.597 719.666 204.927 713.666 191.277 707.596H191.297ZM215.097 546.596C208.944 552.989 202.801 559.386 196.667 565.786C192.347 569.786 188.037 573.876 183.807 577.786C184.947 579.496 185.357 580.216 185.867 580.876C213.347 616.346 248.767 640.316 291.527 653.546C294.071 654.185 296.744 654.092 299.237 653.276C329.199 644.33 356.702 628.611 379.617 607.336C389.077 598.576 397.457 588.656 406.307 579.336L392.177 564.886L374.837 546.676C370.717 540.366 365.297 538.086 357.387 538.166C315.62 538.632 273.844 538.632 232.057 538.166C224.277 538.036 219.107 540.496 215.077 546.596H215.097ZM522.787 623.786C522.637 621.786 522.497 619.786 522.367 618.016L498.237 623.676C508.237 615.746 518.527 609.046 528.707 602.216C539.707 594.978 549.551 586.122 557.907 575.946C560.217 573.096 561.037 570.216 559.057 567.336C554.977 561.336 551.417 554.556 545.997 550.086C527.177 534.556 505.267 529.606 481.407 534.656C474.677 536.086 468.267 538.996 461.717 541.226L462.217 542.596C476.777 544.206 487.427 552.896 490.787 565.916C494.147 578.936 489.227 591.426 477.237 600.246C476.237 600.946 475.237 602.616 475.387 603.596C478.437 619.426 481.677 635.206 484.877 650.996C485.864 657.502 486.864 664.012 487.877 670.526C511.957 666.156 526.527 646.376 522.767 623.786H522.787ZM65.0873 624.886C60.4273 645.666 78.7573 669.116 101.087 670.506C102.087 664.032 103.087 657.532 104.087 651.006C107.157 635.856 110.087 620.686 113.397 605.576C114.077 602.406 113.687 600.666 110.907 598.576C107.565 596.072 104.763 592.919 102.669 589.306C100.575 585.693 99.233 581.694 98.723 577.549C98.2131 573.404 98.5455 569.199 99.7011 565.186C100.857 561.173 102.811 557.435 105.447 554.196C110.807 547.616 117.867 544.036 126.447 542.606C126.005 542.157 125.527 541.746 125.017 541.376C98.6675 526.456 59.4573 531.546 38.3073 553.126C34.1173 557.396 31.2171 563.126 28.4171 568.476C27.5671 570.116 28.2973 573.476 29.5573 575.136C33.2273 579.856 36.9671 584.816 41.6871 588.336C56.1971 599.166 71.1672 609.336 85.9872 619.796C87.3472 620.796 88.8472 621.536 90.2772 622.396L89.6473 623.836L65.0172 617.886L65.0873 624.886ZM449.377 84.5557L450.757 85.6256L450.167 83.7857C449.167 82.4757 448.247 81.0756 447.167 79.8756C395.517 24.5456 332.247 2.11565 257.587 14.8756C207.157 23.4956 166.227 49.1957 134.397 89.2957L133.397 90.6957L135.347 90.2056C148.097 82.7256 160.397 74.3056 173.687 67.9656C207.387 51.8756 243.467 44.9656 280.557 43.4956C340.667 41.0156 398.027 50.4957 449.377 84.5257V84.5557ZM354.907 795.976L344.087 730.526C310.747 740.266 278.277 740.056 245.617 730.186C244.947 732.716 244.377 734.426 244.047 736.186C242.487 744.516 240.867 752.836 239.497 761.186C236.927 776.756 234.497 792.346 232.037 807.926C230.037 814.566 230.037 814.506 236.357 816.786C276.837 831.306 314.967 824.546 351.717 804.306C355.577 802.146 356.627 799.796 354.907 795.946V795.976ZM395.027 757.886C384.927 763.206 374.767 768.426 364.797 773.976C363.797 774.526 363.377 777.136 363.617 778.656C365.307 789.656 366.757 800.756 369.177 811.656C374.237 834.356 379.667 856.976 385.307 879.536C387.857 889.716 395.147 896.246 404.147 901.056C414.567 906.616 425.727 910.646 437.417 910.796C456.997 911.046 476.657 910.556 496.177 909.006C505.407 908.266 514.817 905.346 523.367 901.606C533.527 897.176 537.067 886.236 533.517 875.926C532.197 868.926 527.607 863.996 522.317 859.926C510.317 850.686 497.407 844.076 481.517 843.506C460.237 842.736 439.237 842.506 419.007 850.426C418.767 850.516 418.327 850.096 417.277 849.546C440.417 833.366 465.937 831.266 492.977 833.546C490.607 802.846 488.277 772.546 485.927 742.106C467.247 741.536 449.457 742.576 432.077 746.656C419.517 749.576 407.347 754.066 395.027 757.886ZM193.607 757.396C191.947 756.646 190.327 755.786 188.607 755.156C169.964 748.303 150.429 744.177 130.607 742.906C121.607 742.336 112.437 742.806 102.807 742.806C100.494 772.806 98.1807 802.946 95.8673 833.226C132.967 832.286 161.707 839.036 169.327 850.286C169.007 850.346 168.647 850.556 168.397 850.456C150.177 843.156 131.147 842.886 111.867 843.056C95.2571 843.196 80.9873 848.746 68.1073 858.546C62.2773 862.986 56.9173 868.056 55.3073 875.766C51.9673 885.276 55.0373 895.526 63.6473 900.616C68.5092 903.492 73.7939 905.585 79.3073 906.816C101.747 911.706 124.607 912.496 147.387 911.056C157.507 910.416 167.697 907.506 177.387 904.256C191.597 899.496 200.847 889.746 205.387 874.826C215.097 842.826 219.887 809.886 225.437 777.076C225.485 776.392 225.37 775.708 225.1 775.078C224.83 774.449 224.414 773.893 223.887 773.456C213.887 767.956 203.717 762.696 193.587 757.376L193.607 757.396ZM470.347 637.886C468.347 626.976 466.347 616.066 464.217 604.886C461.647 605.116 459.867 605.416 458.077 605.426C439.627 605.566 421.177 605.846 402.727 605.576C399.277 605.526 397.007 605.896 394.507 608.396C368.027 634.726 337.007 653.596 301.107 664.066C297.011 665.201 292.683 665.201 288.587 664.066C253.537 653.826 223.067 635.586 197.037 610.066C193.587 606.676 190.247 605.756 185.587 605.876C170.297 606.266 154.997 606.186 139.697 606.076C134.917 606.076 130.137 605.326 124.697 604.856C122.697 615.426 120.747 625.686 118.807 635.956C117.517 639.076 117.177 641.826 120.247 644.416C151.697 670.976 185.247 694.306 223.247 710.546C245.147 719.896 267.837 726.336 291.807 726.846C323.337 727.516 352.587 718.376 380.707 705.026C412.807 689.766 441.567 669.426 468.707 646.656C472.027 643.886 472.027 641.216 470.347 637.886ZM454.917 229.616C454.797 231.098 454.519 232.563 454.087 233.986C447.837 248.846 442.087 263.986 434.967 278.406C430.591 287.385 425.112 295.783 418.657 303.406C403.777 320.856 384.717 333.176 364.657 343.966C340.293 357.073 314.473 367.27 287.727 374.346C264.727 380.456 241.417 384.896 217.557 385.876C216.34 386.078 215.146 386.392 213.987 386.816C214.699 387.417 215.473 387.941 216.297 388.376C237.857 394.956 259.937 399.236 282.417 399.586C298.857 399.842 315.292 398.799 331.567 396.466C367.921 391.31 402.882 378.959 434.407 360.136C453.497 348.766 469.237 334.356 479.827 314.386C498.537 279.116 506.387 241.876 502.017 202.136C499.347 177.786 491.077 155.576 476.317 135.986C472.227 130.546 467.217 125.806 462.627 120.746L461.477 121.586C461.767 123.866 461.967 126.146 462.357 128.406C465.857 148.536 465.557 168.766 463.857 189.016C463.777 190.016 462.487 190.946 461.757 191.906C460.577 188.986 459.607 185.906 458.187 183.156C450.187 167.376 433.687 164.656 421.017 177.006C414.867 183.006 411.267 190.456 409.427 198.746C406.917 210.036 407.677 220.996 413.607 231.166C421.187 244.166 435.607 246.876 447.257 237.446C450.107 235.216 452.387 232.276 454.917 229.646V229.616ZM471.507 528.396C485.987 524.036 500.667 523.076 515.437 526.396C537.047 531.266 555.087 541.526 566.387 561.996C574.507 544.626 573.577 527.706 566.637 510.866C558.807 491.866 545.997 476.356 531.407 462.266C500.297 432.266 464.407 409.266 425.137 391.446C420.257 389.236 415.967 390.446 413.037 395.066C412.237 396.326 411.687 397.736 410.987 399.066C391.327 436.496 361.407 460.126 319.267 467.356C316.567 467.826 313.867 468.216 311.137 468.646C311.487 470.706 311.847 472.156 311.957 473.646C312.427 479.826 306.657 484.646 301.617 481.336C292.827 475.586 285.377 475.906 276.837 481.796C271.937 485.166 265.957 480.346 266.427 474.236C266.567 472.456 266.907 470.686 267.207 468.556C243.807 466.156 222.747 458.616 204.207 444.706C185.667 430.796 172.577 412.566 162.947 391.896C162.501 391.864 162.053 391.898 161.617 391.996C120.687 410.736 83.3972 434.856 51.7072 467.066C37.2372 481.776 24.8472 498.066 18.7072 518.166C14.1772 532.946 14.6472 547.446 21.2072 561.296C44.4972 527.536 76.8473 519.786 116.087 527.646L100.427 515.966L103.097 515.806C110.347 519.016 117.567 522.296 124.877 525.356C125.465 525.501 126.076 525.514 126.669 525.395C127.262 525.276 127.822 525.027 128.307 524.666C133.157 520.856 137.637 516.816 138.697 510.116C139.366 506.852 140.413 503.677 141.817 500.656C150.004 480.842 158.237 461.056 166.517 441.296L170.967 437.296C170.967 439.416 171.507 441.686 170.967 443.636C166.967 457.366 162.687 471.026 158.547 484.726C152.727 503.986 146.947 523.246 140.727 543.896C159.727 543.066 177.807 542.106 195.917 541.576C203.787 541.336 209.447 537.746 213.917 531.756C216.457 528.346 219.717 527.416 223.917 527.436C271.417 527.542 318.914 527.542 366.407 527.436C370.407 527.436 373.737 528.256 375.957 531.586C381.107 539.326 388.777 541.516 397.437 541.836C399.767 541.916 402.077 542.406 404.437 542.416C418.867 542.476 433.297 542.416 448.237 542.416C442.707 523.706 437.297 505.016 431.637 486.416C427.087 471.416 422.177 456.596 417.577 441.646C417.177 440.346 417.887 438.706 418.077 437.216C419.077 438.056 420.177 438.876 421.197 439.756C421.532 440.117 421.833 440.509 422.097 440.926C423.097 443.196 424.187 445.426 425.097 447.736C433.957 470.256 442.577 492.876 451.797 515.246C453.367 519.066 457.077 522.356 460.537 524.856C461.727 525.716 465.187 523.356 467.627 522.526C473.197 520.636 478.787 518.786 484.367 516.926L471.087 527.776L470.357 528.586L471.507 528.396ZM133.887 289.316L135.547 289.186C142.957 258.126 154.547 228.586 167.947 199.726C174.849 184.891 184.199 171.324 195.607 159.596C221.807 132.536 253.757 114.906 289.137 102.976L293.887 101.406L293.677 100.056C290.277 99.7157 286.857 98.9557 283.487 99.0557C275.337 99.4257 267.147 99.7657 259.087 100.896C224.177 105.806 191.467 116.756 162.087 136.746C145.027 148.336 134.247 164.126 128.877 183.846C122.657 206.636 123.087 229.696 126.657 252.746C128.517 265.086 131.437 277.176 133.887 289.346V289.316ZM174.887 379.126C213.197 407.506 256.167 420.376 303.617 418.716C343.837 417.316 407.047 393.466 419.857 374.556C338.627 412.726 257.147 416.396 174.857 379.156L174.887 379.126ZM389.087 281.416C389.017 290.236 394.757 296.886 402.517 296.966C411.227 297.056 418.777 288.716 418.867 278.906C418.947 270.256 413.007 263.386 405.347 263.286C396.657 263.206 389.127 271.596 389.027 281.446L389.087 281.416ZM278.917 429.416L254.607 426.226C258.127 429.379 261.952 432.173 266.027 434.566C273.727 439.246 275.677 438.446 278.887 429.486L278.917 429.416ZM320.067 429.176L319.677 428.416L298.627 429.976C301.307 437.356 304.297 438.606 310.517 435.076C313.737 433.306 316.857 431.216 320.027 429.246L320.067 429.176Z" fill="#381B46"/>
<path d="M421.947 440.946C421.683 440.529 421.382 440.137 421.047 439.776C420.047 438.896 418.967 438.076 417.927 437.236C417.737 438.726 417.027 440.366 417.427 441.666C422.027 456.616 426.937 471.476 431.487 486.436C437.147 505.046 442.557 523.736 448.087 542.436C433.147 542.436 418.717 542.436 404.287 542.436C401.957 542.436 399.647 541.936 397.287 541.856C388.627 541.536 380.957 539.346 375.807 531.606C373.587 528.276 370.267 527.446 366.257 527.456C318.77 527.562 271.274 527.562 223.767 527.456C219.597 527.456 216.337 528.366 213.767 531.776C209.287 537.776 203.627 541.356 195.767 541.596C177.657 542.126 159.557 543.086 140.577 543.916C146.797 523.266 152.577 504.006 158.397 484.746C162.537 471.046 166.807 457.386 170.817 443.656C171.387 441.706 170.867 439.436 170.817 437.316L166.367 441.316C161.287 441.096 157.627 443.796 155.367 447.806C151.537 454.596 148.157 461.656 144.867 468.726C136.347 487.096 125.147 503.046 106.587 512.656C105.197 513.376 104.147 514.756 102.947 515.826L100.277 515.986L115.937 527.666C76.6972 519.806 44.3471 527.556 21.0571 561.316C14.4971 547.466 14.0571 532.966 18.5571 518.186C24.7371 498.056 37.1271 481.796 51.5571 467.086C83.2471 434.876 120.557 410.756 161.467 392.016C161.903 391.918 162.351 391.884 162.797 391.916C172.427 412.586 185.507 430.836 204.057 444.726C222.607 458.616 243.687 466.176 267.057 468.576C266.757 470.706 266.417 472.476 266.277 474.256C265.807 480.366 271.787 485.186 276.687 481.816C285.227 475.926 292.687 475.606 301.467 481.356C306.467 484.656 312.277 479.846 311.807 473.666C311.697 472.186 311.337 470.736 310.987 468.666C313.717 468.236 316.417 467.846 319.117 467.376C361.257 460.146 391.177 436.516 410.837 399.086C411.537 397.756 412.087 396.346 412.887 395.086C415.817 390.486 420.107 389.256 424.987 391.466C464.257 409.306 500.147 432.256 531.257 462.286C545.847 476.376 558.657 491.896 566.487 510.886C573.427 527.726 574.357 544.646 566.237 562.016C554.937 541.546 536.897 531.286 515.287 526.416C500.517 523.086 485.837 524.046 471.357 528.416C471.177 528.196 470.977 527.986 470.777 527.786L484.057 516.936L483.917 516.996L486.367 516.226L483.867 515.626C482.187 514.176 480.717 512.356 478.817 511.316C463.917 503.186 453.817 490.676 446.357 475.826C442.357 467.826 438.727 459.576 434.707 451.556C432.167 446.206 428.417 441.886 421.947 440.946Z" fill="#FDFDFD"/>
<path d="M461.797 191.956C462.527 190.956 463.797 190.076 463.897 189.066C465.597 168.816 465.897 148.586 462.397 128.456C462.007 126.196 461.808 123.916 461.518 121.636L462.667 120.796C467.257 125.856 472.267 130.596 476.357 136.036C491.117 155.626 499.357 177.836 502.057 202.186C506.427 241.926 498.577 279.186 479.867 314.436C469.277 334.436 453.537 348.816 434.447 360.186C402.922 379.01 367.961 391.36 331.607 396.516C315.332 398.849 298.897 399.892 282.458 399.636C259.978 399.286 237.897 395.006 216.337 388.426C215.514 387.997 214.74 387.481 214.027 386.886C215.186 386.462 216.381 386.148 217.597 385.946C241.457 384.946 264.778 380.526 287.768 374.416C314.513 367.34 340.333 357.143 364.697 344.036C384.697 333.246 403.777 320.926 418.697 303.476C425.152 295.853 430.631 287.455 435.007 278.476C442.087 264.016 447.877 248.916 454.127 234.056C454.559 232.633 454.837 231.168 454.958 229.686C461.221 218.167 463.619 204.94 461.797 191.956V191.956Z" fill="#2A1A3B"/>
<path d="M118.787 635.886C120.727 625.616 122.677 615.356 124.677 604.786C130.137 605.256 134.917 605.976 139.677 606.006C154.977 606.116 170.277 606.196 185.567 605.806C190.227 605.686 193.568 606.606 197.018 609.996C223.018 635.536 253.517 653.776 288.567 663.996C292.664 665.131 296.991 665.131 301.087 663.996C336.987 653.526 368.007 634.656 394.487 608.326C396.987 605.826 399.258 605.456 402.708 605.506C421.158 605.776 439.607 605.506 458.057 605.356C459.847 605.356 461.627 605.046 464.197 604.816C466.277 616.026 468.307 626.936 470.327 637.816C468.837 638.496 467.267 639.046 465.857 639.816C424.647 664.026 381.378 682.946 333.958 691.256C308.364 695.794 282.168 695.757 256.587 691.146C221.687 684.896 188.887 672.586 157.337 656.776C144.277 650.366 131.627 642.886 118.787 635.886Z" fill="#F72323"/>
<path d="M55.3374 875.746C56.9474 868.036 62.3375 862.966 68.1375 858.526C81.0175 848.726 95.2875 843.176 111.897 843.036C131.177 842.866 150.207 843.136 168.427 850.436C168.677 850.536 169.037 850.326 169.357 850.266C161.737 839.016 132.997 832.266 95.8975 833.206C98.2175 802.966 100.531 772.826 102.837 742.786C112.467 742.786 121.587 742.316 130.637 742.886C150.459 744.157 169.994 748.283 188.637 755.136C190.347 755.766 191.967 756.626 193.637 757.376C193.637 758.696 193.587 760.006 193.637 761.316C195.057 785.066 196.997 808.796 197.637 832.566C197.907 842.216 196.927 852.466 193.827 861.566C188.467 877.226 174.557 883.656 159.617 887.836C143.197 892.436 126.377 892.416 109.537 892.026C90.0271 891.526 70.9374 889.406 55.3374 875.746Z" fill="#FDFDFD"/>
<path d="M395.027 757.886C407.367 754.086 419.537 749.596 432.077 746.646C449.457 742.566 467.247 741.526 485.927 742.096C488.277 772.566 490.608 802.836 492.978 833.536C465.978 831.226 440.417 833.326 417.277 849.536C418.327 850.086 418.767 850.536 419.007 850.416C439.237 842.496 460.238 842.726 481.518 843.496C497.408 844.066 510.308 850.676 522.318 859.916C527.608 863.986 532.198 868.916 533.518 875.916C525.448 882.246 516.688 887.016 506.518 889.156C487.888 893.066 469.067 892.726 450.307 891.496C437.507 890.656 424.928 887.916 413.418 881.656C401.558 875.206 392.958 865.746 392.418 852.056C391.608 831.976 392.208 811.836 392.708 791.726C392.918 780.396 394.187 769.136 395.027 757.886Z" fill="#FDFDFD"/>
<path d="M232.027 807.886C234.507 792.306 236.928 776.716 239.498 761.146C240.868 752.786 242.497 744.466 244.047 736.146C244.377 734.396 244.947 732.686 245.617 730.146C278.277 740.016 310.747 740.226 344.087 730.486L354.907 795.936C348.457 799.006 342.107 802.306 335.537 805.086C301.427 819.516 266.917 821.206 232.027 807.886Z" fill="#B4202F"/>
<path d="M118.787 635.886C131.627 642.886 144.278 650.366 157.358 656.886C188.908 672.696 221.708 685.006 256.608 691.256C282.188 695.867 308.384 695.904 333.978 691.366C381.398 683.056 424.668 664.136 465.878 639.926C467.288 639.106 468.877 638.556 470.347 637.926C471.987 641.226 471.977 643.856 468.717 646.596C441.567 669.366 412.807 689.706 380.717 704.966C352.597 718.316 323.348 727.456 291.818 726.786C267.818 726.276 245.157 719.836 223.257 710.486C185.257 694.246 151.687 670.916 120.257 644.356C117.157 641.756 117.497 639.006 118.787 635.886Z" fill="#B4202F"/>
<path d="M133.887 289.346C131.437 277.176 128.517 265.086 126.617 252.826C123.047 229.826 122.617 206.716 128.837 183.926C134.207 164.206 144.987 148.416 162.047 136.826C191.467 116.826 224.177 105.886 259.047 100.976C267.107 99.8456 275.297 99.5057 283.447 99.1357C286.817 98.9857 290.237 99.7457 293.637 100.136L293.847 101.486L289.097 103.056C253.717 114.986 221.767 132.616 195.567 159.676C184.159 171.404 174.808 184.971 167.907 199.806C154.467 228.666 142.907 258.206 135.507 289.266L133.887 289.346Z" fill="#C1B8C5"/>
<path d="M134.357 89.2557C166.187 49.1557 207.117 23.4556 257.547 14.8356C332.207 2.08561 395.477 24.5156 447.127 79.8356C448.247 81.0356 449.127 82.4356 450.127 83.7456L449.337 84.5157C397.997 50.5157 340.628 41.0057 280.458 43.4457C243.368 44.9457 207.287 51.8257 173.587 67.9157C160.297 74.2557 147.998 82.6757 135.248 90.1557L134.357 89.2557Z" fill="#FBFBFB"/>
<path d="M65.0874 624.886V617.886L89.7173 623.836L90.3475 622.396C88.9175 621.536 87.4174 620.755 86.0574 619.795C71.2374 609.375 56.2674 599.166 41.7574 588.336C37.0374 584.816 33.2975 579.856 29.6275 575.136C28.3675 573.516 27.6273 570.136 28.4873 568.476C31.2873 563.086 34.1875 557.396 38.3775 553.126C59.5275 531.546 98.7374 526.456 125.087 541.376C125.597 541.746 126.075 542.157 126.518 542.606C117.938 544.036 110.878 547.606 105.518 554.196C102.882 557.435 100.927 561.173 99.7715 565.186C98.616 569.199 98.2831 573.404 98.793 577.549C99.3029 581.693 100.645 585.693 102.739 589.306C104.833 592.919 107.635 596.072 110.978 598.575C113.758 600.655 114.147 602.395 113.467 605.575C110.197 620.685 107.227 635.856 104.157 651.006C88.5573 650.936 77.7875 642.865 69.6475 630.325C68.2443 628.417 66.7212 626.6 65.0874 624.886V624.886Z" fill="#FCFCFC"/>
<path d="M484.857 650.996C481.657 635.206 478.417 619.425 475.367 603.595C475.177 602.595 476.257 600.946 477.217 600.246C489.217 591.426 494.148 579.036 490.768 565.916C487.388 552.796 476.767 544.205 462.197 542.595L461.697 541.226C468.247 538.996 474.697 536.086 481.387 534.656C505.247 529.606 527.158 534.555 545.978 550.085C551.398 554.555 554.977 561.375 559.037 567.335C561.037 570.215 560.197 573.096 557.887 575.946C549.531 586.122 539.687 594.978 528.688 602.216C518.507 609.046 508.247 615.746 498.217 623.676L522.347 618.015C522.477 619.755 522.618 621.765 522.768 623.785C521.61 625.098 520.537 626.485 519.557 627.936C511.757 641.316 501.097 650.336 484.857 650.996Z" fill="#FCFCFC"/>
<path d="M392.177 564.886L406.287 579.376C397.437 588.746 389.057 598.666 379.597 607.376C356.682 628.651 329.18 644.37 299.217 653.316C296.724 654.132 294.051 654.225 291.507 653.586C248.747 640.356 213.327 616.386 185.847 580.916C185.337 580.256 184.927 579.536 183.787 577.826C188.017 573.826 192.327 569.826 196.647 565.826C197.106 566.022 197.531 566.289 197.907 566.616C221.227 593.916 249.857 613.476 283.547 625.806C289.857 628.126 295.767 629.206 302.177 626.106C314.887 619.946 328.048 614.676 340.478 608.026C357.763 598.641 373.216 586.22 386.097 571.356C388.027 569.096 390.147 566.996 392.177 564.886Z" fill="#CEAB18"/>
<path d="M55.3377 875.746C70.9377 889.406 89.9974 891.526 109.537 891.976C126.377 892.366 143.197 892.386 159.617 887.786C174.557 883.606 188.467 877.176 193.827 861.516C196.927 852.466 197.907 842.216 197.637 832.516C196.977 808.746 195.037 785.016 193.637 761.266C193.557 759.956 193.637 758.646 193.637 757.326C203.767 762.646 213.938 767.906 223.978 773.386C224.505 773.823 224.921 774.379 225.19 775.008C225.46 775.638 225.575 776.323 225.528 777.006C219.978 809.816 215.188 842.756 205.478 874.756C200.938 889.676 191.688 899.426 177.478 904.186C167.778 907.436 157.588 910.346 147.478 910.986C124.698 912.426 101.838 911.636 79.3978 906.746C73.8844 905.515 68.5994 903.422 63.7376 900.546C55.0276 895.506 52.0277 885.256 55.3377 875.746Z" fill="#B8AEBD"/>
<path d="M395.028 757.886C394.208 769.156 392.938 780.416 392.668 791.696C392.168 811.806 391.568 831.946 392.378 852.026C392.938 865.716 401.538 875.176 413.378 881.626C424.888 887.886 437.468 890.626 450.268 891.466C469.028 892.696 487.848 893.036 506.478 889.126C516.668 886.986 525.428 882.216 533.478 875.886C537.028 886.196 533.477 897.136 523.327 901.566C514.777 905.306 505.327 908.226 496.137 908.966C476.617 910.516 456.958 910.966 437.378 910.756C425.688 910.606 414.528 906.576 404.108 901.016C395.108 896.206 387.818 889.676 385.268 879.496C379.628 856.936 374.197 834.316 369.137 811.616C366.717 800.756 365.267 789.676 363.577 778.616C363.337 777.096 363.767 774.486 364.757 773.936C374.747 768.406 384.908 763.186 395.028 757.886Z" fill="#B8AEBD"/>
<path d="M392.177 564.886C390.177 567.046 388.057 569.146 386.097 571.366C373.216 586.23 357.763 598.651 340.478 608.036C328.048 614.686 314.887 619.956 302.177 626.116C295.767 629.216 289.857 628.116 283.547 625.816C249.857 613.486 221.227 593.926 197.907 566.626C197.531 566.299 197.106 566.032 196.647 565.836C202.787 559.436 208.93 553.039 215.077 546.646C239.707 546.716 264.337 546.836 288.967 546.836C317.587 546.836 346.211 546.782 374.837 546.676L392.177 564.886ZM359.297 576.376C351.457 570.686 343.867 565.066 336.107 559.686C334.907 558.846 332.937 558.886 331.327 558.886C306.187 558.846 281.051 558.846 255.917 558.886C254.437 558.886 252.607 558.666 251.547 559.406C243.687 564.886 235.988 570.586 228.018 576.406C229.398 578.406 230.287 579.756 231.297 581.046C245.227 598.766 262.997 611.146 283.907 619.386C290.687 622.056 296.987 622.456 303.547 619.216C309.957 616.056 316.677 613.446 322.847 609.886C337.382 601.604 349.846 590.128 359.297 576.326V576.376Z" fill="#FDCC01"/>
<path d="M192.027 747.326C164.476 737.655 135.398 733.067 106.208 733.786C105.323 733.701 104.446 733.544 103.587 733.316C107.227 707.176 110.847 681.176 114.587 654.456C116.257 655.556 117.208 656.056 118.018 656.736C140.448 675.426 164.138 692.286 189.748 706.376C190.299 706.736 190.817 707.144 191.297 707.596C191.537 720.849 191.781 734.092 192.027 747.326Z" fill="#FCFCFC"/>
<path d="M397.967 708.816C424.382 694.274 449.299 677.165 472.357 657.736C473.039 657.346 473.752 657.011 474.487 656.736C478.107 682.456 481.677 707.786 485.347 733.796C454.617 733.176 425.347 737.346 397.007 747.586L397.967 708.816Z" fill="#FCFCFC"/>
<path d="M478.847 130.066C447.587 93.2157 405.787 76.6057 359.657 69.3957C306.227 61.0357 253.057 62.9357 200.807 77.9157C169.807 86.8057 141.647 101.086 119.067 124.786C114.267 129.786 110.068 135.376 104.748 140.276C106.058 138.016 107.208 135.636 108.748 133.516C128.078 106.166 154.218 87.5157 184.748 74.7957C226.918 57.2057 271.117 52.0856 316.377 54.4556C352.467 56.3356 387.267 63.7956 419.857 79.9556C441.457 90.6556 460.407 104.806 475.637 123.656C477.087 125.456 478.228 127.496 479.518 129.426L478.847 130.066Z" fill="#F6F5F7"/>
<path d="M461.798 191.956C463.598 204.931 461.186 218.143 454.918 229.646C452.388 232.276 450.108 235.216 447.298 237.496C435.658 246.926 421.228 244.226 413.648 231.216C407.718 221.046 406.958 210.086 409.468 198.796C411.308 190.506 414.907 183.066 421.057 177.056C433.727 164.706 450.238 167.426 458.228 183.206C459.648 186.006 460.618 189.036 461.798 191.956Z" fill="#C1B8C5"/>
<path d="M87.5576 678.886L99.3777 682.166L95.3777 707.716C94.3986 709.022 93.4969 710.384 92.6775 711.796C79.1475 738.446 65.6777 765.156 52.1077 791.796C49.1077 797.646 45.5276 803.196 41.8076 809.586C56.9576 812.156 71.4876 812.056 86.0276 811.946C86.2976 819.826 86.2575 820.236 78.4775 819.596C59.0575 818.016 39.6676 816.016 20.2676 814.176C33.0076 790.986 46.4476 768.176 58.2676 744.496C68.9376 723.046 77.8576 700.756 87.5576 678.886Z" fill="#F72424"/>
<path d="M174.857 379.156C257.147 416.396 338.627 412.726 419.857 374.586C407.047 393.496 343.857 417.346 303.617 418.746C256.137 420.406 213.167 407.536 174.857 379.156Z" fill="#B5ABBA"/>
<path d="M86.0276 811.886C71.4876 811.996 56.9576 812.096 41.8076 809.526C45.5276 803.136 49.1177 797.586 52.1077 791.736C65.7177 765.116 79.1075 738.406 92.6775 711.736C93.4969 710.324 94.3986 708.962 95.3777 707.656C94.1777 720.546 92.8876 733.426 91.7876 746.326C90.0976 766.046 88.5575 785.766 86.9175 805.486C86.7275 807.646 86.3176 809.766 86.0276 811.886Z" fill="#B4202F"/>
<path d="M509.027 228.886C510.587 198.506 506.677 168.886 496.027 140.246C512.307 139.246 529.597 151.946 532.847 169.096C535.417 182.716 535.407 196.826 536.547 210.726C533.487 213.886 530.647 217.326 527.297 220.156C522.027 224.596 516.497 228.796 509.027 228.886Z" fill="#FBFBFB"/>
<path d="M54.6571 246.666C53.6571 232.916 51.7472 219.146 52.0472 205.416C52.4172 188.286 66.4873 173.836 84.1273 170.766C83.4173 175.116 82.6773 179.256 82.1273 183.426C78.5497 207.846 79.1548 232.698 83.9171 256.916C84.0653 257.909 84.1522 258.911 84.1771 259.916C72.5571 259.396 63.3371 253.636 54.6571 246.666Z" fill="#FBFBFB"/>
<path d="M192.027 747.326C191.787 734.086 191.54 720.842 191.287 707.596C204.937 713.666 218.607 719.666 232.157 725.916C233.157 726.386 234.047 728.816 233.817 730.136C231.877 741.586 229.657 752.996 227.527 764.366L192.027 747.326Z" fill="#B7ADBC"/>
<path d="M397.967 708.816L396.967 747.546L361.277 764.616C359.177 753.166 356.957 741.326 354.967 729.446C354.827 728.586 356.247 726.956 357.287 726.496C370.837 720.516 384.417 714.686 397.967 708.816Z" fill="#B7ADBC"/>
<path d="M418.748 577.646C416.078 574.306 413.667 570.706 410.647 567.716C406.057 563.166 401.047 559.046 396.217 554.716L397.347 553.076C397.877 552.99 398.411 552.933 398.947 552.906C419.067 553.136 439.177 553.496 459.287 553.566C469.377 553.566 476.887 558.656 479.557 567.846C473.977 571.846 468.157 575.316 461.047 575.646C446.947 576.356 432.848 576.986 418.748 577.646Z" fill="#FBFBFB"/>
<path d="M110.837 567.886C113.077 558.956 120.908 553.506 130.998 553.626C145.948 553.796 160.907 553.936 175.867 553.896C181.327 553.896 186.787 553.316 193.327 552.896C186.847 559.616 180.867 565.686 175.057 571.896C173.447 573.626 172.367 575.846 171.057 577.846C160.267 577.476 149.467 577.266 138.688 576.696C128.667 576.216 118.697 575.286 110.837 567.886Z" fill="#FBFBFB"/>
<path d="M374.837 546.626C346.217 546.686 317.594 546.739 288.967 546.786C264.337 546.786 239.707 546.666 215.077 546.596C219.077 540.496 224.277 538.036 232.077 538.126C273.857 538.579 315.634 538.579 357.407 538.126C365.297 538.036 370.717 540.316 374.837 546.626Z" fill="#F3E091"/>
<path d="M540.837 815.796L503.177 820.796C503.017 817.336 502.917 815.086 502.817 812.796L518.407 811.466L500.708 782.606C499.508 770.196 498.277 757.776 497.097 745.366C496.697 741.066 496.427 736.746 496.097 732.436C496.527 733.136 496.997 733.816 497.387 734.546C511.874 761.652 526.357 788.736 540.837 815.796Z" fill="#F72424"/>
<path d="M87.5576 678.886C77.8576 700.786 68.9376 723.076 58.2476 744.476C46.4376 768.126 32.9976 790.966 20.2476 814.156L14.5176 813.636C39.6576 768.746 60.3976 722.466 78.5176 674.356L87.5576 678.886Z" fill="#F9B8B9"/>
<path d="M418.748 577.646C432.848 576.986 446.947 576.356 461.047 575.646C468.157 575.316 473.977 571.856 479.557 567.846C483.357 579.236 476.558 592.276 464.498 593.346C446.178 594.986 427.697 594.826 409.297 595.406C408.773 595.326 408.264 595.167 407.787 594.936L418.748 577.646Z" fill="#B7ADBC"/>
<path d="M110.837 567.886C118.697 575.296 128.667 576.226 138.677 576.766C149.457 577.336 160.257 577.546 171.047 577.916L182.247 595.096C180.57 595.466 178.864 595.694 177.147 595.776C160.527 595.196 143.877 595.016 127.317 593.726C114.447 592.716 106.727 579.886 110.837 567.886Z" fill="#B8AEBD"/>
<path d="M103.027 515.886C104.227 514.816 105.277 513.436 106.667 512.716C125.227 503.106 136.427 487.156 144.947 468.786C148.237 461.716 151.617 454.656 155.447 447.866C157.707 443.866 161.367 441.156 166.447 441.376C158.207 461.156 149.974 480.942 141.748 500.736C140.343 503.757 139.296 506.932 138.627 510.196C137.567 516.896 133.087 520.936 128.237 524.746C127.752 525.107 127.193 525.356 126.6 525.475C126.007 525.594 125.394 525.581 124.807 525.436C117.497 522.326 110.277 519.046 103.027 515.886Z" fill="#B7ADBC"/>
<path d="M421.947 440.946C428.417 441.846 432.167 446.206 434.857 451.566C438.857 459.566 442.467 467.816 446.507 475.836C453.977 490.686 464.067 503.196 478.967 511.326C480.867 512.326 482.338 514.186 484.018 515.636C484.018 516.096 484.017 516.546 484.067 517.006L484.208 516.946C478.628 518.806 473.037 520.656 467.467 522.546C465.027 523.376 461.567 525.736 460.377 524.876C456.917 522.376 453.207 519.086 451.637 515.266C442.417 492.896 433.797 470.266 424.938 447.756C424.027 445.446 422.947 443.216 421.947 440.946Z" fill="#B7ADBC"/>
<path d="M193.237 422.746C184.737 414.24 178.091 404.067 173.717 392.866C175.197 393.766 176.717 394.626 178.157 395.566C192.927 405.086 208.497 413.116 225.327 418.186C232.995 420.4 239.845 424.816 245.027 430.886C245.637 432.006 246.317 433.106 246.847 434.266C247.477 435.646 247.977 437.086 248.537 438.496C246.717 438.806 244.707 439.736 243.127 439.266C240.591 438.458 238.235 437.167 236.188 435.466C230.677 430.956 225.407 426.126 219.987 421.466C217.737 419.546 215.327 417.796 212.987 415.966L211.627 417.306C213.227 419.466 214.697 421.716 216.438 423.746C219.438 427.266 222.828 430.506 225.688 434.146C226.747 435.496 226.787 437.646 227.287 439.426C225.287 439.656 222.857 440.736 221.287 439.986C215.357 437.106 209.617 433.786 203.987 430.356C200.297 428.056 196.837 425.296 193.237 422.746Z" fill="#F52323"/>
<path d="M232.028 807.886C266.908 821.196 301.418 819.506 335.528 805.086C342.098 802.306 348.448 799.006 354.898 795.936C356.618 799.786 355.568 802.136 351.708 804.266C314.958 824.506 276.827 831.266 236.347 816.746C230.027 814.476 230.028 814.536 232.028 807.886Z" fill="#F22324"/>
<path d="M384.027 422.886C377.027 429.166 370.617 436.126 363.027 441.576C348.777 451.856 332.347 457.136 315.027 459.696C313.362 459.797 311.692 459.797 310.027 459.696C313.027 456.606 315.387 454.016 317.897 451.536C320.637 448.826 321.617 445.866 320.327 442.046C320.203 441.383 320.24 440.7 320.435 440.054C320.63 439.408 320.977 438.819 321.447 438.336C326.107 434.636 330.997 431.206 335.797 427.686C333.797 429.986 331.737 432.206 329.867 434.596C329.117 435.596 328.087 437.376 328.447 437.876C328.893 438.404 329.439 438.84 330.053 439.157C330.668 439.475 331.338 439.668 332.027 439.726C333.523 439.824 335.006 439.404 336.228 438.536C343.548 432.616 350.718 426.536 357.938 420.476L363.817 418.706C363.031 420.272 362.121 421.773 361.097 423.196C358.097 426.736 354.717 429.956 351.947 433.646C350.837 435.126 350.897 437.496 350.427 439.466C352.257 439.676 354.427 440.626 355.847 439.966C361.346 437.371 366.704 434.487 371.897 431.326C376.157 428.806 380.027 425.736 384.027 422.886Z" fill="#B3202F"/>
<path d="M193.237 422.746C196.837 425.296 200.297 428.056 204.057 430.346C209.687 433.776 215.427 437.096 221.357 439.976C222.887 440.726 225.307 439.646 227.357 439.416C226.857 437.636 226.817 435.486 225.757 434.136C222.897 430.496 219.537 427.256 216.507 423.736C214.767 421.736 213.297 419.456 211.697 417.296L213.057 415.956C215.387 417.786 217.797 419.536 220.057 421.456C225.477 426.096 230.747 430.926 236.257 435.456C238.304 437.157 240.661 438.448 243.197 439.256C244.777 439.726 246.787 438.796 248.607 438.486C248.047 437.076 247.547 435.636 246.917 434.256C246.387 433.096 245.707 431.996 245.097 430.876L258.197 439.706L256.667 440.316C257.277 443.916 257.077 447.956 258.717 451.006C260.357 454.056 263.887 456.346 266.587 458.946L265.967 460.196C261.497 459.426 256.967 458.836 252.547 457.846C230.6 453.179 210.604 441.916 195.237 425.566C194.499 424.678 193.831 423.736 193.237 422.746V422.746Z" fill="#B3202F"/>
<path d="M54.657 246.666C63.337 253.666 72.5573 259.396 84.1373 259.886C86.9439 269.732 89.7505 279.576 92.5572 289.416C73.7072 293.506 52.907 270.126 54.657 246.666Z" fill="#B7ADBC"/>
<path d="M509.027 228.886C516.457 228.816 522.027 224.616 527.257 220.156C530.607 217.326 533.447 213.886 536.507 210.726C541.017 234.196 527.197 256.256 505.947 258.936C507.027 248.886 508.027 238.886 509.027 228.886Z" fill="#B7ADBC"/>
<path d="M389.027 281.446C389.097 271.596 396.627 263.206 405.287 263.316C412.947 263.416 418.887 270.316 418.807 278.936C418.717 288.746 411.168 297.086 402.458 296.996C394.728 296.886 389.027 290.266 389.027 281.446Z" fill="#C1B8C5"/>
<path d="M65.0874 624.886C66.7211 626.601 68.2442 628.418 69.6474 630.326C77.7874 642.866 88.5572 650.936 104.157 651.006C103.144 657.526 102.144 664.026 101.157 670.506C78.7572 669.086 60.4274 645.636 65.0874 624.886Z" fill="#C4B7CD"/>
<path d="M484.857 650.996C501.097 650.336 511.757 641.316 519.557 627.936C520.537 626.485 521.61 625.099 522.768 623.786C526.528 646.376 511.957 666.156 487.817 670.526C486.831 664.019 485.844 657.509 484.857 650.996Z" fill="#C4B7CD"/>
<path d="M540.837 815.796C526.357 788.736 511.871 761.679 497.377 734.626C496.987 733.896 496.517 733.216 496.087 732.516C495.087 724.436 494.037 716.356 493.087 708.726L543.467 815.376L540.837 815.796Z" fill="#F6B6B7"/>
<path d="M308.237 449.306C307.783 449.998 307.245 450.633 306.637 451.196C301.347 455.066 300.147 460.076 302.067 466.196C302.617 468.454 303.021 470.745 303.277 473.056C295.777 469.886 289.218 463.426 281.208 470.156C280.928 469.286 280.207 468.246 280.438 467.556C283.628 458.556 281.357 451.306 273.757 445.646C281.577 445.566 283.937 439.516 286.667 433.856C290.137 444.186 296.617 450.326 308.237 449.306Z" fill="#FDCC01"/>
<path d="M384.027 422.886C380.027 425.726 376.147 428.796 371.967 431.346C366.774 434.507 361.416 437.391 355.917 439.986C354.497 440.646 352.328 439.696 350.498 439.486C350.968 437.486 350.908 435.146 352.018 433.666C354.788 429.976 358.177 426.756 361.167 423.216C362.192 421.793 363.101 420.292 363.887 418.726L398.427 403.886C394.629 410.919 389.773 417.328 384.027 422.886V422.886Z" fill="#F52323"/>
<path d="M500.708 782.686L518.407 811.546L502.817 812.876C502.117 802.809 501.414 792.746 500.708 782.686Z" fill="#B3202F"/>
<path d="M358.027 420.506C350.807 426.506 343.637 432.646 336.317 438.566C335.096 439.434 333.612 439.854 332.117 439.756C331.428 439.698 330.757 439.505 330.143 439.187C329.529 438.87 328.983 438.434 328.537 437.906C328.177 437.406 329.207 435.576 329.957 434.626C331.827 432.236 333.897 430.016 335.887 427.716C338.017 426.646 340.037 425.246 342.287 424.576C347.467 423.036 352.767 421.886 358.027 420.506Z" fill="#F52323"/>
<path d="M273.757 445.626C281.357 451.286 283.628 458.536 280.438 467.536C280.198 468.226 280.928 469.266 281.208 470.136L275.807 473.136L274.397 473.016C279.317 461.786 276.017 453.396 265.647 447.466L266.647 446.556L273.757 445.626Z" fill="#B68C19"/>
<path d="M278.887 429.486C275.677 438.486 273.728 439.246 265.998 434.636C261.922 432.243 258.096 429.449 254.577 426.296L278.887 429.486Z" fill="#F6F5F7"/>
<path d="M308.237 449.306C296.617 450.306 290.137 444.186 286.667 433.836L288.257 430.026C291.067 434.526 292.797 439.896 296.487 442.526C300.177 445.156 305.867 445.116 312.147 447.416L308.237 449.306Z" fill="#F3E091"/>
<path d="M320.027 429.246C316.847 431.246 313.728 433.306 310.478 435.146C304.258 438.676 301.267 437.426 298.587 430.046L319.637 428.486L320.027 429.246Z" fill="#F6F5F7"/>
<path d="M173.027 377.886L171.757 377.576L172.007 377.196L173.007 377.946L173.027 377.886Z" fill="#B5ABBA"/>
<path d="M135.287 90.1656L133.337 90.6556L134.337 89.2556L135.287 90.1656Z" fill="#FBFBFB"/>
<path d="M450.167 83.7556L450.757 85.5956L449.377 84.5256L450.167 83.7556Z" fill="#FBFBFB"/>
<path d="M173.027 377.886L174.027 378.406L173.697 378.696L173.127 377.826L173.027 377.886Z" fill="#B5ABBA"/>
<path d="M471.507 528.426L470.197 528.606L470.927 527.796C471.127 527.996 471.327 528.206 471.507 528.426Z" fill="#FDFDFD"/>
<path d="M479.527 129.426C479.527 129.956 479.597 130.496 479.637 131.026L478.847 130.026L479.527 129.426Z" fill="#F6F5F7"/>
<path d="M484.027 517.006C484.027 516.546 484.028 516.096 483.978 515.636L486.478 516.236L484.027 517.006Z" fill="#381B46"/>
<path d="M359.297 576.326C349.835 590.096 337.372 601.54 322.847 609.796C316.677 613.356 309.957 615.966 303.547 619.126C296.987 622.366 290.687 621.966 283.907 619.296C262.997 611.056 245.227 598.676 231.297 580.956C230.297 579.666 229.398 578.276 228.018 576.316C236.018 570.526 243.687 564.826 251.547 559.316C252.607 558.576 254.437 558.796 255.917 558.796C281.057 558.796 306.194 558.796 331.327 558.796C332.937 558.796 334.907 558.796 336.107 559.596C343.867 565.016 351.457 570.636 359.297 576.326Z" fill="#F82423"/>
</svg>
