<svg width="206" height="204" viewBox="0 0 206 204" fill="none" xmlns="http://www.w3.org/2000/svg">
<path d="M121.141 97.2084C122.672 97.7407 124.093 98.2683 125.539 98.7091C125.788 98.7841 126.362 98.5683 126.419 98.3761C127.298 95.4359 131.169 95.1874 133.399 98.0385C133.828 98.5848 134.137 99.2249 134.597 99.9752C134.974 99.6047 135.331 99.2718 135.659 98.9271C139.523 94.8028 143.75 91.11 148.674 88.3011C152.426 86.1628 156.311 84.4653 160.766 84.2871C165.954 84.0784 170.109 87.5133 171.002 92.7888C171.645 96.5801 171.152 100.292 169.961 103.865C168.866 107.147 167.349 110.292 166.14 113.541C164.763 117.237 165.068 120.911 166.728 124.451C167.034 125.076 167.561 125.566 168.207 125.825C170.702 126.632 173.084 127.537 174.512 130.21C176.735 128.465 178.887 126.927 180.869 125.18C183.478 122.892 186.057 120.552 188.463 118.055C193.448 112.924 197.682 107.114 201.042 100.798C201.403 100.113 202.139 99.4054 202.852 99.178C204.247 98.7348 205.45 99.8697 205.431 101.523C205.431 103.783 205.431 106.057 205.183 108.301C204.742 112.402 204.299 116.507 203.541 120.571C201.571 131.227 197.868 141.489 192.58 150.948C183.065 168.032 168.895 182.063 151.718 191.41C142.876 196.273 133.334 199.737 123.432 201.679C119.032 202.511 114.588 203.083 110.121 203.393C105.879 203.73 101.619 203.802 97.3683 203.607C89.5733 203.213 81.8515 201.904 74.3625 199.705C67.835 197.801 61.5138 195.251 55.4928 192.092C48.5166 188.405 41.9796 183.942 36.0063 178.786C20.7718 165.637 9.74599 148.293 4.30421 128.918C2.71261 123.407 1.64493 117.759 1.11545 112.048C0.645272 106.999 0.484015 101.926 0.632497 96.8567C0.978512 87.3723 2.6889 77.9872 5.71101 68.9905C11.386 51.9945 21.4049 36.777 34.7742 24.8467C48.1435 12.9165 64.3989 4.68783 81.9287 0.976678C82.3461 0.887581 82.7752 0.847747 83.1972 0.768028C84.8385 0.460878 86.1492 1.08921 86.7728 2.48897C87.3965 3.88873 86.9277 5.34244 85.6568 6.32486C82.576 8.70468 79.3005 10.8875 76.5127 13.5675C73.7811 16.2397 71.2994 19.1561 69.0988 22.2803C63.3075 30.3342 59.5678 39.3751 57.0825 48.932C56.0016 53.0773 55.2255 57.3024 54.3205 61.4923C54.2997 61.7263 54.2997 61.9617 54.3205 62.1957C55.3029 61.3493 56.1563 60.5709 57.0543 59.8511C62.5502 55.4079 68.8362 52.9179 75.8608 52.2028C80.7945 51.6888 85.781 52.1128 90.5572 53.4525C91.8186 53.8042 92.9979 54.4747 94.1773 55.0726C94.9205 55.4501 95.5724 55.5978 96.3883 55.2157C98.114 54.4068 99.8467 54.7772 101.483 55.5158C104.864 57.0422 107.364 59.4806 108.578 63.0187C108.898 64.0231 108.987 65.0865 108.838 66.13C108.698 67.1734 109.096 67.9049 109.558 68.7209C111.103 71.4336 112.979 74.0878 113.333 77.2273C113.568 79.382 114.651 80.0737 116.405 80.7771C121.038 82.6294 123.204 85.8111 122.895 90.2683C122.775 92.0338 122.205 93.7735 121.793 95.5133C121.614 96.0924 121.396 96.6587 121.141 97.2084ZM149.94 90.9154L149.675 91.1499L149.206 91.4125H149.225C149.038 91.4245 148.854 91.4681 148.681 91.5414C145.356 93.6172 142.299 96.0946 139.579 98.9177C138.663 99.8673 137.704 100.793 136.841 101.776C134.981 103.902 133.195 106.095 131.314 108.205C130.339 109.3 130.278 109.248 130.845 110.601L137.675 105.966L140.698 104.388C141.113 104.015 141.605 103.703 141.926 103.262C143.734 100.784 145.333 98.1299 147.319 95.811C149.605 93.1106 152.626 91.1314 156.015 90.1135C161.666 88.4136 166.369 90.9341 168.083 96.5613C168.154 96.7958 168.229 97.0162 168.301 97.2436L168.608 97.1944C168.456 95.661 168.454 94.0924 168.118 92.5989C167.335 89.0819 164.625 86.9717 161.021 87.0209C157.129 87.0842 153.696 88.6012 150.47 90.6716L149.893 90.9412L149.94 90.9154ZM162.334 181.185L162.838 180.95L162.822 180.981L163.326 180.495L163.312 180.563C163.35 180.575 163.391 180.572 163.428 180.555C163.464 180.538 163.493 180.509 163.509 180.472C163.889 180.205 164.287 179.958 164.648 179.665C183.933 164.087 196.172 144.216 200.904 119.841C201.673 115.872 201.896 111.795 202.374 107.769C202.472 106.542 202.572 105.317 202.674 104.095C202.403 104.197 202.179 104.395 202.046 104.653C198.933 109.976 195.229 114.931 191.005 119.424C187.04 123.691 182.634 127.462 178.053 131.042C177.385 131.511 176.695 131.949 176.055 132.449C175.833 132.637 175.685 132.898 175.638 133.185C175.485 134.411 175.387 135.642 175.27 136.873C174.383 138.191 173.628 139.64 172.58 140.803C169.955 143.726 166.578 145.874 162.817 147.011C162.552 147.058 162.283 147.091 162.02 147.15C157.523 148.153 153.066 148.397 148.681 146.587C148.337 146.444 147.837 146.535 147.45 146.648C142.592 148.104 137.611 149.115 132.569 149.668C131.537 149.778 130.414 149.825 129.521 150.275C123.61 153.267 117.371 154.357 110.801 153.869C110.313 153.834 109.788 154.08 109.305 154.263C107.683 154.873 106.105 155.888 104.442 156.05C102.196 156.27 99.8842 155.844 97.6005 155.694L93.6357 154.198C89.8514 151.914 87.0355 148.714 86.318 144.35C85.8162 141.302 84.379 139.673 81.7202 138.629C81.0754 138.376 80.6463 138.299 80.025 138.66C76.6651 140.606 73.0472 141.787 69.1481 141.942C56.6768 142.456 46.1704 132.153 46.3017 119.509C46.3557 114.289 47.6007 109.302 49.5843 104.503C49.8867 103.764 49.7695 103.262 49.4224 102.575C48.2501 100.247 47.0379 97.9165 46.1399 95.4734C45.4131 93.4781 45.12 91.3234 44.6347 89.239C44.6347 88.8873 44.6347 88.5356 44.6182 88.1839C44.0821 80.3793 46.029 73.2531 50.4588 66.8053C50.7336 66.3401 50.901 65.8194 50.9488 65.2813C52.3369 55.3469 54.5666 45.6307 58.379 36.3224C63.7553 23.1923 71.6779 12.0622 83.7646 4.23573C84.0021 4.11189 84.251 4.01137 84.5079 3.93561L84.1937 3.46667C83.8752 3.46768 83.557 3.4912 83.2418 3.53703C81.9827 3.79963 80.7189 4.0599 79.4715 4.37174C73.2887 5.91921 67.2372 7.8348 61.5139 10.7023C61.2178 10.7881 60.9266 10.8898 60.6416 11.0071C52.4605 14.8245 44.844 19.75 38.0063 25.6448C33.5984 29.4502 29.4718 33.5346 25.8821 38.1372L25.5046 38.5873C25.4856 38.5891 25.4672 38.5951 25.4506 38.6046C25.434 38.6141 25.4197 38.6271 25.4086 38.6427C25.3975 38.6582 25.3898 38.676 25.3862 38.6948C25.3825 38.7135 25.3829 38.7329 25.3874 38.7515L25.1412 39.3024L25.1248 39.2415L24.5691 39.7596L24.4518 39.9284L24.2174 40.4748L24.1869 40.4068L23.718 40.9203L23.7531 40.9039L23.5069 41.4103L23.4812 41.3446L23.0122 41.8558L23.0474 41.8441L22.8012 42.3482L22.7754 42.2848L22.3065 42.7983L22.3346 42.7796L21.8211 43.483H21.8657L21.6125 43.9847L21.5914 43.9214C21.4413 44.0949 21.2889 44.2661 21.1365 44.4396L21.1646 44.4208L20.6605 45.1383L20.6933 45.1219L20.1869 45.8253H20.2221C20.0533 46.0598 19.8845 46.2942 19.718 46.5287H19.7531L19.2537 47.2485H19.2889L18.0767 49.1242H18.1142L17.3686 50.2966H17.4085C17.1881 50.6108 16.9396 50.9109 16.752 51.2344C3.93456 73.7713 0.254989 97.7118 5.71335 123.056C15.0357 165.914 52.5151 198.003 96.2523 200.77C114.473 201.923 131.807 198.54 148.053 190.176C152.613 187.832 156.831 184.828 161.209 182.127V182.16L161.912 181.647L161.893 181.67L162.407 181.201L162.334 181.185ZM113.8 90.1252C113.625 91.0256 113.45 91.9267 113.274 92.8286L111.68 97.736C113.373 97.5015 114.979 97.0912 116.578 97.1123C118.006 97.1334 118.538 96.5027 118.939 95.3233C119.732 92.9974 120.527 90.6856 119.926 88.1745C119.743 86.8873 119.249 85.7759 118.142 85.0115L114.191 82.5872C114.051 85.3351 113.926 87.7314 113.8 90.1299V90.1252ZM165.005 96.2565C164.147 93.8649 162.111 92.341 159.612 92.3175C156.843 92.2941 154.468 93.3703 152.344 95.0701L150.107 96.7372L165.504 105.532C166.022 102.242 166.397 99.2061 165.007 96.2612L165.005 96.2565ZM137.04 140.256C137.767 139.161 138.515 138.078 139.202 136.96C139.335 136.746 139.298 136.374 139.23 136.099C138.726 134.074 138.191 132.052 137.666 130.031C137.719 129.164 137.772 128.296 137.825 127.429L138.123 127.377C138.306 127.743 138.491 128.104 138.669 128.472C139.828 130.876 140.984 133.28 142.14 135.684C144.899 141.185 148.756 145.173 155.424 145.159C156.87 145.147 158.312 145.026 159.739 144.796C164.73 144.024 168.74 141.532 171.724 137.499C173.694 134.84 173.265 132.151 170.787 130.027C169.86 129.583 168.974 128.99 167.999 128.73C166.034 128.207 164.74 127.044 164.013 125.194C163.755 124.55 163.509 123.9 163.256 123.251C162.967 121.67 162.681 120.09 162.383 118.463C161.753 119.192 161.166 119.914 160.529 120.594C157.849 123.457 154.817 125.806 150.956 126.857C145.474 128.345 140.862 125.82 139.324 120.362C138.859 118.711 138.651 116.999 138.707 115.286C138.787 113.159 139.265 111.049 139.572 108.932V107.853L134.313 111.727C132.672 113.225 130.888 114.585 129.478 116.268C128.407 117.546 127.826 119.237 127.026 120.744C123.804 125.797 120.135 130.456 115.303 134.109C115.171 134.23 115.067 134.378 114.997 134.542C114.926 134.707 114.892 134.884 114.895 135.063C115.204 138.874 114.951 142.709 114.142 146.446L112.341 151.136C112.48 151.163 112.62 151.183 112.761 151.194C120.067 151.417 126.723 149.553 132.517 144.99C133.518 144.202 134.374 143.232 135.296 142.345L137.04 140.256ZM63.3685 138.47C64.6276 138.704 65.8749 139.093 67.141 139.173C73.073 139.522 78.1187 137.297 82.5525 133.546C84.7705 131.67 85.6943 129.168 85.5607 126.278C85.6545 123.607 84.6463 121.267 83.3286 119.04C83.1926 118.805 82.7002 118.688 82.3743 118.688C80.7331 118.688 79.1105 118.728 77.4786 118.786C74.3743 118.894 71.5818 119.959 68.9933 121.614C68.2008 122.317 67.3919 122.922 66.3509 122.017C65.3661 119.999 64.4446 117.94 63.3567 115.977C62.9091 115.262 62.2871 114.671 61.549 114.261C58.2728 112.366 55.3146 109.968 52.7824 107.155C52.5104 106.852 52.222 106.564 51.8445 106.165C50.4377 109.968 49.3544 113.668 49.1809 117.605C49.1551 118.922 49.0309 120.247 49.1176 121.558C49.5514 128.085 52.6956 132.927 58.3533 136.17L63.3685 138.47ZM154.597 117.171L142.322 109.396C142.036 110.754 141.704 111.907 141.568 113.086C141.239 115.928 141.145 118.763 142.707 121.354C143.682 123.361 145.333 124.43 147.511 124.491C151.863 124.613 154.967 122.165 158.02 119.276L154.597 117.171ZM161.41 106.118L148.395 98.5989C146.716 100.575 145.239 102.604 144.233 104.948C143.898 105.626 143.561 106.303 143.204 107.026L159.671 117.382C161.8 114.779 163.451 111.82 164.547 108.641C164.639 108.381 164.402 107.827 164.154 107.663C163.272 107.089 162.334 106.625 161.396 106.118H161.41ZM109.804 94.1604C107.994 96.8896 106.09 99.5531 103.514 101.628C94.3414 109.016 84.2383 109.703 73.5654 105.591C71.9007 104.951 70.379 104.256 68.576 104.824C68.2571 104.925 67.8726 104.85 67.5303 104.824C64.6159 104.653 62.1375 103.405 59.8515 101.558L58.4775 102.857L55.1294 105.614C55.4224 105.931 55.617 106.17 55.8328 106.381C65.7436 115.851 77.3051 118.338 90.2218 114.135C97.4715 111.771 103.162 107.197 107.021 100.51L109.926 94.2753C109.964 94.1252 109.999 93.9752 110.034 93.8275L109.901 93.7946C109.865 93.9189 109.833 94.0408 109.797 94.1604H109.804ZM56.651 101.014L57.9664 99.9212C57.1927 98.4793 56.3252 97.2038 55.7953 95.8063C54.6886 92.9341 54.6557 90.0924 56.5619 87.4406C56.7612 87.1639 56.7495 86.6387 56.6675 86.2683C55.8586 82.5966 55.6616 78.9131 56.5056 75.2296C58.3509 67.1757 63.1105 61.225 69.9312 56.7842C70.2524 56.5756 70.5689 56.3645 70.8878 56.1535C70.6023 56.0262 70.2794 56.0103 69.9828 56.1089C64.7757 57.6052 60.0393 60.4121 56.2266 64.2613C52.9981 67.5134 50.4424 71.2156 49.0801 75.6517C48.9108 75.9948 48.7605 76.3471 48.63 76.7068C46.9855 81.8719 46.8141 87.3933 48.1352 92.6504C49.1318 96.6857 50.9695 100.465 53.5279 103.741L56.651 101.014ZM104.557 144.671C104.989 141.984 105.403 139.295 105.858 136.615C106.006 135.745 105.678 135.351 104.895 134.936C100.522 132.617 97.3378 129.199 95.6895 124.472C94.8619 122.095 95.1479 119.834 96.6954 117.818C97.5593 116.663 98.4993 115.566 99.509 114.535C104.433 109.633 110.105 105.682 115.844 101.816C116.611 101.27 117.493 100.906 118.421 100.752C119.35 100.598 120.302 100.658 121.204 100.927C122.651 101.34 124.018 102.02 125.5 102.611C126.022 102.179 125.816 101.884 125.157 101.57C121.148 99.6493 117.012 99.2647 112.731 100.461C110.939 100.911 109.388 102.031 108.398 103.591C105.774 107.6 102.32 110.805 98.2687 113.361C94.4528 115.744 90.2258 117.394 85.8045 118.226C87.7459 121.743 88.5548 125.412 87.8725 129.335C87.1808 130.812 86.6134 132.367 85.7482 133.734C85.2253 134.564 85.209 135.14 85.624 135.94C88.536 141.651 93.0823 145.576 98.876 148.153C101.19 149.185 102.405 148.803 103.704 146.596C104.022 145.971 104.305 145.329 104.55 144.671H104.557ZM99.706 118.038C97.4716 120.46 97.1784 122.092 98.5547 125.016C99.9793 128.025 102.264 130.545 105.12 132.256C105.373 132.411 105.657 132.51 106.058 132.7C106.149 130.639 106.233 128.714 106.318 126.779C106.552 125.687 106.695 124.559 107.054 123.497C107.448 122.346 108.36 121.724 109.607 121.598C110.855 121.471 111.586 122.181 112.072 123.168C112.557 124.156 112.935 125.239 113.359 126.278C113.743 127.982 114.126 129.689 114.517 131.424C114.635 131.386 114.748 131.334 114.853 131.269C115.188 131.002 115.525 130.735 115.842 130.446C119.467 127.161 122.568 123.341 125.04 119.119C126.137 117.244 126.993 115.232 127.84 113.23C128.165 112.458 128.163 111.548 128.351 110.465L126.695 111.29C125.169 111.452 123.598 111.914 122.126 111.698C120.036 111.396 119.375 109.251 120.658 107.567C121.161 106.97 121.71 106.413 122.299 105.9C122.738 105.483 123.204 105.096 123.706 104.657C123.289 104.407 123.028 104.231 122.754 104.088C120.592 102.951 118.548 102.737 116.423 104.369C112.869 107.108 109.127 109.6 105.619 112.392C103.483 114.09 101.661 116.146 99.6989 118.038H99.706ZM65.2395 75.579C65.3286 78.1745 65.8069 80.2214 67.4927 81.8087C69.3685 83.5743 72.2688 83.3938 73.5725 81.1827C75.6527 77.5992 76.9973 73.6368 77.5278 69.5274C77.8045 67.5298 76.9346 66.0433 75.148 65.1124C73.3614 64.1816 71.746 64.6576 70.358 65.8158C68.8901 67.015 67.6788 68.4975 66.7962 70.1748C65.9136 71.8522 65.3778 73.6901 65.2208 75.579H65.2395ZM89.0401 145.03C89.0964 145.19 89.1597 145.41 89.2464 145.621C91.4058 150.852 96.3179 153.79 102.815 153.764C106.217 153.75 108.728 152.256 110.318 149.269C110.78 148.455 111.146 147.589 111.408 146.69C113.347 139.398 112.67 132.231 110.273 125.164C110.116 124.801 109.926 124.454 109.706 124.125L109.335 124.174C109.176 125.112 108.937 126.05 108.867 126.988C108.529 131.701 108.318 136.423 107.898 141.126C107.645 143.94 106.883 146.664 105.064 148.946C103.338 151.11 101.221 151.759 98.6274 150.885C97.3965 150.502 96.2158 149.973 95.1105 149.309C93.0378 147.966 91.0565 146.46 89.0401 145.03ZM62.6018 87.5555C59.4248 87.5133 57.4435 89.6657 57.8022 92.7958C58.3087 97.3304 63.052 101.837 67.6194 102.118C71.0285 102.329 73.1293 100.132 72.7494 96.7606C72.2313 92.1628 67.2184 87.6094 62.6018 87.5555ZM75.6756 57.0937C83.8326 54.5545 90.8174 56.8452 96.9229 61.9401C96.8619 62.8545 96.6204 63.6447 96.8009 64.3223C97.3027 66.2191 99.8162 67.6681 101.725 67.164C102.442 66.9765 102.806 67.164 103.195 67.6587C104.421 69.2273 105.75 70.7208 106.869 72.3598C108.862 75.2742 110.482 78.3691 110.719 82.0197C110.813 81.1897 110.925 80.3434 110.794 79.5368C109.919 74.1441 107.183 69.722 103.476 65.8111C98.6556 60.7256 93.2793 56.5896 86.1421 55.3915C82.4962 54.7842 79.0542 55.6283 75.6756 57.0937ZM122.334 109.255C122.579 109.332 122.828 109.394 123.08 109.441C126.749 109.715 131.788 105.438 132.1 101.792C132.157 101.169 132.022 100.542 131.713 99.9977C131.404 99.4529 130.936 99.0155 130.372 98.7442C129.396 98.3151 128.73 98.6129 128.773 99.6399C128.888 102.772 127.223 104.92 125.033 106.824C124.187 107.555 123.368 108.32 122.334 109.255ZM135.476 146.301L135.488 146.589L145.141 144.498C143.659 142.742 142.381 141.227 141.052 139.647C140.114 140.861 139.272 142.015 138.358 143.105C137.443 144.195 136.44 145.246 135.476 146.308V146.301ZM105.999 64.2824C105.765 61.429 101.31 57.4173 98.7024 57.6916L105.999 64.2824ZM70.2641 117.717L67.12 116.812C67.4998 117.607 67.7928 118.219 68.0859 118.824L70.2641 117.717ZM75.2887 57.2555C75.2629 57.2227 75.2348 57.1687 75.216 57.1711C75.148 57.1868 75.0813 57.208 75.0167 57.2344C75.0425 57.2602 75.0707 57.3118 75.0918 57.3094C75.1586 57.2992 75.2245 57.2836 75.2887 57.2625V57.2555Z" fill="#50144D"/>
<path d="M202.374 107.774C201.905 111.799 201.67 115.877 200.904 119.846C196.172 144.231 183.933 164.092 164.648 179.67C164.287 179.963 163.888 180.209 163.509 180.477L163.312 180.568L163.326 180.5L162.822 180.986L162.838 180.955L162.334 181.19L162.397 181.211L161.884 181.68L161.903 181.656L161.199 182.17V182.137C160.798 182.244 160.406 182.382 160.027 182.552C155.673 184.915 151.427 187.497 146.965 189.628C135.345 195.178 123.002 198.069 110.175 198.706C102.611 199.116 95.0249 198.658 87.5652 197.342C76.1233 195.286 65.291 191.536 55.3051 185.544C36.4313 174.333 21.6716 157.339 13.2138 137.082C8.02977 124.725 5.54679 111.799 5.54913 98.4371C5.54913 93.5133 6.11181 88.5638 6.68157 83.6658C7.36957 77.6494 8.79164 71.7399 10.916 66.0691C12.7918 61.1102 15.0473 56.2989 17.1247 51.4174C17.248 51.0555 17.3436 50.6847 17.4107 50.3083H17.3709L18.1165 49.136H18.079L19.2911 47.2603H19.256L19.7554 46.5405H19.7202C19.889 46.306 20.0555 46.0716 20.2243 45.8371H20.1892L20.6956 45.1337L20.6628 45.1501L21.1669 44.4327L21.1388 44.4514C21.2912 44.2779 21.4436 44.1067 21.5936 43.9332L21.6147 43.9965L21.8679 43.4948H21.8234L22.3369 42.7914L22.3087 42.8101L22.7777 42.2967L22.8034 42.36L23.0496 41.8559L23.0145 41.8676L23.4834 41.3564L23.5068 41.4221L23.7554 40.9157L23.7226 40.932L24.1915 40.4186L24.222 40.4866L24.4564 39.9403L24.5737 39.7715L25.1294 39.2533L25.1457 39.3143L25.3919 38.7632C25.3875 38.7446 25.3871 38.7253 25.3907 38.7066C25.3944 38.6878 25.4021 38.67 25.4132 38.6545C25.4243 38.6389 25.4386 38.626 25.4552 38.6164C25.4718 38.6069 25.4901 38.601 25.5092 38.5991L25.875 38.1372C29.4646 33.5347 33.5912 29.4503 37.9992 25.6449C44.8368 19.7501 52.4534 14.8246 60.6345 11.0072C60.9195 10.8899 61.2107 10.7881 61.5068 10.7024C61.2665 11.0399 60.9948 11.3539 60.6954 11.6403C55.9573 15.3999 51.5989 19.6146 47.6826 24.224C42.5853 30.1935 38.5619 36.8852 34.9042 43.7879C31.2065 50.7672 28.4734 58.2162 26.78 65.9308C25.4953 71.6763 24.7884 77.5358 24.6698 83.4219C24.5526 90.1159 25.0356 96.7466 26.4025 103.302C26.5455 104.006 26.3861 104.285 25.7436 104.512C24.4504 104.977 23.3451 105.853 22.5968 107.005C21.8486 108.158 21.4987 109.524 21.6007 110.894C21.7906 114.517 25.2607 117.523 28.8152 116.801C29.8351 116.592 30.2524 116.859 30.6604 117.785C32.107 121.068 33.5232 124.376 35.1879 127.548C40.3645 137.384 47.3669 146.143 55.8209 153.358C61.3747 158.165 67.4941 162.276 74.0436 165.6C81.5005 169.394 89.4687 172.086 97.6989 173.59C98.8009 173.79 99.0752 174.345 99.2511 175.26C100.449 181.494 106.693 185.576 112.888 184.066C117.23 183.011 120.034 180.233 121.303 175.949C121.514 175.234 121.771 174.847 122.611 174.777C124.201 174.667 125.774 174.364 127.356 174.151C136.25 172.943 144.707 170.284 152.798 166.446C161.126 162.471 168.792 157.235 175.525 150.925C180.319 146.497 184.574 141.519 188.203 136.095C193.865 127.579 198.681 118.62 201.743 108.801C201.86 108.428 202.158 108.109 202.374 107.774ZM49.9382 168.969C53.4129 168.969 56.3508 166.156 56.3157 162.681C56.2961 160.985 55.6121 159.365 54.4108 158.169C53.2095 156.972 51.5867 156.295 49.8913 156.282C47.0097 156.282 43.5607 158.552 43.5232 162.732C43.4998 166.442 46.9229 169.222 49.9382 168.969Z" fill="#DBA70F"/>
<path d="M202.374 107.774C202.158 108.121 201.86 108.439 201.741 108.817C198.679 118.636 193.863 127.595 188.2 136.111C184.572 141.536 180.317 146.513 175.523 150.941C168.79 157.252 161.124 162.487 152.796 166.463C144.705 170.301 136.247 172.96 127.354 174.167C125.771 174.381 124.198 174.683 122.608 174.793C121.76 174.854 121.511 175.241 121.3 175.966C120.032 180.249 117.228 183.028 112.885 184.083C106.691 185.586 100.447 181.504 99.2487 175.276C99.0728 174.362 98.7985 173.806 97.6965 173.607C89.4663 172.102 81.4982 169.41 74.0413 165.616C67.4918 162.292 61.3723 158.181 55.8186 153.375C47.3646 146.16 40.3621 137.4 35.1856 127.565C33.5209 124.392 32.1047 121.084 30.658 117.802C30.2501 116.876 29.8327 116.608 28.8128 116.817C25.2583 117.539 21.7788 114.533 21.5983 110.911C21.4963 109.54 21.8463 108.174 22.5945 107.022C23.3427 105.869 24.448 104.993 25.7413 104.529C26.3837 104.294 26.5432 104.015 26.4002 103.319C25.0332 96.7537 24.5502 90.1323 24.6675 83.4383C24.786 77.5522 25.493 71.6927 26.7777 65.9472C28.4711 58.2326 31.2041 50.7835 34.9019 43.8042C38.5596 36.8945 42.583 30.2052 47.6803 24.2404C51.5966 19.631 55.955 15.4163 60.6931 11.6567C60.9925 11.3703 61.2641 11.0563 61.5044 10.7188C67.2277 7.863 73.2792 5.94741 79.4621 4.38822C80.7094 4.07638 81.9732 3.81611 83.2323 3.55351C83.5476 3.50768 83.8657 3.48416 84.1842 3.48315L84.4984 3.95209C84.2415 4.02785 83.9926 4.12837 83.7551 4.25221C71.6684 12.0787 63.7459 23.2064 58.3696 36.3389C54.5572 45.6472 52.3274 55.3634 50.9393 65.2977C50.8915 65.8359 50.7241 66.3566 50.4493 66.8218C46.0117 73.2743 44.0648 80.4005 44.6087 88.2003C44.6345 88.5497 44.6088 88.9037 44.6252 89.2554C44.4775 89.7244 44.1914 90.2144 44.2008 90.688C44.2641 93.3328 44.3884 95.9799 44.515 98.6247C44.5666 99.7056 44.8362 100.798 44.726 101.858C44.5595 103.478 44.1023 105.068 43.8538 106.683C42.8104 113.455 42.7307 120.207 44.6604 126.847C46.236 132.268 49.1316 136.861 53.6357 140.367C57.4082 143.304 61.7318 144.988 66.3554 146.034C70.0436 146.868 73.7505 147.222 77.4644 146.414C79.2299 146.031 80.9252 145.328 82.7564 144.735C84.9369 148.61 88.2077 151.551 92.1679 153.752C92.604 153.987 93.1361 154.055 93.6262 154.2L97.5933 155.682C97.9896 155.888 98.3648 156.186 98.7868 156.287C103.84 157.501 108.927 157.663 114.09 157.054C120.644 156.282 126.934 154.542 133.094 152.268C134.665 151.689 136.163 151.251 137.926 151.302C141.263 151.401 144.618 151.14 147.957 150.911C152.695 150.587 157.26 149.419 161.703 147.773C162.111 147.623 162.442 147.262 162.808 147C166.569 145.862 169.945 143.714 172.571 140.791C173.628 139.619 174.374 138.179 175.26 136.861C175.427 136.77 175.684 136.718 175.743 136.582C176.526 134.737 177.281 132.88 178.043 131.025C182.625 127.445 187.03 123.675 190.995 119.408C195.219 114.915 198.923 109.96 202.036 104.636C202.169 104.379 202.393 104.18 202.664 104.078C202.571 105.309 202.474 106.54 202.374 107.774Z" fill="#FECD00"/>
<path d="M17.4061 50.2917C17.339 50.6681 17.2434 51.0389 17.1201 51.4008C15.0427 56.2823 12.7778 61.0936 10.9114 66.0525C8.78704 71.7233 7.36502 77.6328 6.67702 83.6492C6.10727 88.5542 5.54453 93.4968 5.54453 98.4205C5.54453 111.785 8.02516 124.709 13.2092 137.065C21.6686 157.326 36.4318 174.321 55.3099 185.532C65.3052 191.525 76.1281 195.274 87.57 197.33C95.0297 198.647 102.616 199.104 110.18 198.695C123.007 198.047 135.35 195.178 146.97 189.616C151.424 187.485 155.678 184.903 160.032 182.54C160.411 182.37 160.803 182.232 161.204 182.125C156.829 184.826 152.611 187.829 148.05 190.174C131.804 198.537 114.47 201.921 96.2499 200.767C52.5127 198.008 15.0333 165.921 5.71099 123.061C0.208862 97.757 3.88843 73.8164 16.7497 51.2389C16.9396 50.906 17.1857 50.6059 17.4061 50.2917Z" fill="#FBCB01"/>
<path d="M163.241 123.248C163.495 123.898 163.741 124.547 163.999 125.192C164.735 127.042 166.029 128.205 167.985 128.728C168.96 128.988 169.846 129.581 170.773 130.024C170.937 131.473 170.561 132.798 169.509 133.776C167.917 135.253 166.339 136.81 164.526 137.98C157.326 142.62 150.955 142.559 144.383 137.466C143.628 136.88 142.883 136.277 142.132 135.682C140.976 133.279 139.819 130.875 138.662 128.47C138.484 128.102 138.299 127.741 138.116 127.375L137.818 127.426C137.767 128.294 137.714 129.161 137.659 130.029C137.361 130.552 137.068 131.077 136.761 131.595C135.678 133.427 134.592 135.255 133.504 137.079C130.925 134.102 129.809 130.542 129.518 126.697C129.099 121.07 130.74 116.092 134.285 111.724L139.544 107.851V108.929C139.37 109.072 139.124 109.183 139.038 109.365C136.827 114.029 135.755 118.824 137.814 123.82C139.253 127.295 143.485 131.049 148.203 130.737C152.081 130.481 155.389 128.779 158.519 126.657C160.137 125.579 161.675 124.395 163.241 123.248Z" fill="#FDFDFD"/>
<path d="M113.364 126.296C112.939 125.258 112.569 124.186 112.076 123.187C111.584 122.188 110.866 121.49 109.612 121.616C108.358 121.743 107.453 122.364 107.059 123.516C106.7 124.568 106.559 125.696 106.322 126.798C102.606 125.028 100.123 122.322 99.6988 118.057C101.661 116.165 103.49 114.109 105.614 112.43C109.131 109.638 112.864 107.145 116.419 104.407C118.529 102.765 120.58 102.988 122.749 104.125C123.023 104.268 123.284 104.444 123.701 104.695C123.202 105.133 122.735 105.52 122.294 105.938C121.705 106.45 121.157 107.008 120.653 107.605C119.371 109.288 120.032 111.434 122.121 111.736C123.593 111.952 125.169 111.49 126.691 111.328C124.89 114.353 123.197 117.45 121.253 120.381C119.352 123.218 116.482 124.958 113.364 126.296Z" fill="#FDFDFD"/>
<path d="M93.6356 154.198C93.1455 154.052 92.6132 153.991 92.1771 153.75C88.217 151.548 84.9463 148.608 82.7658 144.732C80.9346 145.325 79.2487 146.029 77.4738 146.411C73.7599 147.22 70.053 146.866 66.3648 146.031C61.7412 144.985 57.4176 143.302 53.6451 140.364C49.141 136.859 46.2453 132.266 44.6697 126.845C42.7401 120.202 42.8198 113.45 43.8632 106.681C44.1117 105.065 44.5665 103.476 44.7354 101.855C44.8456 100.796 44.576 99.7031 44.5244 98.6222C44.3978 95.9774 44.2735 93.3303 44.2102 90.6855C44.2102 90.2166 44.4868 89.7289 44.6346 89.2529C45.1199 91.3373 45.413 93.4921 46.1398 95.4874C47.0308 97.9305 48.25 100.261 49.4223 102.589C49.7693 103.276 49.8913 103.778 49.5842 104.517C47.6076 109.321 46.3626 114.308 46.3016 119.522C46.1727 132.167 56.6767 142.47 69.148 141.956C73.0471 141.794 76.665 140.613 80.0249 138.674C80.6462 138.313 81.0753 138.39 81.7201 138.643C84.3789 139.686 85.8161 141.325 86.3179 144.364C87.0354 148.713 89.8513 151.914 93.6356 154.198Z" fill="#DAA60F"/>
<path d="M87.8608 129.325C88.5431 125.403 87.7341 121.738 85.7928 118.217C90.214 117.384 94.4411 115.734 98.257 113.351C102.309 110.796 105.76 107.591 108.386 103.581C109.376 102.022 110.927 100.901 112.719 100.451C117.003 99.2553 121.139 99.6398 125.146 101.56C125.804 101.874 126.011 102.17 125.488 102.601C124.008 102.01 122.639 101.33 121.192 100.918C120.29 100.648 119.339 100.588 118.41 100.742C117.481 100.896 116.599 101.26 115.833 101.806C110.095 105.663 104.421 109.623 99.4973 114.526C98.4876 115.557 97.5477 116.653 96.6837 117.809C95.1363 119.825 94.8502 122.085 95.6779 124.463C97.3191 129.19 100.51 132.608 104.883 134.927C105.666 135.342 105.994 135.736 105.847 136.606C105.392 139.286 104.977 141.975 104.545 144.662C97.7271 142.493 92.9229 137.94 89.3848 131.881C88.8878 131.03 88.372 130.181 87.8608 129.325Z" fill="#FCFBFC"/>
<path d="M49.1808 117.6C49.3544 113.673 50.44 109.963 51.8444 106.16C52.2242 106.559 52.5126 106.847 52.7823 107.15C55.3145 109.963 58.2727 112.361 61.5489 114.256C62.2871 114.666 62.9091 115.257 63.3566 115.973C64.4446 117.935 65.3661 119.994 66.3532 122.015C66.5056 122.854 66.6978 123.687 66.808 124.531C67.1879 127.48 67.4012 130.418 65.6802 133.093C65.2622 133.012 64.849 132.908 64.4423 132.782C58.5267 130.646 54.3298 126.54 51.2207 121.199C50.5291 120.006 49.8608 118.793 49.1808 117.6Z" fill="#FDFDFD"/>
<path d="M114.135 146.46C114.944 142.723 115.197 138.888 114.888 135.077C114.885 134.898 114.919 134.721 114.99 134.556C115.06 134.392 115.164 134.244 115.295 134.123C120.121 130.47 123.79 125.811 127.019 120.758C127.019 123.483 126.803 126.226 127.073 128.92C127.481 132.985 129.319 136.517 131.933 139.64C131.577 139.937 131.23 140.254 130.864 140.526C129.077 141.815 127.399 143.314 125.471 144.329C121.945 146.167 118.051 146.488 114.135 146.46Z" fill="#FDFCFD"/>
<path d="M49.073 75.6516C50.4352 71.2155 52.9909 67.5133 56.2195 64.2613C60.0322 60.412 64.7685 57.6051 69.9756 56.1089C70.2723 56.0102 70.5952 56.0262 70.8807 56.1535C70.5618 56.3645 70.2453 56.5755 69.9241 56.7842C63.1035 61.225 58.3438 67.1757 56.4986 75.2296C55.6545 78.913 55.8514 82.5965 56.6603 86.2683C56.7424 86.6411 56.7541 87.1663 56.5548 87.4406C54.6486 90.0924 54.6791 92.9341 55.7881 95.8063C56.3251 97.2131 57.1949 98.4792 57.9593 99.9212L56.6439 101.014C54.3157 98.5871 52.7448 95.6984 51.5701 92.573C49.6944 87.6187 49.1128 82.4722 49.2981 77.2108C49.3215 76.6973 49.1527 76.1721 49.073 75.6516Z" fill="#FCFBFC"/>
<path d="M107.019 100.505C103.16 107.192 97.4692 111.76 90.2195 114.13C77.3028 118.35 65.7412 115.846 55.8304 106.376C55.61 106.165 55.4153 105.926 55.127 105.609L58.4751 102.852C59.059 103.366 59.6053 103.928 60.2289 104.386C67.5583 109.761 75.7458 111.989 84.7915 111.07C92.9978 110.238 100.088 106.993 105.985 101.187C106.306 100.926 106.652 100.698 107.019 100.505Z" fill="#DACED9"/>
<path d="M68.9957 121.607C71.5748 119.947 74.3767 118.887 77.481 118.779C79.1223 118.721 80.7447 118.681 82.3766 118.681C82.7025 118.681 83.1949 118.8 83.3309 119.033C84.6486 121.26 85.6568 123.6 85.563 126.271C85.3314 126.401 85.1158 126.559 84.9206 126.739C81.7624 130.416 77.8116 132.728 73.0215 133.466C71.6147 133.684 70.1375 133.49 68.6932 133.485C70.2853 129.579 69.9547 125.593 68.9957 121.607Z" fill="#FDFCFD"/>
<path d="M65.2207 75.5788C65.3754 73.6913 65.9082 71.8543 66.7875 70.177C67.6668 68.4997 68.8747 67.0165 70.3391 65.8157C71.7271 64.6574 73.366 64.1932 75.1291 65.1123C76.8923 66.0314 77.7857 67.5296 77.5091 69.5272C76.9786 73.6367 75.6338 77.5991 73.5536 81.1826C72.25 83.3936 69.3472 83.5741 67.4739 81.8086C65.788 80.2213 65.3098 78.1744 65.2207 75.5788Z" fill="#947093"/>
<path d="M162.817 146.997C162.451 147.26 162.114 147.621 161.713 147.771C157.258 149.412 152.705 150.584 147.966 150.908C144.627 151.143 141.272 151.398 137.936 151.3C136.172 151.248 134.674 151.686 133.103 152.266C126.944 154.54 120.653 156.28 114.1 157.051C108.942 157.661 103.849 157.499 98.7962 156.284C98.3742 156.184 97.9991 155.886 97.6028 155.679C99.8865 155.83 102.198 156.256 104.445 156.036C106.107 155.874 107.685 154.863 109.307 154.249C109.79 154.066 110.316 153.82 110.803 153.855C117.368 154.343 123.612 153.253 129.523 150.261C130.414 149.811 131.537 149.764 132.571 149.654C137.613 149.101 142.594 148.09 147.453 146.634C147.839 146.521 148.339 146.43 148.684 146.573C153.068 148.383 157.525 148.139 162.022 147.135C162.283 147.077 162.552 147.044 162.817 146.997Z" fill="#DAA60F"/>
<path d="M89.04 145.03C91.0517 146.455 93.0376 147.965 95.1361 149.309C96.2415 149.972 97.4222 150.501 98.6531 150.885C101.246 151.769 103.364 151.119 105.089 148.946C106.909 146.664 107.668 143.944 107.924 141.126C108.344 136.423 108.555 131.701 108.892 126.988C108.96 126.05 109.199 125.112 109.361 124.174L109.732 124.125C109.951 124.454 110.141 124.801 110.299 125.164C112.695 132.23 113.373 139.398 111.434 146.69C111.172 147.589 110.806 148.455 110.344 149.269C108.744 152.256 106.233 153.75 102.841 153.764C96.3436 153.79 91.4316 150.852 89.2722 145.621C89.1596 145.41 89.0963 145.189 89.04 145.03Z" fill="#FAF9FA"/>
<path d="M107.019 100.505C106.651 100.697 106.303 100.926 105.98 101.187C100.083 106.993 93.0001 110.238 84.7868 111.07C75.7426 111.985 67.5552 109.756 60.2242 104.386C59.6005 103.917 59.0519 103.366 58.4704 102.852L59.8443 101.553C62.1374 103.401 64.6087 104.648 67.5231 104.819C67.8724 104.84 68.2499 104.915 68.5688 104.819C70.3718 104.252 71.8936 104.946 73.5583 105.586C84.2312 109.698 94.3343 109.012 103.507 101.624C106.086 99.5485 107.987 96.8849 109.797 94.1558L109.926 94.2753C108.956 96.3558 107.986 98.4324 107.019 100.505Z" fill="#FBFAFB"/>
<path d="M142.142 135.689C142.892 136.284 143.638 136.887 144.393 137.473C150.958 142.566 157.335 142.631 164.536 137.987C166.348 136.814 167.926 135.26 169.518 133.783C170.571 132.805 170.946 131.48 170.782 130.031C173.267 132.156 173.696 134.845 171.72 137.504C168.735 141.537 164.726 144.029 159.734 144.8C158.307 145.03 156.865 145.152 155.42 145.164C148.759 145.178 144.902 141.19 142.142 135.689Z" fill="#DACED9"/>
<path d="M87.8607 129.325C88.3719 130.181 88.8877 131.03 89.3895 131.891C92.9276 137.949 97.7317 142.502 104.55 144.671C104.301 145.326 104.014 145.965 103.692 146.587C102.393 148.793 101.178 149.166 98.8641 148.144C93.0705 145.565 88.5242 141.642 85.6121 135.93C85.1971 135.119 85.2136 134.554 85.7365 133.724C86.6016 132.357 87.1691 130.803 87.8607 129.325Z" fill="#DACED9"/>
<path d="M144.226 104.96C145.232 102.615 146.709 100.587 148.388 98.6106L161.403 106.13C160.491 108.006 159.607 109.881 158.632 111.731C158.508 111.966 157.835 112.13 157.539 112.013C155.096 111.035 152.599 110.137 150.271 108.913C148.156 107.774 146.236 106.282 144.226 104.96Z" fill="#D2D2D2"/>
<path d="M163.241 123.248C161.675 124.388 160.137 125.572 158.533 126.657C155.403 128.768 152.095 130.482 148.217 130.737C143.499 131.049 139.267 127.295 137.828 123.82C135.76 118.824 136.841 114.029 139.052 109.366C139.138 109.183 139.384 109.072 139.558 108.929C139.251 111.04 138.773 113.15 138.693 115.283C138.637 116.997 138.845 118.709 139.309 120.36C140.848 125.818 145.46 128.343 150.941 126.854C154.803 125.804 157.835 123.455 160.515 120.592C161.152 119.912 161.738 119.185 162.369 118.461C162.667 120.095 162.953 121.675 163.241 123.248Z" fill="#DACED9"/>
<path d="M142.7 121.354C141.138 118.763 141.232 115.928 141.56 113.086C141.696 111.914 142.029 110.754 142.315 109.396L154.59 117.171C153.959 117.989 153.417 118.913 152.679 119.607C150.894 121.267 148.946 122.807 146.315 122.503C145.082 122.362 143.903 121.752 142.7 121.354Z" fill="#D2D2D2"/>
<path d="M114.135 146.46C118.051 146.498 121.945 146.177 125.457 144.329C127.392 143.314 129.07 141.815 130.85 140.526C131.225 140.254 131.553 139.937 131.919 139.64L135.281 142.355C134.36 143.241 133.504 144.212 132.503 145C126.709 149.562 120.053 151.426 112.747 151.204C112.606 151.192 112.466 151.172 112.327 151.145L114.135 146.46Z" fill="#DACED9"/>
<path d="M49.1808 117.6C49.8608 118.8 50.5291 120.005 51.2231 121.199C54.3321 126.54 58.529 130.646 64.4446 132.782C64.8512 132.908 65.2645 133.012 65.6825 133.093C63.8701 135.621 61.4762 136.767 58.3508 136.165C52.6955 132.922 49.5513 128.08 49.1175 121.553C49.0308 120.242 49.155 118.918 49.1808 117.6Z" fill="#DACED9"/>
<path d="M68.6932 133.487C70.1375 133.487 71.6123 133.687 73.0215 133.469C77.8116 132.73 81.7624 130.42 84.9206 126.742C85.1158 126.561 85.3314 126.404 85.563 126.273C85.6966 129.168 84.7729 131.665 82.5549 133.541C78.1211 137.293 73.0753 139.515 67.1433 139.168C65.8772 139.096 64.6299 138.713 63.3708 138.465C65.6475 137.349 67.5162 135.787 68.6932 133.487Z" fill="#DACED9"/>
<path d="M62.6018 87.5555C67.2184 87.6165 72.2312 92.1628 72.7494 96.7607C73.1292 100.132 71.0285 102.329 67.6193 102.118C63.0519 101.837 58.3087 97.3304 57.8022 92.7959C57.4552 89.6658 59.4248 87.5133 62.6018 87.5555ZM67.2301 99.8134C69.1339 99.8298 70.44 98.5121 70.3626 96.6528C70.229 93.4735 66.5455 89.9096 63.345 89.8533C61.4177 89.8252 60.1797 91.0843 60.2384 93.0069C60.3415 96.1909 64.0343 99.7829 67.2301 99.8134Z" fill="#D0CFD0"/>
<path d="M135.288 142.345L131.926 139.63C129.312 136.507 127.471 132.976 127.066 128.911C126.796 126.217 127.012 123.473 127.012 120.749C127.811 119.241 128.393 117.551 129.464 116.273C130.871 114.589 132.669 113.225 134.299 111.731C130.754 116.099 129.113 121.084 129.532 126.704C129.818 130.549 130.939 134.109 133.518 137.086C134.695 138.145 135.871 139.203 137.047 140.261L135.288 142.345Z" fill="#E22F2F"/>
<path d="M144.226 104.96C146.236 106.294 148.156 107.792 150.278 108.913C152.599 110.139 155.096 111.035 157.546 112.013C157.842 112.13 158.515 111.963 158.639 111.731C159.614 109.891 160.498 108.003 161.41 106.13C162.329 106.636 163.286 107.101 164.154 107.675C164.402 107.839 164.639 108.393 164.548 108.653C163.451 111.831 161.8 114.791 159.671 117.394L143.204 107.037C143.553 106.303 143.891 105.626 144.226 104.96Z" fill="#B7ABB7"/>
<path d="M49.073 75.6516C49.1527 76.1745 49.3075 76.6997 49.3075 77.2202C49.1223 82.4816 49.7108 87.6281 51.5794 92.5824C52.7518 95.7008 54.3251 98.5894 56.6533 101.023L53.5349 103.755C50.9764 100.479 49.1387 96.6997 48.1422 92.6645C46.8211 87.4073 46.9924 81.8859 48.6369 76.7208C48.7624 76.3566 48.908 75.9997 49.073 75.6516Z" fill="#DACDD9"/>
<path d="M150.489 90.6576C153.706 88.5873 157.138 87.0703 161.04 87.007C164.644 86.9507 167.354 89.0749 168.137 92.5849C168.472 94.0784 168.475 95.647 168.627 97.1805L168.32 97.2297C168.247 96.9952 168.172 96.7748 168.102 96.5474C166.388 90.9202 161.685 88.3997 156.034 90.0996C152.645 91.1175 149.624 93.0966 147.338 95.7971C145.345 98.1159 143.746 100.77 141.945 103.248C141.624 103.689 141.131 104.001 140.719 104.374C140.798 103.994 140.857 103.607 140.965 103.234C142.261 98.7326 144.89 95.1383 148.484 92.1981C148.756 91.9473 149.013 91.6802 149.253 91.3985H149.234L149.703 91.1359L149.968 90.9015H149.94L150.489 90.6576Z" fill="#FAF6F8"/>
<path d="M75.6755 57.0937C79.0541 55.6283 82.4961 54.7772 86.1468 55.3915C93.2839 56.5896 98.6602 60.7256 103.481 65.8111C107.188 69.722 109.924 74.1347 110.799 79.5368C110.93 80.3433 110.817 81.178 110.723 82.0197C110.489 78.3691 108.866 75.2742 106.874 72.3597C105.755 70.7185 104.426 69.2273 103.199 67.6587C102.81 67.1616 102.447 66.9764 101.729 67.164C99.8161 67.6681 97.3026 66.2261 96.8056 64.3223C96.625 63.6446 96.8665 62.8545 96.9275 61.9401C90.822 56.8452 83.8325 54.5498 75.6755 57.0937Z" fill="#B49AB2"/>
<path d="M113.364 126.296C116.482 124.967 119.352 123.227 121.253 120.362C123.197 117.431 124.89 114.334 126.691 111.309L128.355 110.484C128.168 111.567 128.17 112.477 127.844 113.248C126.998 115.251 126.142 117.269 125.045 119.138C122.573 123.36 119.471 127.179 115.847 130.465C115.53 130.753 115.192 131.021 114.857 131.288C114.752 131.353 114.639 131.405 114.522 131.443C114.13 129.698 113.748 127.991 113.364 126.296Z" fill="#DACDD9"/>
<path d="M152.346 95.0748C154.475 93.3749 156.85 92.2987 159.614 92.3222C162.109 92.3456 164.144 93.8696 165.007 96.2611C164.648 97.3115 164.303 98.3714 163.928 99.41C163.661 100.158 163.166 100.444 162.383 100.095C160.193 99.1146 157.975 98.1955 155.818 97.1498C154.608 96.5659 153.499 95.7735 152.346 95.0748Z" fill="#D2D2D2"/>
<path d="M152.346 95.0747C153.499 95.7781 154.608 96.5659 155.816 97.1497C157.975 98.1954 160.193 99.1145 162.381 100.095C163.164 100.444 163.659 100.158 163.926 99.41C164.301 98.3666 164.646 97.3115 165.005 96.2611C166.395 99.206 166.02 102.242 165.504 105.537L150.109 96.7535L152.346 95.0747Z" fill="#B7ABB7"/>
<path d="M68.6932 133.487C67.5209 135.787 65.6451 137.349 63.3708 138.474L58.3509 136.165C61.4763 136.768 63.8702 135.621 65.6826 133.094C67.4036 130.418 67.1902 127.48 66.8104 124.531C66.7002 123.687 66.5079 122.854 66.3555 122.015C67.3942 122.918 68.2032 122.315 68.9957 121.609C69.9546 125.593 70.2852 129.579 68.6932 133.487Z" fill="#E22F2F"/>
<path d="M99.6989 118.038C100.123 122.303 102.606 125.009 106.323 126.779C106.238 128.709 106.154 130.639 106.062 132.699C105.657 132.51 105.373 132.411 105.124 132.256C102.269 130.545 99.9839 128.025 98.5594 125.016C97.1713 122.092 97.4644 120.46 99.6989 118.038Z" fill="#DACDD9"/>
<path d="M122.334 109.255C123.368 108.317 124.186 107.555 125.033 106.819C127.223 104.915 128.887 102.768 128.773 99.6351C128.737 98.6082 129.396 98.3104 130.372 98.7395C130.936 99.0108 131.404 99.4481 131.713 99.9929C132.022 100.538 132.157 101.164 132.1 101.788C131.788 105.433 126.749 109.71 123.08 109.436C122.828 109.39 122.579 109.33 122.334 109.255Z" fill="#FAF9FA"/>
<path d="M119.929 88.1792C120.529 90.6903 119.734 93.0022 118.941 95.3281C118.541 96.5004 118.004 97.1382 116.58 97.1171C114.981 97.096 113.375 97.5063 111.682 97.7407L113.277 92.8334C114.965 92.9412 116.482 92.4324 117.64 91.2413C118.519 90.334 119.174 89.2062 119.929 88.1792Z" fill="#FAF9FA"/>
<path d="M142.7 121.354C143.903 121.752 145.082 122.362 146.315 122.503C148.946 122.807 150.895 121.267 152.679 119.607C153.424 118.904 153.959 117.989 154.59 117.171L158.013 119.281C154.965 122.17 151.856 124.618 147.504 124.496C145.326 124.421 143.675 123.361 142.7 121.354Z" fill="#B7ABB7"/>
<path d="M149.237 91.3914C148.997 91.6731 148.74 91.9401 148.468 92.1909C144.873 95.1311 142.245 98.7255 140.949 103.227C140.841 103.6 140.782 103.987 140.702 104.367L137.678 105.945L139.591 98.8966C142.311 96.0735 145.368 93.5961 148.693 91.5203C148.866 91.447 149.05 91.4034 149.237 91.3914Z" fill="#E22F2F"/>
<path d="M137.042 140.261C135.867 139.201 134.691 138.143 133.514 137.086C134.598 135.261 135.684 133.433 136.77 131.602C137.078 131.084 137.371 130.559 137.668 130.036C138.194 132.057 138.728 134.078 139.232 136.104C139.3 136.378 139.338 136.751 139.204 136.964C138.517 138.083 137.769 139.166 137.042 140.261Z" fill="#DACED9"/>
<path d="M135.476 146.308C136.44 145.246 137.436 144.209 138.358 143.112C139.279 142.015 140.111 140.868 141.052 139.654C142.381 141.234 143.659 142.749 145.141 144.505L135.488 146.596L135.476 146.308Z" fill="#531D84"/>
<path d="M139.591 98.8965L137.678 105.945L130.848 110.587C130.29 109.234 130.35 109.286 131.316 108.191C133.192 106.081 134.983 103.888 136.843 101.762C137.715 100.763 138.674 99.8461 139.591 98.8965Z" fill="#FAF6F8"/>
<path d="M119.929 88.1791C119.174 89.2061 118.522 90.3339 117.64 91.2412C116.482 92.4323 114.965 92.9411 113.277 92.8333C113.453 91.9329 113.628 91.0318 113.802 90.1299C114.681 89.6117 115.793 89.2764 116.381 88.5285C117.178 87.5249 117.575 86.2026 118.142 85.0115C119.251 85.7805 119.746 86.8919 119.929 88.1791Z" fill="#E22F2F"/>
<path d="M118.144 85.0163C117.577 86.2027 117.181 87.5251 116.383 88.5333C115.793 89.2813 114.681 89.6166 113.804 90.1347C113.929 87.7361 114.053 85.3399 114.196 82.5967L118.144 85.0163Z" fill="#FAF6F8"/>
<path d="M105.999 64.2895L98.7023 57.6987C101.303 57.4243 105.757 61.4361 105.999 64.2895Z" fill="#F4F0F7"/>
<path d="M178.043 131.023C177.281 132.878 176.526 134.735 175.743 136.58C175.685 136.716 175.427 136.767 175.26 136.859C175.377 135.628 175.476 134.397 175.628 133.171C175.675 132.883 175.823 132.622 176.046 132.434C176.695 131.923 177.385 131.49 178.043 131.023Z" fill="#DAA60F"/>
<path d="M70.2641 117.724L68.0859 118.831C67.7928 118.221 67.4998 117.614 67.12 116.819L70.2641 117.724Z" fill="#F4F0F7"/>
<path d="M19.2864 47.2439L18.0743 49.1196L19.2864 47.2439Z" fill="#FBCB01"/>
<path d="M18.1119 49.1196L17.3663 50.292L18.1119 49.1196Z" fill="#FBCB01"/>
<path d="M21.1623 44.428L20.6582 45.1454L21.1623 44.428Z" fill="#FBCB01"/>
<path d="M19.7508 46.5356L19.2514 47.2554L19.7508 46.5356Z" fill="#FBCB01"/>
<path d="M20.2196 45.8323C20.0508 46.0667 19.8844 46.3012 19.7155 46.5357C19.882 46.3082 20.0508 46.0691 20.2196 45.8323Z" fill="#FBCB01"/>
<path d="M20.6909 45.1289L20.1845 45.8323L20.6909 45.1289Z" fill="#FBCB01"/>
<path d="M22.3322 42.7842L21.8188 43.4876L22.3322 42.7842Z" fill="#FBCB01"/>
<path d="M161.195 182.165L161.898 181.651L161.195 182.165Z" fill="#FBCB01"/>
<path d="M25.1247 39.2461L24.569 39.7643L25.1247 39.2461Z" fill="#FBCB01"/>
<path d="M21.589 43.9285C21.4389 44.102 21.2865 44.2731 21.1341 44.4466C21.2865 44.2731 21.4389 44.102 21.589 43.9285Z" fill="#FBCB01"/>
<path d="M24.1752 40.4114L23.7063 40.9248L24.1752 40.4114Z" fill="#FBCB01"/>
<path d="M22.766 42.2896L22.2971 42.803L22.766 42.2896Z" fill="#FBCB01"/>
<path d="M25.875 38.1372L25.4975 38.5874L25.875 38.1372Z" fill="#FBCB01"/>
<path d="M23.4694 41.3494L23.0005 41.8605L23.4694 41.3494Z" fill="#FBCB01"/>
<path d="M162.822 180.974L163.326 180.488L162.822 180.974Z" fill="#FBCB01"/>
<path d="M161.884 181.675L162.397 181.206L161.884 181.675Z" fill="#FBCB01"/>
<path d="M149.685 91.1265L149.216 91.3891L149.685 91.1265Z" fill="#E22F2F"/>
<path d="M23.7413 40.9084L23.4929 41.4149C23.5773 41.2461 23.6593 41.0773 23.7413 40.9084Z" fill="#FBCB01"/>
<path d="M21.8632 43.49L21.61 43.9917L21.8632 43.49Z" fill="#FBCB01"/>
<path d="M162.334 181.19L162.838 180.955L162.334 181.19Z" fill="#FBCB01"/>
<path d="M23.0379 41.8486L22.7917 42.3527L23.0379 41.8486Z" fill="#FBCB01"/>
<path d="M24.4518 39.9331L24.2173 40.4794L24.4518 39.9331Z" fill="#FBCB01"/>
<path d="M109.797 94.1604C109.833 94.0408 109.865 93.9259 109.898 93.7993L110.032 93.8322C109.997 93.9799 109.961 94.1299 109.924 94.28L109.797 94.1604Z" fill="#FBFAFB"/>
<path d="M25.3874 38.7561L25.1412 39.3071L25.3874 38.7561Z" fill="#FBCB01"/>
<path d="M150.489 90.6575L149.912 90.9271L150.489 90.6575Z" fill="#E22F2F"/>
<path d="M75.2887 57.2625C75.2247 57.2859 75.1589 57.3039 75.0918 57.3164C75.0707 57.3164 75.0425 57.2672 75.0167 57.2414C75.0814 57.215 75.148 57.1938 75.216 57.1781C75.2348 57.1757 75.2629 57.2297 75.2887 57.2625Z" fill="#B49AB2"/>
<path d="M163.312 180.556L163.509 180.465C163.493 180.501 163.464 180.531 163.428 180.548C163.391 180.565 163.35 180.568 163.312 180.556Z" fill="#FBCB01"/>
<path d="M149.94 90.9155L149.675 91.15L149.94 90.9155Z" fill="#E22F2F"/>
<path d="M49.9383 168.969C46.923 169.217 43.4999 166.437 43.5233 162.732C43.5514 158.552 47.0098 156.284 49.8914 156.282C51.5868 156.295 53.2096 156.972 54.4109 158.169C55.6122 159.365 56.2962 160.985 56.3158 162.681C56.3556 166.155 53.413 168.969 49.9383 168.969Z" fill="#FECD00"/>
<path d="M67.2299 99.8134C64.0342 99.7829 60.3367 96.1909 60.2382 93.0139C60.1796 91.0913 61.4105 89.8322 63.3449 89.8603C66.5453 89.9049 70.2288 93.4688 70.3625 96.6598C70.4399 98.5121 69.1338 99.8298 67.2299 99.8134ZM62.4023 92.5332C62.2288 94.8146 65.4246 97.8884 67.3543 97.6915C68.0577 97.6188 68.271 97.2014 68.2241 96.5707C68.0764 94.6645 65.3589 92.0174 63.4691 92.0315C63.0588 92.0362 62.6509 92.4066 62.4023 92.5332Z" fill="#51164E"/>
<path d="M62.4024 92.5331C62.6509 92.4089 63.0589 92.0384 63.4692 92.0337C65.359 92.0197 68.0765 94.6668 68.2242 96.573C68.2711 97.2037 68.0554 97.621 67.3544 97.6937C65.4247 97.886 62.2289 94.8121 62.4024 92.5331Z" fill="#A1A0A1"/>
</svg>
