<svg width="158" height="203" viewBox="0 0 158 203" fill="none" xmlns="http://www.w3.org/2000/svg">
<path fill-rule="evenodd" clip-rule="evenodd" d="M97.9021 0.0374968C96.2 0.240973 92.8003 0.997474 91.1446 1.5412C86.2877 3.13598 81.969 5.79032 78.1219 9.54509C75.8489 11.7636 74.6113 13.2636 72.7541 16.0514C69.0318 21.6381 67.2596 26.8855 66.7081 33.952L66.6001 35.3374L65.7631 36.2225C64.6144 37.4372 63.871 38.9356 63.1568 41.4763C62.5809 43.5255 62.5517 43.7435 62.5575 45.9553C62.5644 48.512 62.7622 49.6049 63.5989 51.7057C64.5735 54.1526 66.319 56.5053 68.0366 57.687L68.7339 58.1668L68.2027 58.7554C67.4764 59.5603 65.8997 61.6546 64.9064 63.1342L64.084 64.359L62.6737 64.6091C59.5701 65.1599 58.5886 65.255 55.9722 65.2585C52.5386 65.2628 51.4062 65.048 47.0731 63.5697C41.554 61.6868 40.8416 61.4858 39.3618 61.3931C37.7518 61.2922 37.0432 61.475 36.2109 62.2057C35.0244 63.2476 34.6924 65.1422 35.4209 66.7168L35.7903 67.5155L35.2705 68.1965C34.6557 69.0019 34.3439 70.2838 34.5496 71.1599C34.6261 71.4853 34.8775 72.0898 35.1084 72.503C35.3394 72.916 35.5283 73.4525 35.5283 73.6948C35.5283 75.0035 36.3931 76.2736 38.2141 77.6394C38.8976 78.1519 39.5198 78.623 39.5967 78.6862C39.6737 78.7495 39.2154 79.3298 38.5782 79.976C35.7752 82.8184 33.3683 87.5979 33.0347 90.9842C32.7561 93.812 34.1752 96.413 36.6227 97.5604C37.4143 97.9314 37.7306 97.9858 39.0559 97.9781C40.7506 97.9683 41.702 97.6636 43.5567 96.5369C44.09 96.213 44.5401 95.9738 44.5571 96.0054C44.574 96.037 44.9846 96.8541 45.4696 97.8211C46.5754 100.026 48.149 102.418 49.5834 104.075L50.6898 105.353L50.1504 106.79C49.3087 109.03 48.9773 110.506 48.8821 112.435C48.7442 115.227 49.323 117.012 50.8676 118.558C52.0907 119.782 53.5102 120.415 55.1953 120.489C57.2347 120.579 58.9105 119.983 61.0503 118.406C62.0729 117.652 64.62 115.115 65.1201 114.352L65.3579 113.989L66.678 114.516C68.8248 115.373 70.3491 115.625 73.3695 115.622C75.262 115.621 76.4032 115.54 77.3781 115.338C82.0798 114.366 87.0345 111.921 91.4109 108.415C92.5439 107.507 93.0469 107.212 93.7359 107.049C96.5693 106.379 100.139 104.798 102.732 103.063C105.553 101.177 107.662 99.1746 109.766 96.3835C110.232 95.7661 110.779 95.0624 110.982 94.8196C111.185 94.5767 111.786 93.5155 112.317 92.4613C112.848 91.407 113.868 89.528 114.584 88.2855C116.723 84.5725 116.951 83.8879 116.188 83.4795C115.909 83.33 115.915 83.2458 116.329 81.5982L116.761 79.8733L118.436 79.6771C124.501 78.9661 130.971 76.8388 136.186 73.8401C141.28 70.9117 145.685 67.1884 149.502 62.5865L151.21 60.5266L153.365 59.4877C155.94 58.2466 156.931 57.5522 157.492 56.5948C158.208 55.3726 157.977 53.5609 156.97 52.51L156.568 52.0898L156.894 51.5531C157.906 49.8895 157.154 47.5398 155.309 46.5985C154.625 46.2497 153.142 45.9553 152.07 45.9553H151.299L151.763 45.1937C153.123 42.9596 153.042 40.955 151.534 39.4896C149.698 37.7064 146.814 38.4766 140.99 42.3056C139.648 43.1883 138.275 44.1268 137.941 44.391C137.606 44.6553 137.305 44.8448 137.273 44.8122C137.241 44.7795 137.353 44.1034 137.521 43.3097C138.643 38.0396 138.57 31.9002 137.328 26.8744C135.196 18.2482 129.202 10.0468 121.862 5.71143C117.337 3.03833 113.056 1.3807 108.324 0.469625C106.426 0.104041 105.686 0.0476005 102.312 0.0115231C100.195 -0.0110854 98.2107 0.000617715 97.9021 0.0374968ZM97.3803 1.94671C86.3411 3.45154 77.1188 10.4679 71.6865 21.4947C70.4238 24.0576 69.8082 25.9462 69.1226 29.3597C68.7347 31.2906 68.3893 34.2517 68.5523 34.2485C68.6002 34.2475 69.0001 34.133 69.441 33.994C70.3069 33.7209 72.4408 33.6286 73.4049 33.8224C73.9438 33.9307 74.0086 33.9068 74.0743 33.5752C74.1143 33.3731 74.2995 32.3534 74.4856 31.3087C75.1241 27.7284 76.8629 23.4796 79.0803 20.0808C84.0282 12.497 92.1395 6.70636 100.99 4.43926C103.999 3.66848 105.664 3.43759 108.867 3.34667C110.693 3.29488 111.797 3.20589 111.649 3.12251C111.177 2.85891 108.074 2.18947 106.192 1.94559C103.9 1.64863 99.5624 1.64928 97.3803 1.94671ZM107.122 5.06492C97.7239 6.0714 89.1473 10.5161 83.2196 17.452C81.2662 19.7375 80.0067 21.6506 78.6523 24.3891C77.334 27.0548 76.5127 29.4834 76.0863 31.9778C75.6407 34.5845 75.6383 34.5679 76.5363 35.1318C76.9551 35.3948 77.3414 35.6313 77.3946 35.6572C77.4478 35.6832 77.539 35.1905 77.5974 34.5624C78.1713 28.3879 81.7142 21.3409 86.6222 16.6122C96.543 7.05382 109.18 4.22824 120.558 9.02429C123.25 10.159 126.315 12.1002 128.327 13.9441C129.664 15.1695 128.979 14.2355 127.275 12.5102C124.849 10.0524 121.724 7.61872 119.615 6.54409C117.426 5.42906 110.918 4.65845 107.122 5.06492ZM108.262 11.6406C104.921 12.0618 101.312 13.3175 99.746 14.6027L99.265 14.9974L101.189 15.0034C110.225 15.0311 117.457 17.86 123.772 23.8365C126.3 26.2287 128.737 29.1826 131.57 33.2882L132.731 34.9718L132.645 32.0856C132.585 30.0531 132.461 28.7434 132.228 27.6575C130.384 19.07 124.935 13.714 116.253 11.9544C114.434 11.5856 110.059 11.4139 108.262 11.6406ZM87.3184 31.8345C86.5343 32.0731 85.9314 32.4709 85.2747 33.1833C83.5449 35.06 83.8317 38.3706 85.9072 40.486C86.8584 41.4554 87.7868 41.8557 89.0832 41.8552C93.1418 41.8534 94.6986 36.5454 91.623 33.1956C90.4578 31.9267 88.77 31.3929 87.3184 31.8345ZM70.0075 35.6293C69.0139 35.8963 67.8958 36.563 67.1924 37.308L66.7152 37.8136L67.2764 37.6753C67.5851 37.5995 68.4958 37.5398 69.3003 37.5429C70.6595 37.548 70.8484 37.5907 71.9692 38.1445C74.0415 39.1688 75.7004 40.9598 76.8892 43.4569C79.3979 48.7256 79.092 54.3514 76.1364 57.307L75.4204 58.0231L76.0384 57.9074C77.6123 57.6126 79.2615 56.4098 80.2692 54.8209C81.893 52.2609 82.1582 47.527 80.8805 43.9044C78.7224 37.7856 74.3543 34.4612 70.0075 35.6293ZM67.3404 39.5167C65.4636 40.3972 64.2382 42.848 64.2323 45.7339C64.2228 50.2389 66.7261 55.136 69.813 56.652C70.5814 57.0293 70.9261 57.0992 72.0191 57.0992C73.1806 57.0992 73.3954 57.0492 74.0981 56.6148C75.0544 56.0235 75.7902 55.0884 76.2677 53.8574C76.7482 52.6184 76.8829 49.3197 76.5223 47.6159C75.7943 44.1747 73.7583 41.0384 71.4431 39.7914C70.2835 39.1668 68.3608 39.0381 67.3404 39.5167ZM147.849 40.5667C146.853 40.88 145.204 41.6544 145.204 41.8084C145.204 41.8844 145.378 41.9467 145.592 41.9467C146.45 41.9467 147.529 43.3605 147.702 44.7122C147.881 46.1035 146.615 47.5264 144.534 48.2749C143.852 48.5199 143.764 48.6015 143.859 48.8996C144.074 49.574 143.972 51.7883 143.697 52.4406C143.346 53.2725 142.681 54.1329 142.389 54.1329C142.08 54.1329 142.095 53.9935 142.501 53.0746C142.925 52.1175 142.954 50.5952 142.573 49.3054C142.195 48.022 142.346 47.7435 143.869 46.9253C146.003 45.7789 146.371 45.1945 145.678 44.0572C145.357 43.5314 145.336 43.5237 144.516 43.6315C143.378 43.7806 141.454 44.4338 140.433 45.0168C139.971 45.2812 139.201 45.8551 138.723 46.292C138.245 46.7288 137.785 47.0663 137.702 47.042C137.618 47.0176 137.264 47.2251 136.916 47.5031C136.408 47.9085 136.008 48.56 134.903 50.7902C132.638 55.3566 130.661 58.2207 127.682 61.2486L125.927 63.0319L126.118 64.2345C126.883 69.0631 129.378 72.3468 132.826 73.0634L133.676 73.2401L135.151 72.4018C140.391 69.4224 145.088 65.3702 148.837 60.5928L149.87 59.2762L152.307 58.0481C153.647 57.3726 154.979 56.6447 155.265 56.4303C156.297 55.6589 156.473 54.6644 155.725 53.8375C155.14 53.1904 154.943 53.1605 153.928 53.5653C153.407 53.7732 152.295 54.0275 151.457 54.1306C150.619 54.2336 149.551 54.4147 149.083 54.5332C147.245 54.9984 148.981 53.6847 151.416 52.7679C152.276 52.4438 153.442 51.9527 154.007 51.6762C155.578 50.9072 156.005 49.9368 155.261 48.8252C154.694 47.9765 153.704 47.6962 151.563 47.7768C149.835 47.8419 149.822 47.8455 149.238 48.3991C148.561 49.0413 147.502 49.7705 146.533 50.2626C145.803 50.633 145.524 50.6877 145.524 50.4607C145.524 50.2877 147.361 47.9542 148.818 46.276C150.122 44.7754 150.976 43.1413 150.976 42.1497C150.976 41.5491 150.888 41.3458 150.431 40.8885C149.972 40.4299 149.775 40.3451 149.188 40.354C148.804 40.36 148.202 40.4555 147.849 40.5667ZM90.8971 45.4907C89.3565 45.9364 89.3128 48.449 90.8319 49.2345C91.6344 49.6496 92.2503 49.5547 92.8868 48.9182C93.4226 48.3825 93.4479 48.3082 93.3786 47.4738C93.2967 46.4861 92.8891 45.9064 92.0146 45.5338C91.7308 45.4129 91.4782 45.3205 91.4534 45.3284C91.4285 45.3364 91.1782 45.4094 90.8971 45.4907ZM82.1292 55.0951L81.6693 56.053L82.7991 57.3779C89.2057 64.8897 99.1627 69.1564 108.522 68.4004C113.315 68.0134 117.832 66.5124 121.345 64.1394C123.327 62.8011 123.32 62.7185 121.302 63.6188C117.766 65.1967 113.519 66.3451 110.409 66.564C109.659 66.6169 108.729 66.6875 108.343 66.7211C107.158 66.8239 103.347 66.506 101.506 66.1506C94.6126 64.8203 87.8402 60.757 83.6807 55.4557C83.1099 54.7281 82.6308 54.1338 82.616 54.1349C82.6013 54.1361 82.3822 54.5682 82.1292 55.0951ZM79.9529 57.891C79.7508 58.106 79.1996 58.4841 78.728 58.731L77.8703 59.18L78.3858 59.7234C79.3963 60.7884 81.8173 62.7113 83.7116 63.9531C88.0134 66.7733 92.5553 68.5375 97.6616 69.3718C100.306 69.8039 100.387 69.7568 98.095 69.1184C91.878 67.3874 85.955 63.7012 81.8606 59.0153C81.1325 58.1819 80.4879 57.5001 80.4284 57.5001C80.369 57.5001 80.1549 57.676 79.9529 57.891ZM69.6323 59.785C68.6063 60.9561 66.6041 63.6156 66.6863 63.698C66.8399 63.8516 73.3186 61.7736 75.6746 60.8152L76.5808 60.4464L76.2178 60.1147C75.921 59.8434 75.5772 59.7683 74.3315 59.7032C73.2216 59.645 72.5094 59.5093 71.7069 59.2031C71.1011 58.972 70.5841 58.7828 70.558 58.7828C70.5317 58.7828 70.1153 59.2339 69.6323 59.785ZM77.6742 61.9073C77.6312 61.9503 76.5019 62.3837 75.1645 62.8706C72.0373 64.0091 67.9144 65.2532 65.2827 65.8524C64.142 66.1122 63.1811 66.3522 63.1474 66.386C63.1136 66.4199 63.263 66.7973 63.4793 67.2251C64.1231 68.4973 64.877 70.783 65.2051 72.4578C65.7398 75.1865 65.5371 77.773 64.6339 79.7457C64.4091 80.2367 64.2518 80.665 64.2842 80.6974C64.3633 80.7766 66.1702 80.352 67.5347 79.9335C68.1423 79.7473 70.2628 78.9581 72.2471 78.1798C76.3761 76.5605 76.6522 76.4749 76.8279 76.7593C77.0192 77.0688 75.3627 78.4886 73.7633 79.3864L72.3911 80.1565L72.911 80.693C73.9411 81.756 76.0871 83.03 78.3839 83.9424C80.7131 84.8676 84.5017 85.6823 87.6792 85.9409C88.9429 86.0439 88.8348 86.1648 89.7274 83.651C90.3941 81.7736 90.989 80.9626 92.1194 80.3892C93.1533 79.8649 93.7489 79.8422 97.4664 80.1862C99.8584 80.4075 104.423 80.6412 110.44 80.8505L113.116 80.9436L113.767 81.5008C114.214 81.8831 114.438 81.9912 114.483 81.8449C114.939 80.3621 115.606 76.5428 115.921 73.613C116.195 71.0568 116.363 69.0448 116.303 69.0448C116.28 69.0448 115.54 69.3028 114.658 69.6182C107.896 72.0356 100.233 72.2519 93.1719 70.2245C88.0542 68.7551 83.1934 66.2114 79.3022 62.9664C77.9497 61.8385 77.8245 61.7571 77.6742 61.9073ZM37.693 63.2983C37.0966 63.6262 36.8181 64.1284 36.8184 64.8759C36.8186 65.9576 37.4802 67.0364 38.7144 67.9681C39.7624 68.7593 40.0139 68.835 39.7102 68.2673C39.4348 67.7528 39.4981 66.1936 39.8162 65.655C40.1522 65.0864 41.3956 64.4561 42.485 64.3022C43.4586 64.1648 43.2878 64.0533 41.2773 63.5147C39.6974 63.0914 38.2301 63.0029 37.693 63.2983ZM124.282 64.2286C124.127 64.4805 120.551 66.8307 119.28 67.5164L118.13 68.1371L118.027 69.513C117.847 71.9172 117.46 75.6683 117.299 76.5704C117.024 78.1104 117 78.0714 118.145 77.9454C119.767 77.7671 123.044 77.1 125.179 76.5133C127.037 76.003 130.873 74.6179 131.127 74.3659C131.189 74.3036 130.774 74.0112 130.205 73.7157C128.349 72.7533 126.758 70.8817 125.779 68.5093C125.29 67.3227 124.68 65.1403 124.68 64.578C124.68 64.2084 124.43 63.9892 124.282 64.2286ZM42.5333 66.0054C41.0757 66.2502 40.6648 66.8477 41.2181 67.9178C41.7128 68.8744 43.069 69.4255 45.3973 69.6163L46.6879 69.722L47.0646 70.7865C47.465 71.9176 48.2792 73.5952 48.846 74.4565C49.2651 75.0932 49.1537 75.1131 48.3966 74.5366C47.8102 74.0902 46.5063 72.2439 46.1214 71.3148C45.9249 70.8402 45.8604 70.8085 45.0895 70.8069C44.6371 70.8059 43.9784 70.7647 43.6257 70.7155C42.9306 70.6181 42.9232 70.6019 43.9404 71.4122C44.1911 71.6118 44.3671 71.8032 44.3317 71.8375C44.2265 71.9392 39.3482 70.2396 38.4754 69.7973C38.034 69.5737 37.5783 69.2767 37.4629 69.1375C37.1156 68.7192 36.8584 68.8459 36.4835 69.6202C36.1761 70.2554 36.1519 70.436 36.3068 70.943C36.6179 71.9612 37.4417 72.6502 38.9323 73.1394C39.6617 73.3788 40.8357 73.8723 41.5412 74.236C43.1185 75.0492 42.9173 75.1098 39.8311 74.7518C38.6648 74.6165 37.675 74.5411 37.6319 74.5842C37.4739 74.7423 38.8497 75.9882 40.0981 76.8175C42.9261 78.6961 47.2153 80.5424 50.1275 81.1346C53.0797 81.7351 57.1104 81.8294 60.542 81.3785C61.6387 81.2343 61.7912 81.1681 62.2758 80.626C63.081 79.725 63.7338 78.2107 63.9469 76.7486C64.2894 74.3979 63.6268 71.0851 62.2185 68.1075L61.5098 66.6087L60.6651 66.7255C57.8934 67.1085 53.8769 67.1528 52.1274 66.8194C51.6206 66.7229 51.2245 66.7235 51.0421 66.8212C50.8415 66.9285 50.2064 66.8521 48.9416 66.5683C47.2219 66.1827 44.5772 65.8247 43.7059 65.8596C43.4854 65.8684 42.9577 65.934 42.5333 66.0054ZM39.9318 81.1107C36.3615 84.7508 34.1077 90.2239 34.9599 93.1849C35.3191 94.4332 36.6506 95.8062 37.8191 96.1333C39.3004 96.5481 41.3108 95.9996 43.1499 94.6789L43.8646 94.1656L43.7687 92.3883C43.6762 90.6735 43.9129 88.4436 44.3318 87.0835C44.4539 86.6876 44.4826 86.8153 44.4947 87.8051C44.5429 91.7346 46.0259 95.8595 49.0209 100.394C50.035 101.93 53.1519 105.443 53.5 105.443C53.5731 105.443 53.5353 105.166 53.416 104.828C52.1377 101.205 53.0791 95.0011 55.9071 88.4113L56.7306 86.4925L56.1659 86.027C55.8553 85.771 55.275 85.0664 54.8764 84.4614L54.1518 83.3615L52.7369 83.2499C49.5964 83.0021 46.5712 82.1631 43.4227 80.6664C42.4061 80.1833 41.4968 79.7879 41.4019 79.7879C41.3071 79.7879 40.6455 80.3831 39.9318 81.1107ZM68.5596 81.4553C67.4077 81.8079 66.8606 82.0531 66.8262 82.2317C66.7402 82.6784 67.8905 84.9413 68.8215 86.1569C71.4983 89.6516 76.1957 92.0553 81.4553 92.6215C84.7771 92.9792 87.5977 92.3211 88.9927 90.863C89.6291 90.1977 89.7731 88.7517 89.2669 88.1102C88.9653 87.7283 88.8077 87.6854 87.3521 87.59C82.5862 87.2777 77.3604 85.7594 74.139 83.7513C73.4953 83.3501 72.4119 82.5466 71.7316 81.966C71.0511 81.3854 70.4377 80.917 70.3686 80.925C70.2994 80.9332 69.4853 81.1718 68.5596 81.4553ZM92.755 81.7106C92.0001 82.1097 91.7678 82.4892 90.9345 84.6856C90.2386 86.5196 90.2383 86.5207 90.546 86.9118C91.0087 87.5001 91.328 88.5476 91.328 89.4773C91.328 91.4505 89.7797 93.095 87.159 93.905C86.3557 94.1534 86.2561 94.2365 86.0418 94.839C85.7454 95.6717 85.8607 95.8054 87.3595 96.3655L88.4418 96.7699L88.4431 96.3362C88.4439 96.0706 89.0319 94.9476 89.9593 93.4404C90.7926 92.0863 92.1651 89.617 93.0095 87.9529C94.911 84.206 95.0835 84.037 97.0074 84.037C97.7199 84.037 99.2663 84.1366 100.444 84.2583C103.416 84.5653 108.676 84.4244 111.369 83.9653C112.47 83.7776 113.43 83.5653 113.502 83.4936C113.574 83.4217 113.387 83.1476 113.086 82.884L112.541 82.4048L108.869 82.2963C104.346 82.1626 100.22 81.9312 96.8975 81.6246C93.7237 81.3317 93.4615 81.3371 92.755 81.7106ZM63.2619 82.753C62.6854 82.8679 61.7113 83.0143 61.0972 83.0783C60.4831 83.1423 59.9256 83.2266 59.8583 83.2659C59.7207 83.3459 60.5578 84.5669 61.0984 85.0747C61.4341 85.3901 61.4796 85.3937 62.0603 85.1511C63.1305 84.704 64.6508 83.6551 64.8443 83.2303C65.2113 82.4249 65.0901 82.3883 63.2619 82.753ZM57.0173 83.4598L56.2988 83.556L56.9371 84.2631C57.506 84.8931 58.8531 85.6991 59.0342 85.5179C59.0722 85.4799 58.968 85.2755 58.8024 85.0637C58.6369 84.8517 58.3459 84.3716 58.1556 83.9969C57.9652 83.6222 57.793 83.3264 57.7728 83.3395C57.7525 83.3528 57.4125 83.4068 57.0173 83.4598ZM112.913 85.1835C110.408 85.6934 108.01 85.9156 104.75 85.9399L101.898 85.9611L100.782 88.5183C100.168 89.9247 99.6659 91.1651 99.6659 91.2746C99.6659 91.3843 100.027 91.7781 100.468 92.1499C100.909 92.5217 101.269 92.9595 101.269 93.1226C101.269 93.3748 99.9476 95.858 98.8162 97.7312L98.4865 98.2773L100.72 98.1854C104.297 98.0382 106.277 97.5038 107.352 96.3942L107.875 95.8543L106.937 95.5928C105.496 95.1908 105.279 95.0627 105.029 94.4642C104.729 93.7465 104.735 92.98 105.051 91.7566C105.587 89.6787 107.01 87.6447 107.927 87.6447C108.143 87.6447 109.025 87.8256 109.886 88.0465C111.063 88.3488 111.543 88.5523 111.82 88.8669C112.023 89.097 112.219 89.2559 112.254 89.2199C112.385 89.0889 114.748 84.8761 114.704 84.8525C114.679 84.8393 113.873 84.9882 112.913 85.1835ZM64.8712 85.5665C64.3862 85.912 63.4482 86.4279 62.7868 86.713C61.6931 87.1844 61.4245 87.2336 59.8204 87.2557L58.0566 87.2801L57.3051 88.9584C54.0713 96.1795 53.5223 102.879 55.8671 106.507C56.546 107.558 57.0622 107.865 59.0989 108.431C60.5711 108.839 64.8769 108.841 66.7954 108.434C69.5586 107.847 71.9605 107.062 74.3201 105.974L75.8322 105.278L77.2865 105.589C79.6944 106.104 81.7917 106.298 84.9142 106.294C87.9252 106.291 89.4542 106.143 92.0495 105.607C95.1201 104.972 98.4721 103.653 101.056 102.062C102.248 101.328 104.671 99.4914 104.575 99.395C104.545 99.3649 103.987 99.4316 103.335 99.5434C101.789 99.8089 95.4325 99.7993 92.6909 99.5272C91.3549 99.3946 90.3473 99.206 89.8849 99.002C89.488 98.8269 88.4121 98.3966 87.494 98.0454C86.5757 97.6944 85.6209 97.3019 85.372 97.1731C84.7653 96.8594 84.4332 96.1654 84.4332 95.211V94.4234L82.1483 94.3375C76.9969 94.1439 72.2827 92.1472 68.8069 88.687C67.7958 87.6805 66.9645 86.6806 66.5738 86.0012C66.2314 85.406 65.9067 84.9234 65.8522 84.9286C65.7977 84.9341 65.3563 85.2211 64.8712 85.5665ZM96.0371 85.684C95.8492 85.8365 95.102 87.1517 94.3766 88.6068C92.9505 91.4678 92.2697 92.6871 90.8207 94.9747C90.3059 95.7873 89.8849 96.5589 89.8849 96.6894C89.8849 96.8199 90.0473 97.1121 90.2457 97.3386C90.6585 97.81 91.6892 97.9871 95.0786 98.1683L97.0274 98.2725L98.4412 95.8242L99.8547 93.3759L99.0387 92.5496C98.59 92.0952 98.2228 91.6267 98.2228 91.5085C98.2228 91.3905 98.7279 90.1257 99.3452 88.698C99.9625 87.2703 100.468 86.0309 100.468 85.9436C100.468 85.8563 99.6886 85.6983 98.7365 85.5923C96.5379 85.348 96.4479 85.351 96.0371 85.684ZM107.528 89.4005C106.819 90.3967 106.349 91.6937 106.274 92.8647C106.201 94.0007 106.205 94.0145 106.621 94.0939C107.013 94.169 107.042 94.1346 107.042 93.5843C107.042 92.4749 107.822 90.3834 108.52 89.6208C108.894 89.2119 108.782 88.9275 108.246 88.9275C108.007 88.9275 107.739 89.1042 107.528 89.4005ZM109.721 90.2142C108.756 91.3418 108.182 93.7431 108.706 94.4598C108.918 94.7502 108.944 94.751 109.357 94.4802C109.891 94.1303 110.683 92.9043 110.903 92.085C111.102 91.3477 111.15 90.0199 110.987 89.7571C110.764 89.3954 110.269 89.574 109.721 90.2142ZM51.8087 107.298C50.5963 110.2 50.2504 113.981 51.0371 115.733C51.538 116.849 52.5349 117.838 53.6704 118.348C54.5395 118.738 54.7981 118.781 55.8748 118.717C58.6526 118.552 61.4518 116.36 64.8321 111.702C64.8616 111.662 65.0449 111.728 65.2392 111.85C67.831 113.475 72.0785 114.277 75.5873 113.804C77.2355 113.582 79.7832 112.994 79.7832 112.835C79.7832 112.771 79.4404 112.701 79.0216 112.68C76.8311 112.57 73.9557 111.429 72.1236 109.942L71.1182 109.127L69.7184 109.523C63.0605 111.405 57.6378 110.726 53.1947 107.456C52.6494 107.054 52.1683 106.726 52.1257 106.726C52.083 106.726 51.9403 106.983 51.8087 107.298ZM74.6522 107.777C73.9908 108.075 73.3775 108.351 73.2893 108.389C72.7796 108.612 75.6324 110.204 77.3781 110.671C78.9921 111.103 81.6905 111.035 83.7003 110.511C85.3932 110.07 87.8857 108.939 88.6823 108.25L89.1633 107.834L88.6823 107.92C87.6972 108.096 83.808 108.141 81.9479 107.997C80.8896 107.915 79.1669 107.704 78.1197 107.527C77.0723 107.351 76.1343 107.213 76.0352 107.221C75.9359 107.229 75.3136 107.479 74.6522 107.777Z" fill="black"/>
<path d="M97.3803 1.94671C86.3411 3.45154 77.1188 10.4679 71.6865 21.4947C70.4238 24.0576 69.8082 25.9462 69.1226 29.3597C68.7347 31.2906 68.3893 34.2517 68.5523 34.2485C68.6002 34.2475 69.0001 34.133 69.441 33.994C70.3069 33.7209 72.4408 33.6286 73.4049 33.8224C73.9438 33.9307 74.0086 33.9068 74.0743 33.5752C74.1143 33.3731 74.2995 32.3534 74.4856 31.3087C75.1241 27.7284 76.8629 23.4796 79.0803 20.0808C84.0282 12.497 92.1395 6.70636 100.99 4.43926C103.999 3.66848 105.664 3.43759 108.867 3.34667C110.693 3.29488 111.797 3.20589 111.649 3.12251C111.177 2.85891 108.074 2.18947 106.192 1.94559C103.9 1.64863 99.5624 1.64928 97.3803 1.94671Z" fill="white"/>
<path d="M107.122 5.06492C97.7239 6.0714 89.1473 10.5161 83.2196 17.452C81.2662 19.7375 80.0067 21.6506 78.6523 24.3891C77.334 27.0548 76.5127 29.4834 76.0863 31.9778C75.6407 34.5845 75.6383 34.5679 76.5363 35.1318C76.9551 35.3948 77.3414 35.6313 77.3946 35.6572C77.4478 35.6832 77.539 35.1905 77.5974 34.5624C78.1713 28.3879 81.7142 21.3409 86.6222 16.6122C96.543 7.05382 109.18 4.22824 120.558 9.02429C123.25 10.159 126.315 12.1002 128.327 13.9441C129.664 15.1695 128.979 14.2355 127.275 12.5102C124.849 10.0524 121.724 7.61872 119.615 6.54409C117.426 5.42906 110.918 4.65845 107.122 5.06492Z" fill="white"/>
<path d="M108.262 11.6406C104.921 12.0618 101.312 13.3175 99.746 14.6027L99.265 14.9974L101.189 15.0034C110.225 15.0311 117.457 17.86 123.772 23.8365C126.3 26.2287 128.737 29.1826 131.57 33.2882L132.731 34.9718L132.645 32.0856C132.585 30.0531 132.461 28.7434 132.228 27.6575C130.384 19.07 124.935 13.714 116.253 11.9544C114.434 11.5856 110.059 11.4139 108.262 11.6406Z" fill="white"/>
<path d="M87.3184 31.8345C86.5343 32.0731 85.9314 32.4709 85.2747 33.1833C83.5449 35.06 83.8317 38.3706 85.9072 40.486C86.8584 41.4554 87.7868 41.8557 89.0832 41.8552C93.1418 41.8534 94.6986 36.5454 91.623 33.1956C90.4578 31.9267 88.77 31.3929 87.3184 31.8345Z" fill="white"/>
<path d="M90.8971 45.4907C89.3565 45.9364 89.3128 48.449 90.8319 49.2345C91.6344 49.6496 92.2503 49.5547 92.8868 48.9182C93.4226 48.3825 93.4479 48.3082 93.3786 47.4738C93.2967 46.4861 92.8891 45.9064 92.0146 45.5338C91.7308 45.4129 91.4782 45.3205 91.4534 45.3284C91.4285 45.3364 91.1782 45.4094 90.8971 45.4907Z" fill="white"/>
<path d="M70.0075 35.6293C69.0139 35.8963 67.8958 36.563 67.1924 37.308L66.7152 37.8136L67.2764 37.6753C67.5851 37.5995 68.4958 37.5398 69.3003 37.5429C70.6595 37.548 70.8484 37.5907 71.9692 38.1445C74.0415 39.1688 75.7004 40.9598 76.8892 43.4569C79.3979 48.7256 79.092 54.3514 76.1364 57.307L75.4204 58.0231L76.0384 57.9074C77.6123 57.6126 79.2615 56.4098 80.2692 54.8209C81.893 52.2609 82.1582 47.527 80.8805 43.9044C78.7224 37.7856 74.3543 34.4612 70.0075 35.6293Z" fill="white"/>
<path d="M67.3404 39.5167C65.4636 40.3972 64.2382 42.848 64.2323 45.7339C64.2228 50.2389 66.7261 55.136 69.813 56.652C70.5814 57.0293 70.9261 57.0992 72.0191 57.0992C73.1806 57.0992 73.3954 57.0492 74.0981 56.6148C75.0544 56.0235 75.7902 55.0884 76.2677 53.8574C76.7482 52.6184 76.8829 49.3197 76.5223 47.6159C75.7943 44.1747 73.7583 41.0384 71.4431 39.7914C70.2835 39.1668 68.3608 39.0381 67.3404 39.5167Z" fill="white"/>
<path d="M82.1292 55.0951L81.6693 56.053L82.7991 57.3779C89.2057 64.8897 99.1627 69.1564 108.522 68.4004C113.315 68.0134 117.832 66.5124 121.345 64.1394C123.327 62.8011 123.32 62.7185 121.302 63.6188C117.766 65.1967 113.519 66.3451 110.409 66.564C109.659 66.6169 108.729 66.6875 108.343 66.7211C107.158 66.8239 103.347 66.506 101.506 66.1506C94.6126 64.8203 87.8402 60.757 83.6807 55.4557C83.1099 54.7281 82.6308 54.1338 82.616 54.1349C82.6013 54.1361 82.3822 54.5682 82.1292 55.0951Z" fill="white"/>
<path d="M79.9529 57.891C79.7508 58.106 79.1996 58.4841 78.728 58.731L77.8703 59.18L78.3858 59.7234C79.3963 60.7884 81.8173 62.7113 83.7116 63.9531C88.0134 66.7733 92.5553 68.5375 97.6616 69.3718C100.306 69.8039 100.387 69.7568 98.095 69.1184C91.878 67.3874 85.955 63.7012 81.8606 59.0153C81.1325 58.1819 80.4879 57.5001 80.4284 57.5001C80.369 57.5001 80.1549 57.676 79.9529 57.891Z" fill="white"/>
<path d="M69.6323 59.785C68.6063 60.9561 66.6041 63.6156 66.6863 63.698C66.8399 63.8516 73.3186 61.7736 75.6746 60.8152L76.5808 60.4464L76.2178 60.1147C75.921 59.8434 75.5772 59.7683 74.3315 59.7032C73.2216 59.645 72.5094 59.5093 71.7069 59.2031C71.1011 58.972 70.5841 58.7828 70.558 58.7828C70.5317 58.7828 70.1153 59.2339 69.6323 59.785Z" fill="white"/>
<path d="M77.6742 61.9073C77.6312 61.9503 76.5019 62.3837 75.1645 62.8706C72.0373 64.0091 67.9144 65.2532 65.2827 65.8524C64.142 66.1122 63.1811 66.3522 63.1474 66.386C63.1136 66.4199 63.263 66.7973 63.4793 67.2251C64.1231 68.4973 64.877 70.783 65.2051 72.4578C65.7398 75.1865 65.5371 77.773 64.6339 79.7457C64.4091 80.2367 64.2518 80.665 64.2842 80.6974C64.3633 80.7766 66.1702 80.352 67.5347 79.9335C68.1423 79.7473 70.2628 78.9581 72.2471 78.1798C76.3761 76.5605 76.6522 76.4749 76.8279 76.7593C77.0192 77.0688 75.3627 78.4886 73.7633 79.3864L72.3911 80.1565L72.911 80.693C73.9411 81.756 76.0871 83.03 78.3839 83.9424C80.7131 84.8676 84.5017 85.6823 87.6792 85.9409C88.9429 86.0439 88.8348 86.1648 89.7274 83.651C90.3941 81.7736 90.989 80.9626 92.1194 80.3892C93.1533 79.8649 93.7489 79.8422 97.4664 80.1862C99.8584 80.4075 104.423 80.6412 110.44 80.8505L113.116 80.9436L113.767 81.5008C114.214 81.8831 114.438 81.9912 114.483 81.8449C114.939 80.3621 115.606 76.5428 115.921 73.613C116.195 71.0568 116.363 69.0448 116.303 69.0448C116.28 69.0448 115.54 69.3028 114.658 69.6182C107.896 72.0356 100.233 72.2519 93.1719 70.2245C88.0542 68.7551 83.1934 66.2114 79.3022 62.9664C77.9497 61.8385 77.8245 61.7571 77.6742 61.9073Z" fill="white"/>
<path d="M42.5333 66.0054C41.0757 66.2502 40.6648 66.8477 41.2181 67.9178C41.7128 68.8744 43.069 69.4255 45.3973 69.6163L46.6879 69.722L47.0646 70.7865C47.465 71.9176 48.2792 73.5952 48.846 74.4565C49.2651 75.0932 49.1537 75.1131 48.3966 74.5366C47.8102 74.0902 46.5063 72.2439 46.1214 71.3148C45.9249 70.8402 45.8604 70.8085 45.0895 70.8069C44.6371 70.8059 43.9784 70.7647 43.6257 70.7155C42.9306 70.6181 42.9232 70.6019 43.9404 71.4122C44.1911 71.6118 44.3671 71.8032 44.3317 71.8375C44.2265 71.9392 39.3482 70.2396 38.4754 69.7973C38.034 69.5737 37.5783 69.2767 37.4629 69.1375C37.1156 68.7192 36.8584 68.8459 36.4835 69.6202C36.1761 70.2554 36.1519 70.436 36.3068 70.943C36.6179 71.9612 37.4417 72.6502 38.9323 73.1394C39.6617 73.3788 40.8357 73.8723 41.5412 74.236C43.1185 75.0492 42.9173 75.1098 39.8311 74.7518C38.6648 74.6165 37.675 74.5411 37.6319 74.5842C37.4739 74.7423 38.8497 75.9882 40.0981 76.8175C42.9261 78.6961 47.2153 80.5424 50.1275 81.1346C53.0797 81.7351 57.1104 81.8294 60.542 81.3785C61.6387 81.2343 61.7912 81.1681 62.2758 80.626C63.081 79.725 63.7338 78.2107 63.9469 76.7486C64.2894 74.3979 63.6268 71.0851 62.2185 68.1075L61.5098 66.6087L60.6651 66.7255C57.8934 67.1085 53.8769 67.1528 52.1274 66.8194C51.6206 66.7229 51.2245 66.7235 51.0421 66.8212C50.8415 66.9285 50.2064 66.8521 48.9416 66.5683C47.2219 66.1827 44.5772 65.8247 43.7059 65.8596C43.4854 65.8684 42.9577 65.934 42.5333 66.0054Z" fill="white"/>
<path d="M37.693 63.2983C37.0966 63.6262 36.8181 64.1284 36.8184 64.8759C36.8186 65.9576 37.4802 67.0364 38.7144 67.9681C39.7624 68.7593 40.0139 68.835 39.7102 68.2673C39.4348 67.7528 39.4981 66.1936 39.8162 65.655C40.1522 65.0864 41.3956 64.4561 42.485 64.3022C43.4586 64.1648 43.2878 64.0533 41.2773 63.5147C39.6974 63.0914 38.2301 63.0029 37.693 63.2983Z" fill="white"/>
<path d="M39.9318 81.1107C36.3615 84.7508 34.1077 90.2239 34.9599 93.1849C35.3191 94.4332 36.6506 95.8062 37.8191 96.1333C39.3004 96.5481 41.3108 95.9996 43.1499 94.6789L43.8646 94.1656L43.7687 92.3883C43.6762 90.6735 43.9129 88.4436 44.3318 87.0835C44.4539 86.6876 44.4826 86.8153 44.4947 87.8051C44.5429 91.7346 46.0259 95.8595 49.0209 100.394C50.035 101.93 53.1519 105.443 53.5 105.443C53.5731 105.443 53.5353 105.166 53.416 104.828C52.1377 101.205 53.0791 95.0011 55.9071 88.4113L56.7306 86.4925L56.1659 86.027C55.8553 85.771 55.275 85.0664 54.8764 84.4614L54.1518 83.3615L52.7369 83.2499C49.5964 83.0021 46.5712 82.1631 43.4227 80.6664C42.4061 80.1833 41.4968 79.7879 41.4019 79.7879C41.3071 79.7879 40.6455 80.3831 39.9318 81.1107Z" fill="white"/>
<path d="M57.0173 83.4598L56.2988 83.556L56.9371 84.2631C57.506 84.8931 58.8531 85.6991 59.0342 85.5179C59.0722 85.4799 58.968 85.2755 58.8024 85.0637C58.6369 84.8517 58.3459 84.3716 58.1556 83.9969C57.9652 83.6222 57.793 83.3264 57.7728 83.3395C57.7525 83.3528 57.4125 83.4068 57.0173 83.4598Z" fill="white"/>
<path d="M63.2619 82.753C62.6854 82.8679 61.7113 83.0143 61.0972 83.0783C60.4831 83.1423 59.9256 83.2266 59.8583 83.2659C59.7207 83.3459 60.5578 84.5669 61.0984 85.0747C61.4341 85.3901 61.4796 85.3937 62.0603 85.1511C63.1305 84.704 64.6508 83.6551 64.8443 83.2303C65.2113 82.4249 65.0901 82.3883 63.2619 82.753Z" fill="white"/>
<path d="M68.5596 81.4553C67.4077 81.8079 66.8606 82.0531 66.8262 82.2317C66.7402 82.6784 67.8905 84.9413 68.8215 86.1569C71.4983 89.6516 76.1957 92.0553 81.4553 92.6215C84.7771 92.9792 87.5977 92.3211 88.9927 90.863C89.6291 90.1977 89.7731 88.7517 89.2669 88.1102C88.9653 87.7283 88.8077 87.6854 87.3521 87.59C82.5862 87.2777 77.3604 85.7594 74.139 83.7513C73.4953 83.3501 72.4119 82.5466 71.7316 81.966C71.0511 81.3854 70.4377 80.917 70.3686 80.925C70.2994 80.9332 69.4853 81.1718 68.5596 81.4553Z" fill="white"/>
<path d="M64.8712 85.5665C64.3862 85.912 63.4482 86.4279 62.7868 86.713C61.6931 87.1844 61.4245 87.2336 59.8204 87.2557L58.0566 87.2801L57.3051 88.9584C54.0713 96.1795 53.5223 102.879 55.8671 106.507C56.546 107.558 57.0622 107.865 59.0989 108.431C60.5711 108.839 64.8769 108.841 66.7954 108.434C69.5586 107.847 71.9605 107.062 74.3201 105.974L75.8322 105.278L77.2865 105.589C79.6944 106.104 81.7917 106.298 84.9142 106.294C87.9252 106.291 89.4542 106.143 92.0495 105.607C95.1201 104.972 98.4721 103.653 101.056 102.062C102.248 101.328 104.671 99.4914 104.575 99.395C104.545 99.3649 103.987 99.4316 103.335 99.5434C101.789 99.8089 95.4325 99.7993 92.6909 99.5272C91.3549 99.3946 90.3473 99.206 89.8849 99.002C89.488 98.8269 88.4121 98.3966 87.494 98.0454C86.5757 97.6944 85.6209 97.3019 85.372 97.1731C84.7653 96.8594 84.4332 96.1654 84.4332 95.211V94.4234L82.1483 94.3375C76.9969 94.1439 72.2827 92.1472 68.8069 88.687C67.7958 87.6805 66.9645 86.6806 66.5738 86.0012C66.2314 85.406 65.9067 84.9234 65.8522 84.9286C65.7977 84.9341 65.3563 85.2211 64.8712 85.5665Z" fill="white"/>
<path d="M51.8087 107.298C50.5963 110.2 50.2504 113.981 51.0371 115.733C51.538 116.849 52.5349 117.838 53.6704 118.348C54.5395 118.738 54.7981 118.781 55.8748 118.717C58.6526 118.552 61.4518 116.36 64.8321 111.702C64.8616 111.662 65.0449 111.728 65.2392 111.85C67.831 113.475 72.0785 114.277 75.5873 113.804C77.2355 113.582 79.7832 112.994 79.7832 112.835C79.7832 112.771 79.4404 112.701 79.0216 112.68C76.8311 112.57 73.9557 111.429 72.1236 109.942L71.1182 109.127L69.7184 109.523C63.0605 111.405 57.6378 110.726 53.1947 107.456C52.6494 107.054 52.1683 106.726 52.1257 106.726C52.083 106.726 51.9403 106.983 51.8087 107.298Z" fill="white"/>
<path d="M74.6522 107.777C73.9908 108.075 73.3775 108.351 73.2893 108.389C72.7796 108.612 75.6324 110.204 77.3781 110.671C78.9921 111.103 81.6905 111.035 83.7003 110.511C85.3932 110.07 87.8857 108.939 88.6823 108.25L89.1633 107.834L88.6823 107.92C87.6972 108.096 83.808 108.141 81.9479 107.997C80.8896 107.915 79.1669 107.704 78.1197 107.527C77.0723 107.351 76.1343 107.213 76.0352 107.221C75.9359 107.229 75.3136 107.479 74.6522 107.777Z" fill="white"/>
<path d="M96.0371 85.684C95.8492 85.8365 95.102 87.1517 94.3766 88.6068C92.9505 91.4678 92.2697 92.6871 90.8207 94.9747C90.3059 95.7873 89.8849 96.5589 89.8849 96.6894C89.8849 96.8199 90.0473 97.1121 90.2457 97.3386C90.6585 97.81 91.6892 97.9871 95.0786 98.1683L97.0274 98.2725L98.4412 95.8242L99.8547 93.3759L99.0387 92.5496C98.59 92.0952 98.2228 91.6267 98.2228 91.5085C98.2228 91.3905 98.7279 90.1257 99.3452 88.698C99.9625 87.2703 100.468 86.0309 100.468 85.9436C100.468 85.8563 99.6886 85.6983 98.7365 85.5923C96.5379 85.348 96.4479 85.351 96.0371 85.684Z" fill="white"/>
<path d="M92.755 81.7106C92.0001 82.1097 91.7678 82.4892 90.9345 84.6856C90.2386 86.5196 90.2383 86.5207 90.546 86.9118C91.0087 87.5001 91.328 88.5476 91.328 89.4773C91.328 91.4505 89.7797 93.095 87.159 93.905C86.3557 94.1534 86.2561 94.2365 86.0418 94.839C85.7454 95.6717 85.8607 95.8054 87.3595 96.3655L88.4418 96.7699L88.4431 96.3362C88.4439 96.0706 89.0319 94.9476 89.9593 93.4404C90.7926 92.0863 92.1651 89.617 93.0095 87.9529C94.911 84.206 95.0835 84.037 97.0074 84.037C97.7199 84.037 99.2663 84.1366 100.444 84.2583C103.416 84.5653 108.676 84.4244 111.369 83.9653C112.47 83.7776 113.43 83.5653 113.502 83.4936C113.574 83.4217 113.387 83.1476 113.086 82.884L112.541 82.4048L108.869 82.2963C104.346 82.1626 100.22 81.9312 96.8975 81.6246C93.7237 81.3317 93.4615 81.3371 92.755 81.7106Z" fill="white"/>
<path d="M112.913 85.1835C110.408 85.6934 108.01 85.9156 104.75 85.9399L101.898 85.9611L100.782 88.5183C100.168 89.9247 99.6659 91.1651 99.6659 91.2746C99.6659 91.3843 100.027 91.7781 100.468 92.1499C100.909 92.5217 101.269 92.9595 101.269 93.1226C101.269 93.3748 99.9476 95.858 98.8162 97.7312L98.4865 98.2773L100.72 98.1854C104.297 98.0382 106.277 97.5038 107.352 96.3942L107.875 95.8543L106.937 95.5928C105.496 95.1908 105.279 95.0627 105.029 94.4642C104.729 93.7465 104.735 92.98 105.051 91.7566C105.587 89.6787 107.01 87.6447 107.927 87.6447C108.143 87.6447 109.025 87.8256 109.886 88.0465C111.063 88.3488 111.543 88.5523 111.82 88.8669C112.023 89.097 112.219 89.2559 112.254 89.2199C112.385 89.0889 114.748 84.8761 114.704 84.8525C114.679 84.8393 113.873 84.9882 112.913 85.1835Z" fill="white"/>
<path d="M107.528 89.4005C106.819 90.3967 106.349 91.6937 106.274 92.8647C106.201 94.0007 106.205 94.0145 106.621 94.0939C107.013 94.169 107.042 94.1346 107.042 93.5843C107.042 92.4749 107.822 90.3834 108.52 89.6208C108.894 89.2119 108.782 88.9275 108.246 88.9275C108.007 88.9275 107.739 89.1042 107.528 89.4005Z" fill="white"/>
<path d="M109.721 90.2142C108.756 91.3418 108.182 93.7431 108.706 94.4598C108.918 94.7502 108.944 94.751 109.357 94.4802C109.891 94.1303 110.683 92.9043 110.903 92.085C111.102 91.3477 111.15 90.0199 110.987 89.7571C110.764 89.3954 110.269 89.574 109.721 90.2142Z" fill="white"/>
<path d="M147.849 40.5667C146.853 40.88 145.204 41.6544 145.204 41.8084C145.204 41.8844 145.378 41.9467 145.592 41.9467C146.45 41.9467 147.529 43.3605 147.702 44.7122C147.881 46.1035 146.615 47.5264 144.534 48.2749C143.852 48.5199 143.764 48.6015 143.859 48.8996C144.074 49.574 143.972 51.7883 143.697 52.4406C143.346 53.2725 142.681 54.1329 142.389 54.1329C142.08 54.1329 142.095 53.9935 142.501 53.0746C142.925 52.1175 142.954 50.5952 142.573 49.3054C142.195 48.022 142.346 47.7435 143.869 46.9253C146.003 45.7789 146.371 45.1945 145.678 44.0572C145.357 43.5314 145.336 43.5237 144.516 43.6315C143.378 43.7806 141.454 44.4338 140.433 45.0168C139.971 45.2812 139.201 45.8551 138.723 46.292C138.245 46.7288 137.785 47.0663 137.702 47.042C137.618 47.0176 137.264 47.2251 136.916 47.5031C136.408 47.9085 136.008 48.56 134.903 50.7902C132.638 55.3566 130.661 58.2207 127.682 61.2486L125.927 63.0319L126.118 64.2345C126.883 69.0631 129.378 72.3468 132.826 73.0634L133.676 73.2401L135.151 72.4018C140.391 69.4224 145.088 65.3702 148.837 60.5928L149.87 59.2762L152.307 58.0481C153.647 57.3726 154.979 56.6447 155.265 56.4303C156.297 55.6589 156.473 54.6644 155.725 53.8375C155.14 53.1904 154.943 53.1605 153.928 53.5653C153.407 53.7732 152.295 54.0275 151.457 54.1306C150.619 54.2336 149.551 54.4147 149.083 54.5332C147.245 54.9984 148.981 53.6847 151.416 52.7679C152.276 52.4438 153.442 51.9527 154.007 51.6762C155.578 50.9072 156.005 49.9368 155.261 48.8252C154.694 47.9765 153.704 47.6962 151.563 47.7768C149.835 47.8419 149.822 47.8455 149.238 48.3991C148.561 49.0413 147.502 49.7705 146.533 50.2626C145.803 50.633 145.524 50.6877 145.524 50.4607C145.524 50.2877 147.361 47.9542 148.818 46.276C150.122 44.7754 150.976 43.1413 150.976 42.1497C150.976 41.5491 150.888 41.3458 150.431 40.8885C149.972 40.4299 149.775 40.3451 149.188 40.354C148.804 40.36 148.202 40.4555 147.849 40.5667Z" fill="white"/>
<path d="M124.282 64.2286C124.127 64.4805 120.551 66.8307 119.28 67.5164L118.13 68.1371L118.027 69.513C117.847 71.9172 117.46 75.6683 117.299 76.5704C117.024 78.1104 117 78.0714 118.145 77.9454C119.767 77.7671 123.044 77.1 125.179 76.5133C127.037 76.003 130.873 74.6179 131.127 74.3659C131.189 74.3036 130.774 74.0112 130.205 73.7157C128.349 72.7533 126.758 70.8817 125.779 68.5093C125.29 67.3227 124.68 65.1403 124.68 64.578C124.68 64.2084 124.43 63.9892 124.282 64.2286Z" fill="white"/>
<g opacity="0.8" filter="url(#filter0_f_37_681)">
<ellipse cx="64.2806" cy="170.31" rx="41.4509" ry="9.62466" transform="rotate(-3.42844 64.2806 170.31)" fill="black"/>
</g>
<defs>
<filter id="filter0_f_37_681" x="0.899902" y="138.385" width="126.761" height="63.8489" filterUnits="userSpaceOnUse" color-interpolation-filters="sRGB">
<feFlood flood-opacity="0" result="BackgroundImageFix"/>
<feBlend mode="normal" in="SourceGraphic" in2="BackgroundImageFix" result="shape"/>
<feGaussianBlur stdDeviation="11" result="effect1_foregroundBlur_37_681"/>
</filter>
</defs>
</svg>
