<svg width="95" height="136" viewBox="0 0 95 136" fill="none" xmlns="http://www.w3.org/2000/svg">
<path d="M82.0398 47.4984C82.8685 47.6157 83.6461 47.6653 84.3936 47.8413C86.9219 48.4429 88.6847 50.0222 89.897 52.2662C90.1808 52.7681 90.4208 53.2935 90.6144 53.8365C91.6567 56.9409 92.7291 60.0377 93.6827 63.1706C94.4347 65.6493 94.8859 68.2047 94.5851 70.8097C94.0377 75.4904 91.3424 77.8668 86.6136 77.9886C84.726 78.0367 82.9362 77.6036 81.1614 77.0531C80.7328 76.9192 80.3086 76.7763 79.7386 76.5898C79.8319 77.4637 79.9056 78.2443 79.9988 79.0174C80.3071 81.5743 80.6891 84.1312 80.9178 86.7046C81.1584 89.4119 80.1898 91.7251 78.1849 93.5706C77.848 93.8805 77.7578 94.1181 77.8841 94.5829C78.9279 98.3971 79.9251 102.223 80.9524 106.042C81.0562 106.449 81.2205 106.839 81.4397 107.197C83.0942 109.792 84.5801 112.471 85.0945 115.537C85.2976 116.741 85.3472 118.064 85.0945 119.252C84.4613 122.235 82.2203 123.575 79.4438 124.156C77.0448 124.656 74.8143 124.059 72.7251 122.877C69.7606 121.2 67.5242 118.752 65.5508 116.028C65.0996 115.4 64.6228 114.782 64.1144 114.199C60.2851 109.825 57.0334 105.048 54.2238 99.9674C53.9305 99.4364 53.6222 99.3657 53.0537 99.3657C51.7963 99.3477 51.2127 99.9674 50.9585 101.097C50.4667 103.267 49.9448 105.432 49.4845 107.609C49.4364 107.837 49.665 108.192 49.862 108.389C51.6669 110.193 53.5334 111.935 55.2887 113.784C55.967 114.497 56.4333 115.422 56.9431 116.279C58.017 118.07 58.1569 119.988 57.4726 121.927C55.4977 127.525 51.9496 131.825 46.6674 134.585C43.9736 135.992 41.1024 136.369 38.1379 135.487C33.6603 134.161 31.5126 130.772 32.1729 126.144C32.4917 123.916 33.2257 121.829 34.1913 119.866C33.0377 118.75 31.866 117.726 30.8192 116.586C26.9252 112.344 24.7729 107.385 25.0962 101.562C25.1835 100.003 25.0571 98.8153 23.8238 97.6812C22.6657 96.6163 22.213 95.0581 22.0189 93.4698C21.4504 88.7952 20.8774 84.1206 20.2818 79.246C19.2425 79.7799 18.14 80.1063 17.3519 80.7937C14.4551 83.3205 11.2289 83.9251 7.61463 82.8181C6.41139 82.4511 5.20814 82.1323 4.03347 81.6931C-0.0951628 80.1409 -0.955494 77.1719 1.65254 73.6163C1.74128 73.496 1.82702 73.3727 1.92629 73.2313C1.87949 73.1451 1.82618 73.0627 1.76685 72.9846C0.763643 71.8415 0.653845 70.7737 1.53973 69.5118C3.10094 67.2888 5.19307 65.902 7.95602 65.6599C8.30496 65.6283 8.67045 65.5546 9.00886 65.6223C10.3294 65.8915 11.2063 65.2553 12.1674 64.4295C13.8218 63.0112 15.6162 61.7689 17.3774 60.4889C17.7865 60.1881 17.9791 59.946 17.8888 59.4C17.7188 58.4383 17.6247 57.4646 17.6076 56.4881C17.582 54.2576 18.3791 52.3189 19.9238 50.7126C20.2427 50.3787 20.2757 50.144 20.0742 49.7454C19.6395 48.9002 19.2906 48.0098 18.8469 47.1705C18.7722 47.0463 18.6713 46.9399 18.5513 46.8586C18.4313 46.7773 18.2951 46.7231 18.152 46.6997C13.882 46.4771 10.7325 43.5247 10.4076 39.2592C10.2196 36.788 10.1414 34.2958 10.1459 31.8231C10.1459 28.0795 13.0187 24.8398 16.7547 24.2923C17.5158 24.181 17.8512 23.8983 18.128 23.1613C23.1199 9.88798 32.6135 2.01576 46.705 0.257519C61.7937 -1.62405 76.0567 6.95808 81.945 20.9969C82.1225 21.4181 82.3241 21.5986 82.8099 21.6136C87.0829 21.7775 90.3422 25.0729 90.4911 29.3414C90.5602 31.3208 90.6009 33.3016 90.7468 35.2764C91.1288 40.4368 87.3566 43.7443 83.7213 44.0872C83.4867 44.1098 83.1754 44.397 83.0791 44.6332C82.6926 45.5612 82.3872 46.5132 82.0398 47.4984ZM33.1415 82.6437V80.9426L26.3416 78.679L26.0483 80.1003C25.9325 81.1787 26.7086 82.5624 27.7765 82.9715C28.9632 83.4228 30.1829 83.7882 31.4012 84.1597C31.9367 84.3222 32.4947 84.4124 33.1415 84.5583V82.6437ZM74.9422 80.1018C74.8203 79.5979 74.7 79.0956 74.6037 78.6955L67.6219 81.0042L67.7723 82.8091V84.7343C69.7411 84.0951 71.6347 83.6258 73.3945 82.8542C74.4112 82.4045 75.0535 81.3787 74.9422 80.1018ZM78.6902 81.8811C78.4917 80.0477 78.2977 78.2112 78.0886 76.3793C78.0724 76.3006 78.0379 76.2269 77.988 76.1639C77.9381 76.101 77.8742 76.0506 77.8013 76.0168C76.8823 75.7596 75.9559 75.537 75.0309 75.3024L74.8022 75.5039C75.088 76.1567 75.2956 76.8576 75.6777 77.4517C76.6794 79.0023 77.0313 80.6237 76.0371 82.2346C75.4355 83.1926 75.2971 84.1477 75.3196 85.199C74.9827 87.1242 75.1693 88.9396 76.3169 90.6031C76.6703 91.1145 76.8493 91.7447 77.1396 92.3869C78.5639 91.0167 79.4107 89.454 79.337 87.5995C79.2528 85.6909 78.9113 83.7897 78.6872 81.8841L78.6902 81.8811ZM27.7374 91.2183C27.2576 88.9983 26.7929 86.7753 26.2845 84.5628C26.1897 84.1398 25.9965 83.7451 25.7205 83.4107C24.2164 81.6615 23.9877 79.8386 25.0962 77.8051C25.1338 77.7359 25.1625 77.6547 25.2602 77.4486L21.8415 78.6639C22.0159 80.1259 22.1709 81.5382 22.3559 82.9475C22.5935 84.7523 22.8537 86.5572 23.1079 88.3621C23.3816 90.4677 23.5877 92.5734 23.9562 94.655C24.1382 95.6793 24.7909 96.5381 25.4963 97.2014C26.2649 95.3454 27.023 93.53 27.7614 91.7071C27.8111 91.5762 27.7434 91.3822 27.7344 91.2213L27.7374 91.2183ZM89.515 55.7361C89.1329 54.1268 88.4621 52.6513 87.3506 51.4225C85.2329 49.0867 82.5662 48.8385 79.689 49.5183C78.5474 49.7876 78.5339 49.8342 78.8678 50.9863C78.8888 51.0585 78.9144 51.1292 78.9369 51.1999C79.1761 52.0587 79.3355 52.9491 79.6709 53.7658C80.3101 55.321 81.3675 56.5453 82.9693 57.177C85.272 58.0794 87.5221 57.6132 89.8293 56.8762L89.515 55.7361ZM11.9914 37.8243C11.5958 41.6762 14.9484 45.6695 17.9535 44.9535C17.5594 43.3322 17.1659 41.7118 16.7728 40.0924C16.7739 39.9919 16.7689 39.8915 16.7578 39.7916C16.1835 36.3766 16.1378 32.8936 16.6224 29.4648C16.7924 28.2615 17.033 27.0688 17.2436 25.855C14.5678 26.0701 12.0726 28.2721 11.8455 31.0049C11.659 33.2625 11.9222 35.5517 11.9914 37.8243ZM84.4342 37.6859C84.1921 39.2562 83.9499 40.8264 83.7063 42.4087C87.2784 42.1079 89.7225 38.5056 89.0352 34.6462C88.9765 32.7722 88.978 30.8861 88.8426 29.0226C88.6636 26.5619 87.3551 24.8112 85.1426 23.7704C84.4447 23.444 83.6461 23.3312 82.9648 23.1417C83.4355 25.5482 84.0552 27.8148 84.2778 30.116C84.5215 32.6203 84.3981 35.1621 84.4342 37.6874V37.6859ZM29.628 58.9788L29.4565 58.9337L29.5498 59.054C29.628 59.1492 29.7119 59.2396 29.801 59.3248C39.5668 67.5038 54.0162 69.0455 65.2831 63.1135C65.4018 63.0411 65.5167 62.9628 65.6275 62.8789C64.5025 62.0637 64.504 62.0727 63.3098 62.4171C55.7053 64.6115 48.0496 65.0522 40.3158 63.1135C36.5797 62.178 33.0407 60.7446 29.628 58.9788ZM43.2923 90.4377C43.3073 90.0391 43.2923 89.636 43.3435 89.2435C43.4939 88.1711 43.1931 87.3168 42.3102 86.6279C41.7431 86.1842 41.2994 85.5871 40.764 85.0983C40.3398 84.7117 40.2 84.274 40.2075 83.707C40.2376 81.7608 40.2196 79.8145 40.2196 77.96L35.7269 76.7763C35.1433 76.3447 35.2591 76.9267 35.223 77.1569C34.5583 81.4299 34.6094 85.73 34.8981 90.0226C34.9688 91.0754 35.5901 91.7086 36.6474 91.8786C37.7048 92.0485 38.7771 92.1643 39.848 92.2576C40.9821 92.3568 42.1221 92.408 43.2923 92.4742V90.4377ZM80.7132 22.3355L80.7267 22.5115L80.8094 22.4724L80.6952 22.3476C80.435 21.7911 80.2575 21.1729 79.8995 20.6931C77.1155 16.9074 73.4321 14.2392 69.2057 12.293C63.6602 9.73607 57.7839 8.63962 51.7196 8.43356C45.6056 8.226 39.6149 8.92088 33.8513 11.0747C28.8503 12.9442 24.5187 15.7779 21.2474 20.0749C20.906 20.5262 20.6578 21.0436 20.366 21.5309L20.6834 21.7941C20.7521 21.6058 20.8388 21.4245 20.942 21.2526C23.1981 18.2445 26.0949 16.023 29.4459 14.3671C35.011 11.6161 40.9776 10.5753 47.1081 10.3452C53.8839 10.088 60.5769 10.646 67.0503 12.8389C72.4559 14.6739 77.1757 17.509 80.5387 22.2769C80.5688 22.3115 80.6576 22.3145 80.7132 22.3355V22.3355ZM77.2344 31.8216C76.905 30.9658 76.7004 30.0318 76.2221 29.2647C75.1572 27.5621 73.2065 27.1906 71.5069 28.2329C68.5845 30.0273 67.5738 35.0629 69.5772 37.8484C70.7519 39.4803 72.65 39.8683 74.327 38.7508C74.8986 38.3703 75.3588 37.8213 75.8701 37.349C75.8283 37.6444 75.7634 37.9361 75.6761 38.2214C75.2249 39.3615 74.7346 40.485 74.3044 41.6326C74.2096 41.8868 74.1947 42.2883 74.333 42.4944C75.5363 44.2993 76.7892 46.0725 78.0465 47.8398C78.1165 47.9247 78.2045 47.9927 78.3042 48.0391C78.4039 48.0854 78.5127 48.1088 78.6226 48.1075C79.2678 48.0411 79.9044 47.908 80.5222 47.7105C80.8834 47.58 81.1824 47.3186 81.3599 46.978C83.3152 42.2613 83.9469 37.352 83.4175 32.2804C83.0733 28.7237 81.785 25.3236 79.6859 22.4318C79.0994 21.6211 78.4165 20.8796 77.7773 20.1065L77.5487 20.2043C77.6058 20.9067 77.7111 21.6091 77.7096 22.31C77.7096 24.8548 77.687 27.3997 77.6163 29.9431C77.5998 30.5748 77.3667 31.1974 77.2344 31.8216ZM19.5674 75.5896C18.4513 73.5201 17.3669 71.4249 16.8721 69.1102C16.475 67.2481 16.2479 65.35 15.9245 63.3421C14.607 64.4837 13.2383 65.6328 11.9177 66.833C11.7444 67.0056 11.535 67.1376 11.3046 67.2195C11.0742 67.3014 10.8285 67.3312 10.5851 67.3068C9.59247 67.2527 8.57872 67.203 7.60259 67.3474C5.36456 67.6798 3.70409 68.8996 2.65276 70.9211C2.54446 71.649 2.99868 72.2612 3.80937 72.2747C4.87552 72.317 5.94335 72.2732 7.00247 72.1438C8.46442 71.9453 9.72933 72.1333 10.6558 73.4027C10.6558 73.6058 10.6393 73.8103 10.6302 74.0134C10.4462 73.9977 10.2634 73.9706 10.0828 73.9322C9.80302 73.854 9.52928 73.7487 9.25253 73.6554C8.72762 73.6088 8.1997 73.487 7.6793 73.5276C6.4204 73.6268 5.16753 73.7833 3.91916 73.9577C3.67701 73.9908 3.46041 74.2029 3.2318 74.3338C2.43615 75.1429 1.86009 76.0574 1.83452 77.2366C1.70367 78.0488 2.08873 78.676 2.68735 79.1106C3.30659 79.5747 3.98744 79.9503 4.71029 80.2266C6.07401 80.7231 7.46262 81.1483 8.8705 81.5006C11.5868 82.1729 14.0249 81.5953 16.1396 79.7183C16.511 79.3875 16.926 79.1092 17.3729 78.891C18.4709 78.3571 19.5959 77.8773 20.7721 77.3464L19.5674 75.5896ZM62.9608 107.649H61.0808L60.9574 107.868C64.0002 111.541 66.9932 115.258 70.1081 118.867C71.3865 120.349 73.0531 121.424 74.9015 122.146C77.096 123.003 79.2633 122.949 81.3419 121.799C82.2802 121.281 83.0137 120.459 83.4207 119.467C83.8277 118.476 83.8839 117.376 83.58 116.348C83.3378 113.684 82.0458 111.434 80.7403 109.058C79.6543 111.643 77.7141 113.036 75.1482 113.618C72.7056 114.172 68.8658 113.845 67.9769 113.03C68.0145 113 68.0506 112.947 68.0912 112.944C68.3394 112.926 68.5875 112.911 68.8432 112.908C71.0226 112.884 73.205 112.88 75.2956 112.128C77.4374 111.355 78.9896 109.959 79.3761 107.643C79.516 106.799 79.2723 105.866 79.0858 104.998C78.6767 103.081 78.1939 101.181 77.7051 99.1326C74.0021 104.317 69.2372 107.31 62.9608 107.647V107.649ZM61.5846 105.994C62.5307 105.973 63.4902 106.044 64.4213 105.914C69.9351 105.143 73.9209 102.082 76.8343 97.4751C76.8996 97.3482 76.9388 97.2095 76.9496 97.0672C76.9605 96.9248 76.9427 96.7818 76.8974 96.6464C76.2838 94.9303 75.8025 93.1329 74.9422 91.5447C73.8713 89.5683 73.2245 87.607 73.6742 85.366C73.6923 85.1163 73.7118 84.8651 73.7359 84.5568C72.7041 84.8862 71.8107 85.2005 70.9007 85.4592C69.9908 85.7179 69.0523 85.8894 68.1423 86.1556C67.9633 86.2083 67.7558 86.5121 67.7392 86.7136C67.6535 87.783 67.6339 88.8584 67.5723 89.9308C67.4911 91.3311 66.8804 92.4155 65.617 93.0893C65.3358 93.2397 65.041 93.3646 64.7522 93.5014L64.4724 93.5405C63.579 93.6248 62.6871 93.7556 61.7922 93.7857C57.3146 93.9361 52.8371 94.2098 48.361 94.1692C44.464 94.1331 40.5655 93.7902 36.676 93.4804C34.5703 93.3134 33.3971 91.9402 33.2919 89.8571C33.2422 88.8584 33.1716 87.8582 33.1655 86.849C33.1655 86.3677 33.0271 86.1677 32.5293 86.0518C31.1907 85.7405 29.8716 85.3449 28.5435 84.9825C28.366 84.9343 28.1856 84.8967 27.9509 84.8321C28.0096 85.1569 28.0532 85.4006 28.1013 85.6442C28.5089 87.395 28.888 89.1517 29.3422 90.8904C29.4926 91.4604 29.4821 91.9056 29.2023 92.4441C26.7477 97.1412 25.9355 102.07 27.3132 107.252C27.4335 107.671 27.6856 108.04 28.0322 108.304C33.549 112.227 39.3201 111.965 45.2235 109.286C45.938 108.929 46.6749 108.608 47.3532 108.193C47.6208 107.996 47.8075 107.708 47.8782 107.384C48.1188 106.284 48.2422 105.158 48.5024 104.063C48.8513 102.59 49.2859 101.138 49.6845 99.6771C45.4732 98.8544 43.7315 98.0783 43.3239 96.7923C43.4969 96.8236 43.6673 96.8679 43.8338 96.9247C47.254 98.4031 50.778 98.2888 54.3065 97.4962C56.0121 97.1127 57.6651 96.4945 59.3466 95.9997C59.6135 95.9453 59.885 95.9161 60.1573 95.9124L60.243 96.1576C58.8668 97.4105 57.1116 98.0602 55.3894 98.9205C56.6107 100.903 57.8516 102.76 58.924 104.711C59.5587 105.883 60.4325 106.131 61.5846 105.988V105.994ZM44.9377 90.4632V92.5208C45.2686 92.5388 45.5393 92.5659 45.8056 92.5659C48.6858 92.5659 51.5692 92.6531 54.4449 92.5554C57.5192 92.4501 60.5905 92.2034 63.6603 91.9613C65.3388 91.8274 65.9329 91.1882 65.9765 89.5232C66.0442 86.8716 66.1119 84.2154 66.0607 81.5637C66.0307 79.9273 65.7809 78.2939 65.6185 76.5507L64.8665 76.8967C63.4286 77.2155 62.0088 77.6487 60.5513 77.8322C54.669 78.5647 48.7641 78.4609 42.8591 78.118C42.5222 78.0984 42.1868 78.0623 41.7912 78.0292C41.7912 79.9318 41.7792 81.7563 41.8063 83.5807C41.8063 83.7897 41.9868 84.0319 42.1463 84.1988C42.8862 84.9795 43.6848 85.7029 44.3857 86.5226C44.6726 86.8772 44.8494 87.308 44.8942 87.762C44.9754 88.6554 44.9302 89.5623 44.9377 90.4632ZM89.721 62.9556C90.2113 62.6126 90.7107 62.2833 91.186 61.9208C91.3228 61.8155 91.5063 61.5764 91.4687 61.4696C91.1137 60.4423 90.7167 59.4301 90.3557 58.472C89.2653 58.7096 88.3207 58.9593 87.3611 59.1187C83.0505 59.8392 79.8664 58.1215 78.0751 54.1463C78.0054 54.02 77.926 53.8993 77.8375 53.7853C77.5968 52.6092 77.3516 51.433 77.114 50.2568C77.0448 49.9169 77.0704 49.5364 76.9215 49.2401C75.8927 47.1961 74.7151 45.2423 73.0862 43.6164C72.5016 43.0349 71.8384 42.5383 71.1158 42.1409C70.0991 41.5829 69.135 41.798 68.2988 42.6057C67.285 43.5863 67.1135 44.8467 67.2278 46.1478C67.5031 49.3063 68.8372 52.1173 70.3593 54.8397C70.4661 55.0322 70.7849 55.1285 71.0256 55.2202C71.6528 55.4594 72.3025 55.6459 72.9192 55.9106C73.1087 55.9918 73.22 56.2595 73.3614 56.443C73.1494 56.5182 72.9402 56.6521 72.7251 56.6611C71.4497 56.7183 70.1683 56.6957 68.8974 56.7965C67.7152 56.8897 66.5616 57.1755 65.6546 58.0208C64.6303 58.9743 64.695 60.2287 65.8306 61.0289C66.3374 61.3823 66.903 61.7253 67.485 61.8742C68.9891 62.2547 70.5052 62.566 72.0318 62.8172C72.6409 62.9165 73.023 63.1255 73.3027 63.6835C73.754 64.5995 74.3315 65.4598 74.7857 66.3788C75.0865 66.991 75.5377 67.1549 76.1649 67.1609C81.1419 67.2105 85.6314 65.7336 89.721 62.9556ZM34.3717 130.638C34.7432 131.841 35.6577 132.583 36.6925 133.156C39.4133 134.66 42.2696 134.797 45.0792 133.541C50.5284 131.109 54.0282 126.866 56.0046 121.304C56.5505 119.764 56.2919 118.309 55.4902 116.906C53.8192 113.978 51.4157 111.729 48.8317 109.644C48.7473 109.589 48.6512 109.554 48.551 109.543C48.4507 109.531 48.3491 109.543 48.2542 109.577C47.5232 109.95 46.8164 110.371 46.1004 110.78C45.6357 110.956 45.1694 111.13 44.7046 111.309C39.3667 113.358 34.0845 113.629 28.9 110.809C28.8519 110.783 28.7707 110.819 28.685 110.828C29.798 112.989 31.2659 114.848 32.9685 116.529C35.1389 118.667 37.4912 120.439 40.6302 120.955C44.0624 121.514 47.1111 120.988 49.5477 118.3C49.6379 118.201 49.7793 118.15 50.1012 117.95C50.0165 118.289 49.9116 118.622 49.7868 118.949C49.1852 120.221 48.2226 121.135 46.9788 121.764C45.4898 122.516 43.8985 122.763 42.247 122.73C39.8526 122.68 37.604 122.118 35.5269 120.82C34.5778 122.806 33.8724 124.796 33.722 126.95C33.6288 128.232 33.6453 129.496 34.3747 130.638H34.3717ZM21.106 74.8662C21.4204 75.3746 21.7076 75.91 22.0671 76.3702C22.1605 76.4618 22.274 76.5302 22.3986 76.5702C22.5231 76.6101 22.6553 76.6204 22.7845 76.6004C23.6512 76.3665 24.5048 76.0864 25.3414 75.7611C25.4567 75.7007 25.557 75.6154 25.6351 75.5113C25.7131 75.4072 25.767 75.287 25.7927 75.1595C25.913 74.1683 25.9084 73.1591 26.0543 72.1739C26.2679 70.7466 26.5733 69.3343 26.8395 67.9159L27.3674 67.4798C27.3961 67.629 27.4172 67.7796 27.4305 67.931C27.4305 70.8353 27.4305 73.7396 27.405 76.644C27.405 77.023 27.405 77.3148 27.8457 77.4622C29.637 78.0713 31.4208 78.7045 33.2798 79.3528C33.4573 78.1766 33.5807 77.1629 33.7672 76.1597C34.1026 74.3202 35.572 73.1395 37.4445 73.1847C37.968 73.1967 38.4974 73.2734 39.0148 73.3215C46.9511 74.0611 54.9409 74.0198 62.8691 73.1982C64.7958 72.9936 66.906 74.0074 67.1587 76.5688C67.2459 77.4517 67.4038 78.327 67.5467 79.3272C69.0508 78.8549 70.4916 78.4473 71.9009 77.948C73.7058 77.3118 73.6877 77.2802 73.2922 75.4152C73.2847 75.3761 73.2275 75.3475 73.2065 75.3264H70.7007C70.7737 75.1855 70.8588 75.0511 70.9549 74.9248C71.0971 74.7839 71.2478 74.6518 71.4062 74.5293C72.7252 73.4764 74.2022 73.4358 75.7498 73.857L82.0458 75.5716C83.9319 76.4063 85.9037 76.4921 87.9116 76.2274C90.7167 75.8589 92.4238 74.1939 92.884 71.4054C93.239 69.2425 92.9547 67.1173 92.4809 65.0071C92.3591 64.4641 92.2072 63.9272 92.0463 63.297L90.3091 64.5544C90.1151 64.6657 89.9165 64.7695 89.7255 64.8868C87.0603 66.5187 84.2177 67.7279 81.1389 68.289C79.6348 68.5627 78.0917 68.6695 76.4763 68.862L80.5763 73.5637L80.4394 73.7652L79.5205 73.4644C76.2732 71.2369 73.8231 68.319 72.0002 64.8432C71.8889 64.6311 71.5655 64.4641 71.3113 64.4085C70.3593 64.2009 69.3817 64.0971 68.4401 63.8565C68.1811 63.7854 67.9106 63.7663 67.6442 63.8004C67.3778 63.8344 67.1207 63.921 66.888 64.055C54.0233 70.5726 41.6795 69.6952 29.8566 61.4229C29.6566 61.2831 29.4415 61.1657 29.2339 61.0379L25.3234 57.4131C22.956 58.8916 20.5751 60.3641 18.2167 61.8711C18.0956 61.9639 17.9945 62.0802 17.9195 62.213C17.8445 62.3459 17.7973 62.4926 17.7805 62.6442C17.5203 67.0797 18.7476 71.1286 21.109 74.8647L21.106 74.8662ZM25.1368 13.8256C32.8782 8.43958 41.6047 6.6693 50.8246 6.83324C60.0445 6.99719 68.7229 9.04872 76.3109 14.6348C64.7672 -1.61804 39.0148 -3.51014 25.1399 13.8241L25.1368 13.8256ZM24.5217 45.14C25.8393 40.8836 27.5298 36.8557 29.4009 32.8955C30.8252 29.8874 32.5503 27.0914 34.9764 24.7736C39.2689 20.6615 44.3872 18.0324 50.029 16.3283C50.3298 16.2366 50.6306 16.1388 50.942 16.0441C50.7121 15.8409 50.4184 15.7243 50.1117 15.7147C48.2392 15.7598 46.3515 15.6936 44.4955 15.9102C39.3923 16.5118 34.5853 18.0415 30.1499 20.7067C26.7131 22.7717 24.7127 25.7934 23.8404 29.6377C22.9485 33.5648 23.132 37.5009 23.7742 41.434C23.9803 42.6704 24.2735 43.9022 24.5247 45.1385L24.5217 45.14ZM66.894 51.5247C57.8065 57.6793 47.6947 60.4919 36.8745 61.1417C39.7623 62.2893 42.7223 62.9255 45.7575 63.297C48.8095 63.6477 51.8919 63.6427 54.9427 63.2819C57.9643 62.9496 60.9288 62.3915 63.8166 61.4109C62.5517 58.3125 64.3611 56.2881 66.6157 55.6429C67.0691 55.5028 67.5295 55.3863 67.9949 55.2939C68.3845 55.2247 68.5484 55.0563 68.377 54.6923C67.9047 53.647 67.4114 52.6182 66.894 51.5247ZM64.6679 75.4091L64.6469 74.976C64.1761 74.9113 63.7008 74.7684 63.2361 74.794C61.6854 74.8782 60.1392 75.0241 58.5916 75.1429C51.5782 75.6829 44.5783 75.4272 37.5844 74.7895C37.1498 74.7504 36.697 74.9053 36.2533 74.97L36.2278 75.3264C37.4746 75.6152 38.708 76.0108 39.9714 76.1732C46.684 77.0335 53.4116 76.9974 60.1257 76.298C61.6584 76.1371 63.1579 75.7115 64.6679 75.4076V75.4091ZM24.2916 56.2249L21.097 51.7819C19.1041 53.8876 18.8725 56.3573 19.5027 59.0736L24.2916 56.2249ZM61.7561 39.9661C61.7561 41.3378 62.6766 42.3636 63.9039 42.3726C65.3072 42.3801 66.5375 41.0084 66.5255 39.4472C66.5149 38.083 65.587 37.0407 64.3687 37.0407C62.9624 37.0257 61.7531 38.3838 61.7561 39.9661Z" fill="#381C46"/>
<path d="M82.0548 75.5669L75.7588 73.8523C74.2112 73.4312 72.7341 73.4763 71.4151 74.5246C71.2567 74.6472 71.1061 74.7793 70.9639 74.9202C70.8677 75.0465 70.7827 75.1808 70.7097 75.3218H73.2155C73.2365 75.3428 73.2937 75.3714 73.3012 75.4105C73.6967 77.2755 73.7088 77.3071 71.9099 77.9433C70.5006 78.4427 69.0523 78.8458 67.5557 79.3226C67.4053 78.3224 67.2549 77.447 67.1677 76.5641C66.915 74.0072 64.8048 72.989 62.8781 73.1935C54.9499 74.0152 46.9601 74.0565 39.0238 73.3169C38.5004 73.2687 37.9709 73.192 37.4535 73.18C35.578 73.1349 34.1115 74.3156 33.7761 76.155C33.5926 77.1582 33.4663 78.172 33.2888 79.3481C31.4298 78.6999 29.646 78.0667 27.8547 77.4575C27.417 77.3071 27.4034 77.0183 27.414 76.6393C27.435 73.735 27.435 70.8307 27.4395 67.9263C27.4262 67.7749 27.4051 67.6243 27.3764 67.4751L26.8485 67.9113C26.68 68.0061 26.4589 68.0617 26.3506 68.2031C25.4482 69.3793 24.4134 70.4908 23.717 71.7827C23.0477 73.0281 22.3077 74.111 21.109 74.86C18.7476 71.124 17.5203 67.075 17.7895 62.6291C17.8063 62.4774 17.8535 62.3307 17.9285 62.1979C18.0034 62.065 18.1045 61.9487 18.2257 61.856C20.584 60.3519 22.965 58.8764 25.3324 57.3979L29.2429 61.0227C29.2961 61.2074 29.3751 61.3836 29.4776 61.5461C31.6635 64.1728 34.3935 66.2937 37.4791 67.7624C43.0907 70.4351 48.9821 70.7359 55.0164 69.7884C58.4411 69.2514 61.7501 68.2843 65.0049 67.1111C66.4081 66.6028 67.7543 66.7005 68.9786 67.6511C69.2451 67.8826 69.5507 68.0649 69.881 68.1895C71.8573 68.8017 73.3538 70.1177 74.8729 71.4368C76.195 72.5844 77.7141 73.3921 79.5355 73.4492L80.4545 73.75L80.5914 73.5485L76.4913 68.8468C78.1081 68.6543 79.6498 68.546 81.1538 68.2738C84.2326 67.7128 87.0754 66.5035 89.7405 64.8716C89.9316 64.7543 90.1301 64.6505 90.3241 64.5392C90.458 65.0461 90.6249 65.5469 90.7196 66.0598C91.0746 68.0061 91.1709 69.9493 90.1692 71.7511C88.993 73.8568 86.9971 74.6946 84.7666 75.1232C83.8626 75.3052 82.9557 75.424 82.0548 75.5669Z" fill="#FDFDFD"/>
<path d="M45.224 109.306C39.3206 111.985 33.5495 112.246 28.0326 108.324C27.6861 108.059 27.434 107.69 27.3137 107.271C25.936 102.085 26.7482 97.1608 29.2028 92.4637C29.4826 91.9252 29.493 91.48 29.3426 90.91C28.8914 89.1713 28.5094 87.4145 28.1018 85.6638C28.6884 85.8834 29.2629 86.1406 29.8616 86.3151C31.1039 86.6776 31.7822 87.4281 31.7296 88.7682C31.7368 89.0939 31.768 89.4187 31.8229 89.7398C32.056 91.9959 33.4773 93.6504 35.4867 93.9271C36.5516 94.0775 37.627 94.1647 38.7009 94.2279C40.9495 94.3693 43.1995 94.5438 45.4511 94.5844C48.6547 94.6445 51.8629 94.628 55.068 94.5844C56.7796 94.5588 58.4897 94.4024 60.272 94.3016C60.1934 94.3547 60.1104 94.401 60.0239 94.44C55.0996 95.8463 50.0971 96.3201 45.0074 95.6688C44.0659 95.5485 43.1394 95.3063 42.2008 95.1574C41.327 95.0175 41.0081 95.4056 41.2984 96.2283C41.3958 96.5127 41.5191 96.7876 41.6669 97.0495C42.6941 98.8243 44.2779 99.9418 46.1369 100.668C46.8243 100.938 46.8574 101.235 46.713 101.891C46.1655 104.349 45.7113 106.83 45.224 109.306Z" fill="#FDFDFD"/>
<path d="M34.3749 130.638C33.6455 129.498 33.6229 128.231 33.7192 126.945C33.8696 124.792 34.581 122.802 35.524 120.815C37.6011 122.113 39.8497 122.675 42.2442 122.725C43.8986 122.758 45.4869 122.512 46.9759 121.76C48.2198 121.131 49.1869 120.216 49.784 118.944C49.9087 118.618 50.0137 118.284 50.0983 117.945C49.7765 118.147 49.6351 118.196 49.5449 118.296C47.1083 120.983 44.0596 121.51 40.6273 120.95C37.4884 120.439 35.136 118.663 32.9657 116.524C31.2631 114.844 29.7951 112.985 28.6821 110.824C28.7679 110.815 28.849 110.778 28.8972 110.804C34.0816 113.624 39.3639 113.361 44.7018 111.305C45.1665 111.126 45.6328 110.951 46.0976 110.775C47.0752 111.548 48.0528 112.314 49.032 113.095C52.6703 116.013 53.9577 120.668 52.1378 124.889C50.6834 128.262 48.0468 130.463 44.6176 131.703C41.2304 132.93 37.9426 132.811 34.8412 130.784C34.6933 130.714 34.5363 130.665 34.3749 130.638V130.638Z" fill="#FDFDFD"/>
<path d="M89.721 62.9556C85.6315 65.735 81.148 67.212 76.171 67.1534C75.5393 67.1534 75.0941 66.9834 74.7918 66.3713C74.3406 65.4523 73.7661 64.592 73.3088 63.676C73.0291 63.118 72.647 62.9089 72.0379 62.8097C70.5113 62.5585 68.9907 62.2471 67.4911 61.8666C66.903 61.7162 66.3375 61.3748 65.8367 61.0213C64.7011 60.2257 64.6334 58.9713 65.6607 58.0132C66.5631 57.1679 67.7213 56.8822 68.9035 56.7889C70.1744 56.6881 71.4603 56.7107 72.7312 56.6536C72.9463 56.6445 73.1554 56.5032 73.3675 56.4355C73.217 56.252 73.1148 55.9842 72.9253 55.903C72.3086 55.6383 71.6589 55.4518 71.0317 55.2127C70.791 55.1209 70.4722 55.0247 70.3654 54.8321C68.8433 52.1098 67.5077 49.3062 67.2339 46.1402C67.1196 44.8392 67.2911 43.5833 68.3049 42.5982C69.1411 41.7905 70.1097 41.5754 71.1219 42.1334C71.8445 42.5307 72.5077 43.0274 73.0923 43.6089C74.7212 45.2348 75.8988 47.1885 76.9276 49.2325C77.078 49.5334 77.0509 49.9094 77.1201 50.2493C77.3577 51.4255 77.6029 52.6016 77.8436 53.7778C77.806 53.9132 77.7157 54.0591 77.7398 54.1809C78.1263 56.1362 79.0243 57.8012 80.6878 58.9713C82.6626 60.3626 84.9141 60.8198 87.2815 60.8574C88.751 60.883 89.4202 61.4515 89.721 62.9556Z" fill="#FDFDFD"/>
<path d="M44.9377 90.4632C44.9302 89.5608 44.9754 88.6584 44.8942 87.7559C44.8494 87.302 44.6726 86.8712 44.3857 86.5166C43.6848 85.7029 42.8817 84.9734 42.1462 84.1928C41.9868 84.0244 41.8093 83.7837 41.8063 83.5746C41.7792 81.7502 41.7912 79.9258 41.7912 78.0232C42.1868 78.0563 42.5222 78.0924 42.8591 78.1119C48.764 78.4548 54.6689 78.5631 60.5513 77.8261C62.0057 77.6457 63.4286 77.2095 64.8664 76.8906C64.9747 77.0997 65.1673 77.3088 65.1748 77.5193C65.2109 80.7681 65.2786 84.0183 65.2124 87.2671C65.1778 88.9787 64.3009 89.8105 62.6224 89.994C56.7501 90.6307 50.8356 90.7876 44.9377 90.4632V90.4632ZM52.5618 85.366C52.5513 85.5164 52.5333 85.6969 52.5302 85.8713C52.5002 87.8552 53.9651 89.5533 55.8768 89.7473C57.993 89.9639 59.7723 88.6704 60.1227 86.6128C60.2063 85.9954 60.2364 85.3719 60.2129 84.7493C60.1964 81.8044 57.0123 79.9484 54.4675 81.4178C52.9664 82.2812 52.3934 83.6453 52.5618 85.366Z" fill="#FCFCFC"/>
<path d="M73.6759 85.366C73.2246 87.607 73.8728 89.5683 74.9437 91.5446C75.8056 93.1329 76.2869 94.9303 76.899 96.6464C76.9428 96.7808 76.9596 96.9227 76.9482 97.0636C76.9369 97.2046 76.8976 97.3419 76.8328 97.4676C73.9195 102.075 69.9338 105.138 64.4199 105.907C63.4889 106.036 62.5293 105.966 61.5833 105.987C61.4645 105.743 61.3516 105.496 61.2238 105.256C60.3454 103.601 59.4701 101.947 58.5812 100.307C58.3631 99.9027 58.4533 99.6364 58.7962 99.3447C59.4415 98.7957 60.1228 98.2602 60.6477 97.606C61.5156 96.5291 62.63 95.5589 62.6541 93.9842C62.9685 93.9346 63.2919 93.9045 63.6047 93.8338C63.9176 93.7631 64.1853 93.6428 64.4756 93.5435L64.7553 93.5044C64.8185 93.5405 64.8846 93.6112 64.9448 93.6067C67.8416 93.4097 69.4389 91.5852 69.4209 89.2284C69.4119 88.2207 69.6886 87.249 70.5444 86.7332C71.5115 86.1466 72.626 85.8172 73.6759 85.366Z" fill="#FDFDFD"/>
<path d="M62.9604 107.647C69.2369 107.31 74.0017 104.317 77.7002 99.1235C78.189 101.18 78.6718 103.079 79.0809 104.989C79.2674 105.857 79.5111 106.794 79.3713 107.633C78.9847 109.95 77.4325 111.345 75.2907 112.119C73.2031 112.871 71.0177 112.871 68.8383 112.899C68.5886 112.899 68.3405 112.917 68.0863 112.935C68.0457 112.935 68.0096 112.991 67.972 113.023C68.8609 113.836 72.7007 114.163 75.1433 113.609C77.7092 113.027 79.6555 111.634 80.7354 109.049C82.0409 111.425 83.3329 113.675 83.575 116.339C83.4412 116.574 83.2893 116.79 83.1765 117.043C81.9191 119.792 79.7623 120.853 76.876 119.992C75.7528 119.648 74.6778 119.163 73.6768 118.548C69.9002 116.255 66.9297 113.083 64.2449 109.625C63.7666 109.011 63.3876 108.31 62.9604 107.647Z" fill="#FDFCFD"/>
<path d="M25.1401 13.8241C39.015 -3.51015 64.7675 -1.61804 76.3142 14.6333C68.7262 9.04721 60.0508 6.99568 50.8279 6.83174C41.605 6.6678 32.8815 8.43807 25.1401 13.8241Z" fill="#FBFBFC"/>
<path d="M24.5251 45.1386C24.2739 43.9023 23.9806 42.6705 23.773 41.4266C23.1308 37.4935 22.9473 33.5574 23.8392 29.6303C24.7116 25.786 26.712 22.7643 30.1487 20.6992C34.5842 18.034 39.3911 16.5014 44.4944 15.9028C46.3489 15.6862 48.238 15.7524 50.1105 15.7073C50.4172 15.7169 50.7109 15.8334 50.9408 16.0367C50.64 16.1314 50.3317 16.2292 50.0278 16.3209C44.3861 18.025 39.2678 20.6541 34.9752 24.7662C32.5492 27.09 30.8241 29.88 29.3997 32.8881C27.5317 36.8543 25.8426 40.8822 24.5251 45.1386Z" fill="#C1B8C5"/>
<path d="M1.83154 77.2442C1.85711 76.065 2.43317 75.1506 3.22882 74.3414C3.3984 74.4286 3.5776 74.4958 3.76276 74.5414C5.67592 74.7776 7.46575 74.2226 9.25257 73.6631C9.52931 73.7563 9.80305 73.8616 10.0828 73.9398C10.2634 73.9782 10.4463 74.0054 10.6303 74.021C10.6393 73.818 10.6483 73.6134 10.6559 73.4104C10.6349 73.1708 10.5875 72.9342 10.5145 72.705C9.96096 71.4717 8.92619 70.9588 7.64323 70.9317C5.97975 70.8971 4.31627 70.9227 2.65279 70.9227C3.70563 68.9012 5.36007 67.6814 7.60262 67.3491C8.57875 67.1986 9.5925 67.2543 10.5852 67.3084C10.8285 67.3329 11.0742 67.303 11.3046 67.2211C11.5351 67.1392 11.7444 67.0072 11.9177 66.8347C13.2383 65.6314 14.607 64.4853 15.9246 63.3438C16.2479 65.3517 16.475 67.2543 16.8721 69.1118C17.3669 71.4265 18.4514 73.5217 19.5674 75.5913C17.7745 76.1427 16.0939 77.0085 14.604 78.1482C12.73 79.6056 10.6318 80.0764 8.31404 79.3514C7.84255 79.1855 7.35077 79.0843 6.8521 79.0506C4.96752 78.998 3.2258 78.6144 1.83154 77.2442Z" fill="#FDFDFD"/>
<path d="M77.2349 31.8217C77.3672 31.1975 77.6003 30.5748 77.6168 29.9461C77.6875 27.4028 77.7056 24.8579 77.7101 22.3131C77.7101 21.6107 77.6064 20.9083 77.5492 20.2074L77.7778 20.1096C78.417 20.8827 79.0999 21.6242 79.6865 22.4349C81.7855 25.3266 83.0738 28.7268 83.418 32.2834C83.9475 37.3521 83.3217 42.2643 81.3605 46.9811C81.183 47.3217 80.884 47.5831 80.5227 47.7135C79.9049 47.9111 79.2683 48.0442 78.6231 48.1106C78.5132 48.1119 78.4044 48.0885 78.3047 48.0421C78.205 47.9958 78.117 47.9277 78.0471 47.8429C76.7897 46.0741 75.5443 44.2963 74.341 42.5005C74.2027 42.2944 74.2177 41.8989 74.3125 41.6387C74.7426 40.4911 75.236 39.3675 75.6842 38.2275C75.7715 37.9422 75.8363 37.6505 75.8782 37.3551C76.8549 35.6802 77.326 33.7584 77.2349 31.8217V31.8217Z" fill="#2A1A3B"/>
<path d="M66.8938 51.5247C67.4112 52.6196 67.9045 53.6484 68.3828 54.6832C68.5543 55.0547 68.3828 55.2231 68.0008 55.2848C67.5353 55.3772 67.075 55.4936 66.6216 55.6337C64.3655 56.279 62.5606 58.3034 63.8225 61.4018C60.9287 62.3824 57.9642 62.9404 54.9486 63.2728C51.8977 63.6335 48.8153 63.6386 45.7633 63.2879C42.7281 62.9164 39.7682 62.2802 36.8804 61.1326C47.6945 60.4903 57.8063 57.6777 66.8938 51.5247Z" fill="#2A1A3B"/>
<path d="M64.4772 93.5391C64.1869 93.6383 63.9026 93.7571 63.6063 93.8293C63.31 93.9015 62.9701 93.9361 62.6558 93.9797C62.6317 95.5545 61.5172 96.5246 60.6494 97.6015C60.1245 98.2558 59.4461 98.7912 58.7979 99.3402C58.455 99.632 58.3647 99.8982 58.5828 100.303C59.4717 101.948 60.347 103.601 61.2254 105.251C61.3532 105.492 61.4661 105.738 61.5849 105.982C60.4328 106.133 59.5589 105.877 58.9242 104.725C57.8518 102.769 56.611 100.916 55.3897 98.9341C57.1118 98.0738 58.8671 97.4301 60.2433 96.1712L60.1576 95.926C59.8852 95.9297 59.6138 95.9589 59.3469 96.0132C57.6653 96.5081 56.0123 97.1262 54.3067 97.5098C50.7782 98.3024 47.2542 98.4122 43.834 96.9382C43.6676 96.8814 43.4971 96.8372 43.3241 96.8059C43.7317 98.0918 45.4749 98.8679 49.6848 99.6906C49.2862 101.151 48.8515 102.604 48.5026 104.076C48.2424 105.171 48.1191 106.298 47.8784 107.397C47.8077 107.722 47.6211 108.01 47.3535 108.207C46.6752 108.622 45.9382 108.942 45.2238 109.3C45.7111 106.824 46.1653 104.337 46.7082 101.879C46.8586 101.223 46.8196 100.925 46.1322 100.656C44.2732 99.9298 42.6894 98.8123 41.6622 97.0375C41.5144 96.7756 41.3911 96.5007 41.2936 96.2163C41.0079 95.3936 41.3267 95.013 42.1961 95.1454C43.1346 95.2958 44.0611 95.5364 45.0027 95.6568C50.0924 96.308 55.0949 95.8342 60.0191 94.428C60.1056 94.389 60.1887 94.3427 60.2674 94.2896C58.4851 94.3904 56.7749 94.5468 55.0633 94.5723C51.8582 94.6205 48.65 94.637 45.4464 94.5723C43.1903 94.5317 40.9447 94.3573 38.6961 94.2159C37.6222 94.1482 36.5469 94.0655 35.482 93.9151C33.4771 93.6383 32.0558 91.9839 31.8226 89.7278C31.7678 89.4066 31.7366 89.0819 31.7294 88.7562C31.782 87.416 31.1037 86.6655 29.8614 86.303C29.2597 86.1286 28.6882 85.8714 28.1016 85.6518C28.058 85.4081 28.0143 85.1645 27.9512 84.8396C28.1858 84.8968 28.3663 84.9344 28.5438 84.99C29.8718 85.3525 31.1909 85.742 32.5295 86.0594C33.0273 86.1752 33.1613 86.3752 33.1658 86.8565C33.1658 87.8582 33.2425 88.8584 33.2921 89.8646C33.3974 91.9478 34.5766 93.324 36.6762 93.4879C40.5657 93.7978 44.4642 94.1407 48.3612 94.1768C52.8373 94.2174 57.3148 93.9497 61.7924 93.7932C62.6918 93.7541 63.5838 93.6233 64.4772 93.5391Z" fill="#B8ADBD"/>
<path d="M79.527 73.4538C77.7101 73.3952 76.191 72.589 74.8644 71.4414C73.3453 70.1224 71.8488 68.8063 69.8724 68.1942C69.5421 68.0696 69.2365 67.8872 68.97 67.6557C67.7457 66.7052 66.3996 66.6029 64.9963 67.1158C61.7415 68.2964 58.4326 69.256 55.0078 69.793C48.9736 70.7405 43.0822 70.4397 37.4705 67.767C34.385 66.2983 31.655 64.1774 29.469 61.5508C29.3666 61.3882 29.2876 61.212 29.2344 61.0273C29.4419 61.1552 29.657 61.2725 29.8571 61.4124C41.6759 69.6877 54.0197 70.5651 66.8884 64.0445C67.1212 63.9104 67.3782 63.8239 67.6446 63.7898C67.9111 63.7557 68.1816 63.7748 68.4406 63.8459C69.3821 64.0866 70.3597 64.1904 71.3118 64.3979C71.566 64.4536 71.8894 64.6205 72.0007 64.8326C73.8296 68.3085 76.2797 71.2278 79.527 73.4538Z" fill="#B8AEBD"/>
<path d="M80.7135 22.3356C80.6533 22.3145 80.563 22.3115 80.539 22.2709C77.1759 17.503 72.4561 14.6679 67.0506 12.833C60.5831 10.6355 53.8841 10.082 47.1083 10.3392C40.9778 10.5694 35.0112 11.6102 29.4462 14.3611C26.0951 16.0155 23.1969 18.237 20.9423 21.2466C20.839 21.4185 20.7524 21.5998 20.6836 21.7881L20.3662 21.5249C20.658 21.0376 20.9062 20.5187 21.2476 20.069C24.5189 15.7719 28.8506 12.9382 33.8516 11.0687C39.6151 8.91489 45.6058 8.22002 51.7198 8.42758C57.7841 8.63363 63.6604 9.7331 69.2059 12.287C73.4383 14.2332 77.1157 16.9014 79.9058 20.6916C80.2637 21.1775 80.4412 21.7956 80.7014 22.3461L80.7135 22.3356Z" fill="#F7F6F8"/>
<path d="M34.3745 130.638C34.5418 130.665 34.7045 130.715 34.8574 130.788C37.9542 132.816 41.2421 132.935 44.6337 131.707C48.057 130.468 50.6936 128.266 52.154 124.894C53.9739 120.672 52.6864 116.02 49.0481 113.099C48.075 112.319 47.0928 111.553 46.1137 110.78C46.8296 110.375 47.5365 109.954 48.2675 109.577C48.3624 109.542 48.464 109.531 48.5643 109.543C48.6645 109.554 48.7607 109.589 48.8451 109.644C51.4291 111.729 53.8325 113.978 55.5035 116.906C56.3051 118.309 56.5639 119.764 56.0179 121.304C54.0416 126.869 50.5416 131.109 45.0924 133.541C42.2829 134.797 39.4266 134.666 36.7058 133.156C35.6605 132.581 34.746 131.841 34.3745 130.638Z" fill="#B8AEBD"/>
<path d="M77.2347 31.8215C77.3227 33.7575 76.8489 35.6776 75.8705 37.3504C75.3591 37.8227 74.8989 38.3717 74.3274 38.7522C72.6504 39.8712 70.7522 39.4832 69.5776 37.8498C67.5742 35.0643 68.5849 30.0287 71.5073 28.2343C73.2069 27.192 75.1576 27.5635 76.2224 29.2661C76.7007 30.0317 76.9053 30.9657 77.2347 31.8215Z" fill="#C1B8C5"/>
<path d="M35.7264 76.7764L40.219 77.9601C40.219 79.8146 40.2371 81.7608 40.207 83.707C40.1995 84.2741 40.3393 84.7118 40.7634 85.0983C41.2989 85.5871 41.7426 86.1842 42.3097 86.6279C43.188 87.3168 43.4873 88.1711 43.343 89.2435C43.2903 89.636 43.3068 90.0391 43.2918 90.4377C41.4779 90.2617 39.658 90.1294 37.8516 89.8962C36.4694 89.7173 35.6918 88.8133 35.5955 87.4085C35.5143 86.1872 35.4256 84.9614 35.4451 83.7401C35.5023 81.4179 35.6316 79.0971 35.7264 76.7764Z" fill="#FCFCFC"/>
<path d="M29.6295 58.9773C33.0407 60.7446 36.5797 62.1779 40.3158 63.1134C48.0496 65.0522 55.7053 64.6175 63.3098 62.4171C64.504 62.0726 64.5025 62.0636 65.6275 62.8788C65.5167 62.9628 65.4018 63.0411 65.2831 63.1134C54.0132 69.0454 39.5638 67.5038 29.801 59.3247C29.7119 59.2396 29.628 59.1492 29.5498 59.054C29.5769 59.0299 29.6039 59.0044 29.6295 58.9773Z" fill="#B6ABBB"/>
<path d="M62.9609 107.647C63.388 108.31 63.7671 109.011 64.2499 109.632C66.9347 113.092 69.9052 116.262 73.6818 118.556C74.6828 119.171 75.7578 119.656 76.881 120C79.7673 120.86 81.924 119.8 83.1814 117.05C83.2942 116.805 83.4462 116.581 83.58 116.346C83.884 117.374 83.8278 118.475 83.4207 119.466C83.0137 120.457 82.2803 121.28 81.342 121.797C79.2573 122.948 77.096 123 74.9016 122.145C73.0531 121.423 71.3866 120.34 70.1082 118.866C66.9933 115.256 64.0002 111.539 60.9575 107.867L61.0808 107.647H62.9609Z" fill="#B8ADBD"/>
<path d="M84.4341 37.6873C84.398 35.1635 84.5214 32.6216 84.2837 30.1174C84.0611 27.8162 83.4415 25.5541 82.9707 23.1431C83.652 23.3326 84.4507 23.4439 85.1486 23.7718C87.361 24.8081 88.6696 26.5633 88.8486 29.0239C88.9839 30.8935 88.9825 32.7735 89.0411 34.6476C87.8033 36.117 86.3924 37.3173 84.4341 37.6873Z" fill="#FCFBFC"/>
<path d="M11.9918 37.8243C11.9256 35.5517 11.6594 33.2625 11.8414 31.011C12.0685 28.2781 14.5638 26.0762 17.2395 25.8611C17.0289 27.0643 16.7882 28.2676 16.6183 29.4708C16.1337 32.8997 16.1794 36.3827 16.7537 39.7977C16.7648 39.8975 16.7698 39.998 16.7687 40.0985C15.1639 40.0173 13.8147 39.3464 12.628 38.3026C12.434 38.1221 12.2054 37.9883 11.9918 37.8243Z" fill="#FBFBFC"/>
<path d="M44.938 90.4633C50.8357 90.7897 56.7502 90.6348 62.6227 90C64.3012 89.8165 65.1796 88.9848 65.2127 87.2732C65.2789 84.0244 65.2127 80.7742 65.1751 77.5254C65.1751 77.3148 64.975 77.1058 64.8667 76.8967L65.6188 76.5508C65.7812 78.294 66.0309 79.9274 66.061 81.5638C66.1121 84.2154 66.0445 86.8716 65.9768 89.5233C65.9332 91.1882 65.3391 91.8275 63.6605 91.9613C60.5908 92.2035 57.5195 92.4501 54.4452 92.5554C51.5694 92.6532 48.6861 92.572 45.8058 92.566C45.5381 92.566 45.2689 92.5389 44.938 92.5208V90.4633Z" fill="#B8AEBD"/>
<path d="M78.9369 51.2029C78.9143 51.1322 78.8888 51.0615 78.8677 50.9893C78.5338 49.8372 78.5473 49.7861 79.6889 49.5213C82.5662 48.8415 85.2328 49.0897 87.3506 51.4255C88.4651 52.6543 89.1329 54.1328 89.5149 55.7391C88.3433 55.7677 87.149 55.9527 86.0029 55.7933C83.2445 55.4112 81.226 53.7372 79.4708 51.6932C79.303 51.519 79.1247 51.3552 78.9369 51.2029V51.2029Z" fill="#FDFCFD"/>
<path d="M23.0999 88.3741C22.8503 86.5693 22.5901 84.7644 22.3479 82.9595C22.1629 81.5502 22.008 80.1379 21.8335 78.676L25.2522 77.4607C25.1544 77.6743 25.1259 77.748 25.0883 77.8172C23.9798 79.8506 24.2024 81.6736 25.7125 83.4228C25.9884 83.7571 26.1817 84.1518 26.2765 84.5749C26.7849 86.7873 27.2496 89.0103 27.7294 91.2303C26.0674 91.0017 24.807 90.0767 23.688 88.9051C23.5105 88.705 23.2985 88.5441 23.0999 88.3741Z" fill="#FBFAFB"/>
<path d="M1.83157 77.2441C3.22582 78.6173 4.96753 79.0008 6.8461 79.0489C7.34477 79.0827 7.83655 79.1839 8.30804 79.3497C10.6258 80.0762 12.724 79.6054 14.598 78.1465C16.0879 77.0068 17.7685 76.141 19.5614 75.5896L20.7646 77.3523C19.5885 77.8833 18.4634 78.3631 17.3655 78.897C16.9185 79.1152 16.5036 79.3935 16.1321 79.7242C14.0174 81.6013 11.5793 82.1789 8.86302 81.5066C7.45514 81.1543 6.06654 80.7291 4.70282 80.2326C3.97997 79.9563 3.29912 79.5807 2.67987 79.1166C2.08577 78.6804 1.6947 78.0532 1.83157 77.2441Z" fill="#B8ADBD"/>
<path d="M82.0547 75.5671C82.9571 75.4167 83.8596 75.3054 84.762 75.1339C86.9925 74.7052 88.9884 73.86 90.1645 71.7618C91.1738 69.9569 91.067 68.0167 90.715 66.0705C90.6218 65.5576 90.4534 65.0567 90.3195 64.5499L92.0567 63.2925C92.2176 63.9227 92.3695 64.4596 92.4913 65.0026C92.9651 67.1083 93.2433 69.238 92.8944 71.4008C92.4357 74.1894 90.727 75.8544 87.922 76.2228C85.9126 76.4921 83.9408 76.4018 82.0547 75.5671Z" fill="#B8ADBD"/>
<path d="M64.6675 75.4076C63.1635 75.7085 61.6594 76.1371 60.1313 76.2966C53.4112 76.9959 46.6835 77.032 39.9769 76.1717C38.7135 76.0093 37.4803 75.6137 36.2334 75.3249L36.259 74.9685C36.7027 74.9038 37.1614 74.7489 37.5901 74.788C44.5839 75.4257 51.5778 75.6814 58.5972 75.1414C60.1449 75.0226 61.691 74.8767 63.2417 74.7925C63.7064 74.7669 64.1817 74.9098 64.6525 74.9745L64.6675 75.4076Z" fill="#F6F5F7"/>
<path d="M35.7268 76.7762C35.632 79.097 35.5027 81.4178 35.4545 83.74C35.429 84.9613 35.5177 86.1871 35.6049 87.4084C35.6982 88.8132 36.4758 89.7171 37.861 89.8961C39.6659 90.1292 41.4873 90.2616 43.3012 90.4376V92.4741C42.131 92.4034 40.991 92.3568 39.8569 92.2575C38.786 92.1642 37.7167 92.0469 36.6563 91.8785C35.596 91.71 34.9687 91.0813 34.898 90.0285C34.6092 85.7314 34.5581 81.4358 35.2229 77.1628C35.259 76.9312 35.1432 76.3416 35.7268 76.7762Z" fill="#B6ACBB"/>
<path d="M78.6872 81.884C78.9113 83.7897 79.2528 85.6908 79.328 87.5994C79.4017 89.4539 78.5548 91.0167 77.1305 92.3869C76.8402 91.7446 76.6613 91.1144 76.3078 90.603C75.1542 88.9396 74.9737 87.1242 75.3106 85.199C75.5543 85.1027 75.8671 85.0696 76.0311 84.8982C76.7921 84.101 77.5156 83.2663 78.2466 82.4405C78.4015 82.2646 78.5413 82.0705 78.6872 81.884Z" fill="#B7ADBC"/>
<path d="M89.7213 62.9555C89.4205 61.4514 88.7512 60.8844 87.2757 60.8618C84.9083 60.8242 82.6568 60.367 80.682 58.9757C79.0185 57.8056 78.1251 56.1466 77.734 54.1853C77.7099 54.0635 77.8002 53.9176 77.8378 53.7822C77.9263 53.8962 78.0058 54.0169 78.0754 54.1432C79.8668 58.1184 83.0508 59.836 87.3614 59.1156C88.321 58.9562 89.2656 58.7065 90.356 58.4689C90.7185 59.4269 91.108 60.4392 91.469 61.4664C91.5066 61.5762 91.3186 61.8154 91.1863 61.9177C90.711 62.2816 90.2116 62.611 89.7213 62.9555Z" fill="#B7ADBC"/>
<path d="M11.9914 37.8242C12.205 37.9746 12.4336 38.125 12.6321 38.2965C13.8188 39.3493 15.168 40.0111 16.7728 40.0923C17.1649 41.7117 17.5584 43.3321 17.9535 44.9534C14.9484 45.6694 11.5958 41.6761 11.9914 37.8242Z" fill="#B7ADBC"/>
<path d="M21.1084 74.8648C22.3116 74.1127 23.0471 73.0328 23.7164 71.7875C24.4128 70.4955 25.4461 69.381 26.35 68.2078C26.4583 68.0664 26.6794 68.0108 26.8479 67.916C26.5817 69.3343 26.2763 70.7466 26.0627 72.174C25.9123 73.1592 25.9213 74.1684 25.801 75.1596C25.7753 75.2871 25.7215 75.4073 25.6435 75.5114C25.5654 75.6155 25.465 75.7008 25.3498 75.7612C24.5131 76.0864 23.6596 76.3666 22.7929 76.6004C22.6637 76.6205 22.5316 76.6102 22.407 76.5702C22.2825 76.5303 22.1689 76.4618 22.0755 76.3703C21.698 75.9086 21.4227 75.3731 21.1084 74.8648Z" fill="#B8ADBD"/>
<path d="M84.434 37.6874C86.3893 37.3189 87.8031 36.1187 89.0349 34.6477C89.7268 38.5071 87.2782 42.1078 83.7061 42.4101C83.9497 40.8264 84.1918 39.2561 84.434 37.6874Z" fill="#B7ADBC"/>
<path d="M78.937 51.2029C79.1249 51.3552 79.3031 51.519 79.4709 51.6932C81.2262 53.7372 83.2446 55.4112 86.0031 55.7933C87.1492 55.9527 88.3434 55.7677 89.515 55.7391L89.8294 56.8762C87.5221 57.6162 85.2721 58.0794 82.9694 57.177C81.3676 56.5453 80.3102 55.321 79.671 53.7658C79.3356 52.9521 79.1762 52.0617 78.937 51.2029Z" fill="#B8ADBD"/>
<path d="M78.687 81.8842C78.5366 82.0707 78.4028 82.2647 78.2463 82.4422C77.5154 83.2679 76.7919 84.0967 76.0309 84.8998C75.8669 85.0728 75.5541 85.1059 75.3104 85.2006C75.2879 84.1478 75.4308 83.1942 76.0279 82.2361C77.0281 80.6253 76.6701 79.0039 75.6684 77.4533C75.2863 76.8622 75.0787 76.1583 74.793 75.5055L75.0216 75.304C75.9466 75.5386 76.8731 75.7552 77.7921 76.0184C77.865 76.0522 77.9288 76.1026 77.9787 76.1655C78.0286 76.2285 78.0631 76.3022 78.0793 76.3809C78.2944 78.2143 78.4885 80.0508 78.687 81.8842Z" fill="#FAFAFB"/>
<path d="M23.1001 88.374C23.2986 88.5485 23.5107 88.7094 23.6927 88.9004C24.8117 90.0721 26.0721 90.9971 27.7341 91.2257C27.7431 91.3912 27.8108 91.5807 27.7536 91.719C27.0151 93.542 26.2571 95.3574 25.4886 97.2134C24.7832 96.5501 24.1349 95.6913 23.9484 94.667C23.5799 92.5854 23.3738 90.4692 23.1001 88.374Z" fill="#B7ADBC"/>
<path d="M24.2916 56.225L19.5057 59.0736C18.8755 56.3573 19.1071 53.8922 21.1 51.782L24.2916 56.225Z" fill="#FAFAFB"/>
<path d="M61.7559 39.9661C61.7559 38.3839 62.9591 37.0257 64.3684 37.0347C65.5867 37.0422 66.5147 38.0876 66.5252 39.4412C66.5372 41.0024 65.3069 42.3741 63.9036 42.3666C62.6763 42.3636 61.7589 41.3378 61.7559 39.9661Z" fill="#C1B8C5"/>
<path d="M73.6759 85.3661C72.6231 85.8173 71.5116 86.1452 70.546 86.7197C69.6902 87.2356 69.4134 88.2073 69.4224 89.215C69.4405 91.5718 67.8432 93.3963 64.9464 93.5933C64.8862 93.5933 64.82 93.5271 64.7568 93.491C65.0456 93.3541 65.3404 93.2293 65.6217 93.0789C66.8821 92.4051 67.4927 91.3207 67.5769 89.9204C67.6386 88.848 67.6582 87.7726 67.7439 86.7032C67.7605 86.5017 67.968 86.1978 68.147 86.1452C69.0569 85.879 69.9925 85.7045 70.9055 85.4488C71.8184 85.1931 72.7103 84.8788 73.7406 84.5464C73.7135 84.8668 73.694 85.1179 73.6759 85.3661Z" fill="#B8ADBD"/>
<path d="M67.7661 82.8091L67.6157 81.0042L74.5945 78.6985C74.6908 79.0986 74.8111 79.6009 74.9329 80.1048C74.1719 80.556 73.4575 81.1305 72.6408 81.4133C71.0495 81.9668 69.3965 82.3579 67.7661 82.8091Z" fill="#FAFAFB"/>
<path d="M26.0479 80.1018L26.3412 78.6804L33.141 80.944V82.6436C32.9192 82.661 32.6961 82.6524 32.4762 82.618C30.2457 82.0059 27.8933 81.6976 26.0479 80.1018Z" fill="#FAFAFB"/>
<path d="M26.0486 80.1018C27.894 81.6991 30.2464 82.0074 32.4769 82.6196C32.6968 82.654 32.9199 82.6625 33.1417 82.6452V84.5598C32.495 84.4094 31.9384 84.3237 31.4015 84.1613C30.1862 83.7897 28.9635 83.4273 27.7768 82.9731C26.7089 82.5624 25.9327 81.1787 26.0486 80.1018Z" fill="#B7ADBC"/>
<path d="M67.7666 82.8092C69.397 82.358 71.05 81.9685 72.6473 81.415C73.464 81.1322 74.1784 80.5531 74.9394 80.1064C75.0537 81.3804 74.4115 82.4061 73.3887 82.8543C71.629 83.6259 69.7354 84.0952 67.7666 84.7344V82.8092Z" fill="#B8AEBD"/>
<path d="M2.65254 70.9271C4.31603 70.9271 5.9795 70.9015 7.64299 70.9361C8.92595 70.9632 9.96072 71.476 10.5142 72.7094C10.5872 72.9386 10.6347 73.1751 10.6556 73.4148C9.72912 72.1453 8.4642 71.9573 7.00226 72.1559C5.94314 72.2852 4.87531 72.329 3.80915 72.2867C2.99847 72.2597 2.54425 71.6475 2.65254 70.9271Z" fill="#B6ACBB"/>
<path d="M9.25226 73.6599C7.46545 74.2194 5.67562 74.7744 3.76246 74.5383C3.5773 74.4926 3.3981 74.4255 3.22852 74.3383C3.45713 74.2074 3.67974 73.9953 3.91588 73.9622C5.16725 73.7878 6.42013 73.6314 7.67602 73.5321C8.19642 73.4915 8.72735 73.6133 9.25226 73.6599Z" fill="#B6ABBB"/>
<path d="M80.6953 22.346L80.8096 22.4708L80.7269 22.51L80.7134 22.334L80.6953 22.346Z" fill="#F7F6F8"/>
<path d="M29.5498 59.0539L29.4565 58.9336L29.628 58.9787C29.604 59.0043 29.5769 59.0299 29.5498 59.0539Z" fill="#B6ABBB"/>
<path d="M52.5623 85.366C52.3939 83.6484 52.9669 82.2842 54.4679 81.4179C57.0128 79.9484 60.1968 81.8044 60.2134 84.7493C60.2369 85.372 60.2068 85.9954 60.1232 86.6129C59.7728 88.6704 57.9935 89.9639 55.8773 89.7473C53.9656 89.5533 52.5006 87.8552 52.5307 85.8714C52.5322 85.6939 52.5518 85.5164 52.5623 85.366ZM54.1867 85.8172C53.9971 86.7317 54.48 87.3483 55.1568 87.8206C55.8998 88.338 56.7135 88.338 57.4851 87.8733C58.2567 87.4085 58.6793 86.7618 58.547 85.8277C58.5184 85.6773 58.4913 85.5435 58.4612 85.4006C58.3639 84.8838 58.0752 84.4228 57.6527 84.1097C57.2303 83.7965 56.7053 83.6543 56.1825 83.7115C55.6447 83.7436 55.1392 83.979 54.7686 84.3701C54.398 84.7611 54.1899 85.2785 54.1867 85.8172Z" fill="#391D47"/>
<path d="M54.186 85.8172C54.1893 85.2784 54.3973 84.761 54.768 84.37C55.1386 83.979 55.6441 83.7436 56.1819 83.7115C56.7055 83.6545 57.2313 83.7975 57.6539 84.1119C58.0765 84.4262 58.3646 84.8887 58.4605 85.4066C58.4906 85.5494 58.5177 85.6908 58.5463 85.8337C57.88 86.0819 57.2092 86.5436 56.5504 86.5256C55.7563 86.497 54.9742 86.0683 54.186 85.8172Z" fill="#42CCF1"/>
<path d="M54.1861 85.8171C54.9742 86.0683 55.7564 86.497 56.5505 86.5195C57.2093 86.5376 57.8801 86.0758 58.5464 85.8277C58.6788 86.7617 58.2456 87.4175 57.4845 87.8732C56.7235 88.3289 55.8993 88.3379 55.1563 87.8205C54.487 87.3483 53.9966 86.7316 54.1861 85.8171Z" fill="#3E8DB4"/>
</svg>
