<svg width="164" height="240" viewBox="0 0 164 240" fill="none" xmlns="http://www.w3.org/2000/svg">
<path d="M28.7064 137.549C27.0843 138.338 25.4839 139.171 23.8322 139.895C19.9783 141.586 15.9389 142.409 11.7317 142.066C8.37704 141.79 5.09339 141.13 2.55173 138.559C1.14248 137.151 0.287775 135.282 0.144217 133.294C0.0317363 131.966 -0.0294372 130.532 0.341551 129.29C0.858566 127.599 0.120614 126.133 0.0258934 124.554C-0.131974 121.932 0.420562 119.534 1.99923 117.425C4.95925 113.45 9.62022 112.387 14.7706 114.08C16.4973 114.648 17.5629 114.439 18.6147 113.056C20.6788 110.34 22.8338 107.69 24.9018 104.977C29.2195 99.3114 33.4266 93.5591 37.835 87.9666C40.6135 84.4383 44.3905 82.1354 48.4911 80.3555C48.6884 80.2687 48.8858 80.1582 49.2075 80.0121C48.647 79.5267 48.1655 79.0965 47.6742 78.6801C42.2751 74.1 38.0857 68.6161 35.2303 62.1198C35.1105 61.8233 34.8817 61.584 34.5909 61.4509C31.544 60.5431 29.7937 58.2935 28.6176 55.5545C26.7034 51.1125 26.593 46.5699 28.3098 42.0233C29.0536 40.0779 30.3594 38.3976 32.0611 37.1965C32.4042 36.9186 32.6457 36.5349 32.7478 36.1053C34.1935 29.8694 36.9882 24.0261 40.9352 18.9866C44.7339 14.1025 49.3574 10.1736 54.6914 7.05768C60.1575 3.87192 66.1629 1.71871 72.408 0.705507C76.753 0.00197757 81.1669 -0.176234 85.5544 0.17469C91.3951 0.605977 97.1226 2.01133 102.5 4.33253C107.248 6.36876 111.65 9.13303 115.547 12.5258C120.356 16.7014 124.183 21.619 126.904 27.3634C127.871 29.4038 128.53 31.5903 129.351 33.6998C129.473 34.0115 129.653 34.4279 129.915 34.5384C133.351 35.9849 134.807 38.9114 135.547 42.2582C136.68 47.379 135.912 52.2157 132.66 56.4307C131.835 57.5022 130.489 58.1692 129.404 59.0473C129.045 59.3374 128.615 59.6591 128.461 60.0577C126.87 64.2782 124.653 68.2351 121.884 71.7951C119.522 74.835 116.792 77.5705 113.757 79.9391C113.659 80.0161 113.572 80.1108 113.38 80.2884L116.688 82.0979C120.281 84.0535 123.541 86.465 126.637 89.1369C130.298 92.2942 133.132 96.1698 136.224 99.8245C138.746 102.806 141.38 105.695 143.782 108.77C144.901 110.2 145.881 110.546 147.634 109.991C150.135 109.201 152.835 109.316 155.261 110.317C158.803 111.718 161.489 115.58 161.504 119.378C161.504 120.231 161.435 121.083 161.429 121.944C161.414 122.164 161.479 122.382 161.613 122.557C163.764 124.586 163.442 128.172 161.706 130.757C159.653 133.809 156.788 135.798 153.418 137.158C147.955 139.358 142.612 138.721 137.309 136.608C136.555 136.306 135.815 135.976 134.843 135.562C135.35 136.708 135.77 137.645 136.179 138.589C139.336 145.87 137.165 152.288 132.066 157.483C127.184 162.45 121.096 165.264 114.561 167.109C110.089 168.372 105.483 169.213 100.909 170.042C98.1626 170.517 95.3868 170.801 92.6012 170.894C87.0581 171.119 81.5032 171.388 75.962 171.259C66.4565 171.042 57.0377 169.979 47.9406 166.959C42.6639 165.205 37.691 162.815 33.4641 159.131C29.8391 155.974 27.1751 152.165 26.2141 147.343C25.5471 143.988 26.214 140.955 28.3216 138.249C28.4692 138.036 28.6011 137.811 28.7162 137.578L28.7399 137.501L28.7064 137.549ZM133.134 152.361C134.625 150.072 135.517 147.609 135.304 144.828C135.259 144.236 135.291 143.644 135.158 143.078C133.899 137.715 131.373 133.19 126.517 130.251C126.075 129.973 125.589 129.772 125.078 129.659C122.109 129.077 119.381 129.894 116.747 131.189L113.519 132.984C111.545 134.459 109.495 135.828 107.634 137.426C103.095 141.314 98.0476 144.081 92.1414 145.192C87.0897 146.141 82.0439 145.401 77.002 145.119C74.1979 144.961 71.4115 144.755 68.7396 145.847C67.2379 146.46 66.0045 147.404 65.4105 149.004C65.2132 149.48 64.933 149.939 64.8185 150.437C63.8496 154.788 64.716 158.707 67.9246 161.882C69.2415 163.164 70.7273 164.259 72.3409 165.138C76.7435 167.553 81.5683 168.607 86.549 168.732C93.4754 168.903 100.321 168.003 107.101 166.646C112.792 165.505 118.314 163.832 123.439 161.036C126.132 159.565 128.656 157.855 130.71 155.532L133.134 152.361ZM33.4424 58.2323L33.549 58.3468L33.5371 58.1317L32.2584 51.7203V40.3263L31.9427 40.2986C30.1469 42.6667 29.3773 45.376 29.5174 48.3637C29.7601 50.043 29.8509 51.7618 30.2851 53.3878C30.7883 55.3 31.7355 57.0483 33.4424 58.2323ZM32.0236 154.149L35.0211 157.306C35.2855 157.551 35.5361 157.813 35.8104 158.04C38.7704 160.436 42.0955 162.214 45.6238 163.623C52.3332 166.3 59.3563 167.626 66.5077 168.337C69.1994 168.605 71.9009 168.755 74.5984 168.959C74.1596 168.598 73.6641 168.313 73.1322 168.114C69.7775 166.624 66.8076 164.635 64.6468 161.588C63.4253 159.869 62.7761 157.922 62.267 155.911C62.2374 155.157 62.196 154.401 62.1822 153.647C62.0894 148.319 64.3529 144.675 69.0395 143.281C69.083 143.27 69.1106 143.204 69.1915 143.11C68.7475 142.928 68.3193 142.774 67.9088 142.583C63.455 140.489 59.009 138.38 54.5493 136.298C52.347 135.27 50.1191 134.293 47.6544 134.064L42.7802 133.794C41.097 133.991 39.3565 133.991 37.7423 134.447C33.7088 135.573 30.6699 138.013 28.9156 141.904C28.7735 142.299 28.5584 142.68 28.4972 143.088C27.8579 147.348 29.397 150.926 32.0176 154.156L32.0236 154.149ZM130.925 49.5496L130.022 56.0104C132.664 53.0997 133.714 49.8496 133.631 46.1772C133.866 42.6646 132.182 38.424 130.408 37.5814C130.572 41.4925 130.746 45.524 130.925 49.5496ZM95.8 124.734C95.6599 125.221 95.3382 125.742 95.4211 126.188C95.6185 127.238 95.8573 128.327 96.3407 129.265C98.0496 132.574 100.71 134.976 103.952 136.74C104.116 136.8 104.292 136.82 104.465 136.8C104.638 136.78 104.805 136.719 104.95 136.623C106.156 135.666 107.318 134.65 108.481 133.642L112.737 130.618C109.276 130.589 106.422 129.365 103.768 127.625C102.535 126.818 101.314 125.989 100.039 125.257C99.2135 124.795 98.3492 124.407 97.4557 124.097C96.7689 123.844 96.1532 124.033 95.7881 124.734H95.8ZM65.7776 126.115C65.7026 124.367 64.7159 123.656 63.1017 124.241C62.4547 124.481 61.8333 124.785 61.2468 125.148C59.6497 126.123 58.0671 127.122 56.4989 128.146C53.3416 130.22 49.8408 130.865 46.1389 130.547C44.0905 130.372 42.0521 130.072 39.9407 129.819L39.3782 131.698C39.9249 131.654 40.3472 131.631 40.7596 131.587C43.5598 131.303 46.356 131.351 49.0969 131.982C50.8098 132.377 52.4654 133.014 54.1467 133.543C55.5004 134.196 56.8423 134.873 58.2158 135.481C58.3738 135.533 58.5411 135.553 58.7071 135.538C58.873 135.524 59.0343 135.475 59.1807 135.396C61.7638 133.847 63.8555 131.795 65.1106 129.03C65.5092 128.128 65.5565 127.08 65.7657 126.115H65.7776ZM118.231 115.459L118.304 115.475C118.337 115.695 118.397 115.91 118.484 116.114C119.707 118.212 120.796 120.408 122.219 122.364C123.6 124.26 125.258 125.967 126.922 127.631C127.742 128.452 128.895 128.925 129.816 129.663C133.038 132.224 136.723 134.14 140.67 135.307C147.075 137.257 152.881 136.096 157.944 131.656C159.105 130.638 160.089 129.44 160.498 127.883C160.822 126.897 161.09 125.924 160.445 124.923C157.696 128.446 153.396 129.914 150.542 128.187C153.785 127.82 156.539 126.82 158.254 123.954C159.726 121.494 159.543 117.371 157.812 115.451L155.813 117.05C155.924 117.324 156.05 117.588 156.137 117.865C156.369 118.593 156.411 119.369 156.258 120.119C156.106 120.868 155.763 121.566 155.264 122.145C154.765 122.725 154.125 123.166 153.407 123.428C152.688 123.69 151.914 123.763 151.159 123.641C150.404 123.518 149.693 123.204 149.094 122.729C148.495 122.254 148.028 121.633 147.737 120.925C147.447 120.218 147.342 119.448 147.434 118.688C147.526 117.929 147.81 117.206 148.261 116.588C149.51 114.877 151.825 114.202 153.706 115.185C154.519 115.607 155.036 115.449 155.616 114.95C155.963 114.654 156.293 114.338 156.668 113.995C155.553 112.832 154.06 112.103 152.457 111.939C147.687 111.337 144.038 113.506 140.824 116.787C140.79 114.652 141.891 113.135 143.356 111.753L135.109 102.181L133.043 99.639C130.884 97.1664 128.826 94.5912 126.531 92.2449C123.819 89.4639 120.718 87.0903 117.325 85.198C115.549 84.2271 113.748 83.276 111.981 82.2756C111.354 81.9184 110.9 81.9953 110.298 82.388C102.385 87.5601 93.6728 90.3267 84.2501 90.7727C72.5699 91.3253 61.7796 88.4975 51.9938 82.0111C51.755 81.8513 51.3308 81.7052 51.1196 81.8138C48.8917 82.9149 46.6875 84.0673 44.4773 85.2059C43.2933 86.1374 41.912 86.8932 40.9846 88.0318C37.1464 92.7678 33.4523 97.6103 29.7049 102.413L27.8165 105.028L19.1199 116.276C21.0222 118.67 21.6261 120.4 20.9354 121.819C19.2344 118.946 16.9097 116.902 13.6202 116.114C10.3306 115.327 7.22655 115.353 4.50137 118.052C5.12889 118.705 5.71302 119.359 6.34646 119.958C6.90097 120.483 7.43375 120.616 8.25072 120.201C10.5398 119.039 13.3518 120.241 14.2615 122.63C14.4733 123.193 14.5702 123.793 14.5465 124.394C14.5228 124.995 14.379 125.585 14.1235 126.129C13.868 126.674 13.5061 127.161 13.059 127.564C12.6119 127.966 12.0889 128.275 11.5206 128.471C9.06182 129.288 6.37603 127.921 5.82152 125.395C5.58867 124.335 5.82155 123.173 5.84523 121.879L3.32922 119.593C2.16889 121.784 1.90845 124.069 2.72344 126.378C4.04952 130.127 6.67012 132.406 10.7687 132.836C9.44661 133.5 8.1363 133.486 6.80627 133.273C5.12394 132.88 3.6037 131.978 2.45306 130.689C2.38992 131.12 2.33073 131.37 2.32087 131.623C2.18076 135.005 3.82845 137.553 7.00553 138.741C10.4234 140.019 13.9498 140.122 17.4979 139.441C23.708 138.257 28.8466 135.064 33.3912 130.812C37.6023 126.865 40.9233 122.226 43.9386 117.346C44.2287 116.876 44.4596 116.369 44.7181 115.88L44.868 115.548L46.3599 112.933C46.7388 112.144 47.1138 111.335 47.4966 110.536C48.4714 108.495 49.4364 106.449 50.4448 104.418C50.5612 104.184 50.9163 104.065 51.163 103.893C51.2557 104.156 51.4215 104.416 51.4294 104.683C51.5024 106.899 50.9183 108.981 49.9869 110.962C47.806 115.6 45.2006 120.026 42.204 124.183C41.5213 125.131 41.1404 126.297 40.5602 127.489C44.7161 128.229 48.6075 128.85 52.5226 127.583C51.6445 122.453 53.0475 117.975 55.4057 113.66C57.1383 110.486 59.6859 108.574 63.2142 107.74C68.1358 106.579 73.1223 106.07 78.1524 105.892C84.6248 105.633 91.1065 106.054 97.4911 107.147C103.853 108.262 107.358 112.15 109.041 118.082C109.966 121.248 110.02 124.605 109.195 127.799C113.355 128.823 117.363 128.245 121.455 127.207C120.952 126.098 120.5 125.036 119.997 124.016C117.432 118.771 114.823 113.545 112.287 108.284C111.29 106.277 110.709 104.089 110.578 101.851C110.565 101.529 110.732 101.202 110.815 100.876C111.083 101.074 111.464 101.212 111.604 101.468C112.611 103.418 113.602 105.377 114.533 107.363C115.23 108.845 115.831 110.368 116.475 111.874C117.056 113.08 117.638 114.275 118.219 115.459H118.231ZM34.9185 53.4825C35.1888 55.8505 36.0177 58.0409 36.9353 60.2392C39.4177 66.1987 42.9717 71.4024 47.7708 75.6865C59.4431 86.1117 73.2171 90.2557 88.5696 87.9745C107.514 85.1606 120.863 74.9604 127.261 56.5037C127.835 54.85 127.999 53.0543 128.354 51.3237C128.429 50.7948 128.504 50.266 128.593 49.6523C127.253 49.9877 126.091 50.4416 124.897 50.5403C122.768 50.7238 121.639 51.6532 121.805 53.8772C121.801 53.9444 121.787 54.0108 121.765 54.0745C120.674 60.03 118.213 65.3857 114.661 70.2559C114.018 71.0452 113.4 71.8524 112.723 72.6101C104.804 81.4902 94.8548 86.3189 83.0345 87.0944C71.0287 87.8838 60.4752 84.241 51.5932 76.0279C48.6233 73.283 46.277 70.0448 44.3076 66.5263C41.8646 61.7212 40.361 56.6596 40.0847 51.2566C40.0729 51.0158 39.8065 50.6291 39.5993 50.5857C37.9121 50.2265 36.211 49.9325 34.36 49.599C34.5475 50.9586 34.727 52.2196 34.9066 53.4805L34.9185 53.4825ZM103.101 124.371L107.048 126.966C107.731 123.629 107.616 120.59 106.417 117.62C105.12 113.772 102.979 110.757 98.7067 109.877C96.7788 109.482 94.8568 109.018 92.9091 108.768C86.0225 107.889 79.0552 107.842 72.1574 108.628C68.783 109.008 65.448 109.798 62.1269 110.559C61.1061 110.809 60.1754 111.339 59.4393 112.089C57.6337 113.989 56.4141 116.284 55.6346 118.798C54.6354 121.261 54.3177 123.947 54.715 126.575L58.3124 124.156C59.8003 123.41 61.231 122.492 62.7919 121.955C65.231 121.119 67.4668 122.506 67.9759 125.044C68.1476 125.892 68.0351 126.798 68.0509 127.678C67.4371 130.157 66.1031 132.241 64.2857 134.269C75.2042 136.089 85.9056 135.836 96.8202 134.028C95.0758 131.986 93.7832 129.912 93.1656 127.479C93.1419 127.252 93.1221 127.025 93.0965 126.798C92.6762 122.97 95.581 120.76 99.1586 122.192C99.5235 122.337 99.8782 122.507 100.22 122.699C101.181 123.246 102.134 123.812 103.101 124.371ZM39.99 48.8314C40.5938 41.384 41.5844 37.4175 44.0254 32.5256C54.4289 11.6793 81.29 3.24125 102.065 14.4202C113.102 20.36 119.887 29.5301 121.923 41.9977C122.318 44.3815 122.318 46.8264 122.505 49.3405C124.348 48.8688 126.284 48.3952 128.2 47.8486C128.398 47.7894 128.634 47.2961 128.609 47.0277C128.244 43.2054 128.214 39.3021 127.36 35.5823C125.386 26.943 120.569 19.914 113.907 14.1578C98.385 0.739038 74.999 -1.71774 56.9114 8.51996C43.323 16.216 34.9066 27.5212 34.3383 43.7066C34.291 45.0386 34.3383 46.3765 34.3383 47.7441L39.99 48.8314ZM118.245 37.0683C118.281 36.9211 118.297 36.7698 118.294 36.6183C118.215 36.3342 118.12 36.054 118.02 35.7757C116.021 30.2504 112.86 25.4828 108.427 21.6486C98.0635 12.6798 86.0221 9.84207 72.8066 12.9382C59.157 16.1351 49.5212 24.3422 44.3905 37.5596C44.2563 37.901 44.1675 38.2621 43.9958 38.787C44.2366 38.6173 44.3057 38.5897 44.3353 38.5404C44.4202 38.4003 44.4892 38.2523 44.5622 38.1043C51.0742 24.8829 61.8309 17.471 76.2185 15.0537C76.9033 14.9392 77.44 14.9195 77.8228 15.7049C78.0202 16.1291 78.553 16.4725 79.0068 16.6915C81.1578 17.6782 83.3364 17.6782 85.4774 16.6481C85.8721 16.4508 86.3733 16.1706 86.5272 15.8016C86.9219 14.8465 87.6126 14.9451 88.3723 15.0911C88.6308 15.1405 88.8913 15.1741 89.1498 15.2234C102.02 17.6723 111.782 24.356 117.763 36.2079C117.88 36.4526 118.028 36.6933 118.237 37.0683H118.245ZM102.296 138.601C101.171 137.768 100.159 136.988 99.1112 136.258C98.8484 136.089 98.5365 136.013 98.2252 136.041C93.8247 136.566 89.4419 137.324 85.0276 137.62C77.7262 138.097 70.4347 137.874 63.2438 136.329C62.3992 136.148 61.7954 136.244 61.2428 136.933C61.3134 136.998 61.3886 137.057 61.4678 137.111C69.4441 141.616 78.0123 143.648 87.1647 143.384C92.5596 143.268 97.8081 141.608 102.288 138.601H102.296ZM52.9627 39.2291C52.9469 42.1654 54.5137 43.8289 56.9094 43.6197C58.043 43.5078 59.1219 43.0775 60.0213 42.3785C63.226 39.7855 65.8999 36.6558 68.3094 33.3229C68.7167 32.7264 69.0233 32.067 69.2171 31.3712C69.3607 30.9062 69.4075 30.4168 69.3548 29.9331C69.3021 29.4493 69.1509 28.9815 68.9106 28.5583C68.6703 28.1352 68.346 27.7657 67.9575 27.4727C67.569 27.1796 67.1247 26.9691 66.6518 26.8543C64.9744 26.4122 63.3938 26.8029 61.8546 27.4463C58.6657 28.7743 56.5818 31.2725 54.863 34.1359C53.8073 35.8685 53.018 37.6958 52.9529 39.2291H52.9627ZM154.014 119.282C154.014 118.027 153.094 117.064 151.882 117.046C150.732 117.03 149.664 118.096 149.686 119.244C149.719 119.805 149.959 120.334 150.361 120.728C150.762 121.121 151.295 121.351 151.857 121.373C152.418 121.376 152.959 121.159 153.362 120.768C153.765 120.377 153.999 119.843 154.014 119.282ZM7.98632 124.11C7.9508 125.387 8.75395 126.281 9.95966 126.321C11.2364 126.356 12.2448 125.468 12.2783 124.276C12.3079 123.189 11.1614 122.021 10.0623 122.023C9.51551 122.041 8.99634 122.267 8.6106 122.655C8.22486 123.043 8.00158 123.564 7.98632 124.11V124.11ZM34.8968 132.876C36.7083 132.554 37.4937 131.733 36.8701 130.492L34.8968 132.876ZM44.1182 38.9982L43.98 38.9271L43.8143 39.1482C43.8531 39.1798 43.894 39.2088 43.9367 39.235C43.9994 39.1598 44.0574 39.0807 44.1103 38.9982H44.1182ZM118.657 37.8458L118.604 37.7747C118.582 37.8213 118.565 37.8694 118.551 37.9188C118.551 37.9385 118.58 37.9641 118.596 37.9878L118.657 37.8458ZM118.361 37.4511H118.438V37.1551H118.361V37.4511Z" fill="#50134D"/>
<path d="M116.471 111.889C115.827 110.384 115.225 108.86 114.529 107.378C113.597 105.393 112.607 103.432 111.6 101.484C111.462 101.22 111.081 101.089 110.811 100.892C110.728 101.218 110.56 101.545 110.574 101.867C110.705 104.104 111.286 106.293 112.283 108.3C114.819 113.561 117.428 118.786 119.993 124.031C120.496 125.059 120.948 126.113 121.451 127.222C117.359 128.252 113.351 128.831 109.191 127.814C110.016 124.621 109.962 121.264 109.037 118.098C107.358 112.166 103.849 108.278 97.487 107.163C91.1024 106.07 84.6207 105.649 78.1483 105.908C73.1182 106.086 68.1316 106.595 63.2101 107.755C59.6818 108.584 57.1341 110.496 55.4016 113.675C53.0434 117.991 51.6404 122.476 52.5185 127.599C48.6034 128.866 44.712 128.244 40.5561 127.504C41.1363 126.32 41.5171 125.146 42.1999 124.199C45.1965 120.042 47.8019 115.616 49.9828 110.978C50.9142 109.004 51.4983 106.915 51.4253 104.699C51.4253 104.434 51.2516 104.174 51.1589 103.909C50.9122 104.081 50.5571 104.199 50.4406 104.434C49.4323 106.461 48.4673 108.507 47.4925 110.551C47.1097 111.351 46.7347 112.15 46.3558 112.949C46.1841 112.554 46.0203 112.16 45.8408 111.781C43.9227 107.7 41.0732 104.598 36.6904 103.126C34.4171 102.362 32.0728 102.244 29.7008 102.431C33.4502 97.6281 37.1423 92.7816 40.9805 88.0495C41.902 86.9109 43.2951 86.1551 44.4732 85.2237C44.6377 85.4647 44.817 85.6954 45.01 85.9143C48.3613 89.3088 52.1922 92.1935 56.3804 94.4767C66.0103 99.6942 76.2973 101.656 87.1862 100.511C92.3702 99.9665 97.272 98.4628 101.957 96.2191C106.338 94.1215 110.304 91.3805 114.018 88.2725C115.166 87.3095 116.222 86.2399 117.321 85.2197C120.714 87.112 123.814 89.4856 126.527 92.2665C128.816 94.6128 130.868 97.188 133.039 99.6606C132.613 99.6606 132.186 99.6784 131.76 99.6824C126.752 99.7297 122.499 101.381 119.421 105.51C117.98 107.408 117.112 109.596 116.471 111.889Z" fill="#FDFDFD"/>
<path d="M65.4106 149.006C66.0026 147.41 67.238 146.466 68.7397 145.849C71.4116 144.757 74.198 144.963 77.0021 145.121C82.044 145.403 87.0898 146.143 92.1415 145.194C98.0477 144.083 103.103 141.316 107.634 137.428C109.495 135.83 111.551 134.468 113.519 132.986C114.359 133.131 115.21 133.233 116.041 133.425C121.878 134.764 126.509 137.709 129.082 143.343C130.105 145.58 130.529 147.966 130.772 150.393C130.75 150.518 130.726 150.642 130.703 150.766C129.832 151.408 129.005 152.124 128.082 152.674C123.06 155.666 117.679 157.849 112.11 159.565C106.871 161.178 101.531 162.131 96.0132 161.843C91.6581 161.616 87.299 161.499 82.9478 161.227C79.6639 161.033 76.4344 160.3 73.3889 159.056C69.1936 157.337 66.2494 154.565 65.6514 149.825C65.5924 149.546 65.5119 149.272 65.4106 149.006V149.006Z" fill="#FEFDFE"/>
<path d="M39.9821 48.8313L34.3246 47.7499C34.3246 46.3824 34.2831 45.0445 34.3246 43.7125C34.8929 27.5311 43.3091 16.216 56.8975 8.52585C74.9852 -1.71184 98.3713 0.750853 113.894 14.1637C120.556 19.9199 125.367 26.9489 127.346 35.5882C128.198 39.3021 128.23 43.2053 128.595 47.0336C128.621 47.302 128.398 47.7953 128.187 47.8545C126.27 48.4011 124.334 48.8747 122.491 49.3464C122.294 46.8323 122.294 44.3874 121.909 42.0036C119.873 29.536 113.088 20.3659 102.052 14.4261C81.2763 3.24714 54.4151 11.6852 44.0117 32.5315C41.5766 37.4175 40.586 41.384 39.9821 48.8313Z" fill="#FDFCFD"/>
<path d="M68.047 127.678C68.0312 126.798 68.1437 125.892 67.972 125.044C67.4629 122.506 65.2271 121.119 62.788 121.955C61.2271 122.492 59.7964 123.41 58.3085 124.156C58.2687 123.999 58.2019 123.85 58.1112 123.716C56.9647 122.551 56.3609 121.121 55.9997 119.56C55.9059 119.292 55.7815 119.037 55.6288 118.798C56.4181 116.284 57.6277 113.989 59.4333 112.089C60.1695 111.339 61.1003 110.809 62.1211 110.559C65.4382 109.798 68.7772 109.008 72.1516 108.627C79.0494 107.842 86.0166 107.889 92.9032 108.768C94.8508 109.018 96.7729 109.48 98.7009 109.877C102.973 110.757 105.114 113.772 106.411 117.62C106.3 117.764 106.107 117.898 106.089 118.05C105.854 120.439 104.794 122.672 103.092 124.365C102.133 123.806 101.179 123.24 100.214 122.693C99.8724 122.501 99.5177 122.331 99.1528 122.186C95.5751 120.754 92.6703 122.964 93.0907 126.792C93.1163 127.019 93.1361 127.246 93.1597 127.473C92.6013 127.497 92.0428 127.499 91.4883 127.546C88.5835 127.783 85.6847 128.126 82.7779 128.256C77.8564 128.483 72.9468 128.162 68.047 127.678Z" fill="#FDFDFD"/>
<path d="M135.101 102.175L143.348 111.747C141.883 113.129 140.782 114.646 140.816 116.781C144.03 113.5 147.679 111.331 152.449 111.933C154.052 112.097 155.545 112.826 156.66 113.989C156.285 114.332 155.955 114.648 155.608 114.944C155.028 115.443 154.511 115.601 153.698 115.179C151.817 114.192 149.503 114.871 148.253 116.582C147.804 117.2 147.519 117.922 147.428 118.681C147.337 119.44 147.442 120.209 147.733 120.916C148.023 121.622 148.49 122.243 149.089 122.718C149.688 123.193 150.398 123.506 151.152 123.629C151.907 123.751 152.68 123.678 153.398 123.416C154.116 123.155 154.755 122.714 155.254 122.135C155.753 121.556 156.096 120.86 156.249 120.111C156.402 119.362 156.361 118.587 156.129 117.859C156.042 117.582 155.916 117.318 155.805 117.044L157.804 115.445C159.535 117.365 159.719 121.488 158.246 123.948C156.532 126.814 153.777 127.814 150.535 128.181C153.388 129.908 157.688 128.44 160.437 124.917C161.072 125.922 160.814 126.901 160.49 127.877C160.2 128.012 159.912 128.144 159.624 128.272C157.937 129.061 156.311 130.048 154.55 130.612C150.973 131.767 147.316 131.445 143.65 130.857C133.937 129.298 126.316 124.205 119.9 117.008C119.407 116.456 118.831 115.976 118.292 115.461L118.219 115.445C118.509 114.034 118.675 112.582 119.111 111.218C120.581 106.617 123.439 103.28 128.348 102.364C130.531 101.967 132.848 102.22 135.101 102.175Z" fill="#FDFDFD"/>
<path d="M6.80228 133.261C8.13232 133.474 9.44263 133.488 10.7648 132.825C6.65627 132.394 4.04554 130.119 2.71945 126.366C1.90446 124.057 2.16491 121.772 3.32523 119.581L5.84124 121.867C5.81756 123.161 5.58469 124.323 5.81754 125.383C6.37205 127.909 9.05784 129.276 11.5166 128.46C12.0849 128.263 12.608 127.954 13.055 127.552C13.5021 127.15 13.8641 126.662 14.1195 126.117C14.375 125.573 14.5188 124.983 14.5425 124.382C14.5662 123.781 14.4693 123.181 14.2575 122.618C13.3478 120.229 10.5358 119.027 8.24673 120.189C7.42977 120.604 6.89699 120.471 6.34248 119.947C5.70904 119.355 5.12491 118.693 4.49739 118.04C7.22257 115.341 10.3365 115.317 13.6162 116.102C16.8959 116.888 19.2304 118.934 20.9314 121.807C21.6221 120.389 21.0182 118.65 19.1159 116.264L27.8125 105.016C28.1361 104.971 28.4637 104.941 28.7834 104.88C35.0665 103.684 40.3747 106.232 43.3249 111.921C43.9169 113.079 44.3549 114.326 44.8641 115.534L44.7141 115.866C44.4537 116.039 44.1379 116.166 43.9425 116.395C38.8927 122.24 33.2352 127.372 26.6087 131.392C21.0834 134.747 15.1456 135.457 8.9059 134.168C8.18365 134.026 7.50479 133.574 6.80228 133.261Z" fill="#FDFDFD"/>
<path d="M117.323 85.1922C116.224 86.2124 115.169 87.2819 114.02 88.2449C110.306 91.3529 106.34 94.0939 101.959 96.1916C97.2743 98.4352 92.3725 99.9409 87.1885 100.484C76.2996 101.628 66.0126 99.6666 56.3827 94.4491C52.1945 92.166 48.3636 89.2812 45.0123 85.8867C44.8193 85.6678 44.6401 85.4371 44.4756 85.1961C46.6857 84.0574 48.8899 82.905 51.1178 81.8039C51.3289 81.6993 51.7532 81.8453 51.992 82.0012C61.7778 88.4876 72.568 91.3154 84.2482 90.7629C93.6709 90.3169 102.383 87.5503 110.296 82.3782C110.898 81.9835 111.352 81.9085 111.98 82.2657C113.746 83.2701 115.534 84.2213 117.323 85.1922Z" fill="#DBCFDA"/>
<path d="M47.6506 134.064C50.1154 134.293 52.3432 135.27 54.5455 136.298C59.0052 138.38 63.4512 140.489 67.905 142.583C68.3155 142.78 68.7437 142.928 69.1877 143.11C69.1068 143.204 69.0792 143.269 69.0358 143.281C64.357 144.674 62.0857 148.315 62.1784 153.647C62.1922 154.401 62.2336 155.157 62.2632 155.911C61.9802 156.162 61.7164 156.435 61.4739 156.726C60.9016 157.527 60.4221 158.397 59.8064 159.161C58.7645 160.451 57.5904 161.702 55.844 161.854C54.7725 161.922 53.6985 161.771 52.6866 161.412C46.6799 159.356 41.0841 156.253 36.1579 152.248C35.5264 151.739 34.8654 151.261 34.2182 150.776L34.0997 150.381C34.1356 150.257 34.162 150.129 34.1786 150.001C34.4431 145.815 36.1914 142.332 39.1495 139.41C41.5964 137.004 44.517 135.364 47.6506 134.064Z" fill="#FEFDFD"/>
<path d="M65.4105 149.006C65.5123 149.276 65.5929 149.554 65.6513 149.837C66.2433 154.573 69.1934 157.349 73.3887 159.068C76.4343 160.311 79.6637 161.045 82.9476 161.239C87.2889 161.511 91.6579 161.633 96.0131 161.854C101.538 162.145 106.866 161.189 112.11 159.577C117.678 157.86 123.06 155.678 128.082 152.686C129.005 152.136 129.832 151.419 130.702 150.778V155.534C128.648 157.856 126.124 159.567 123.431 161.037C118.3 163.834 112.784 165.507 107.093 166.648C100.313 168.005 93.4675 168.905 86.541 168.733C81.5662 168.609 76.7414 167.549 72.333 165.14C70.7194 164.261 69.2335 163.166 67.9167 161.884C64.708 158.717 63.8417 154.798 64.8106 150.439C64.9369 149.943 65.2132 149.484 65.4105 149.006Z" fill="#DBCFDA"/>
<path d="M44.2959 66.5204C46.2693 70.0388 48.6116 73.2771 51.5815 76.022C60.4615 84.235 71.0169 87.8778 83.0227 87.0885C94.8431 86.313 104.793 81.4803 112.712 72.6042C113.389 71.8464 114.006 71.0354 114.649 70.25C114.999 70.0941 115.439 70.0231 115.682 69.7705C117.237 68.174 118.827 66.6013 120.262 64.9003C123.488 61.0759 125.858 56.7444 127.575 52.0479C127.683 51.7519 128.076 51.5585 128.337 51.3177C127.981 53.0484 127.818 54.8441 127.243 56.4978C120.846 74.9544 107.49 85.1546 88.552 87.9686C73.1995 90.2498 59.4255 86.1058 47.7532 75.6806C42.9541 71.3965 39.4 66.1928 36.9176 60.2333C36 58.035 35.1712 55.8485 34.9009 53.4766C35.558 53.3838 35.8875 53.6739 36.1401 54.2995C37.6782 57.9687 39.7314 61.3999 42.2377 64.4898C42.8415 65.2397 43.6112 65.8494 44.2959 66.5204Z" fill="#D9CDD8"/>
<path d="M34.2321 150.782C34.8793 151.271 35.5404 151.745 36.1719 152.254C41.0981 156.259 46.6938 159.362 52.7005 161.418C53.7124 161.777 54.7864 161.927 55.8579 161.86C57.6043 161.708 58.7784 160.457 59.8204 159.167C60.436 158.403 60.9156 157.533 61.4879 156.732C61.7304 156.441 61.9942 156.168 62.2772 155.917C62.7863 157.928 63.4356 159.875 64.6571 161.594C66.8277 164.641 69.7877 166.63 73.1424 168.12C73.6743 168.319 74.1697 168.604 74.6086 168.964C71.911 168.767 69.2095 168.611 66.5179 168.343C59.3665 167.632 52.3453 166.306 45.634 163.629C42.1056 162.22 38.7865 160.442 35.8206 158.046C35.5403 157.819 35.2897 157.557 35.0312 157.312C34.9582 156.963 34.8576 156.619 34.8182 156.266C34.6011 154.433 34.4156 152.603 34.2321 150.782Z" fill="#DACED9"/>
<path d="M118.237 37.0684C118.028 36.6934 117.88 36.4527 117.753 36.2001C111.778 24.3482 102.016 17.6645 89.14 15.2156C88.8815 15.1663 88.6211 15.1327 88.3626 15.0834C87.6028 14.9374 86.9181 14.8387 86.5175 15.7938C86.3635 16.1628 85.8683 16.447 85.4677 16.6403C83.3266 17.6744 81.148 17.6724 78.9971 16.6837C78.5373 16.4726 78.0104 16.1292 77.8131 15.6971C77.4303 14.9077 76.8935 14.9314 76.2088 15.0459C61.8211 17.4632 51.0723 24.8771 44.5524 38.0965C44.4793 38.2445 44.4103 38.3925 44.3254 38.5326C44.2958 38.5839 44.2268 38.6095 43.9861 38.7792C44.1518 38.2543 44.2406 37.8932 44.3808 37.5518C49.5114 24.3304 59.1552 16.1273 72.7969 12.9305C86.0182 9.83428 98.0556 12.672 108.418 21.6408C112.85 25.475 116.011 30.2445 118.01 35.7679C118.111 36.0462 118.207 36.3264 118.284 36.6105C118.289 36.7646 118.273 36.9185 118.237 37.0684Z" fill="#B69DB4"/>
<path d="M68.047 127.678C72.9468 128.162 77.8565 128.483 82.78 128.27C85.6867 128.14 88.5856 127.796 91.4904 127.56C92.0449 127.512 92.6033 127.51 93.1617 127.487C93.7794 129.92 95.0719 131.994 96.8164 134.036C85.9018 135.844 75.2004 136.096 64.2819 134.277C66.0993 132.233 67.4333 130.157 68.047 127.678Z" fill="#DACED9"/>
<path d="M102.288 138.601C97.805 141.607 92.5535 143.264 87.1567 143.376C78.0044 143.64 69.4361 141.6 61.4599 137.103C61.3807 137.049 61.3054 136.99 61.2349 136.925C61.7874 136.236 62.3913 136.136 63.2359 136.321C70.4267 137.866 77.7222 138.097 85.0196 137.612C89.434 137.324 93.8167 136.566 98.2173 136.033C98.5286 136.005 98.8406 136.081 99.1034 136.25C100.151 136.988 101.163 137.768 102.288 138.601Z" fill="#FCFBFC"/>
<path d="M6.80224 133.261C7.50278 133.574 8.17375 134.026 8.90586 134.178C15.1456 135.467 21.0774 134.77 26.6087 131.402C33.2352 127.374 38.8927 122.242 43.9425 116.404C44.1398 116.175 44.4536 116.049 44.7141 115.876C44.4556 116.365 44.2247 116.862 43.9346 117.342C40.9193 122.222 37.5982 126.869 33.3871 130.808C28.8485 135.06 23.7039 138.259 17.4938 139.437C13.9418 140.112 10.4193 140.015 7.00151 138.737C3.82443 137.553 2.17674 135.001 2.31684 131.619C2.32671 131.366 2.3859 131.116 2.44904 130.685C3.60077 131.971 5.12089 132.87 6.80224 133.261V133.261Z" fill="#DACED9"/>
<path d="M52.9528 39.229C53.0179 37.6957 53.8072 35.8743 54.8472 34.1339C56.566 31.2705 58.6497 28.7723 61.8387 27.4442C63.3779 26.8029 64.9585 26.4122 66.6359 26.8522C67.1087 26.9671 67.5531 27.1776 67.9416 27.4706C68.33 27.7637 68.6544 28.1332 68.8947 28.5563C69.135 28.9795 69.2862 29.4473 69.3389 29.9311C69.3916 30.4148 69.3448 30.9043 69.2012 31.3692C69.0074 32.0651 68.7007 32.7243 68.2935 33.3209C65.8899 36.6617 63.2161 39.7835 60.0054 42.3765C59.106 43.0755 58.0271 43.5058 56.8935 43.6177C54.5037 43.8269 52.937 42.1654 52.9528 39.229Z" fill="#947093"/>
<path d="M118.296 115.473C118.835 115.988 119.411 116.46 119.904 117.02C126.32 124.217 133.941 129.31 143.653 130.869C147.32 131.461 150.977 131.779 154.554 130.624C156.314 130.058 157.94 129.077 159.628 128.284C159.916 128.148 160.204 128.016 160.494 127.889C160.085 129.446 159.101 130.652 157.94 131.662C152.877 136.1 147.071 137.263 140.666 135.313C136.719 134.146 133.034 132.23 129.812 129.669C128.895 128.931 127.738 128.458 126.918 127.637C125.254 125.973 123.594 124.266 122.215 122.37C120.792 120.414 119.703 118.226 118.48 116.12C118.391 115.913 118.33 115.696 118.296 115.473V115.473Z" fill="#DACED9"/>
<path d="M116.751 131.197C119.386 129.902 122.113 129.085 125.083 129.667C125.593 129.78 126.079 129.98 126.521 130.259C131.378 133.199 133.903 137.724 135.162 143.086C135.295 143.65 135.263 144.252 135.308 144.836C135.058 145.122 134.785 145.395 134.56 145.701C133.982 146.49 133.424 147.279 132.858 148.069C132.818 148.036 132.777 148.005 132.733 147.978C132.167 143.528 130.336 139.69 127.103 136.568C124.193 133.75 120.637 132.15 116.751 131.197Z" fill="#FDFBFB"/>
<path d="M54.1427 133.527C52.4614 132.998 50.8058 132.355 49.093 131.966C46.352 131.341 43.5558 131.293 40.7556 131.572C40.3353 131.615 39.913 131.639 39.3743 131.682L39.9367 129.803C42.0482 130.056 44.0806 130.356 46.1349 130.532C49.8369 130.849 53.3317 130.204 56.4949 128.13C58.0604 127.104 59.6431 126.105 61.2428 125.133C61.8293 124.769 62.4507 124.465 63.0977 124.225C64.7119 123.633 65.6986 124.351 65.7736 126.099C65.56 126.228 65.3643 126.385 65.1915 126.565C62.6933 130.022 59.2714 132.031 55.1866 133.057C54.8254 133.183 54.4761 133.34 54.1427 133.527V133.527Z" fill="#FBFAFB"/>
<path d="M128.342 51.3256C128.082 51.5664 127.689 51.7598 127.58 52.0558C125.864 56.7523 123.494 61.0838 120.267 64.9082C118.833 66.6092 117.242 68.1819 115.687 69.7784C115.438 70.031 115.004 70.102 114.655 70.2579C118.207 65.3817 120.662 60.0261 121.759 54.0765C121.781 54.0128 121.795 53.9464 121.799 53.8791C121.633 51.6552 122.762 50.7218 124.891 50.5422C126.075 50.4377 127.247 49.9897 128.587 49.6542C128.492 50.264 128.417 50.7928 128.342 51.3256Z" fill="#FCFBFC"/>
<path d="M116.751 131.197C120.637 132.15 124.193 133.75 127.103 136.566C130.336 139.694 132.167 143.526 132.733 147.976L130.776 150.399C130.533 147.972 130.109 145.586 129.086 143.349C126.521 137.715 121.882 134.77 116.045 133.43C115.214 133.233 114.363 133.136 113.523 132.992L116.751 131.197Z" fill="#E22E2E"/>
<path d="M28.9138 141.902C30.6681 138.011 33.7071 135.571 37.7406 134.445C39.3548 133.993 41.0953 133.995 42.7786 133.792C42.5615 133.936 42.3484 134.088 42.1254 134.224C36.8131 137.476 33.1368 141.92 32.0179 148.195C31.493 147.457 30.8477 146.774 30.4708 145.967C29.8591 144.665 29.4229 143.264 28.9138 141.902Z" fill="#FDFBFB"/>
<path d="M95.7881 124.734C96.1532 124.035 96.7748 123.846 97.4437 124.093C98.3373 124.403 99.2016 124.791 100.027 125.253C101.302 125.989 102.523 126.818 103.756 127.621C106.418 129.361 109.264 130.581 112.725 130.615L108.469 133.638C105.311 133.677 102.644 132.387 100.473 130.236C98.76 128.548 97.3391 126.577 95.7881 124.734Z" fill="#FCFBFC"/>
<path d="M135.101 102.175C132.848 102.22 130.537 101.977 128.348 102.372C123.439 103.288 120.581 106.625 119.111 111.226C118.675 112.59 118.509 114.042 118.219 115.453C117.637 114.269 117.054 113.08 116.471 111.885C117.112 109.592 117.981 107.404 119.417 105.478C122.496 101.35 126.748 99.6981 131.756 99.6508C132.183 99.6508 132.609 99.637 133.035 99.6291L135.101 102.175Z" fill="#E22F2F"/>
<path d="M44.8662 115.536C44.3571 114.329 43.9269 113.081 43.327 111.923C40.3768 106.234 35.0686 103.686 28.7854 104.882C28.4658 104.943 28.1382 104.973 27.8146 105.018L29.703 102.404C32.071 102.206 34.4194 102.335 36.6927 103.098C41.0755 104.57 43.9249 107.672 45.843 111.753C46.0226 112.148 46.1864 112.531 46.3581 112.922L44.8662 115.536Z" fill="#E22E2E"/>
<path d="M44.2959 66.5204C43.6052 65.8455 42.8356 65.2357 42.2377 64.4898C39.7314 61.3999 37.6782 57.9687 36.1401 54.2995C35.8855 53.6838 35.558 53.3838 34.9009 53.4766C34.7213 52.2156 34.5417 50.9546 34.3483 49.5851C36.1993 49.9265 37.9003 50.2206 39.5875 50.5718C39.7947 50.6152 40.0611 51.002 40.073 51.2428C40.3591 56.6537 41.8588 61.7192 44.2959 66.5204Z" fill="#FBFAFB"/>
<path d="M32.0178 148.197C33.1367 141.912 36.8131 137.478 42.1253 134.226C42.3483 134.09 42.5614 133.938 42.7785 133.794L47.6526 134.064C44.517 135.364 41.5965 137.004 39.1555 139.416C36.1955 142.338 34.449 145.821 34.1845 150.007C34.1679 150.135 34.1415 150.263 34.1056 150.387L32.0751 148.414C32.0612 148.343 32.0376 148.27 32.0178 148.197Z" fill="#E22F2F"/>
<path d="M95.7881 124.734C97.3391 126.579 98.7679 128.55 100.473 130.24C102.643 132.391 105.306 133.681 108.469 133.642C107.299 134.642 106.144 135.666 104.938 136.623C104.793 136.719 104.626 136.78 104.453 136.8C104.28 136.82 104.104 136.8 103.94 136.74C100.698 134.976 98.0377 132.574 96.3288 129.265C95.8453 128.327 95.6026 127.238 95.4092 126.188C95.3263 125.74 95.648 125.219 95.7881 124.734Z" fill="#DACED9"/>
<path d="M54.1428 133.527C54.4739 133.342 54.8205 133.187 55.1788 133.063C59.2557 132.037 62.6776 130.028 65.1837 126.571C65.3565 126.391 65.5522 126.234 65.7658 126.105C65.5566 127.08 65.5093 128.128 65.1067 129.014C63.8517 131.777 61.7521 133.831 59.1769 135.38C59.0304 135.459 58.8692 135.508 58.7032 135.523C58.5372 135.537 58.37 135.518 58.2119 135.465C56.8384 134.857 55.4965 134.18 54.1428 133.527Z" fill="#D9CDD8"/>
<path d="M130.925 49.5496C130.752 45.52 130.578 41.4885 130.408 37.5813C132.184 38.4239 133.866 42.6646 133.631 46.1771C133.433 46.4179 133.222 46.6527 133.027 46.8974C132.32 47.7828 131.62 48.6669 130.925 49.5496Z" fill="#D1D0D1"/>
<path d="M32.0174 148.197C32.0371 148.27 32.0549 148.343 32.0746 148.416C32.0549 150.33 32.0358 152.244 32.0174 154.156C29.3968 150.926 27.8577 147.348 28.4951 143.084C28.5563 142.689 28.7713 142.295 28.9134 141.9C29.4225 143.26 29.8586 144.653 30.4703 145.965C30.8473 146.776 31.4925 147.459 32.0174 148.197Z" fill="#D9CDD8"/>
<path d="M103.101 124.371C104.804 122.678 105.864 120.445 106.099 118.056C106.117 117.904 106.31 117.77 106.421 117.626C107.62 120.596 107.735 123.635 107.052 126.972L103.101 124.371Z" fill="#D9CDD8"/>
<path d="M29.5116 48.3656C29.3636 45.378 30.1411 42.6784 31.9368 40.3005L32.2526 40.3282V51.7203C31.8441 51.3019 31.4001 50.9132 31.037 50.4593C30.4983 49.7825 30.0168 49.0622 29.5116 48.3656Z" fill="#D1D0D1"/>
<path d="M29.5117 48.3657C30.0169 49.0662 30.4984 49.7865 31.0371 50.4614C31.4002 50.9152 31.8442 51.304 32.2527 51.7223L33.5314 58.1436C33.4979 58.1752 33.4662 58.2088 33.4367 58.2442C31.7357 57.0503 30.7885 55.3039 30.2794 53.3898C29.8452 51.7598 29.7544 50.041 29.5117 48.3657Z" fill="#B6A9B6"/>
<path d="M32.0178 154.156C32.0376 152.244 32.0566 150.33 32.0751 148.416L34.1056 150.389L34.2241 150.784C34.4214 152.611 34.601 154.441 34.8023 156.268C34.8417 156.621 34.9424 156.965 35.0154 157.314L32.0178 154.156Z" fill="#C52935"/>
<path d="M55.6309 118.798C55.7836 119.037 55.9081 119.292 56.0019 119.56C56.363 121.121 56.9669 122.551 58.1134 123.716C58.2041 123.85 58.2709 123.999 58.3108 124.156L54.7134 126.575C54.3154 123.947 54.6324 121.261 55.6309 118.798Z" fill="#D9CDD8"/>
<path d="M154.014 119.282C153.999 119.845 153.764 120.381 153.357 120.772C152.951 121.164 152.407 121.38 151.843 121.373C151.282 121.351 150.748 121.121 150.347 120.727C149.946 120.334 149.705 119.805 149.673 119.244C149.651 118.096 150.718 117.03 151.869 117.046C153.09 117.064 154.014 118.025 154.014 119.282Z" fill="#531D84"/>
<path d="M7.98642 124.11C8.00173 123.563 8.22557 123.042 8.61214 122.654C8.99872 122.266 9.51886 122.04 10.0663 122.023C11.1655 122.023 12.312 123.189 12.2824 124.276C12.2488 125.46 11.2405 126.356 9.96371 126.32C8.74616 126.285 7.943 125.387 7.98642 124.11Z" fill="#531D84"/>
<path d="M130.926 49.5496C131.625 48.6656 132.326 47.7815 133.027 46.8975C133.224 46.6528 133.422 46.4179 133.631 46.1772C133.714 49.8496 132.664 53.0997 130.022 56.0104L130.926 49.5496Z" fill="#B6A9B6"/>
<path d="M130.776 150.399L132.733 147.976C132.777 148.003 132.818 148.034 132.857 148.067C132.951 149.499 133.043 150.933 133.134 152.367L130.712 155.524V150.768C130.728 150.648 130.754 150.524 130.776 150.399Z" fill="#C52935"/>
<path d="M133.134 152.361C133.042 150.928 132.95 149.495 132.857 148.061C133.424 147.271 133.982 146.482 134.56 145.693C134.785 145.387 135.058 145.115 135.308 144.828C135.517 147.625 134.626 150.077 133.134 152.361Z" fill="#D9CDD8"/>
<path d="M34.8888 132.876L36.8621 130.492C37.4857 131.733 36.7003 132.554 34.8888 132.876Z" fill="#531D84"/>
<path d="M44.1102 38.9982C44.0547 39.0809 43.9941 39.16 43.9286 39.235C43.886 39.2088 43.8451 39.1798 43.8063 39.1482L43.972 38.9271L44.1102 38.9982Z" fill="#B69DB4"/>
<path d="M118.649 37.8458L118.588 37.9879C118.573 37.9642 118.539 37.9386 118.543 37.9188C118.557 37.8695 118.575 37.8213 118.596 37.7748L118.649 37.8458Z" fill="#B69DB4"/>
<path d="M118.354 37.451V37.155H118.431V37.451H118.354Z" fill="#B69DB4"/>
<path d="M28.7065 137.549L28.7505 137.492L28.7265 137.569L28.7065 137.549Z" fill="#531D84"/>
<path d="M33.5312 58.1396L33.543 58.3547L33.4365 58.2402C33.466 58.2048 33.4977 58.1712 33.5312 58.1396V58.1396Z" fill="#B6A9B6"/>
<g opacity="0.7" filter="url(#filter0_f_173_2150)">
<path d="M79.4088 209C89.6106 209.263 97.6871 209.263 105.764 209.731C116.055 210.327 126.346 211.145 136.424 213.429C138.285 213.852 140.091 214.472 141.81 215.278C142.741 215.718 144.093 216.827 143.995 217.448C143.855 218.339 142.72 219.481 141.738 219.781C138.052 220.94 134.324 222.247 130.507 222.694C121.194 223.8 111.834 224.597 102.473 225.254C95.6382 225.739 88.7689 226.076 81.9209 225.985C71.2515 225.825 60.5693 225.48 49.9254 224.753C41.0625 224.145 32.1699 223.311 23.6174 220.677C22.6002 220.379 21.6185 219.979 20.6886 219.481C18.4527 218.249 18.3932 216.511 20.7736 215.615C24.1105 214.354 27.5749 213.121 31.086 212.616C38.8267 211.51 46.6268 210.639 54.4312 210.093C63.4471 209.464 72.497 209.288 79.4088 209Z" fill="black"/>
</g>
<defs>
<filter id="filter0_f_173_2150" x="5" y="195" width="153" height="45" filterUnits="userSpaceOnUse" color-interpolation-filters="sRGB">
<feFlood flood-opacity="0" result="BackgroundImageFix"/>
<feBlend mode="normal" in="SourceGraphic" in2="BackgroundImageFix" result="shape"/>
<feGaussianBlur stdDeviation="7" result="effect1_foregroundBlur_173_2150"/>
</filter>
</defs>
</svg>
