<svg width="155" height="131" viewBox="0 0 155 131" fill="none" xmlns="http://www.w3.org/2000/svg">
<path d="M137.395 33.0248C138.246 32.448 138.992 31.9937 139.682 31.465C141.025 30.437 142.53 30.5146 144.057 30.7688C146.933 31.251 149.591 32.2681 151.83 34.1876C154.29 36.2947 154.776 38.7073 153.357 41.6098C152.205 43.9697 150.344 45.6178 148.011 46.7264C146.926 47.2489 145.749 47.6056 144.64 48.0955C144.19 48.3195 143.772 48.6049 143.4 48.9436C142.028 50.0987 140.691 51.2972 139.31 52.4399C137.679 53.7904 136.002 55.0866 134.367 56.4324C132.999 57.555 131.669 58.7209 130.309 59.8528C129.245 60.7381 128.155 61.5925 127.086 62.4716C126.109 63.2737 125.138 64.0831 124.174 64.8997C122.363 66.4316 120.554 67.9681 118.747 69.5093C118.531 69.6836 118.354 69.9018 118.228 70.1496C117.994 70.6737 118.052 71.0659 118.673 71.3807C119.758 71.9296 120.764 72.6087 121.817 73.2134C122.282 73.4785 122.499 73.8227 122.366 74.3592C122.299 74.7384 122.212 75.1137 122.104 75.4833C121.191 77.9532 120.254 80.4138 119.342 82.8837C119.189 83.3481 119.066 83.822 118.975 84.3024C118.711 85.4792 118.26 86.546 117.434 87.4639C117.028 87.9151 116.755 88.4934 116.46 89.0345C115.685 90.4563 114.576 91.5494 113.049 92.0347C110.723 92.7758 108.337 93.3526 105.985 94.0271C105.596 94.1189 105.238 94.3114 104.946 94.5853C100.905 98.9506 96.3433 102.804 91.364 106.059C91.096 106.212 90.8555 106.409 90.6523 106.642C87.725 110.544 83.6627 112.577 79.0516 113.697C77.8468 113.99 76.5119 113.974 75.4405 114.507C74.4094 115.022 73.6574 116.083 72.7519 116.869C70.8914 118.481 68.8525 119.759 66.3949 120.235C64.4127 120.627 62.3554 120.303 60.5899 119.32C59.7403 120.016 58.9635 120.737 58.1091 121.344C56.3168 122.609 54.3663 123.306 52.1274 122.779C51.9297 122.757 51.7301 122.796 51.5552 122.891C45.8091 125.538 40.0656 128.187 34.3247 130.839C34.0561 130.966 33.7586 131.019 33.4626 130.994L50.0528 121.846C46.5425 119.164 47.0402 115.616 47.9209 111.865L26.3242 122.026L26.2404 121.851L33.7913 117.76C38.5575 115.177 43.3299 112.604 48.0837 109.996C48.4747 109.772 48.7909 109.437 48.9923 109.034C50.242 106.398 52.2716 104.508 54.5942 102.845C57.1943 100.984 59.7418 99.0429 62.3078 97.1312C62.5327 96.9637 62.7265 96.756 62.9187 96.5839C62.6086 95.4861 62.1668 94.5682 60.9667 94.2984C60.6868 94.2327 60.4308 94.0904 60.2271 93.8876C59.3929 93.0084 58.6099 93.3076 57.6409 93.7402C55.6904 94.6132 53.653 95.2907 51.6576 96.066C51.0141 96.3156 50.3815 96.5916 49.7582 96.8847C42.4926 100.302 35.2286 103.722 27.9661 107.144C27.7534 107.263 27.5025 107.292 27.2684 107.225L44.9967 97.6118C44.5408 97.6118 44.285 97.5932 44.0323 97.6118C41.2941 97.8413 38.5668 97.9716 35.8969 97.0816C35.6565 97.001 35.3046 97.1436 35.041 97.2645C30.0123 99.554 24.9876 101.85 19.9672 104.153C19.6859 104.291 19.3711 104.344 19.0601 104.308L33.9448 96.0412C33.0657 94.5419 32.2176 93.0549 31.3322 91.5928C30.7524 90.6346 29.8453 90.0687 28.7476 90.1617C27.3707 90.2795 26.0048 90.5726 24.6465 90.8517C23.1333 91.1618 21.6401 91.5804 20.1222 91.8719C18.9977 92.0923 17.8332 91.9758 16.7747 91.537C16.5452 91.444 16.1824 91.5509 15.9281 91.6672C10.8984 93.9526 5.87273 96.2469 0.85122 98.5498C0.585716 98.6766 0.294149 98.7393 0 98.7328C4.93778 95.9885 9.87764 93.2493 14.8196 90.5153C15.2847 90.261 15.4785 90.033 15.4103 89.4532C15.2723 88.267 15.7964 87.2298 16.4383 86.2747C18.2895 83.5225 20.7455 81.4123 23.5705 79.727C26.8963 77.7454 30.5616 76.6818 34.3123 75.8756C35.8255 75.55 37.3404 75.2135 38.8691 74.97C41.9618 74.4645 44.9282 73.368 47.6061 71.7404C51.6374 69.33 55.663 66.9065 59.6829 64.4702C62.8717 62.5513 66.2738 61.0115 69.82 59.8822C70.0804 59.797 70.3363 59.6994 70.6324 59.5955C66.5035 56.5581 64.4522 52.4803 64.5251 47.5094C64.57 44.4456 65.1282 41.385 67.0678 38.7941C67.2399 38.5662 67.2539 38.1739 67.2353 37.8545C66.6384 27.8167 69.5424 18.951 76.3243 11.4962C94.5967 -8.58256 127.659 -1.21775 135.911 24.7141C136.744 27.3841 137.395 30.0618 137.395 33.0248ZM123.178 63.65L123.195 63.6329L123.025 63.8065L123.042 63.7942C122.87 63.8303 122.702 63.8864 122.543 63.9616C121.578 64.5585 120.657 65.2392 119.651 65.7524C118.925 66.123 118.591 66.5819 118.687 67.3727L118.532 68.5247C118.941 68.2534 119.206 68.1107 119.432 67.9215C120.462 67.0672 121.476 66.1928 122.507 65.34C125.718 62.684 128.942 60.0404 132.15 57.3782C135.616 54.5036 139.063 51.6073 142.538 48.7374C143.167 48.2164 143.818 47.6846 144.543 47.3249C145.691 46.7543 146.907 46.3171 148.109 45.838C148.827 45.5496 149.16 45.0395 149.09 44.2689C149.101 44.2323 149.105 44.1939 149.103 44.1557L150.842 42.4951C151.307 41.7028 151.841 40.9446 152.217 40.1089C152.867 38.6701 152.54 37.3366 151.521 36.1722C151.167 35.7638 150.773 35.3929 150.343 35.0652C148.279 33.5147 145.927 32.696 143.392 32.296C141.977 32.0712 140.814 32.4666 139.795 33.417C138.316 34.1922 136.985 35.0559 137.435 37.0762C137.441 37.1801 137.433 37.2844 137.412 37.3863C137.223 40.6423 136.536 43.8068 135.516 46.9L134.196 50.156L133.333 51.8508L128.712 58.4652C128.34 58.8481 127.955 59.2202 127.602 59.6202C127.345 59.9102 127.137 60.2404 126.896 60.5505L126.907 60.5366L126.738 60.7072L126.754 60.6963L126.424 60.8513L126.441 60.839L126.269 61.0126L126.286 60.994C126.228 61.0731 126.172 61.1491 126.115 61.2297C125.32 62.1321 124.43 62.9166 123.341 63.4531L123.178 63.65ZM128.746 55.5502C128.746 55.5936 128.746 55.6371 128.759 55.6805C128.759 55.6309 128.743 55.5828 128.737 55.5363L128.852 55.5487C128.839 55.5409 128.827 55.5239 128.816 55.5254C128.791 55.5308 128.767 55.5391 128.745 55.5502H128.746ZM128.379 55.9208L128.214 56.0681C125.189 58.5706 121.907 60.6606 118.215 62.0313C109.353 65.3245 100.67 65.1555 92.2772 60.504C89.4522 58.938 87.0319 56.8557 84.9201 54.3315C84.7279 54.8944 84.6101 55.4246 84.3682 55.9022C84.1263 56.3797 84.2348 56.6681 84.5899 56.9782C85.9295 58.1504 87.1699 59.459 88.6119 60.4839C96.6201 66.1881 105.438 67.306 114.885 65.1276C120.519 63.8267 124.89 60.766 128.345 56.2417L128.484 56.0681C128.507 55.9952 128.532 55.9223 128.555 55.8495L128.379 55.9208ZM86.4412 82.8559L86.4319 82.8775C86.4877 82.7225 86.5435 82.555 86.6009 82.3953V82.4124C86.7823 81.91 87.0164 81.4217 87.1342 80.9053C87.694 78.4587 87.6071 76.0772 86.176 73.9111C85.1372 72.3374 83.6736 71.511 81.7572 71.8955C80.8625 72.0722 80.016 72.4877 79.1477 72.7947H79.1678L78.836 72.8754C78.0965 73.1219 77.5243 73.0087 77.27 72.1683C77.2137 72.0535 77.1388 71.9487 77.0483 71.8582C76.4746 71.2303 75.8886 71.0582 75.0885 71.7032C73.8125 72.7203 72.524 73.801 71.5379 75.0817C70.6786 76.2377 69.457 77.0728 68.0679 77.4539C67.84 77.4952 67.6192 77.5689 67.4121 77.6726C67.0244 77.9284 66.6725 78.2354 66.305 78.5207C64.7328 80.5053 63.5141 82.6822 63.0195 85.1785C62.8195 86.191 62.9156 87.2623 62.8769 88.3058C63.0118 90.1137 63.9622 91.489 65.1871 92.7309C65.9623 93.5155 66.7888 93.9852 67.9408 93.6224C68.4772 93.455 69.0618 93.4441 69.6106 93.3123C74.4172 92.1557 78.65 89.8299 82.5991 86.9429C83.5728 86.2313 84.4379 85.3723 85.3527 84.5815L86.3233 83.1426L86.4412 82.8559ZM116.046 81.6155L115.851 81.9256L115.441 83.166C115.229 83.663 115.122 84.1985 115.126 84.739C115.13 85.2795 115.245 85.8133 115.465 86.3072C115.716 86.9088 116.099 86.9941 116.518 86.5057C116.891 86.07 117.128 85.518 117.426 85.0156C117.54 84.014 117.652 83.012 117.764 82.0093L117.054 80.696L116.043 81.6077L116.046 81.6155ZM114.716 81.2014L115.133 80.5906C114.418 80.3828 113.806 80.2588 113.553 81.1193C113.267 82.1085 112.98 83.0977 112.694 84.0869C112.669 84.5195 112.609 84.9537 112.627 85.3847C112.677 86.5228 112.888 86.6778 114.091 86.5243C114.016 85.9206 113.939 85.318 113.862 84.7164C114.149 83.5453 114.434 82.3742 114.716 81.203V81.2014ZM58.0595 103.333C58.227 104.341 58.3944 105.349 58.5526 106.304L62.3947 101.922L65.2119 99.6522L63.88 98.0506C63.8204 98.0581 63.7624 98.0748 63.7079 98.1002C61.8861 99.5313 60.0534 100.952 58.2611 102.42C58.0704 102.575 58.12 103.023 58.0595 103.333ZM77.4406 111.383H77.4608C74.29 109.971 72.2899 107.492 71.189 104.263C70.7456 102.955 70.4851 101.584 70.1409 100.241C70.113 99.9003 70.0866 99.5577 70.0587 99.2212C67.1932 100.229 64.6065 101.9 62.5094 104.098C59.579 107.124 58.4115 110.656 59.3278 114.796C59.6643 116.323 60.4783 117.5 61.9838 118.191C65.1003 119.626 68.8152 118.159 71.0743 116.039L71.2433 115.898L72.8388 114.593C72.5674 114.486 72.4542 114.428 72.3349 114.394C68.7548 113.407 67.3547 111.805 66.857 108.123C66.9066 107.921 66.9578 107.718 67.0368 107.397L67.3903 107.971C67.7687 109.853 68.8757 111.152 70.575 112.002C73.4217 113.414 76.2235 112.714 79.0717 111.91C79.0019 111.82 78.9787 111.755 78.943 111.755C78.4965 111.633 78.0484 111.517 77.6003 111.399L77.4406 111.383ZM92.3454 103.353C92.4631 103.308 92.5767 103.252 92.685 103.187C96.1658 100.738 99.4125 97.9713 102.383 94.9232C102.491 94.7917 102.591 94.6534 102.681 94.5093L100.833 94.7078C99.349 94.7481 97.8512 94.9279 96.3844 94.7884C94.9177 94.6489 93.4742 94.1775 92.0167 93.8767C89.9763 93.4534 89.5111 92.8843 89.536 90.7757C89.677 90.2919 89.8166 89.8082 89.9251 89.4361C87.6816 89.4609 85.4411 89.6098 83.2193 89.4625C82.03 89.3849 81.2036 89.7726 80.3865 90.4641C80.1338 90.5897 79.8733 90.7029 79.6299 90.844C76.27 92.7991 72.7566 94.3713 68.9129 95.1186L64.0816 95.469C64.9437 96.5761 65.7484 97.6288 66.5825 98.6568C66.6545 98.7173 66.7399 98.7598 66.8316 98.7805C66.9233 98.8013 67.0187 98.7998 67.1097 98.7762C68.699 98.1932 70.2774 97.5824 71.8589 96.9792L74.4699 96.204C74.4171 96.3296 74.411 96.3916 74.3768 96.4195C74.045 96.6971 73.7086 96.97 73.3752 97.2428C72.9101 97.5157 72.4837 97.8475 71.9968 98.0475C71.2092 98.3716 71.0898 98.8941 71.3767 99.6104C71.6154 102.448 72.4883 105.057 74.1923 107.363C74.9991 108.48 76.085 109.366 77.3414 109.932C79.1306 110.727 81.0625 111.206 82.9107 110.521C85.2707 109.627 87.3496 108.12 88.9328 106.155C91.5407 102.981 91.7423 99.5158 89.5142 96.0676C88.1793 93.9992 86.3993 92.3604 84.4193 90.9246C84.3666 90.5478 84.4829 90.3432 84.8845 90.537C85.207 90.692 85.5047 90.8967 85.8148 91.0781C86.8009 91.8657 87.8444 92.5898 88.7607 93.4519C90.8477 95.4117 92.316 97.7265 92.5067 100.685C92.4343 101.557 92.362 102.43 92.2896 103.302L92.2431 103.409L92.3454 103.353ZM86.8226 85.5025L84.1961 87.8453L84.2426 88.1011C86.1776 87.929 88.1374 87.8887 90.0414 87.5414C91.4896 87.2778 92.8943 86.6887 94.2665 86.1212C95.0944 85.7785 95.5952 85.0684 95.4697 84.0776C95.3518 83.5691 95.341 82.9923 95.096 82.5643C94.5332 81.5627 93.7781 81.3162 92.6602 81.5023C91.4958 81.6977 90.322 81.845 89.1483 81.9674C88.7235 82.0124 88.4987 82.1225 88.3111 82.5628C87.8754 83.5644 87.325 84.5211 86.8226 85.5025ZM98.2435 85.8203C97.5116 87.6018 96.8667 89.4268 96.0201 91.1525C95.3379 92.5479 96.3069 93.4224 97.4543 93.3061C99.3753 93.1108 101.304 92.9836 103.227 92.7836C103.364 92.7533 103.493 92.6931 103.604 92.6074C103.715 92.5216 103.806 92.4123 103.87 92.2874C104.247 91.3866 104.552 90.4563 104.886 89.5384L105.915 86.8546C105.479 86.5467 105.027 86.2615 104.562 86.0002C103.836 85.6405 103.662 85.1583 103.881 84.3645C104.405 82.4574 104.841 80.5255 105.286 78.7129C103.977 78.7129 102.683 78.6199 101.41 78.761C100.93 78.8137 100.267 79.3222 100.107 79.7734C99.4079 81.7534 98.8513 83.797 98.2435 85.8126V85.8203ZM68.3687 40.1493C70.6944 39.2593 72.8295 39.7476 74.8048 41.1245C77.1507 42.7602 78.636 45.0441 79.6113 47.6877C79.7803 48.1404 79.9446 48.5947 80.1121 49.0475C80.1307 49.2242 80.1353 49.4026 80.1695 49.5762C80.8889 53.2555 80.6811 56.7084 77.7926 59.5551C78.9911 59.5427 80.3772 58.8962 81.3432 57.7519C83.5666 55.1161 84.0069 52.0492 83.3588 48.7591C82.9929 45.6922 81.6533 43.0704 79.6268 40.7896C78.4267 39.4438 76.991 38.4096 75.2684 37.8313C72.5023 36.901 69.7006 37.7956 68.2493 40.0438L68.1656 40.1989L68.3687 40.1493ZM56.8377 104.251C56.816 104.012 56.7928 103.773 56.7556 103.395C56.1013 103.832 55.5648 104.17 55.05 104.542C50.8544 107.488 48.9737 111.624 48.9349 116.661C48.924 118.032 49.4791 119.201 50.5366 120.131C53.1104 122.398 56.5617 121.216 58.8999 118.446C57.4057 117.974 56.1346 116.974 55.3245 115.633C54.943 115.027 54.6516 114.365 54.3182 113.729C54.2825 113.419 54.2469 113.109 54.1911 112.644C54.4748 112.89 54.6205 113.016 54.7647 113.143C55.5391 114.393 56.6304 115.415 57.9277 116.106C57.7448 115.103 57.5897 114.253 57.4331 113.404C57.3758 111.665 57.4936 109.951 57.9944 108.27C58.058 108.059 57.9479 107.781 57.8766 107.547C57.5324 106.447 57.1835 105.349 56.8377 104.251V104.251ZM111.237 85.0374C111.392 83.4109 111.624 81.8046 112.477 80.3642C113.01 79.4618 113.717 78.9424 114.843 79.2231C115.373 79.3411 115.915 79.3973 116.459 79.3905C117.293 79.3983 118.039 79.5688 118.614 80.3782L120.629 74.8755C119.499 75.305 118.521 75.7003 117.528 76.0492C114.3 77.1779 110.973 77.871 107.585 78.3098C107.323 78.3439 106.928 78.5687 106.87 78.7749C106.34 80.7363 105.87 82.7132 105.38 84.6931C105.948 85.0528 106.466 85.4017 106.994 85.7103C107.563 86.0359 107.703 86.453 107.46 87.0685C107.103 87.9787 106.801 88.909 106.473 89.83C106.145 90.6688 105.815 91.5091 105.435 92.4751C106.387 92.289 107.163 92.2083 107.894 91.9773C109.681 91.4098 111.46 90.8269 113.212 90.1432C114.142 89.7819 114.717 88.9865 115.108 88.019C114.409 87.9461 113.795 87.8531 113.178 87.8267C112.305 87.7895 111.782 87.3368 111.562 86.529C111.416 86.0437 111.347 85.5382 111.237 85.0374ZM78.4081 49.5312C77.974 47.2582 76.8576 45.3449 75.2932 43.6781C74.3799 42.7029 73.3163 41.9416 72.0279 41.54C70.1828 40.9617 68.4509 41.4935 67.3872 43.0704C66.0585 45.0395 65.8368 47.2288 66.3143 49.5188C66.2981 49.6703 66.2981 49.8231 66.3143 49.9747C66.8275 52.5376 67.8989 54.8261 69.7254 56.7255C70.6681 57.7069 71.7534 58.4837 73.0853 58.8636C74.9567 59.397 76.7212 58.7969 77.7367 57.1348C79.1771 54.73 79.1989 52.1547 78.4081 49.5312ZM116.485 70.4783C116.683 69.41 116.88 68.3433 117.105 67.1215L116.268 67.4827C109.905 70.1899 103.31 70.9853 96.4852 69.869C89.905 68.7836 84.1139 66.0051 79.0981 61.6126C78.9484 61.4613 78.7643 61.3486 78.5615 61.284C78.3587 61.2195 78.1432 61.2051 77.9337 61.242C76.7522 61.3971 76.0002 62.2498 75.0823 62.8344C70.9937 65.6004 67.1748 68.7014 63.7638 72.266C61.7388 74.3731 59.9093 76.6369 58.5727 79.2541C57.751 80.8666 57.0812 82.538 57.0641 84.3939C56.5711 87.5259 58.7526 91.506 61.7745 92.903C62.5017 93.2379 63.2955 93.4255 64.0599 93.6782L64.1964 93.4875C62.6594 91.9783 61.7087 89.972 61.514 87.8267C61.4411 84.3149 62.8567 81.3147 64.7964 78.4184L61.6349 79.0261L61.5838 78.8277L62.235 78.3238C63.4986 77.6881 64.7158 76.9097 66.0368 76.4446C68.3625 75.6306 70.2231 74.3514 71.7271 72.3715C72.462 71.4086 73.6171 70.7109 74.69 70.0737C75.6684 69.4922 76.9429 69.3743 77.7119 70.2736C78.605 71.3155 79.3896 70.9869 80.3168 70.6023C80.602 70.4845 80.8935 70.3852 81.1819 70.2767C83.7666 69.8658 85.852 70.6876 87.3963 72.8149C88.2521 73.9578 88.7762 75.3146 88.9111 76.7361C89.0119 77.9253 88.9313 79.1316 88.9313 80.4061C89.753 80.3006 90.4895 80.2169 91.2229 80.11C92.9532 79.8541 92.9935 79.8557 93.2385 78.1176C93.4835 76.3795 94.0448 74.8709 95.5828 73.8724C96.4759 73.6599 97.3582 73.3529 98.2636 73.2522C103.621 72.632 108.982 72.0738 114.342 71.4923C114.771 71.4047 115.205 71.3452 115.641 71.3141C116.226 71.3017 116.476 71.0287 116.485 70.4752V70.4783ZM68.899 33.2511C68.8416 34.5086 68.7858 35.766 68.7222 37.1615L70.1921 36.394L74.5102 35.6652C74.8342 27.429 77.8329 20.0828 83.2487 13.715C88.6646 7.34715 95.5875 3.43218 103.791 1.75301C89.4972 1.00877 76.2591 9.63255 71.0588 23.0055C69.7781 26.2941 68.9331 29.685 68.899 33.2511ZM24.1752 81.3162C21.9177 82.5861 20.0385 84.2994 18.4213 86.3026C17.9717 86.8677 17.5912 87.4844 17.2879 88.1399C16.6197 89.571 17.046 90.3431 18.6058 90.2966C19.9827 90.2563 21.3657 89.9989 22.7224 89.7214C24.0791 89.4438 25.4016 88.9462 26.766 88.6841C30.0035 88.0546 31.8517 88.9942 33.3711 91.8998C33.551 92.244 33.737 92.5836 33.9014 92.934C34.8425 94.9311 36.4628 95.8551 38.6164 96.0613C42.7733 96.4567 46.7952 95.7853 50.7629 94.6318C53.196 93.9469 55.5562 93.0257 57.8099 91.8812C57.7503 91.758 57.6835 91.6384 57.6099 91.5231C55.2175 88.2965 54.7802 84.7598 56.0811 81.0231C56.5773 79.5936 57.3323 78.254 57.968 76.8725L57.982 76.7174L57.875 76.7888C56.4346 77.6958 55.0035 78.6168 53.5523 79.5068C48.7008 82.4791 43.4648 84.0513 37.7373 83.8233C35.9573 83.752 34.1774 83.7076 32.3974 83.69C31.5183 83.69 30.6376 83.7737 29.7616 83.8202V83.5551C32.1013 83.5318 34.4425 83.4667 36.7806 83.4931C41.0972 83.5427 45.2618 82.8977 49.1954 81.0309C52.2204 79.5936 54.912 77.6354 57.6858 75.7918C59.6829 74.4662 61.2039 72.7157 62.7234 70.9311C64.1793 69.5883 65.5856 68.1851 67.1035 66.9168C69.1362 65.2113 71.2557 63.6252 73.338 61.9863L74.6776 61.1165L74.6544 60.8839C74.0652 60.8126 73.4264 60.5552 72.8961 60.6994C68.9765 61.7676 65.1732 63.1553 61.6629 65.2376C57.1571 67.9091 52.684 70.6349 48.1736 73.3002C45.4579 74.9078 42.4737 76.0109 39.3653 76.5562C36.7527 77.0213 34.151 77.5935 31.5788 78.2478C28.9693 78.9098 26.4467 79.8293 24.1752 81.3162ZM87.0939 43.4843C84.9233 41.6067 83.2627 39.3182 81.7075 36.9428C81.0874 35.9846 80.5214 34.983 79.9322 33.9969C79.775 35.2785 79.7283 36.5712 79.7927 37.8607C79.8183 38.3074 79.9917 38.7328 80.2857 39.0701C83.5418 42.4377 85.2582 46.4241 85.1868 51.1298C85.1666 51.4496 85.2136 51.7701 85.325 52.0705C85.4364 52.371 85.6096 52.6448 85.8334 52.8741C86.7466 53.8214 87.6087 54.82 88.5545 55.7317C90.6011 57.7008 92.9765 59.197 95.5704 60.3366C100.575 62.5367 105.804 63.0329 111.173 62.2297C115.424 61.5834 119.491 60.0516 123.112 57.7333C126.069 55.8852 128.724 53.5926 130.984 50.936C131.615 50.1871 132.193 49.3932 132.795 48.6211C132.563 48.5642 132.319 48.594 132.108 48.7048C130.867 49.2893 129.663 49.9328 128.404 50.4584C123.499 52.5066 118.381 53.6571 113.066 53.6649C110.647 53.6518 108.233 53.4512 105.846 53.0648C100.419 52.2244 95.5069 50.0863 91.0523 46.8892C90.7422 46.6706 90.5097 46.3574 90.2414 46.0876C90.2895 45.8876 90.3453 45.6891 90.3841 45.4876C90.5686 44.5232 90.1623 43.5215 89.4073 43.0626C88.6925 42.647 87.9808 42.7742 87.0939 43.4937V43.4843ZM93.0928 16.1198L93.2308 16.309L94.037 16.112C100.53 14.5197 107.061 13.9011 113.688 15.2516C119.135 16.3617 123.611 18.8905 126.267 23.9994C127.01 25.3858 127.683 26.8089 128.283 28.2632C129.58 31.5192 130.532 34.8853 130.807 38.4809C130.925 38.3693 130.994 38.3259 131.024 38.2701C132.748 34.8187 133.436 31.2107 132.705 27.3748C131.9 23.1513 129.663 19.6736 127.008 16.4268C124.583 13.4639 121.704 11.0528 118.049 9.73801C114.189 8.34258 110.226 8.45888 106.266 9.21086C101.799 10.059 97.7458 11.8544 94.2711 14.8376C93.8416 15.2237 93.4866 15.6996 93.0928 16.1291V16.1198ZM78.067 37.2979C78.0779 37.0979 78.0918 36.9522 78.0903 36.8064C78.005 24.3607 85.7884 12.4157 97.2419 7.52698C102.771 5.16559 108.502 4.15783 114.493 5.34085C116.764 5.78894 118.918 6.58118 121.028 7.55953C120.884 7.33126 120.685 7.14183 120.451 7.00763C118.699 6.07734 116.947 5.14703 115.179 4.23689C112.389 2.79649 109.41 2.62436 106.353 3.0523C95.1177 4.62139 86.59 10.2713 80.7695 20.0022C77.8747 24.8537 76.2731 30.1238 76.1692 35.8048C76.1692 36.0405 76.2669 36.3877 76.4374 36.4947C76.9258 36.8048 77.484 37.0204 78.067 37.2979ZM83.1045 35.2512C83.1309 36.8017 83.6069 38.2127 84.7372 39.3585C86.7172 41.3664 89.6817 41.1152 91.3019 38.8143C92.9222 36.5133 92.5687 33.1162 90.5453 31.2169C88.6119 29.4075 85.8365 29.6369 84.2302 31.7409C83.4503 32.7704 83.1278 33.9442 83.1045 35.2512V35.2512ZM110.703 67.6564C100.084 68.6673 90.857 65.7292 83.4611 58.1984C82.934 58.6341 82.4456 59.0559 81.9386 59.4543C81.4316 59.8528 80.9339 60.2048 80.3586 60.6311C89.4042 67.9649 99.4932 70.2876 110.703 67.6487V67.6564ZM119.152 73.7033C119.178 73.6211 119.206 73.5389 119.232 73.4552C118.561 73.2025 117.848 72.6506 117.228 72.742C110.871 73.6816 104.495 74.4708 98.0745 74.8662C97.6171 74.8941 97.1674 75.0212 96.5364 75.1468C97.4047 75.8182 98.121 76.3237 98.7784 76.8958C99.3536 77.3966 99.8808 77.7532 100.651 77.2555C100.889 77.1004 101.248 77.1268 101.555 77.1004C103.562 76.9454 105.577 76.8818 107.574 76.6539C111.553 76.2173 115.451 75.2214 119.152 73.6956V73.7033ZM97.276 83.4388C97.7024 82.0077 98.1365 80.5798 98.5412 79.144C98.5555 79.0557 98.5489 78.9652 98.5219 78.8799C98.495 78.7945 98.4485 78.7166 98.3861 78.6524C97.4279 77.8772 96.448 77.1376 95.2945 76.2461C95.0448 77.5128 94.8123 78.6339 94.6169 79.7611C94.5967 79.8774 94.7595 80.0789 94.8882 80.158C95.4857 80.5151 96.0051 80.9891 96.4154 81.5514C96.8256 82.1138 97.1183 82.7531 97.276 83.4311V83.4388ZM93.8649 92.6037L95.8588 87.2329C94.7285 87.7151 93.5765 88.2019 92.4276 88.6981C92.2726 88.7663 92.0431 88.8376 91.9919 88.9648C91.6713 89.7172 91.3958 90.4882 91.1671 91.2735C91.0508 91.7014 91.2523 92.075 91.7749 92.1742C92.5268 92.3091 93.2788 92.4797 93.8618 92.596L93.8649 92.6037Z" fill="#381B46"/>
<path d="M90.2386 46.1031C90.5068 46.3729 90.7441 46.6861 91.0495 46.9047C95.5041 50.1018 100.422 52.24 105.843 53.0803C108.23 53.4667 110.645 53.6672 113.063 53.6803C118.378 53.6726 123.497 52.5221 128.401 50.474C129.66 49.9483 130.871 49.3049 132.105 48.7203C132.316 48.6096 132.56 48.5798 132.792 48.6366C132.19 49.4119 131.612 50.2026 130.981 50.9515C128.721 53.6081 126.066 55.9007 123.109 57.7488C119.488 60.0671 115.421 61.599 111.17 62.2452C105.801 63.0484 100.573 62.5553 95.5676 60.3521C92.9737 59.2125 90.6061 57.7162 88.5517 55.7471C87.6059 54.8354 86.7438 53.837 85.8306 52.8896C85.6068 52.6603 85.4336 52.3865 85.3222 52.0861C85.2108 51.7856 85.1638 51.4651 85.184 51.1453C85.2553 46.4396 83.5436 42.4533 80.2829 39.0856C79.9889 38.7484 79.8154 38.3229 79.7899 37.8763C79.7254 36.5867 79.7721 35.294 79.9294 34.0125C80.5186 34.9939 81.0783 35.9955 81.7047 36.9584C83.2552 39.3337 84.9266 41.6222 87.0911 43.4999C86.9607 43.7485 86.8442 44.0042 86.7423 44.2658C86.3717 45.3651 86.8089 46.5915 87.7268 47.0706C88.6447 47.5497 89.4432 47.2303 90.2386 46.1031Z" fill="#220F2D"/>
<path d="M57.9696 76.8772C57.3324 78.2571 56.5742 79.5967 56.0811 81.0263C54.7803 84.763 55.2175 88.2996 57.6099 91.5262C57.6835 91.6416 57.7503 91.7612 57.8099 91.8844C55.5563 93.0289 53.196 93.9501 50.763 94.6349C50.4637 94.5899 50.1676 94.5279 49.8668 94.5047C48.0449 94.3651 46.1968 94.3868 44.4075 94.0705C40.4631 93.3743 37.0473 91.5758 34.289 88.6315C33.1091 87.3709 31.7741 86.6158 29.9833 86.9026C28.6871 87.1088 27.3847 87.2825 26.0839 87.4515C24.6295 87.6406 23.1767 87.8469 21.7161 87.9663C21.0076 88.0252 20.8277 87.6469 21.2293 87.053C21.4617 86.6812 21.7577 86.3532 22.1038 86.084C22.9007 85.5181 23.707 84.9382 24.5845 84.5118C28.1134 82.7938 31.8966 82.0652 35.7837 81.7768C37.221 81.6698 38.666 81.5984 40.0878 81.3736C45.7099 80.4883 50.6017 77.9331 55.095 74.567C57.3547 72.8394 59.9487 71.6002 62.7126 70.928C61.1931 72.7126 59.672 74.4631 57.675 75.7888C54.9012 77.6323 52.2096 79.5906 49.1846 81.0279C45.251 82.8885 41.0864 83.5396 36.7698 83.49C34.4317 83.4637 32.0904 83.5288 29.7508 83.552V83.8172C30.6299 83.7706 31.5106 83.6807 32.3866 83.6869C34.1665 83.7024 35.9465 83.7469 37.7265 83.8203C43.4633 84.0482 48.6915 82.476 53.5414 79.5037C54.9927 78.6137 56.4238 77.6927 57.8642 76.7857L57.9696 76.8772ZM29.191 83.9133L29.1585 83.8047L28.6825 83.8606V83.9133H29.191Z" fill="#BD202D"/>
<path d="M68.9177 95.1155C72.7614 94.3682 76.2748 92.7898 79.6347 90.8408C79.8781 90.6997 80.1386 90.5865 80.3913 90.4609L84.4226 90.9261C86.4026 92.3618 88.1825 94.0007 89.5175 96.069C91.7455 99.5173 91.544 102.983 88.9361 106.157C87.3528 108.122 85.274 109.629 82.914 110.523C81.072 111.208 79.1339 110.729 77.3446 109.933C76.0905 109.366 75.0069 108.481 74.2018 107.364C72.4962 105.062 71.6249 102.452 71.3861 99.6119C71.9737 99.3018 72.5815 99.032 73.1428 98.6816C73.7397 98.3157 73.9491 97.8258 73.38 97.2397C73.7134 96.9668 74.0498 96.6939 74.3816 96.4164C74.4158 96.3885 74.422 96.3264 74.4747 96.2008L71.8636 96.9761C71.1039 96.6102 70.3271 96.2768 69.5937 95.8644C69.3162 95.7093 69.141 95.3713 68.9177 95.1155Z" fill="#FDFDFD"/>
<path d="M93.0929 16.1291C93.4867 15.6997 93.8418 15.2237 94.2806 14.8469C97.7552 11.8637 101.808 10.0683 106.275 9.22016C110.232 8.46818 114.195 8.35815 118.059 9.74739C121.713 11.0622 124.593 13.4685 127.018 16.4361C129.672 19.6829 131.909 23.1606 132.714 27.3842C133.446 31.2201 132.757 34.8265 131.033 38.2794C131.004 38.3384 130.934 38.3787 130.816 38.4903C130.542 34.8947 129.59 31.5333 128.292 28.2726C127.692 26.8183 127.02 25.3952 126.276 24.0088C123.617 18.8922 119.144 16.3711 113.697 15.2609C107.077 13.9105 100.54 14.5291 94.0464 16.1214L93.2402 16.3183L93.0929 16.1291Z" fill="#C1B8C5"/>
<path d="M77.0406 71.8582C77.1311 71.9486 77.206 72.0534 77.2623 72.1683C77.5166 73.0086 78.0887 73.1218 78.8283 72.8753L79.1601 72.7947H79.1399C80.0702 72.7218 81.0005 72.6582 81.9184 72.576C83.0642 72.4737 84.0054 72.8505 84.7093 73.7668C86.0164 75.4723 86.7931 77.3934 86.7854 79.5687C86.7854 80.5176 86.6629 81.468 86.5962 82.4185V82.4015C86.5389 82.5565 86.4831 82.7224 86.4272 82.8836L86.4365 82.862L86.3109 83.1348L85.345 84.5721C84.7046 84.7629 84.0674 84.9675 83.4224 85.1443C81.523 85.6637 79.619 86.0203 77.6282 85.6792C76.0777 85.4141 74.7784 84.6885 73.6156 83.6729C70.4293 86.2064 67.2338 88.6158 62.8691 88.2979C62.9079 87.2545 62.8118 86.1831 63.0118 85.1706C63.5064 82.6743 64.7173 80.4975 66.2973 78.5128C67.1531 78.3283 68.0121 78.1593 68.8618 77.9546C69.8265 77.7454 70.6769 77.1802 71.2433 76.3716C71.8992 75.4568 72.7116 74.6428 73.521 73.8505C74.5102 72.8799 75.642 72.1186 77.0406 71.8582Z" fill="#F82323"/>
<path d="M62.7125 70.9279C59.948 71.6004 57.3534 72.8401 55.0934 74.5684C50.597 77.9345 45.7083 80.4897 40.0862 81.3751C38.6644 81.5999 37.2194 81.6712 35.7821 81.7782C31.895 82.0666 28.1118 82.7953 24.5829 84.5133C23.7069 84.9397 22.9006 85.5195 22.1021 86.0854C21.7561 86.3547 21.4601 86.6827 21.2277 87.0545C20.8261 87.6483 21.0059 88.0266 21.7145 87.9677C23.1751 87.8483 24.6279 87.6422 26.0822 87.453C27.3831 87.284 28.6855 87.1103 29.9817 86.9041C31.7725 86.6173 33.1075 87.3692 34.2874 88.6329C37.0457 91.5788 40.4614 93.3758 44.4059 94.072C46.1951 94.3821 48.0433 94.3666 49.8651 94.5061C50.1659 94.5294 50.4621 94.5914 50.7613 94.6364C46.7936 95.79 42.7717 96.4613 38.6148 96.0659C36.4612 95.8597 34.8409 94.9356 33.8998 92.9386C33.7354 92.5882 33.5494 92.2486 33.3695 91.9044C31.85 88.9926 30.0019 88.0592 26.7644 88.6887C25.4 88.9523 24.0821 89.4485 22.7208 89.726C21.3594 90.0036 19.9811 90.2609 18.6042 90.3013C17.0444 90.3478 16.6181 89.5756 17.2863 88.1445C17.5896 87.4891 17.9701 86.8723 18.4197 86.3072C20.0369 84.3039 21.9161 82.586 24.1736 81.3208C24.3767 81.2867 24.5798 81.2604 24.7814 81.2185C28.1134 80.5208 31.4485 79.837 34.7743 79.1175C38.1001 78.3981 41.4739 77.8353 44.7206 76.8523C49.3628 75.4476 53.391 72.7869 57.2641 69.9216C60.0549 67.8595 62.9295 65.9446 66.1608 64.6499C68.5253 63.7026 70.9347 62.8685 73.3256 61.9832C71.2433 63.622 69.1237 65.2159 67.0911 66.9137C65.5747 68.1804 64.1684 69.5836 62.7125 70.9279Z" fill="#F72324"/>
<path d="M68.8993 33.2512C68.9334 29.6851 69.7784 26.2958 71.0591 23.0056C76.2595 9.63268 89.4975 1.0089 103.791 1.75313C95.5878 3.43231 88.6773 7.33487 83.2491 13.7151C77.8208 20.0954 74.8346 27.4291 74.5105 35.6653L70.1924 36.3941C70.0374 36.1445 69.828 35.9134 69.7273 35.6421C69.428 34.8513 69.1737 34.0482 68.8993 33.2512Z" fill="#FCFCFC"/>
<path d="M95.5847 73.874C94.0466 74.8725 93.4884 76.3904 93.2404 78.1192C92.9923 79.848 92.9504 79.8557 91.2247 80.1116C90.4913 80.2186 89.7549 80.3023 88.9331 80.4077C88.9331 79.1332 89.0137 77.927 88.9129 76.7377C88.7781 75.3163 88.2539 73.9595 87.3981 72.8166C85.8476 70.6893 83.7684 69.8706 81.1838 70.2784C79.5449 68.1465 77.1525 67.3448 74.6717 68.1573C70.6405 69.4768 67.11 71.6211 64.347 74.8632C63.4803 75.8787 62.9314 77.1641 62.2368 78.3254C62.0208 78.4949 61.8042 78.6629 61.5872 78.8293L61.6383 79.0278L64.7998 78.42C62.8601 81.3085 61.4445 84.3118 61.5174 87.8283C59.9691 87.3428 58.6175 86.3733 57.6613 85.0623C57.483 84.8251 57.266 84.6158 57.0675 84.394C57.0846 82.5334 57.7544 80.8667 58.5761 79.2542C59.9127 76.637 61.7422 74.3732 63.7672 72.2661C67.1906 68.7 71.0017 65.599 75.0857 62.8345C75.4578 63.1895 75.8392 63.5369 76.199 63.9028C80.3279 68.1139 85.2088 71.0877 90.8697 72.7406C92.417 73.1948 94.011 73.4987 95.5847 73.874Z" fill="#FCFCFC"/>
<path d="M95.5846 73.8738C94.0109 73.5017 92.417 73.1978 90.8681 72.7435C85.2072 71.0876 80.3247 68.1138 76.1974 63.9058C75.8376 63.5398 75.4562 63.1925 75.0841 62.8374C76.002 62.2529 76.754 61.3986 77.9355 61.2451C78.145 61.2081 78.3605 61.2226 78.5633 61.2871C78.7661 61.3516 78.9502 61.4644 79.0999 61.6157C84.1157 66.0082 89.9068 68.7836 96.487 69.872C103.309 71.0018 109.903 70.2064 116.27 67.4858L117.107 67.1246C116.881 68.3464 116.684 69.4131 116.487 70.4814L114.346 71.4954C108.985 72.0768 103.624 72.6412 98.267 73.2552C97.3599 73.3513 96.4777 73.6583 95.5846 73.8738Z" fill="#C1B8C5"/>
<path d="M67.395 107.972L67.0415 107.398C66.9624 107.719 66.9112 107.922 66.8616 108.124C66.029 108.879 65.7344 110.419 66.1716 111.614C66.7314 113.148 67.964 113.897 69.4153 114.328C70.2324 114.569 71.0975 114.645 71.9581 114.793L71.2479 115.894L71.0789 116.035C70.9051 116.067 70.7355 116.119 70.5735 116.19C68.8927 117.157 67.1298 117.585 65.1685 117.311C63.3436 117.058 62.1171 116.151 61.4861 114.445C60.6876 112.286 60.917 110.118 61.6194 108.003C62.2071 106.236 62.9187 104.46 64.5855 103.415C66.3918 102.28 68.2881 101.291 70.1455 100.238C70.4897 101.581 70.7502 102.952 71.1937 104.26C72.2899 107.488 74.2946 109.968 77.4638 111.385C75.1024 111.416 72.8775 110.814 70.7642 109.823C69.606 109.284 68.516 108.595 67.395 107.972Z" fill="#F72323"/>
<path d="M78.067 37.2979C77.4841 37.0204 76.9305 36.8048 76.439 36.4947C76.2685 36.3878 76.1662 36.0405 76.1708 35.8048C76.2747 30.1238 77.8763 24.8537 80.7711 20.0022C86.5751 10.2693 95.1028 4.61933 106.354 3.05231C109.412 2.62437 112.382 2.7965 115.181 4.2369C116.944 5.14549 118.696 6.07579 120.453 7.00764C120.687 7.14184 120.885 7.33127 121.029 7.55954C118.919 6.58119 116.766 5.78895 114.494 5.34086C108.503 4.15784 102.772 5.1656 97.2435 7.52699C85.79 12.4157 78.0066 24.3607 78.0919 36.8064C78.0919 36.9522 78.0779 37.0979 78.067 37.2979Z" fill="#F9F8FA"/>
<path d="M150.831 42.4951L149.092 44.1556C148.958 43.8223 148.827 43.4905 148.695 43.1571C149.087 41.9462 148.822 40.9089 147.823 40.1104C147.408 39.7649 146.949 39.476 146.458 39.2515C146.234 39.1626 146.033 39.0247 145.869 38.8479C145.706 38.671 145.584 38.4597 145.513 38.2296C145.223 37.4249 144.867 36.6435 144.536 35.8527L144.268 35.8651C144.135 36.6761 144.002 37.4885 143.865 38.3134L141.218 38.1723L141.17 38.4219C141.462 38.5584 141.755 38.6886 142.045 38.8297C143.479 39.5259 144.932 40.1895 146.338 40.9415C146.828 41.202 147.389 41.5508 147.293 42.2904C146.333 42.1245 145.378 41.8563 144.412 41.8129C142.375 41.7198 142.51 41.5617 141.693 43.216C140.428 45.7821 138.266 46.8457 135.505 46.8968C136.525 43.8036 137.21 40.6422 137.401 37.3831C137.423 37.2812 137.43 37.1769 137.424 37.073C136.975 35.0573 138.305 34.186 139.784 33.4138C140.549 33.513 141.315 33.5999 142.077 33.7131C144.426 34.065 146.751 34.5023 148.796 35.8264C150.297 36.7985 151.055 38.2095 151.086 39.9693C151.101 40.8112 150.921 41.6547 150.831 42.4951Z" fill="#F72323"/>
<path d="M66.3143 49.5157C65.8336 47.2257 66.0585 45.0364 67.3872 43.0673C68.4509 41.4904 70.1781 40.9586 72.0278 41.5369C73.3163 41.9385 74.3799 42.6998 75.2932 43.6751C76.8545 45.3449 77.9739 47.2551 78.4081 49.5282C78.253 49.7824 78.0639 50.0274 77.9259 50.2941C76.8405 52.3888 74.7396 53.4587 72.4093 53.1315C70.8191 52.8985 69.3306 52.2097 68.1237 51.1484C67.5035 50.6166 66.9159 50.0615 66.3143 49.5157Z" fill="#FDFDFD"/>
<path d="M62.8691 88.2933C67.2338 88.6112 70.4293 86.2017 73.6156 83.6682C74.7784 84.6838 76.0746 85.4094 77.6282 85.6745C79.619 86.0156 81.523 85.6591 83.4224 85.1397C84.0674 84.9629 84.7046 84.7583 85.345 84.5675C84.4302 85.3583 83.565 86.2173 82.5913 86.9289C78.6422 89.8159 74.4048 92.1416 69.6029 93.2983C69.054 93.4316 68.4695 93.4425 67.933 93.6084C66.781 93.9712 65.9562 93.5014 65.1794 92.7168C63.9483 91.4764 63.004 90.1012 62.8691 88.2933Z" fill="#BD202D"/>
<path d="M128.343 56.2417C124.889 60.766 120.518 63.8267 114.884 65.1276C105.436 67.3075 96.6188 66.1881 88.6106 60.4839C87.1686 59.4575 85.9282 58.1504 84.5886 56.9782C84.2335 56.6681 84.1436 56.358 84.3669 55.9022C84.5902 55.4463 84.7266 54.8944 84.9189 54.3315C87.0306 56.8557 89.4509 58.938 92.2759 60.504C100.669 65.1555 109.351 65.3245 118.214 62.0313C121.906 60.6607 125.191 58.5706 128.213 56.0681L128.343 56.2417Z" fill="#B6ACBB"/>
<path d="M73.3274 61.9817C70.9365 62.867 68.5209 63.7012 66.1626 64.6485C62.9314 65.9432 60.0552 67.858 57.2659 69.9202C53.3897 72.7855 49.3584 75.4461 44.7225 76.8509C41.4757 77.8339 38.1003 78.4013 34.7761 79.1161C31.4519 79.8309 28.109 80.5115 24.7832 81.217C24.5816 81.2589 24.3785 81.2852 24.1754 81.3194C26.4469 79.8293 28.9695 78.9099 31.5728 78.2478C34.145 77.5935 36.7468 77.026 39.3593 76.5562C42.4678 76.0109 45.4519 74.9078 48.1676 73.3002C52.6734 70.6272 57.1465 67.9014 61.6569 65.2377C65.1672 63.1554 68.9705 61.7677 72.8901 60.6994C73.4204 60.5552 74.0592 60.8127 74.6484 60.884L74.6717 61.1166L73.3274 61.9817Z" fill="#F9A3A4"/>
<path d="M106.463 89.8345C106.79 88.9135 107.092 87.9832 107.449 87.0731C107.691 86.4529 107.551 86.0405 106.984 85.7149C106.447 85.4048 105.937 85.0575 105.37 84.6978C105.859 82.7178 106.329 80.741 106.86 78.7796C106.917 78.5703 107.312 78.3454 107.574 78.3144C110.962 77.8757 114.289 77.1826 117.518 76.0538C118.513 75.705 119.491 75.3096 120.619 74.8801L118.603 80.3828C118.028 79.5734 117.282 79.4028 116.448 79.3951C115.905 79.4019 115.362 79.3456 114.832 79.2276C113.7 78.947 112.999 79.4665 112.466 80.3688C111.616 81.8092 111.381 83.4155 111.226 85.0419C111.13 85.2078 110.953 85.3722 110.948 85.5427C110.92 86.3319 110.84 87.1429 110.978 87.9103C111.086 88.515 110.925 88.8112 110.407 88.9384C109.105 89.2547 107.781 89.5337 106.463 89.8345Z" fill="#FBFBFC"/>
<path d="M83.1045 35.2512C83.12 33.9442 83.4503 32.7705 84.2301 31.7456C85.8365 29.6416 88.6118 29.4121 90.5453 31.2215C92.5609 33.1162 92.9098 36.532 91.3019 38.8189C89.6941 41.1059 86.7171 41.371 84.7372 39.3631C83.6069 38.2126 83.1277 36.8001 83.1045 35.2512Z" fill="#C1B8C5"/>
<path d="M54.7539 113.143C54.6097 113.016 54.4639 112.89 54.1802 112.644C54.236 113.109 54.2717 113.419 54.3073 113.729C53.974 114.887 54.1631 115.988 55.0453 116.782C55.8485 117.509 56.83 118.038 57.8068 118.703C57.2046 119.337 56.3821 119.716 55.5089 119.761C53.1615 119.906 51.2001 118.106 50.9459 115.546C50.4699 110.74 53.053 106.533 56.8377 104.251C57.1835 105.349 57.5323 106.447 57.8688 107.547C57.9401 107.781 58.0502 108.059 57.9866 108.27C57.4858 109.951 57.3664 111.665 57.4253 113.404L54.7539 113.143Z" fill="#F72323"/>
<path d="M110.703 67.6487C99.4932 70.2846 89.4042 67.9588 80.3586 60.6312C80.9339 60.2048 81.444 59.842 81.9386 59.4544C82.4332 59.0668 82.934 58.6342 83.4612 58.1985C90.8616 65.7214 100.084 68.6596 110.703 67.6487Z" fill="#B6ACBB"/>
<path d="M66.3145 49.5156C66.9161 50.0614 67.5037 50.6227 68.1239 51.1483C69.3308 52.2096 70.8194 52.8984 72.4095 53.1314C74.7352 53.4586 76.8361 52.3887 77.9261 50.294C78.0641 50.0273 78.2455 49.7823 78.4083 49.528C79.1991 52.1546 79.1836 54.7299 77.7199 57.1254C76.7121 58.7875 74.9476 59.3876 73.0684 58.8542C71.7366 58.4743 70.6512 57.6975 69.7085 56.7161C67.8867 54.8167 66.8153 52.5298 66.2975 49.9653C66.2873 49.8152 66.293 49.6645 66.3145 49.5156V49.5156Z" fill="#B8AEBD"/>
<path d="M147.293 42.2904C147.389 41.5508 146.828 41.2051 146.338 40.9415C144.932 40.1895 143.479 39.5259 142.045 38.8297C141.755 38.6887 141.462 38.5584 141.17 38.422L141.218 38.1724L143.865 38.3134C144.002 37.4886 144.135 36.6761 144.268 35.8652L144.536 35.8528C144.867 36.6435 145.223 37.425 145.513 38.2297C145.584 38.4598 145.706 38.6711 145.869 38.8479C146.033 39.0248 146.234 39.1627 146.458 39.2515C146.949 39.4761 147.408 39.7649 147.824 40.1105C148.822 40.909 149.087 41.9462 148.695 43.1572C147.963 44.6705 146.67 45.0938 145.04 44.917C144.991 45.4054 144.949 45.8131 144.909 46.2209L145.119 46.4194L149.079 44.2689C149.149 45.0441 148.816 45.5496 148.098 45.838C146.904 46.3171 145.688 46.7543 144.532 47.3249C143.808 47.6846 143.157 48.2164 142.527 48.7373C139.057 51.6073 135.61 54.5036 132.139 57.3782C128.931 60.0404 125.707 62.684 122.496 65.34C121.465 66.1927 120.451 67.0672 119.422 67.9215C119.195 68.1107 118.93 68.2533 118.521 68.5247L118.676 67.3726L123.031 63.7942L123.014 63.8065L123.185 63.6329L123.168 63.6499L123.338 63.453C124.424 62.9166 125.317 62.132 126.112 61.2297L126.283 60.994L126.266 61.0125L126.438 60.8389L126.421 60.8513L126.751 60.6962L126.735 60.7071L126.904 60.5366L126.894 60.5505L128.987 58.859L139.404 50.2739L136.559 49.294C136.586 49.1622 136.61 49.0304 136.637 48.9002C137.401 48.9002 138.167 48.9343 138.928 48.9002C141.679 48.7544 143.04 47.7016 143.434 45.427C143.483 45.0154 143.505 44.6011 143.501 44.1866C143.532 43.4688 143.834 43.2269 144.55 43.337C144.953 43.42 145.361 43.4765 145.771 43.506C146.698 43.5184 147.053 43.2083 147.293 42.2904Z" fill="#3A174C"/>
<path d="M147.294 42.2905C147.053 43.2084 146.69 43.5185 145.78 43.5014C145.37 43.4719 144.963 43.4154 144.56 43.3324C143.844 43.2224 143.541 43.4642 143.51 44.1821C143.515 44.5966 143.493 45.0109 143.444 45.4225C143.05 47.6971 141.688 48.7498 138.938 48.8956C138.177 48.9359 137.411 48.8956 136.646 48.8956C136.62 49.0258 136.595 49.1576 136.569 49.2894L139.414 50.2693L128.996 58.8543L128.719 58.4636L133.322 51.84L135.076 50.736L134.186 50.1453L135.505 46.8893C138.267 46.8381 140.428 45.7745 141.693 43.2084C142.51 41.5541 142.375 41.7122 144.413 41.8052C145.379 41.8564 146.334 42.1246 147.294 42.2905Z" fill="#D11C33"/>
<path d="M80.1183 49.0475C79.9509 48.5948 79.7865 48.1405 79.6175 47.6877C78.636 45.0519 77.1507 42.7603 74.811 41.1245C72.8357 39.7477 70.7038 39.264 68.3749 40.1493C68.3408 40.1111 68.3052 40.0738 68.2679 40.0376C69.7192 37.7894 72.5209 36.901 75.287 37.8251C77.0127 38.4034 78.4453 39.4376 79.6454 40.7834C81.6797 43.0642 83.0115 45.6861 83.3774 48.7529C82.6022 49.2258 81.8099 49.6351 80.8563 49.2413C80.6152 49.1596 80.3686 49.0948 80.1183 49.0475V49.0475Z" fill="#FBFBFB"/>
<path d="M98.2434 85.8125C98.8512 83.7969 99.4047 81.7518 100.104 79.7656C100.259 79.3144 100.927 78.8059 101.406 78.7532C102.676 78.6121 103.971 78.7051 105.283 78.7051C104.838 80.5177 104.402 82.4495 103.878 84.3566C103.659 85.1505 103.833 85.6327 104.559 85.9924C105.024 86.2537 105.476 86.5388 105.912 86.8467L104.883 89.5306C103.27 89.4807 101.715 88.9174 100.445 87.9227C99.6466 87.3072 98.9737 86.5227 98.2434 85.8125Z" fill="#FCFCFC"/>
<path d="M119.152 73.6955C115.45 75.217 111.553 76.2088 107.574 76.6414C105.577 76.8693 103.562 76.9391 101.555 77.0879C101.245 77.1112 100.889 77.0879 100.651 77.243C99.8761 77.7407 99.3536 77.3841 98.7784 76.8833C98.121 76.3112 97.4046 75.8057 96.5364 75.1343C97.1674 75.0165 97.6217 74.8816 98.0745 74.8537C104.495 74.4583 110.868 73.6691 117.228 72.7295C117.848 72.6381 118.561 73.1947 119.232 73.4428C119.206 73.5311 119.178 73.6133 119.152 73.6955Z" fill="#FAF9FA"/>
<path d="M62.2302 78.3223C62.9248 77.161 63.4706 75.8756 64.3404 74.86C67.1034 71.618 70.6339 69.4736 74.6651 68.1542C77.1459 67.3417 79.5399 68.1433 81.1772 70.2753C80.8888 70.3838 80.5973 70.483 80.312 70.6009C79.3817 70.9854 78.6065 71.3141 77.7072 70.2722C76.9319 69.3729 75.6636 69.4969 74.6853 70.0721C73.6123 70.7094 72.4572 71.4071 71.7223 72.3699C70.2168 74.3499 68.35 75.626 66.032 76.4431C64.7095 76.9082 63.4954 77.6866 62.2302 78.3223Z" fill="#C1B8C5"/>
<path d="M70.1458 100.241C68.2852 101.294 66.392 102.283 64.5857 103.418C62.919 104.463 62.2073 106.239 61.6197 108.006C60.9173 110.121 60.6894 112.289 61.4863 114.449C62.1174 116.154 63.3469 117.061 65.1687 117.314C67.1301 117.585 68.8899 117.159 70.5737 116.193C70.7358 116.122 70.9053 116.07 71.0792 116.038C68.8201 118.157 65.1051 119.624 61.9887 118.19C60.4831 117.498 59.6629 116.322 59.3327 114.794C58.4163 110.653 59.5839 107.121 62.5143 104.096C64.6113 101.898 67.1981 100.228 70.0636 99.2197C70.0915 99.5577 70.1179 99.9004 70.1458 100.241Z" fill="#BC202D"/>
<path d="M56.838 104.251C53.0564 106.533 50.4733 110.746 50.9462 115.546C51.2005 118.106 53.1618 119.906 55.5093 119.761C56.3824 119.716 57.205 119.337 57.8071 118.703C56.8303 118.038 55.8488 117.509 55.0457 116.782C54.1634 115.988 53.9743 114.887 54.3076 113.729C54.641 114.365 54.9278 115.027 55.3139 115.633C56.124 116.974 57.3951 117.974 58.8893 118.446C56.5512 121.21 53.0998 122.398 50.526 120.131C49.4686 119.201 48.9135 118.032 48.9244 116.661C48.9631 111.624 50.8439 107.492 55.0395 104.543C55.562 104.175 56.0985 103.833 56.745 103.395C56.7931 103.774 56.8163 104.012 56.838 104.251Z" fill="#BC202D"/>
<path d="M89.5409 90.7742C89.5145 92.8844 89.9796 93.4534 92.0216 93.8751C93.4791 94.1759 94.9179 94.6504 96.3894 94.7868C97.8608 94.9233 99.3539 94.7465 100.838 94.7062C100.745 94.851 100.635 94.9842 100.511 95.1031C98.3197 96.7172 96.1289 98.3343 93.921 99.9236C93.4915 100.234 92.9907 100.434 92.5162 100.683C92.3255 97.725 90.8572 95.4116 88.7703 93.4503C87.8539 92.5882 86.8105 91.8642 85.8243 91.0765L89.5409 90.7742Z" fill="#FBFBFB"/>
<path d="M98.2436 85.8125C98.9738 86.5211 99.639 87.3056 100.448 87.9227C101.719 88.9174 103.273 89.4807 104.886 89.5306C104.552 90.4485 104.247 91.3787 103.87 92.2796C103.806 92.4045 103.715 92.5138 103.604 92.5995C103.493 92.6853 103.364 92.7455 103.227 92.7758C101.304 92.9758 99.3754 93.1029 97.4544 93.2982C96.307 93.4145 95.338 92.5323 96.0202 91.1446C96.8667 89.4205 97.5117 87.5956 98.2436 85.8125Z" fill="#C1B8C5"/>
<path d="M80.1183 49.0475C80.3664 49.0951 80.6109 49.1599 80.8501 49.2413C81.8036 49.6351 82.5913 49.2258 83.3712 48.7529C84.0131 52.0493 83.5727 55.1099 81.3555 57.7458C80.3896 58.89 79.0035 59.5365 77.8049 59.5489C80.6935 56.7085 80.9059 53.2493 80.1818 49.57C80.1415 49.4026 80.1369 49.2212 80.1183 49.0475Z" fill="#B6ACBB"/>
<path d="M150.831 42.495C150.921 41.6547 151.101 40.8112 151.086 39.9724C151.055 38.2126 150.296 36.8016 148.796 35.8295C146.75 34.5053 144.426 34.0681 142.077 33.7162C141.314 33.603 140.549 33.5161 139.784 33.4169C140.803 32.4664 141.966 32.0711 143.381 32.2959C145.916 32.6959 148.268 33.5162 150.332 35.0651C150.762 35.3928 151.157 35.7637 151.51 36.1721C152.529 37.3365 152.856 38.67 152.207 40.1088C151.83 40.9414 151.295 41.7027 150.831 42.495Z" fill="#F9A3A4"/>
<path d="M86.8226 85.5025C87.325 84.5273 87.8754 83.5706 88.3111 82.5659C88.4987 82.1318 88.7235 82.0155 89.1484 81.9705C90.3221 81.8449 91.4958 81.6977 92.6602 81.5054C93.7781 81.3193 94.5332 81.5658 95.096 82.5674C95.341 83.0031 95.3519 83.5722 95.4697 84.0807C92.6788 85.1025 89.7856 85.5025 86.8226 85.5025Z" fill="#FBFBFB"/>
<path d="M57.061 84.3909C57.2595 84.6126 57.4765 84.8219 57.6549 85.0591C58.6106 86.3713 59.9622 87.3419 61.5109 87.8283C61.7056 89.9736 62.6563 91.9798 64.1932 93.4891L64.0568 93.6799C63.2924 93.4256 62.5063 93.238 61.7714 92.9046C58.7495 91.503 56.568 87.5182 57.061 84.3909Z" fill="#C0B7C4"/>
<path d="M106.463 89.8347C107.782 89.5371 109.099 89.2549 110.418 88.9355C110.936 88.8084 111.097 88.5122 110.989 87.9075C110.851 87.14 110.931 86.3291 110.959 85.5399C110.959 85.3694 111.141 85.205 111.237 85.0391C111.341 85.5383 111.417 86.0438 111.547 86.5338C111.77 87.3416 112.29 87.7943 113.162 87.8315C113.783 87.8579 114.394 87.9509 115.093 88.0237C114.702 88.9913 114.121 89.7867 113.197 90.1479C111.452 90.8317 109.666 91.4147 107.878 91.9822C107.148 92.2132 106.371 92.2923 105.419 92.4799C105.804 91.5139 106.134 90.6736 106.463 89.8347Z" fill="#C0B7C5"/>
<path d="M86.8227 85.5025C89.7857 85.5134 92.6789 85.1087 95.4697 84.0776C95.5953 85.0684 95.0945 85.7832 94.2666 86.1212C92.8944 86.6887 91.4897 87.2778 90.0415 87.5414C88.1375 87.8887 86.1777 87.929 84.2427 88.1011L84.1962 87.8453L86.8227 85.5025Z" fill="#C0B7C5"/>
<path d="M92.5145 100.685C92.9797 100.435 93.4898 100.234 93.9193 99.9252C96.1271 98.3359 98.318 96.7188 100.509 95.1047C100.633 94.9858 100.743 94.8526 100.836 94.7078L102.684 94.5093C102.594 94.6534 102.494 94.7917 102.386 94.9232C99.4156 97.9713 96.169 100.738 92.6882 103.187C92.5799 103.252 92.4663 103.308 92.3486 103.353L92.2959 103.301L92.5145 100.685Z" fill="#C0B7C5"/>
<path d="M67.3951 107.972C68.5161 108.592 69.6061 109.284 70.7643 109.833C72.8777 110.824 75.1057 111.425 77.464 111.394H77.4438H77.5989C78.047 111.512 78.4951 111.628 78.9416 111.751C78.9773 111.762 79.0005 111.82 79.0703 111.906C76.2221 112.709 73.4203 113.41 70.5736 111.997C68.8805 111.154 67.7781 109.854 67.3951 107.972Z" fill="#BC202D"/>
<path d="M68.9175 95.1155C69.1408 95.3698 69.316 95.7078 69.5935 95.8644C70.3269 96.2768 71.1037 96.6101 71.8634 96.9761C70.2819 97.5792 68.7035 98.1901 67.1143 98.7731C67.0233 98.7967 66.9279 98.7981 66.8362 98.7774C66.7445 98.7566 66.6591 98.7142 66.5871 98.6537C65.753 97.6257 64.9483 96.5729 64.0862 95.4659L68.9175 95.1155Z" fill="#C0B7C5"/>
<path d="M97.276 83.431C97.1193 82.7516 96.827 82.1108 96.4168 81.547C96.0065 80.9833 95.4866 80.5082 94.8883 80.1502C94.7596 80.0711 94.5968 79.8695 94.6169 79.7532C94.8123 78.626 95.0449 77.505 95.2945 76.2383C96.4481 77.1298 97.428 77.874 98.3862 78.6446C98.4486 78.7088 98.4951 78.7866 98.522 78.872C98.5489 78.9573 98.5555 79.0478 98.5412 79.1361C98.1365 80.5719 97.7024 81.9999 97.276 83.431Z" fill="#F9F8FA"/>
<path d="M93.8618 92.596C93.2788 92.4751 92.5268 92.3092 91.7718 92.1665C91.2492 92.0673 91.0477 91.7014 91.164 91.2657C91.3928 90.4804 91.6682 89.7094 91.9888 88.957C92.04 88.8298 92.2664 88.7586 92.4245 88.6903C93.5734 88.1942 94.7254 87.7073 95.8557 87.2251L93.8618 92.596Z" fill="#C0B7C4"/>
<path d="M90.2383 46.1031C89.4429 47.2303 88.6367 47.5403 87.7296 47.0643C86.8226 46.5883 86.3745 45.3588 86.7451 44.2595C86.847 43.9979 86.9635 43.7422 87.0939 43.4936C87.9808 42.7742 88.6925 42.647 89.4041 43.078C90.1592 43.5432 90.5655 44.5386 90.381 45.503C90.3422 45.7046 90.2864 45.9031 90.2383 46.1031Z" fill="#BCB5C0"/>
<path d="M58.0596 103.333C58.12 103.023 58.0704 102.575 58.2611 102.42C60.0535 100.951 61.8862 99.5312 63.708 98.1001C63.7624 98.0747 63.8205 98.058 63.8801 98.0505L65.212 99.6521L62.3947 101.922C62.1094 101.922 61.7947 101.857 61.542 101.952C60.3713 102.387 59.2193 102.868 58.0596 103.333Z" fill="#C0B7C4"/>
<path d="M86.593 82.4124C86.6597 81.462 86.7791 80.5115 86.7822 79.5626C86.7822 77.392 86.0069 75.4725 84.7061 73.7607C84.0052 72.8444 83.0641 72.4676 81.9152 72.5699C80.9849 72.6521 80.0546 72.7157 79.1367 72.7886C80.005 72.4785 80.8516 72.0661 81.7462 71.8893C83.6626 71.511 85.1263 72.3374 86.1651 73.905C87.5962 76.0756 87.683 78.4525 87.1233 80.8992C87.0039 81.4217 86.7744 81.9101 86.593 82.4124Z" fill="#F6A0A1"/>
<path d="M89.5407 90.774L85.8195 91.0841C85.5094 90.9027 85.2117 90.6996 84.8892 90.543C84.4892 90.3492 84.3729 90.5538 84.4241 90.9306L80.3928 90.4655C81.2068 89.7677 82.0363 89.3801 83.2256 89.4638C85.4474 89.6111 87.6879 89.4639 89.9314 89.4375C89.8213 89.8065 89.6818 90.2903 89.5407 90.774Z" fill="#C0B7C4"/>
<path d="M71.2482 115.9L71.9645 114.807C71.104 114.652 70.2388 114.577 69.4217 114.342C67.9705 113.911 66.7378 113.162 66.1781 111.628C65.7409 110.433 66.0355 108.893 66.8681 108.138C67.3658 111.821 68.7659 113.422 72.3459 114.41C72.4653 114.444 72.5785 114.501 72.8499 114.608L71.2482 115.9Z" fill="#BC202D"/>
<path d="M77.0406 71.8583C75.6452 72.125 74.5102 72.8863 73.521 73.8522C72.7116 74.6445 71.8992 75.4585 71.2433 76.3733C70.6762 77.1792 69.8266 77.7422 68.8633 77.9502C68.0137 78.1548 67.1578 78.3238 66.2988 78.5084C66.6663 78.2231 67.0182 77.916 67.4059 77.6602C67.613 77.5565 67.8338 77.4829 68.0617 77.4416C69.4508 77.0605 70.6724 76.2254 71.5317 75.0694C72.5178 73.7886 73.8063 72.708 75.0823 71.6908C75.8808 71.052 76.4607 71.2241 77.0406 71.8583Z" fill="#F6A0A1"/>
<path d="M58.0596 103.333C59.2193 102.868 60.3713 102.387 61.542 101.952C61.7947 101.857 62.1094 101.928 62.3947 101.922L58.5526 106.304C58.3945 105.349 58.227 104.341 58.0596 103.333Z" fill="#F9F8FA"/>
<path d="M117.764 82.0201C117.652 83.0217 117.54 84.0238 117.426 85.0265C116.555 85.149 116.131 84.6512 115.852 83.9178C115.734 83.6608 115.597 83.4131 115.441 83.1767L115.851 81.9363L116.046 81.6262C116.659 81.5735 117.297 81.4247 117.764 82.0201Z" fill="#23A5EC"/>
<path d="M115.441 83.1768C115.597 83.4131 115.734 83.6608 115.852 83.9179C116.131 84.6512 116.555 85.149 117.426 85.0265C117.128 85.5289 116.891 86.0808 116.518 86.5165C116.099 87.0049 115.716 86.9196 115.465 86.318C115.245 85.8241 115.13 85.2903 115.126 84.7498C115.122 84.2093 115.229 83.6738 115.441 83.1768V83.1768Z" fill="#2879B8"/>
<path d="M54.7539 113.143L57.4223 113.404C57.5773 114.253 57.7324 115.109 57.9169 116.106C56.6196 115.415 55.5283 114.393 54.7539 113.143V113.143Z" fill="#BC202D"/>
<path d="M112.694 84.0884C112.98 83.0992 113.267 82.1101 113.553 81.1208L114.716 81.203C114.431 82.3752 114.146 83.5468 113.862 84.7179L112.694 84.0884Z" fill="#23A5EC"/>
<path d="M149.079 44.2689L145.119 46.4195L144.908 46.221C144.949 45.8132 144.991 45.4054 145.04 44.917C146.67 45.0938 147.963 44.6705 148.695 43.1572C148.827 43.4906 148.958 43.8224 149.092 44.1557C149.095 44.1939 149.09 44.2323 149.079 44.2689V44.2689Z" fill="#D11C33"/>
<path d="M73.3799 97.2458C73.9489 97.8319 73.7396 98.3219 73.1427 98.6878C72.5814 99.0335 71.9736 99.308 71.386 99.6181C71.0945 98.9017 71.2139 98.3777 72.0062 98.0552C72.4884 97.8505 72.9225 97.5187 73.3799 97.2458Z" fill="#C1B8C5"/>
<path d="M123.04 63.7957L118.685 67.3742C118.589 66.5834 118.924 66.1245 119.649 65.7539C120.656 65.2407 121.577 64.5601 122.541 63.9631C122.7 63.888 122.868 63.8317 123.04 63.7957V63.7957Z" fill="#C9BDD6"/>
<path d="M68.899 33.2512C69.1719 34.0497 69.4277 34.8529 69.7254 35.6421C69.8277 35.9134 70.0355 36.1444 70.1906 36.3941L68.7207 37.1616C68.7858 35.7646 68.8416 34.5071 68.899 33.2512Z" fill="#B6ACBB"/>
<path d="M112.694 84.0884L113.862 84.7179C113.937 85.3215 114.014 85.9242 114.091 86.5258C112.888 86.6808 112.677 86.5258 112.627 85.3862C112.609 84.9551 112.669 84.521 112.694 84.0884Z" fill="#2879B8"/>
<path d="M134.185 50.1514L135.075 50.7421L133.322 51.8461L134.185 50.1514Z" fill="#F72323"/>
<path d="M117.764 82.0201C117.299 81.4247 116.659 81.5736 116.043 81.6185L117.054 80.7068L117.764 82.0201Z" fill="#ACD0FB"/>
<path d="M128.712 58.4651L128.99 58.8558L126.897 60.5473C127.131 60.2372 127.345 59.9101 127.602 59.6171C127.962 59.2201 128.346 58.8481 128.712 58.4651Z" fill="#C9BDD6"/>
<path d="M114.344 71.4891L116.485 70.4751C116.476 71.0286 116.226 71.3015 115.643 71.3108C115.207 71.3419 114.773 71.4015 114.344 71.4891Z" fill="#F9F8FA"/>
<path d="M114.716 81.203L113.553 81.1209C113.806 80.2604 114.419 80.3844 115.133 80.5922L114.716 81.203Z" fill="#ACD0FB"/>
<path d="M86.432 82.8777C86.4878 82.7226 86.5436 82.5552 86.601 82.3955C86.539 82.5568 86.4878 82.7118 86.432 82.8777Z" fill="#F6A0A1"/>
<path d="M79.1602 72.7886L78.8284 72.8692L79.1602 72.7886Z" fill="#F6A0A1"/>
<path d="M116.046 81.6169L115.851 81.927L116.046 81.6169Z" fill="#ACD0FB"/>
<path d="M86.3156 83.1288L86.4411 82.856L86.3156 83.1288Z" fill="#F6A0A1"/>
<path d="M126.76 60.6946L126.43 60.8496L126.76 60.6946Z" fill="#C9BDD6"/>
<path d="M126.447 60.8391L126.275 61.0127L126.447 60.8391Z" fill="#C9BDD6"/>
<path d="M126.914 60.5398L126.745 60.7104L126.914 60.5398Z" fill="#C9BDD6"/>
<path d="M128.213 56.0682L128.377 55.9209C128.413 55.969 128.447 56.0186 128.483 56.0682L128.343 56.2418L128.213 56.0682Z" fill="#B6ACBB"/>
<path d="M128.377 55.9207L128.554 55.8494C128.531 55.9222 128.506 55.9951 128.483 56.068C128.447 56.0184 128.413 55.9687 128.377 55.9207Z" fill="#B6ACBB"/>
<path d="M128.734 55.5347L128.757 55.6804C128.757 55.637 128.748 55.5935 128.745 55.5501L128.734 55.5347Z" fill="#B6ACBB"/>
<path d="M128.745 55.5506C128.767 55.5395 128.791 55.5311 128.815 55.5256C128.826 55.5256 128.839 55.5412 128.851 55.5491L128.736 55.5365L128.745 55.5506Z" fill="#B6ACBB"/>
<path d="M57.875 76.7842L57.982 76.7129C57.982 76.7672 57.9727 76.8214 57.9696 76.8773L57.875 76.7842Z" fill="#BD202D"/>
<path d="M68.3687 40.1493L68.178 40.1958L68.2617 40.0408C68.2989 40.0749 68.3346 40.1111 68.3687 40.1493Z" fill="#FBFBFB"/>
<path d="M123.194 63.6406L123.023 63.8143L123.194 63.6406Z" fill="#C9BDD6"/>
<path d="M92.3495 103.354L92.2511 103.41L92.298 103.301L92.3495 103.354Z" fill="#C0B7C5"/>
<path d="M123.348 63.4531L123.177 63.65L123.348 63.4531Z" fill="#C9BDD6"/>
<path d="M126.292 60.9941L126.122 61.2298C126.179 61.16 126.232 61.0732 126.292 60.9941Z" fill="#C9BDD6"/>
<path d="M29.191 83.9133H28.6902V83.8606L29.1662 83.8047L29.191 83.9133Z" fill="#381B46"/>
</svg>
