<svg width="48" height="48" viewBox="0 0 48 48" fill="none" xmlns="http://www.w3.org/2000/svg">
<rect width="48" height="48" rx="8" fill="#9DA4BF"/>
<path d="M24.0092 28.64C23.0915 28.64 22.1944 28.3679 21.4313 27.858C20.6683 27.3482 20.0736 26.6235 19.7224 25.7756C19.3712 24.9278 19.2793 23.9948 19.4583 23.0948C19.6374 22.1947 20.0793 21.3679 20.7282 20.719C21.3771 20.0701 22.2039 19.6282 23.104 19.4491C24.004 19.2701 24.937 19.362 25.7848 19.7132C26.6327 20.0644 27.3573 20.6591 27.8672 21.4221C28.377 22.1852 28.6492 23.0823 28.6492 24C28.6492 25.2306 28.1603 26.4108 27.2901 27.281C26.42 28.1511 25.2398 28.64 24.0092 28.64V28.64ZM24.0092 21.8215C23.5783 21.8215 23.1571 21.9493 22.7989 22.1887C22.4406 22.428 22.1614 22.7683 21.9965 23.1663C21.8317 23.5644 21.7885 24.0024 21.8726 24.425C21.9566 24.8476 22.1641 25.2357 22.4688 25.5404C22.7734 25.8451 23.1616 26.0525 23.5842 26.1366C24.0068 26.2206 24.4448 26.1775 24.8428 26.0126C25.2409 25.8477 25.5811 25.5685 25.8205 25.2103C26.0599 24.852 26.1876 24.4308 26.1876 24C26.1876 23.4222 25.9581 22.8681 25.5496 22.4596C25.141 22.051 24.5869 21.8215 24.0092 21.8215Z" fill="#15171E"/>
<path d="M24.0092 34.3138C21.2738 34.3138 18.6504 33.2272 16.7162 31.293C14.7819 29.3588 13.6953 26.7354 13.6953 24C13.6953 21.2646 14.7819 18.6412 16.7162 16.707C18.6504 14.7728 21.2738 13.6862 24.0092 13.6862C24.441 13.6862 24.8724 13.7109 25.3015 13.76C26.1894 13.8692 27.0586 14.0969 27.8861 14.4369L26.9507 16.7138C26.3241 16.4557 25.6661 16.2819 24.9938 16.1969C24.6658 16.1782 24.3371 16.1782 24.0092 16.1969C22.454 16.197 20.9339 16.6588 19.6416 17.5238C18.3492 18.3888 17.3428 19.6181 16.75 21.0558C16.1571 22.4935 16.0045 24.0748 16.3115 25.5993C16.6185 27.1239 17.3713 28.5229 18.4744 29.6191C19.5775 30.7153 20.9812 31.4592 22.5076 31.7566C24.0341 32.054 25.6144 31.8915 27.0484 31.2896C28.4823 30.6877 29.7052 29.6736 30.5621 28.3758C31.419 27.0781 31.8712 25.5551 31.8615 24C31.8664 22.9919 31.674 21.9927 31.2953 21.0585C31.1603 20.7187 30.9998 20.3895 30.8153 20.0738L32.9445 18.8431C33.1848 19.2388 33.3986 19.6499 33.5845 20.0738C34.2243 21.6438 34.4682 23.3469 34.2947 25.0333C34.1212 26.7197 33.5357 28.3375 32.5898 29.7443C31.6438 31.1511 30.3664 32.3037 28.8701 33.1005C27.3737 33.8974 25.7044 34.3141 24.0092 34.3138V34.3138Z" fill="#15171E"/>
<path d="M24.0092 40C21.8967 40 19.8052 39.5817 17.8553 38.7692C17.4369 38.5969 17.0307 38.4 16.6246 38.2031L17.7569 36.0123C18.1015 36.1846 18.4461 36.3569 18.7907 36.4923C20.4417 37.1899 22.2169 37.5458 24.0092 37.5385C26.964 37.5376 29.8375 36.57 32.191 34.7834C34.5446 32.9967 36.249 30.4892 37.0442 27.6433C37.8393 24.7974 37.6816 21.7695 36.5951 19.0217C35.5085 16.2738 33.5528 13.9569 31.0263 12.4245C28.4999 10.8921 25.5415 10.2283 22.6025 10.5344C19.6635 10.8405 16.9054 12.0998 14.749 14.12C12.5926 16.1402 11.1564 18.8105 10.6595 21.7232C10.1626 24.636 10.6322 27.6314 11.9969 30.2523L9.80609 31.3846C8.19453 28.287 7.64051 24.7473 8.22854 21.3055C8.81658 17.8636 10.5144 14.7086 13.0629 12.3218C15.6115 9.93499 18.8709 8.44739 22.3439 8.08596C25.8168 7.72454 29.3127 8.50913 32.2981 10.32C35.2835 12.1309 37.5946 14.8687 38.8787 18.1158C40.1628 21.3628 40.3495 24.9407 39.4103 28.3038C38.4711 31.6668 36.4575 34.6302 33.6768 36.742C30.8961 38.8538 27.5009 39.998 24.0092 40V40Z" fill="#15171E"/>
<path d="M29.6953 19.5446C29.2279 19.5446 28.7711 19.406 28.3825 19.1464C27.9938 18.8867 27.691 18.5177 27.5121 18.0859C27.3333 17.6541 27.2865 17.1789 27.3776 16.7205C27.4688 16.2622 27.6939 15.8411 28.0244 15.5106C28.3548 15.1801 28.7759 14.9551 29.2343 14.8639C29.6927 14.7727 30.1678 14.8195 30.5996 14.9984C31.0314 15.1772 31.4005 15.4801 31.6601 15.8687C31.9198 16.2573 32.0584 16.7142 32.0584 17.1816C32.0584 17.8083 31.8094 18.4093 31.3663 18.8525C30.9231 19.2957 30.322 19.5446 29.6953 19.5446V19.5446ZM29.6953 17.0831C29.6692 17.0831 29.6442 17.0935 29.6257 17.1119C29.6072 17.1304 29.5968 17.1554 29.5968 17.1816C29.6038 17.2004 29.6164 17.2167 29.6329 17.2281C29.6494 17.2396 29.6691 17.2458 29.6892 17.2458C29.7093 17.2458 29.7289 17.2396 29.7454 17.2281C29.7619 17.2167 29.7745 17.2004 29.7815 17.1816C29.7817 17.1574 29.773 17.1341 29.7571 17.1159C29.7412 17.0978 29.7192 17.0861 29.6953 17.0831ZM13.7815 37.7231C13.0872 37.7231 12.4085 37.517 11.8314 37.1311C11.2543 36.7451 10.8048 36.1965 10.5396 35.5549C10.2745 34.9132 10.2058 34.2073 10.3421 33.5265C10.4785 32.8458 10.8138 32.2208 11.3055 31.7307C11.7973 31.2407 12.4235 30.9076 13.1047 30.7736C13.786 30.6397 14.4916 30.7109 15.1324 30.9783C15.7731 31.2456 16.3201 31.6971 16.704 32.2756C17.0879 32.854 17.2916 33.5334 17.2892 34.2277C17.2892 34.6878 17.1983 35.1433 17.0219 35.5682C16.8455 35.9931 16.5869 36.3789 16.261 36.7037C15.9352 37.0284 15.5484 37.2856 15.1229 37.4606C14.6974 37.6355 14.2415 37.7247 13.7815 37.7231V37.7231ZM13.7815 33.1815C13.5746 33.1815 13.3723 33.2429 13.2003 33.3579C13.0282 33.4728 12.8941 33.6362 12.815 33.8274C12.7358 34.0185 12.7151 34.2289 12.7554 34.4318C12.7958 34.6347 12.8954 34.8211 13.0417 34.9674C13.188 35.1138 13.3744 35.2134 13.5774 35.2538C13.7803 35.2941 13.9907 35.2734 14.1818 35.1942C14.373 35.115 14.5364 34.981 14.6513 34.8089C14.7663 34.6369 14.8276 34.4346 14.8276 34.2277C14.8276 33.9502 14.7174 33.6842 14.5212 33.488C14.325 33.2918 14.0589 33.1815 13.7815 33.1815V33.1815Z" fill="#15171E"/>
</svg>
