<svg width="36" height="36" viewBox="0 0 36 36" fill="none" xmlns="http://www.w3.org/2000/svg">
<rect width="36" height="36" rx="8" fill="#9DA4BF"/>
<path d="M18.0069 21.48C17.3186 21.48 16.6458 21.2759 16.0735 20.8935C15.5012 20.5111 15.0551 19.9676 14.7918 19.3318C14.5284 18.6959 14.4594 17.9962 14.5937 17.3211C14.728 16.6461 15.0594 16.026 15.5461 15.5393C16.0328 15.0526 16.6529 14.7212 17.3279 14.5869C18.003 14.4526 18.7027 14.5215 19.3386 14.7849C19.9745 15.0483 20.518 15.4944 20.9004 16.0666C21.2828 16.6389 21.4869 17.3117 21.4869 18C21.4869 18.923 21.1202 19.8081 20.4676 20.4607C19.815 21.1134 18.9298 21.48 18.0069 21.48V21.48ZM18.0069 16.3662C17.6837 16.3662 17.3678 16.462 17.0991 16.6415C16.8305 16.8211 16.621 17.0762 16.4974 17.3748C16.3737 17.6733 16.3414 18.0018 16.4044 18.3188C16.4674 18.6357 16.6231 18.9268 16.8516 19.1553C17.08 19.3838 17.3712 19.5394 17.6881 19.6025C18.005 19.6655 18.3336 19.6332 18.6321 19.5095C18.9306 19.3858 19.1858 19.1764 19.3653 18.9077C19.5449 18.639 19.6407 18.3232 19.6407 18C19.6407 17.5667 19.4686 17.1511 19.1622 16.8447C18.8558 16.5383 18.4402 16.3662 18.0069 16.3662Z" fill="#15171E"/>
<path d="M18.0069 25.7354C15.9553 25.7354 13.9878 24.9204 12.5371 23.4698C11.0865 22.0191 10.2715 20.0516 10.2715 18C10.2715 15.9485 11.0865 13.981 12.5371 12.5303C13.9878 11.0796 15.9553 10.2646 18.0069 10.2646C18.3307 10.2647 18.6543 10.2832 18.9761 10.32C19.642 10.402 20.294 10.5727 20.9146 10.8277L20.213 12.5354C19.7431 12.3418 19.2496 12.2114 18.7453 12.1477C18.4994 12.1336 18.2528 12.1336 18.0069 12.1477C16.8405 12.1477 15.7004 12.4941 14.7312 13.1429C13.7619 13.7916 13.0071 14.7136 12.5625 15.7919C12.1178 16.8701 12.0034 18.0561 12.2336 19.1995C12.4639 20.3429 13.0285 21.3922 13.8558 22.2143C14.6831 23.0365 15.7359 23.5944 16.8807 23.8175C18.0256 24.0405 19.2108 23.9186 20.2863 23.4672C21.3617 23.0158 22.2789 22.2552 22.9216 21.2819C23.5642 20.3086 23.9034 19.1664 23.8961 18C23.8998 17.244 23.7555 16.4945 23.4715 15.7939C23.3702 15.539 23.2499 15.2922 23.1115 15.0554L24.7084 14.1323C24.8886 14.4291 25.0489 14.7375 25.1884 15.0554C25.6682 16.2329 25.8511 17.5102 25.721 18.775C25.5909 20.0398 25.1518 21.2532 24.4423 22.3083C23.7328 23.3634 22.7748 24.2278 21.6525 24.8254C20.5303 25.4231 19.2783 25.7356 18.0069 25.7354V25.7354Z" fill="#15171E"/>
<path d="M18.0069 30C16.4226 30 14.8539 29.6863 13.3915 29.0769C13.0776 28.9477 12.773 28.8 12.4684 28.6523L13.3176 27.0092C13.5761 27.1385 13.8346 27.2677 14.093 27.3692C15.3313 27.8924 16.6627 28.1594 18.0069 28.1539C20.223 28.1532 22.3781 27.4275 24.1433 26.0875C25.9084 24.7476 27.1867 22.8669 27.7831 20.7325C28.3795 18.5981 28.2612 16.3272 27.4463 14.2663C26.6314 12.2054 25.1646 10.4677 23.2698 9.31838C21.3749 8.16905 19.1561 7.67121 16.9519 7.90081C14.7476 8.13041 12.6791 9.07485 11.0618 10.59C9.44448 12.1052 8.36731 14.1078 7.99462 16.2924C7.62193 18.477 7.97419 20.7236 8.99765 22.6892L7.35457 23.5385C6.1459 21.2153 5.73038 18.5605 6.17141 15.9791C6.61243 13.3977 7.88579 11.0315 9.79721 9.24136C11.7086 7.45124 14.1532 6.33554 16.7579 6.06447C19.3626 5.7934 21.9845 6.38185 24.2236 7.74003C26.4626 9.09821 28.1959 11.1516 29.159 13.5868C30.1221 16.0221 30.2622 18.7055 29.5577 21.2278C28.8533 23.7501 27.3432 25.9727 25.2576 27.5565C23.1721 29.1404 20.6257 29.9985 18.0069 30V30Z" fill="#15171E"/>
<path d="M22.2714 14.6585C21.9209 14.6585 21.5783 14.5546 21.2868 14.3598C20.9954 14.1651 20.7682 13.8883 20.634 13.5644C20.4999 13.2406 20.4648 12.8842 20.5332 12.5404C20.6016 12.1966 20.7704 11.8809 21.0182 11.633C21.2661 11.3851 21.5819 11.2163 21.9257 11.1479C22.2695 11.0796 22.6258 11.1147 22.9497 11.2488C23.2735 11.3829 23.5503 11.6101 23.7451 11.9016C23.9398 12.193 24.0438 12.5357 24.0438 12.8862C24.0438 13.3562 23.857 13.807 23.5247 14.1394C23.1923 14.4718 22.7415 14.6585 22.2714 14.6585V14.6585ZM22.2714 12.8124C22.2519 12.8124 22.2331 12.8201 22.2192 12.834C22.2054 12.8478 22.1976 12.8666 22.1976 12.8862C22.2028 12.9003 22.2123 12.9125 22.2247 12.9211C22.237 12.9297 22.2518 12.9343 22.2668 12.9343C22.2819 12.9343 22.2966 12.9297 22.309 12.9211C22.3214 12.9125 22.3308 12.9003 22.3361 12.8862C22.3362 12.8681 22.3297 12.8506 22.3178 12.837C22.3059 12.8234 22.2894 12.8146 22.2714 12.8124ZM10.3361 28.2923C9.81537 28.2923 9.30637 28.1378 8.87354 27.8483C8.44072 27.5588 8.10353 27.1474 7.90469 26.6662C7.70585 26.1849 7.65429 25.6555 7.75655 25.1449C7.85881 24.6344 8.11029 24.1656 8.47913 23.7981C8.84797 23.4305 9.31759 23.1807 9.82852 23.0802C10.3394 22.9798 10.8687 23.0332 11.3492 23.2337C11.8298 23.4343 12.24 23.7729 12.528 24.2067C12.8159 24.6406 12.9687 25.1501 12.9668 25.6708C12.9668 26.0158 12.8987 26.3575 12.7664 26.6762C12.6341 26.9948 12.4402 27.2842 12.1957 27.5278C11.9513 27.7713 11.6613 27.9642 11.3421 28.0954C11.023 28.2266 10.6811 28.2936 10.3361 28.2923V28.2923ZM10.3361 24.8862C10.1809 24.8862 10.0292 24.9322 9.90017 25.0184C9.77114 25.1046 9.67057 25.2272 9.61118 25.3705C9.5518 25.5139 9.53626 25.6717 9.56654 25.8239C9.59681 25.9761 9.67154 26.1159 9.78127 26.2256C9.891 26.3353 10.0308 26.4101 10.183 26.4403C10.3352 26.4706 10.493 26.4551 10.6363 26.3957C10.7797 26.3363 10.9022 26.2357 10.9885 26.1067C11.0747 25.9777 11.1207 25.826 11.1207 25.6708C11.1207 25.4627 11.038 25.2631 10.8909 25.116C10.7437 24.9689 10.5442 24.8862 10.3361 24.8862V24.8862Z" fill="#15171E"/>
</svg>
