<svg width="141" height="85" viewBox="0 0 141 85" fill="none" xmlns="http://www.w3.org/2000/svg">
<g clip-path="url(#clip0)">
<path d="M48.9296 24.6691C49.0449 26.4147 49.1001 27.9608 49.1001 29.3919C49.1001 37.4355 47.3209 42.293 43.3254 45.1385C39.6805 47.7363 33.9515 48.8432 24.1694 48.8432C14.2385 48.8432 8.49507 47.1938 4.96305 43.3257C1.48386 39.5199 0 33.3707 0 22.7648C0 13.528 1.69997 7.91906 5.51291 4.57649C9.16979 1.36863 14.9204 0 24.7409 0C34.8832 0 40.4513 0.89345 43.9593 3.08325C47.5634 5.33284 49.1001 9.12202 49.1001 15.756C49.1001 17.281 49.0064 19.1058 48.8071 21.4994C45.1983 21.382 41.503 21.382 37.9302 21.382C34.2853 21.382 30.5179 21.382 27.0363 21.4973C27.082 20.6735 27.082 19.9579 27.082 19.3243C27.082 15.3385 26.6018 13.9264 25.2499 13.9264C23.6652 13.9264 23.101 15.3478 23.101 23.3387C23.101 30.698 23.5235 32.4967 25.2499 32.4967C26.5081 32.4967 27.1468 30.7871 27.1468 27.4158C27.1468 26.6162 27.094 25.6605 27.0363 24.6691C28.5346 24.7172 30.2082 24.7388 32.2948 24.7388C33.2504 24.7388 34.2085 24.734 35.1641 24.7292L36.1077 24.7268C36.7392 24.7244 37.3707 24.7217 37.9926 24.7217C38.6241 24.7217 39.2547 24.7234 39.8846 24.7268L40.8187 24.7292C41.7527 24.734 42.6819 24.7388 43.6135 24.7388C45.6785 24.7388 47.3713 24.7172 48.9296 24.6691Z" fill="black"/>
<path d="M75.032 47.0997L75.0248 47.3254C75.0176 47.5634 75.0079 47.7939 75.0007 48.0148H100.068C97.7272 35.5408 93.9959 6.92692 93.2827 0.828125H54.1376C53.7078 7.6787 50.0918 35.9276 47.9668 48.0148H70.6764C70.5683 46.2497 70.441 43.4837 70.441 40.223V39.9228H75.1832V40.223C75.1832 42.958 75.0968 45.3522 75.032 47.0997ZM70.6788 28.6713L70.6836 28.6091L70.6956 28.3594C70.8565 24.9378 71.1038 20.4598 71.5888 16.1663C71.7545 14.7932 71.925 12.9993 72.0882 11.2657L72.1002 11.1627C72.1771 10.3367 72.2635 9.40029 72.3547 8.52364L72.3764 8.30755L72.3812 8.25496H73.3056L73.3104 8.30755L73.332 8.52364C73.3752 8.95344 73.4184 9.39132 73.4617 9.83729L73.5025 10.2788L73.5169 10.4304C73.7138 12.4663 73.9178 14.5696 74.1579 16.1567C74.6454 20.4622 74.8927 24.94 75.0536 28.3594L75.0656 28.6091L75.0704 28.6713H70.6788Z" fill="black"/>
<path d="M55.2924 60.074C56.0206 60.092 56.7496 60.092 57.4773 60.092C58.2051 60.092 58.953 60.092 59.6813 60.074C59.6993 60.3655 59.6994 60.6387 59.6994 60.8755C59.6994 64.5011 57.5686 66.2666 53.1787 66.2666C48.5525 66.2666 46.3115 64.1537 46.3115 59.0177C46.3115 54.3181 48.479 52.1328 53.2327 52.1328C57.8954 52.1328 59.6626 53.954 59.6626 56.923C59.6626 57.269 59.6441 57.6513 59.6078 58.0515C58.8791 58.015 58.1321 58.015 57.4228 58.015C56.6946 58.015 55.9844 58.015 55.2556 58.0515C55.2698 57.9184 55.2758 57.7846 55.2736 57.6508C55.2736 56.1028 54.5634 55.5748 53.1789 55.5748C51.6492 55.5928 50.9207 56.303 50.9207 58.9985C50.9207 61.676 51.6672 62.5689 53.2701 62.5689C54.6726 62.5689 55.2921 61.7675 55.2921 60.547L55.2924 60.074Z" fill="black"/>
<path d="M66.6724 58.9979C66.6724 58.0876 66.2714 57.6141 65.2332 57.6141C64.1402 57.6141 63.6302 58.0689 63.7034 59.2534C63.266 59.2166 62.6285 59.2166 61.9727 59.2166C61.2798 59.1988 60.5863 59.2228 59.8963 59.2887C59.7508 56.2109 61.2808 54.4805 65.3228 54.4805C69.2575 54.4805 70.8239 56.0282 70.8239 58.7424C70.8239 60.2724 70.7692 61.3471 70.7692 62.7311C70.7692 63.9881 70.8599 65.5366 71.0239 66.0281H67.5995C66.8532 66.0281 66.7253 65.956 66.7253 65.0991C66.7253 64.8258 66.7437 64.4796 66.762 64.1341H66.6525C66.1963 65.5366 64.9767 66.1921 63.1008 66.1921C60.7878 66.1921 59.5488 65.4273 59.5488 63.1139C59.5488 60.7459 61.1153 59.7989 64.5033 59.7989C65.2276 59.7835 65.9521 59.82 66.6712 59.9082L66.6724 58.9979ZM66.6537 61.4026C66.1513 61.3495 65.6462 61.3251 65.141 61.3294C64.0125 61.3294 63.5198 61.6574 63.5198 62.4223C63.5198 63.2058 63.866 63.5153 64.8495 63.5153C65.962 63.5153 66.6537 62.8051 66.6537 61.4026Z" fill="black"/>
<path d="M75.8483 56.3924C76.5406 55.0987 77.834 54.4979 79.5095 54.4979C82.169 54.4979 83.5895 55.9004 83.5895 60.2903C83.5895 64.625 82.1323 66.2098 79.5095 66.2098C77.4513 66.2098 76.4121 65.3535 75.8839 64.4245L75.7746 64.443V65.062C75.7746 65.408 75.7926 65.6995 75.8111 66.0275H71.4399C71.476 64.115 71.4944 62.0388 71.4944 59.1426C71.4944 56.0464 71.4759 53.6962 71.4579 51.9297H75.8303C75.8121 52.7312 75.8121 53.4782 75.8121 54.5524C75.7936 55.2627 75.7756 55.7549 75.7576 56.3556L75.8483 56.3924ZM75.7028 62.6031C76.239 62.874 76.8326 63.0115 77.4333 63.004C78.7626 63.004 79.3273 62.2936 79.3273 60.2356C79.3273 58.2136 78.7625 57.6489 77.5968 57.6489C76.559 57.6489 75.7028 58.1956 75.7028 59.9441V62.6031Z" fill="black"/>
<path d="M88.1575 56.3924C88.8497 55.0987 90.1434 54.4979 91.8187 54.4979C94.4781 54.4979 95.8986 55.9004 95.8986 60.2903C95.8986 64.625 94.4416 66.2098 91.8187 66.2098C89.7607 66.2098 88.7212 65.3535 88.1942 64.4245L88.0847 64.443V65.062C88.0847 65.408 88.103 65.6995 88.1215 66.0275H83.75C83.786 64.115 83.8048 62.0388 83.8048 59.1426C83.8048 56.0464 83.7861 53.6962 83.7681 51.9297H88.1395C88.1214 52.7312 88.1215 53.4782 88.1215 54.5524C88.103 55.2627 88.0847 55.7549 88.0667 56.3556L88.1575 56.3924ZM88.0122 62.6031C88.5483 62.874 89.142 63.0115 89.7427 63.004C91.0719 63.004 91.6367 62.2936 91.6367 60.2356C91.6367 58.2136 91.072 57.6489 89.9062 57.6489C88.8682 57.6489 88.0122 58.1956 88.0122 59.9441V62.6031Z" fill="black"/>
<path d="M102.743 58.9979C102.743 58.0876 102.343 57.6141 101.304 57.6141C100.211 57.6141 99.7013 58.0689 99.7745 59.2534C99.337 59.2166 98.6995 59.2166 98.044 59.2166C97.351 59.1988 96.6575 59.2228 95.9673 59.2887C95.8218 56.2109 97.3518 54.4805 101.394 54.4805C105.329 54.4805 106.895 56.0282 106.895 58.7424C106.895 60.2724 106.84 61.3471 106.84 62.7311C106.84 63.9881 106.931 65.5366 107.095 66.0281H103.671C102.924 66.0281 102.796 65.956 102.796 65.0991C102.796 64.8258 102.815 64.4796 102.833 64.1341H102.724C102.267 65.5366 101.048 66.1921 99.1718 66.1921C96.8591 66.1921 95.6201 65.4273 95.6201 63.1139C95.6201 60.7459 97.1866 59.7989 100.574 59.7989C101.299 59.7835 102.023 59.82 102.742 59.9082L102.743 58.9979ZM102.725 61.4026C102.222 61.3495 101.717 61.3251 101.212 61.3294C100.084 61.3294 99.5908 61.6574 99.5908 62.4223C99.5908 63.2058 99.937 63.5153 100.921 63.5153C102.033 63.5153 102.725 62.8051 102.725 61.4026Z" fill="black"/>
<path d="M116.619 57.3038C117.912 57.6318 118.404 58.0873 118.404 59.1435C118.404 61.0742 116.965 62.094 112.703 62.094C112.137 62.0939 111.571 62.0636 111.009 62.0032C110.906 62.1938 110.85 62.4061 110.845 62.6227C110.845 62.9322 111.081 63.0962 111.592 63.0962C113.377 63.0962 114.87 62.8595 116.054 62.8595C118.313 62.8595 119.242 63.6605 119.242 65.5369C119.242 67.7952 117.912 68.7606 112.812 68.7606C107.53 68.7606 106.783 68.0866 106.783 66.9574C106.783 66.1012 107.439 65.6277 108.75 65.3909V65.2995C107.694 65.026 107.348 64.4792 107.348 63.8057C107.348 62.7855 108.24 62.1298 109.552 61.7838V61.729C107.84 61.2008 107.147 60.1265 107.147 58.542C107.147 55.9551 108.841 54.6621 112.703 54.6621C113.122 54.6621 116.583 54.6986 119.132 54.6986C119.096 55.0809 119.096 56.8116 119.114 57.3216C118.568 57.3216 117.601 57.2668 116.619 57.1936V57.3038ZM115.908 65.7737C115.908 65.4637 115.744 65.3175 115.016 65.3175C113.704 65.3175 111.956 65.4995 110.754 65.4995C110.571 65.5031 110.389 65.4971 110.207 65.4815C110.122 65.5704 110.071 65.6862 110.062 65.809C110.062 66.3557 110.518 66.5559 112.903 66.5559C115.289 66.5559 115.908 66.2822 115.908 65.7727V65.7737ZM110.954 58.488C110.954 59.3623 111.482 59.781 112.757 59.781C114.05 59.781 114.579 59.3623 114.579 58.488C114.579 57.6498 114.032 57.1403 112.757 57.1403C111.5 57.1393 110.954 57.6488 110.954 58.4871V58.488Z" fill="black"/>
<path d="M130.094 62.186C130.185 64.8272 129.274 66.2659 124.648 66.2659C120.713 66.2659 118.747 64.5355 118.747 60.3832C118.747 56.0118 120.86 54.4453 124.775 54.4453C128.928 54.4453 130.13 56.1021 130.13 59.09C130.137 59.8076 130.106 60.5251 130.038 61.2395C128.91 61.2027 127.215 61.2027 125.704 61.2027C124.593 61.2027 123.573 61.2027 122.844 61.2215C122.935 63.0062 123.482 63.5709 124.757 63.5709C125.922 63.5709 126.269 63.1147 126.286 62.1865C126.724 62.2232 127.361 62.2412 128.09 62.2412C128.855 62.2407 129.529 62.2227 130.094 62.186ZM122.863 59.4538C123.919 59.4723 125.103 59.4723 126.287 59.4538C126.303 59.2904 126.309 59.1263 126.305 58.9623C126.305 57.5778 125.868 57.0678 124.702 57.0678C123.592 57.0678 123.008 57.505 122.863 59.4538Z" fill="black"/>
<path d="M104.71 81.8149C104.583 81.2866 104.219 80.1029 103.726 78.6454H97.4058C96.9323 80.0477 96.5496 81.2146 96.3674 81.8149H93.4541C94.7838 78.6272 97.8803 70.103 98.5538 68.1543H102.634C103.381 70.1578 106.404 78.4452 107.844 81.8149H104.71ZM103.053 76.6604C102.543 75.1667 102.015 73.6002 101.56 72.3252C101.068 71.05 100.776 70.1578 100.558 69.5203C100.339 70.1758 100.048 71.05 99.5563 72.4165C99.1188 73.673 98.6088 75.2035 98.0993 76.6604C98.9548 76.6784 99.8838 76.6784 100.54 76.6784C101.231 76.6784 102.179 76.6784 103.053 76.6604H103.053Z" fill="black"/>
<path d="M110.207 72.7621C110.863 71.4871 112.174 70.6309 114.214 70.6309C117.11 70.6309 118.531 72.6718 118.531 76.2773C118.531 79.8828 116.874 81.9965 114.123 81.9965C112.21 81.9965 110.917 81.3042 110.207 80.3755L110.116 80.412C110.134 80.9582 110.134 81.4502 110.134 82.0512C110.134 82.8162 110.152 83.5264 110.152 84.3459H107.529C107.584 81.9057 107.584 78.6635 107.584 75.8585C107.584 73.4543 107.566 72.1061 107.547 70.8316H110.152C110.152 71.2136 110.134 71.5418 110.134 71.9426C110.134 72.1973 110.116 72.4521 110.098 72.7256L110.207 72.7621ZM110.08 79.119C110.991 79.7018 112.058 79.9939 113.139 79.9565C115.106 79.9565 116.035 78.7908 116.035 76.2953C116.035 73.7818 115.088 72.6528 113.285 72.6528C111.536 72.6528 110.08 73.5631 110.08 75.6945V79.119Z" fill="black"/>
<path d="M122.116 72.7621C122.771 71.4871 124.083 70.6309 126.123 70.6309C129.019 70.6309 130.44 72.6718 130.44 76.2773C130.44 79.8828 128.783 81.9965 126.032 81.9965C124.119 81.9965 122.826 81.3042 122.116 80.3755L122.024 80.412C122.043 80.9582 122.043 81.4502 122.043 82.0512C122.043 82.8162 122.061 83.5264 122.061 84.3459H119.438C119.493 81.9057 119.493 78.6635 119.493 75.8585C119.493 73.4543 119.475 72.1061 119.456 70.8316H122.061C122.061 71.2136 122.043 71.5418 122.043 71.9426C122.043 72.1973 122.024 72.4521 122.006 72.7256L122.116 72.7621ZM121.988 79.119C122.9 79.7018 123.967 79.9938 125.048 79.9565C127.015 79.9565 127.944 78.7908 127.944 76.2953C127.944 73.7818 126.997 72.6528 125.194 72.6528C123.445 72.6528 121.988 73.5631 121.988 75.6945V79.119Z" fill="black"/>
<path d="M138.431 74.0917C138.431 73.0534 137.776 72.579 135.845 72.579C134.006 72.579 133.313 72.9977 133.313 73.8175C133.313 74.5642 133.805 75.074 136.555 75.3472C139.925 75.7299 141 76.7317 141 78.7352C141 80.8116 139.542 82.0501 135.972 82.0501C132.111 82.0501 130.762 80.8116 130.762 78.6444C130.762 78.4617 130.78 78.2982 130.78 78.0974C131.185 78.1388 131.593 78.1571 132 78.1522C132.377 78.1603 132.753 78.1483 133.129 78.1161C133.114 78.2186 133.108 78.3221 133.11 78.4257C133.11 79.5542 133.93 80.0466 135.988 80.0466C137.882 80.0466 138.575 79.6094 138.575 78.6989C138.575 77.8607 137.955 77.3872 135.278 77.1324C131.817 76.7864 130.87 75.584 130.87 73.7807C130.87 71.6315 132.509 70.5938 135.879 70.5938C139.322 70.5938 140.779 71.668 140.779 73.8352C140.779 74.054 140.76 74.218 140.742 74.4547C140.451 74.4362 139.977 74.418 139.522 74.418C139.085 74.418 138.666 74.4362 138.429 74.4362L138.431 74.0917Z" fill="black"/>
</g>
<defs>
<clipPath id="clip0">
<rect width="141" height="84.3473" fill="white"/>
</clipPath>
</defs>
</svg>
