<svg width="36" height="36" viewBox="0 0 36 36" fill="none" xmlns="http://www.w3.org/2000/svg">
<path d="M27.4425 10.6725C28.0265 10.0885 28.0265 9.14154 27.4425 8.5575V8.5575C26.8585 7.97346 25.9115 7.97346 25.3275 8.5575L18 15.885L10.6725 8.5575C10.0885 7.97346 9.14154 7.97346 8.5575 8.5575V8.5575C7.97346 9.14154 7.97346 10.0885 8.5575 10.6725L15.885 18L8.5575 25.3275C7.97346 25.9115 7.97346 26.8585 8.5575 27.4425V27.4425C9.14154 28.0265 10.0885 28.0265 10.6725 27.4425L18 20.115L25.3275 27.4425C25.9115 28.0265 26.8585 28.0265 27.4425 27.4425V27.4425C28.0265 26.8585 28.0265 25.9115 27.4425 25.3275L20.115 18L27.4425 10.6725Z" fill="white"/>
</svg>
