<svg width="32" height="32" viewBox="0 0 32 32" fill="none" xmlns="http://www.w3.org/2000/svg">
<path d="M5.82415 8C8.37 8 10.2616 8.67321 11.499 10.0196C12.7363 11.3511 13.355 13.266 13.355 15.7644C13.355 17.395 13.0492 18.8238 12.4377 20.0505C11.8403 21.2623 10.9656 22.2048 9.81359 22.878C8.66156 23.5512 7.26775 23.8878 5.63215 23.8878C5.41881 23.8878 5.13436 23.8803 4.77879 23.8654C4.42323 23.8504 4.05344 23.8429 3.66943 23.8429C3.29964 23.828 2.9583 23.8205 2.6454 23.8205C2.14761 23.8205 1.65693 23.828 1.17336 23.8429C0.689796 23.8429 0.298674 23.8579 0 23.8878V23.439C0.483568 23.4091 0.846244 23.3492 1.08803 23.2595C1.34404 23.1697 1.51471 22.9902 1.60004 22.7209C1.68538 22.4516 1.72804 22.0477 1.72804 21.5091V10.3787C1.72804 9.82515 1.68538 9.42122 1.60004 9.1669C1.51471 8.89762 1.34404 8.71809 1.08803 8.62833C0.846244 8.52361 0.483568 8.46377 0 8.44881V8C0.298674 8.01496 0.689796 8.0374 1.17336 8.06732C1.65693 8.08228 2.13339 8.08228 2.60273 8.06732C3.10053 8.05236 3.66232 8.0374 4.28811 8.02244C4.91391 8.00748 5.42592 8 5.82415 8ZM5.2908 8.40393C4.63657 8.40393 4.20989 8.53109 4.01077 8.78541C3.81165 9.03974 3.7121 9.55587 3.7121 10.3338V21.554C3.7121 22.3319 3.81165 22.8481 4.01077 23.1024C4.22411 23.3567 4.6579 23.4839 5.31214 23.4839C6.8624 23.4839 8.06421 23.1921 8.91757 22.6087C9.77092 22.0103 10.3683 21.1426 10.7096 20.0056C11.051 18.8686 11.2216 17.4848 11.2216 15.8541C11.2216 14.1786 11.0296 12.7948 10.6456 11.7027C10.2758 10.5956 9.65714 9.77279 8.78956 9.23422C7.93621 8.68069 6.76995 8.40393 5.2908 8.40393Z" fill="#9DA4BF"/>
<path d="M32 8V8.44881C31.7298 8.50865 31.4311 8.68069 31.104 8.96494C30.7769 9.23422 30.5137 9.71295 30.3146 10.4011L26.2825 24C26.2541 24 26.2256 24 26.1972 24C26.1687 24 26.1403 24 26.1118 24C26.0834 24 26.055 24 26.0265 24C25.9981 24 25.9696 24 25.9412 24L21.4184 9.88499C21.2335 9.30154 21.0273 8.92006 20.7997 8.74053C20.5721 8.56101 20.3588 8.46377 20.1597 8.44881V8C20.4157 8.01496 20.7357 8.02992 21.1197 8.04488C21.5037 8.05984 21.8735 8.06732 22.2291 8.06732C22.7838 8.06732 23.3029 8.05984 23.7865 8.04488C24.27 8.02992 24.6611 8.01496 24.9598 8V8.44881C24.5331 8.46377 24.1918 8.50865 23.9358 8.58345C23.694 8.65825 23.5518 8.82281 23.5091 9.07714C23.4807 9.33146 23.5518 9.75035 23.7225 10.3338L26.9012 20.6788L26.6025 20.9481L29.4186 11.6353C29.6746 10.8125 29.7884 10.1767 29.7599 9.72791C29.7457 9.26414 29.5893 8.9425 29.2906 8.76297C28.9919 8.56849 28.5439 8.46377 27.9466 8.44881V8C28.359 8.01496 28.7786 8.02992 29.2053 8.04488C29.6319 8.05984 30.0302 8.06732 30.4 8.06732C30.7697 8.06732 31.0755 8.05984 31.3173 8.04488C31.5591 8.02992 31.7867 8.01496 32 8ZM17.0876 8V8.44881C16.7178 8.47873 16.4476 8.55353 16.2769 8.67321C16.1205 8.79289 16.0423 8.98738 16.0423 9.25666C16.0565 9.51099 16.1347 9.87003 16.2769 10.3338L19.5837 20.9481L19.0503 21.5091L22.0371 11.4783L22.3571 12.0168L18.837 24C18.8085 24 18.7801 24 18.7517 24C18.7232 24 18.6948 24 18.6663 24C18.6379 24 18.6094 24 18.581 24C18.5525 24 18.5241 24 18.4956 24L13.9729 9.88499C13.788 9.30154 13.5533 8.92006 13.2688 8.74053C12.9844 8.56101 12.7284 8.46377 12.5008 8.44881V8C12.7853 8.01496 13.1337 8.02992 13.5462 8.04488C13.9729 8.05984 14.3853 8.06732 14.7836 8.06732C15.2529 8.06732 15.6867 8.05984 16.0849 8.04488C16.4974 8.02992 16.8316 8.01496 17.0876 8Z" fill="#9DA4BF"/>
</svg>
