<svg width="2130" height="2224" viewBox="0 0 2130 2224" fill="none" xmlns="http://www.w3.org/2000/svg">
<g clip-path="url(#clip0_525_204469)">
<path d="M0 1112V0H1065H2130V1112V2224H1065H0V1112Z" fill="#171920"/>
<path d="M680.7 2210.5C680.3 2209.7 680.5 2208.8 681 2208.5C681.6 2208.1 682 2208.1 682 2208.4C682 2208.6 682.3 2209.5 682.6 2210.4C682.9 2211.3 682.8 2212 682.2 2212C681.7 2212 681 2211.3 680.7 2210.5Z" fill="#A6AEB2"/>
<path d="M383.5 2205.8C381.9 2201.8 382.3 2201.3 385.4 2203C388.1 2204.4 389.4 2206.6 388.4 2208.1C387.3 2210 384.8 2208.9 383.5 2205.8Z" fill="#A6AEB2"/>
<path d="M527.7 2190.3C527.3 2190 527 2189 527 2188.2C527 2187 527.3 2187 528.5 2188C529.3 2188.7 530 2189.6 530 2190.1C530 2191.2 528.6 2191.3 527.7 2190.3Z" fill="#A6AEB2"/>
<path d="M582 2172.1C581.3 2170.6 581.3 2170 582 2170C583.2 2170 584.5 2172.8 583.7 2173.6C583.4 2173.9 582.7 2173.2 582 2172.1Z" fill="#A6AEB2"/>
<path d="M631.4 2162.5C629.6 2158.1 629.6 2158.1 632 2158.7C634.4 2159.3 636.4 2162.6 635.6 2164.6C634.7 2167 633 2166.2 631.4 2162.5Z" fill="#A6AEB2"/>
<path d="M1059.7 2158.8C1059.1 2156.7 1059.5 2155.2 1060.4 2156.1C1061.4 2157.2 1062 2161 1061.2 2161C1060.7 2161 1060 2160 1059.7 2158.8Z" fill="#A6AEB2"/>
<path d="M374.4 2139.6C374.1 2138.8 374 2137.4 374.2 2136.5C374.5 2135.1 374.7 2135.1 376.8 2136.5C378 2137.4 379 2138.8 379 2139.6C379 2141.4 375.1 2141.4 374.4 2139.6Z" fill="#A6AEB2"/>
<path d="M1077.8 2134.3C1077 2133.3 1076.3 2131 1076.2 2129.3C1076 2126.3 1076.2 2126.1 1078.8 2126.4C1080.4 2126.6 1082.2 2127 1082.9 2127.4C1084.6 2128.5 1084.3 2134.7 1082.4 2135.4C1080 2136.3 1079.4 2136.2 1077.8 2134.3Z" fill="#A6AEB2"/>
<path d="M1182.6 2133.6C1180.5 2130.3 1180.6 2129.8 1183.2 2130.2C1185.6 2130.5 1186.8 2133.6 1185.2 2135.2C1184.6 2135.8 1183.7 2135.2 1182.6 2133.6Z" fill="#A6AEB2"/>
<path d="M1269.6 2124.5C1268.7 2123.6 1268 2122 1268 2120.9C1268 2119.3 1268.6 2118.9 1270.8 2119.2C1273 2119.4 1273.5 2120 1273.5 2122.4C1273.5 2125.9 1271.9 2126.7 1269.6 2124.5Z" fill="#A6AEB2"/>
<path d="M30.2999 2117.8C29.6999 2117.1 28.8999 2115.4 28.4999 2114L27.7999 2111.5L30.5999 2114.2C32.5999 2116.2 33.0999 2117.3 32.3999 2118C31.5999 2118.8 30.9999 2118.7 30.2999 2117.8Z" fill="#A6AEB2"/>
<path d="M533 2116.1C531.3 2112.8 531.7 2111.9 534.5 2113.2C537.2 2114.4 538 2118 535.5 2118C534.7 2118 533.6 2117.1 533 2116.1Z" fill="#A6AEB2"/>
<path d="M549.2 2067.8C547.5 2066.1 547.7 2064 549.4 2064.6C551.1 2065.3 552.2 2067.7 551.1 2068.4C550.7 2068.7 549.8 2068.4 549.2 2067.8Z" fill="#A6AEB2"/>
<path d="M532.6 2063.4C532.2 2062.5 532.2 2061.5 532.4 2061.3C533.2 2060.5 535 2062.1 535 2063.6C535 2065.5 533.4 2065.4 532.6 2063.4Z" fill="#A6AEB2"/>
<path d="M1185.2 2048.8C1183.7 2047.3 1183.6 2045 1185 2045C1186.2 2045 1187.3 2047.5 1186.8 2049C1186.6 2049.7 1186.1 2049.7 1185.2 2048.8Z" fill="#A6AEB2"/>
<path d="M938.6 2001.4C937.8 1999.2 937.9 1998 938.9 1998C940.1 1998 941 2001.9 940 2002.5C939.6 2002.8 938.9 2002.3 938.6 2001.4Z" fill="#A6AEB2"/>
<path d="M216.2 1991C215.6 1989.9 215 1988.1 215 1986.9C215 1985 215.1 1985 216.6 1986.4C217.4 1987.3 218.6 1988 219.1 1988C219.6 1988 220 1989.1 220 1990.5C220 1993.5 218 1993.8 216.2 1991Z" fill="#A6AEB2"/>
<path d="M1403.6 1965.8C1402.7 1962.4 1402.9 1962 1404.5 1962.6C1406.1 1963.2 1406.6 1968 1405.1 1968C1404.6 1968 1404 1967 1403.6 1965.8Z" fill="#A6AEB2"/>
<path d="M2056.7 1962.3C2056.3 1960.4 2056.6 1959.1 2057.8 1958.2C2059.2 1957.1 2059.6 1957.3 2060.3 1959.5C2060.8 1960.9 2060.9 1962.7 2060.6 1963.5C2059.7 1966 2057.3 1965.2 2056.7 1962.3Z" fill="#A6AEB2"/>
<path d="M1946.2 1948.6C1945.4 1946.7 1945.5 1945.8 1946.5 1944.3C1947.8 1942.7 1948.1 1942.7 1949 1944C1950.5 1946.2 1950.2 1951 1948.7 1951C1947.9 1951 1946.8 1949.9 1946.2 1948.6Z" fill="#A6AEB2"/>
<path d="M213.1 1937.2C212.4 1935.9 212 1934.6 212.3 1934.4C213.1 1933.6 215.2 1936.9 214.8 1938.2C214.5 1939 213.9 1938.6 213.1 1937.2Z" fill="#A6AEB2"/>
<path d="M931.6 1911.4C930.8 1909.2 930.9 1908 931.9 1908C932.4 1908 933 1909.1 933.2 1910.5C933.8 1913.3 932.6 1913.9 931.6 1911.4Z" fill="#A6AEB2"/>
<path d="M1627.3 1903.9C1625.7 1902.3 1625.6 1899.4 1627 1898.5C1628.3 1897.7 1629.3 1900.2 1628.8 1903C1628.6 1904.7 1628.3 1904.9 1627.3 1903.9Z" fill="#A6AEB2"/>
<path d="M1772.4 1896.5C1772 1895 1772.2 1893.4 1772.9 1892.7C1774.3 1891.3 1775 1892.1 1775.3 1895.5C1775.6 1899.1 1773.3 1899.9 1772.4 1896.5Z" fill="#A6AEB2"/>
<path d="M721.2 1890.8C720.7 1890.1 719.9 1888.5 719.6 1887.3C719 1885.4 719.2 1885.1 720.7 1885.7C723.5 1886.8 725.3 1888.9 724.6 1890.5C723.9 1892.3 722.6 1892.4 721.2 1890.8Z" fill="#A6AEB2"/>
<path d="M516.1 1889.6C515.3 1888.7 515 1887.7 515.4 1887.3C516.3 1886.4 518.3 1888.6 517.8 1890C517.6 1890.8 517 1890.7 516.1 1889.6Z" fill="#A6AEB2"/>
<path d="M1455.7 1887.8C1455 1885.3 1455.4 1884.5 1456.9 1885.5C1458.2 1886.3 1458.4 1890 1457.1 1890C1456.6 1890 1456 1889 1455.7 1887.8Z" fill="#A6AEB2"/>
<path d="M419.2 1884.8C417.8 1883.4 417.6 1881 418.8 1881C420 1881 422 1883.3 422 1884.7C422 1886.3 420.8 1886.4 419.2 1884.8Z" fill="#A6AEB2"/>
<path d="M1130.2 1879.6C1128.9 1876.5 1129.4 1875 1131.1 1876.7C1131.7 1877.3 1132 1878.8 1131.8 1880.1C1131.4 1882.5 1131.3 1882.4 1130.2 1879.6Z" fill="#A6AEB2"/>
<path d="M755.3 1878.8C754.7 1878.1 754 1876.3 753.6 1874.8C753.1 1872.5 753.3 1872 754.8 1872C757.4 1872 759 1874 759 1877.2C759 1880.2 757 1881 755.3 1878.8Z" fill="#A6AEB2"/>
<path d="M1794.7 1874.3C1794.3 1872.4 1794.6 1871.1 1795.8 1870.3C1797.8 1868.7 1799 1870.2 1799 1874.3C1799 1876.3 1798.5 1877 1797.1 1877C1795.9 1877 1795 1876.1 1794.7 1874.3Z" fill="#A6AEB2"/>
<path d="M17.7 1789.2C15.8 1787.1 15.5 1786 17 1786C18 1786 20.4 1789.9 19.7 1790.6C19.5 1790.8 18.6 1790.2 17.7 1789.2Z" fill="#A6AEB2"/>
<path d="M1684.3 1780.9C1682.7 1779.3 1682.6 1776 1684 1776C1685.3 1776 1686.3 1778.4 1685.8 1780.5C1685.6 1781.8 1685.3 1781.9 1684.3 1780.9Z" fill="#A6AEB2"/>
<path d="M890.2 1763.8C888.5 1762.1 888.7 1759 890.4 1759C892.1 1759 895.2 1762.9 894.4 1764.2C893.7 1765.4 891.6 1765.2 890.2 1763.8Z" fill="#A6AEB2"/>
<path d="M1002 1762.4C1000.7 1759 1000.7 1759 1003.4 1759C1005.7 1759 1007 1760.6 1007 1763.6C1007 1766.1 1003 1765.2 1002 1762.4Z" fill="#A6AEB2"/>
<path d="M224.2 1752C223.6 1750.9 223 1749.1 223 1747.9C223 1745.8 223.1 1745.8 225.5 1748.5C228 1751.1 228.4 1753 226.4 1753.7C225.9 1753.9 224.9 1753.1 224.2 1752Z" fill="#A6AEB2"/>
<path d="M769.3 1746.2C768.7 1745.8 767.8 1744.2 767.5 1742.7C766.9 1740.5 767.1 1740 768.7 1740C771.3 1740 773 1741.9 773 1744.7C773 1747 771.5 1747.6 769.3 1746.2Z" fill="#A6AEB2"/>
<path d="M2075.9 1737.3C2075.2 1735.3 2075.2 1733.8 2076.1 1732L2077.3 1729.5L2078.6 1732.5C2079.3 1734.2 2079.9 1736.5 2080 1737.8C2080 1740.9 2077.2 1740.6 2075.9 1737.3Z" fill="#A6AEB2"/>
<path d="M1269.5 1726.9C1269.1 1725.7 1269.3 1724.3 1269.8 1723.8C1271.5 1722.1 1274 1723.7 1274 1726.5C1274 1729.7 1270.5 1730 1269.5 1726.9Z" fill="#A6AEB2"/>
<path d="M2020.6 1699.4C2020.3 1698.5 2020 1697.1 2020 1696.2C2020 1694.1 2021.5 1695.7 2022.5 1698.8C2023.2 1701.3 2021.6 1701.9 2020.6 1699.4Z" fill="#A6AEB2"/>
<path d="M1413.4 1668.4C1412.2 1666.6 1412 1665.6 1412.8 1664.8C1414.6 1663 1417 1664.7 1417 1668C1417 1671.7 1415.6 1671.9 1413.4 1668.4Z" fill="#A6AEB2"/>
<path d="M822.1 1649.6C821.4 1648.8 820.6 1646.6 820.3 1644.6C819.8 1641.4 820 1641 821.9 1641C824.2 1641 828.2 1646.4 827.8 1649C827.4 1651 823.6 1651.4 822.1 1649.6Z" fill="#A6AEB2"/>
<path d="M900.4 1639.4C900 1638.4 899.5 1637.2 899.3 1636.8C899.1 1636.3 899.3 1636 899.9 1636C901 1636 902.5 1639.9 901.6 1640.7C901.3 1641 900.7 1640.4 900.4 1639.4Z" fill="#A6AEB2"/>
<path d="M344 1617.5C343.3 1616.6 342.9 1615.7 343.2 1615.5C343.5 1615.2 344.3 1615.6 345 1616.5C345.7 1617.4 346.1 1618.3 345.8 1618.5C345.5 1618.8 344.7 1618.4 344 1617.5Z" fill="#A6AEB2"/>
<path d="M2066.3 1617C2065.7 1615.6 2065.5 1614.1 2065.8 1613.6C2066.5 1612.3 2068.2 1615.8 2067.7 1617.8C2067.4 1619.2 2067.1 1619 2066.3 1617Z" fill="#A6AEB2"/>
<path d="M646.1 1614.2C645.5 1613 645 1611.5 645 1610.8C645.1 1610.1 645.8 1610.8 646.6 1612.3C647.5 1613.9 647.9 1615.4 647.7 1615.7C647.4 1615.9 646.7 1615.3 646.1 1614.2Z" fill="#A6AEB2"/>
<path d="M327 1612.9C326.3 1611.8 326.1 1610.6 326.4 1610.3C327.2 1609.4 330 1612 330 1613.6C330 1615.7 328.2 1615.3 327 1612.9Z" fill="#A6AEB2"/>
<path d="M1430 1609.8C1430 1607.9 1430.2 1607.8 1431 1609C1432.3 1610.9 1432.3 1612 1431 1612C1430.5 1612 1430 1611 1430 1609.8Z" fill="#A6AEB2"/>
<path d="M312.8 1601C310.6 1598 310.5 1596 312.5 1596C314.4 1596 315.3 1598 314.8 1601.2L314.5 1603.5L312.8 1601Z" fill="#A6AEB2"/>
<path d="M802.2 1600.5C800.7 1597.2 800.7 1597 802.5 1597C803.9 1597 806 1599.9 806 1601.9C806 1604 803.3 1603 802.2 1600.5Z" fill="#A6AEB2"/>
<path d="M1588.7 1588.6C1588.3 1587.6 1588.2 1586.5 1588.5 1586.2C1589.4 1585.3 1590.2 1586.8 1589.8 1588.7C1589.5 1590.4 1589.4 1590.4 1588.7 1588.6Z" fill="#A6AEB2"/>
<path d="M1997.6 1588.4C1997.3 1587.5 1997 1586.1 1997 1585.2C1997.1 1584 1997.5 1584.2 1998.5 1586C1999.3 1587.4 1999.9 1588.8 2000 1589.3C2000 1590.6 1998.2 1590 1997.6 1588.4Z" fill="#A6AEB2"/>
<path d="M1893.7 1585.8C1893.1 1583.7 1893.5 1582.2 1894.4 1583.1C1895.4 1584.2 1896 1588 1895.2 1588C1894.7 1588 1894 1587 1893.7 1585.8Z" fill="#A6AEB2"/>
<path d="M1382.5 1583.2C1381.4 1582.5 1379 1577.5 1379 1576.1C1379 1574.9 1381.7 1574 1383.4 1574.6C1385.5 1575.4 1386.5 1580.9 1384.9 1582.6C1384.1 1583.3 1383 1583.6 1382.5 1583.2Z" fill="#A6AEB2"/>
<path d="M931.7 1559.7C930.6 1556.8 930.8 1555.4 932.1 1556.7C932.7 1557.3 933 1558.6 932.8 1559.6C932.5 1561.4 932.4 1561.4 931.7 1559.7Z" fill="#A6AEB2"/>
<path d="M1193.6 1540.4C1192.8 1537.3 1194.6 1535.5 1196.8 1537.2C1198.5 1538.7 1197.9 1542.4 1195.9 1542.8C1194.8 1543 1194 1542.2 1193.6 1540.4Z" fill="#A6AEB2"/>
<path d="M1156.6 1510.9C1155.2 1508.9 1155.4 1506 1156.9 1506C1158.2 1506 1160 1508.4 1160 1510.1C1160 1512.9 1158.3 1513.2 1156.6 1510.9Z" fill="#A6AEB2"/>
<path d="M275.7 1487C273.8 1483.8 274 1483.4 277.1 1485C278.1 1485.6 279 1487 279 1488C279 1490.9 277.7 1490.5 275.7 1487Z" fill="#A6AEB2"/>
<path d="M1141.2 1463.5C1140.6 1462.1 1140.5 1461 1141 1461C1141.9 1461 1143.5 1464.9 1142.8 1465.6C1142.5 1465.8 1141.8 1464.9 1141.2 1463.5Z" fill="#A6AEB2"/>
<path d="M149.1 1461C148.6 1459.4 148.4 1458 148.7 1458C149.6 1458 151.9 1461.4 152 1462.8C152 1465.1 150.2 1464 149.1 1461Z" fill="#A6AEB2"/>
<path d="M648.1 1443.2C647.4 1441.9 647 1440.4 647.3 1439.7C647.5 1439 648.2 1439.5 648.9 1440.8C649.6 1442.1 650 1443.6 649.7 1444.3C649.5 1445 648.8 1444.5 648.1 1443.2Z" fill="#A6AEB2"/>
<path d="M1602.2 1431.8C1600.3 1429.3 1599.9 1426.3 1601.4 1425.1C1602.5 1424.1 1603.1 1424.4 1604.4 1426.2C1607.4 1430.5 1605.4 1435.7 1602.2 1431.8Z" fill="#A6AEB2"/>
<path d="M2049.1 1425.7C2048 1423.6 2047.9 1422.7 2048.8 1421.8C2050.2 1420.4 2051.3 1422.7 2050.8 1426.1C2050.5 1428.3 2050.5 1428.3 2049.1 1425.7Z" fill="#A6AEB2"/>
<path d="M151 1421.1C150.4 1419.9 150.3 1419 150.9 1419C151.9 1419 153.3 1422 152.6 1422.7C152.4 1423 151.7 1422.2 151 1421.1Z" fill="#A6AEB2"/>
<path d="M1784.3 1402.3C1783.2 1399 1783.6 1397 1785.5 1397C1786.8 1397 1788 1400 1788 1403.3C1788 1406 1785.3 1405.3 1784.3 1402.3Z" fill="#A6AEB2"/>
<path d="M294 1396.6C293.4 1395.7 293 1394.5 293.2 1393.8C293.5 1393 294.1 1393.4 294.9 1394.8C296.4 1397.6 295.8 1398.7 294 1396.6Z" fill="#A6AEB2"/>
<path d="M761.1 1383.4C758.6 1380.2 758.4 1378 760.6 1378C762.6 1378 764.9 1380.8 765 1383.2C765 1386.1 763.3 1386.1 761.1 1383.4Z" fill="#A6AEB2"/>
<path d="M1245.1 1324C1243.9 1320.4 1245.2 1320 1246.8 1323.5C1248.2 1326.6 1248.3 1327 1247.1 1327C1246.6 1327 1245.7 1325.7 1245.1 1324Z" fill="#A6AEB2"/>
<path d="M139.7 1314C137.9 1311 138.1 1309 140.2 1309C141.8 1309 143.9 1312.2 144 1314.8C144 1317.9 141.8 1317.5 139.7 1314Z" fill="#A6AEB2"/>
<path d="M221.7 1315.2C219.9 1313.3 219.3 1308 220.8 1308C222.5 1308 225 1311.7 225 1314.3C225 1317.5 224 1317.7 221.7 1315.2Z" fill="#A6AEB2"/>
<path d="M1752 1292.1C1751.4 1290.9 1751.3 1290 1751.9 1290C1752.9 1290 1754.3 1293 1753.6 1293.7C1753.4 1294 1752.7 1293.2 1752 1292.1Z" fill="#A6AEB2"/>
<path d="M545.3 1254.5C544.2 1252 545.1 1250.3 547 1251.5C548.2 1252.2 548.4 1257 547.3 1257C546.8 1257 546 1255.9 545.3 1254.5Z" fill="#A6AEB2"/>
<path d="M1010.8 1236.6C1009.6 1235.7 1009 1233.9 1009 1231.1C1009 1227.4 1009.2 1227 1011.5 1227C1015.6 1227 1019 1236 1015.4 1237.4C1013.3 1238.2 1012.8 1238.1 1010.8 1236.6Z" fill="#A6AEB2"/>
<path d="M44 1233.9C42.7 1231.5 43.6 1229.8 45 1232C46 1233.6 46.3 1236 45.5 1236C45.3 1236 44.6 1235.1 44 1233.9Z" fill="#A6AEB2"/>
<path d="M336.1 1233.4C335.2 1231.4 335.2 1230.9 336.1 1231.2C337.5 1231.7 339.3 1236 338.1 1236C337.7 1236 336.8 1234.8 336.1 1233.4Z" fill="#A6AEB2"/>
<path d="M794.1 1227.9C792.1 1224.7 792.3 1222 794.4 1222C796.5 1222 798 1224.3 798 1227.7C798 1231.8 796.5 1231.9 794.1 1227.9Z" fill="#A6AEB2"/>
<path d="M939 1210.1C937.7 1207.5 937.7 1205.7 939.2 1206.2C940.6 1206.7 942.2 1212 940.9 1212C940.5 1212 939.6 1211.1 939 1210.1Z" fill="#A6AEB2"/>
<path d="M801.2 1140.5C800.4 1138.8 800.4 1137.9 801.1 1137.4C802.4 1136.6 803.6 1137.8 804.5 1140.8C805.4 1143.9 802.7 1143.7 801.2 1140.5Z" fill="#A6AEB2"/>
<path d="M683.2 1121.5C682.6 1120.1 682.5 1119 683 1119C683.9 1119 685.5 1122.9 684.8 1123.6C684.5 1123.8 683.8 1122.9 683.2 1121.5Z" fill="#A6AEB2"/>
<path d="M197 1115.1C195.7 1112.5 195.7 1112 197.5 1112C198.4 1112 199 1112.9 199 1114.5C199 1117.5 198.4 1117.7 197 1115.1Z" fill="#A6AEB2"/>
<path d="M1931 1110C1931 1107.6 1932.5 1107.3 1933.4 1109.6C1934.3 1111.8 1934.2 1112 1932.5 1112C1931.7 1112 1931 1111.1 1931 1110Z" fill="#A6AEB2"/>
<path d="M1445.5 1102.9C1444.5 1099.9 1445.5 1099.6 1446.8 1102.5C1447.4 1103.9 1447.5 1105 1447 1105C1446.5 1105 1445.8 1104.1 1445.5 1102.9Z" fill="#A6AEB2"/>
<path d="M1326 1085.1C1324.6 1082.4 1324.7 1081 1326.3 1081C1327.8 1081 1330.2 1085.4 1329.3 1086.4C1328.2 1087.5 1327.1 1087 1326 1085.1Z" fill="#A6AEB2"/>
<path d="M1190.4 1016.9C1188.7 1014.8 1188 1012 1189 1012C1189.5 1012 1190.4 1012.9 1191 1014.1C1192.4 1016.6 1191.9 1018.8 1190.4 1016.9Z" fill="#A6AEB2"/>
<path d="M1333.2 1000.8C1331.7 999.3 1331.6 993 1333 993C1334.5 993 1337.9 999 1337.3 1000.6C1336.7 1002.3 1334.8 1002.4 1333.2 1000.8Z" fill="#A6AEB2"/>
<path d="M1114.4 993.9C1112.7 990.5 1113.2 986 1115.3 986C1118.5 986 1121 989.1 1121 993.1C1121 996.6 1120.7 997 1118.5 997C1116.8 997 1115.6 996.1 1114.4 993.9Z" fill="#A6AEB2"/>
<path d="M1792.1 990.8C1791.6 989.5 1791.4 988.3 1791.6 988.1C1792.2 987.4 1793.8 989 1794.3 991C1795 993.7 1793.1 993.5 1792.1 990.8Z" fill="#A6AEB2"/>
<path d="M2084.6 991.4C2083.5 988.6 2084 987.5 2085.5 989.4C2086.3 990.5 2087 991.7 2087 992.2C2087 993.6 2085.2 993.1 2084.6 991.4Z" fill="#A6AEB2"/>
<path d="M1582 970.4C1580.7 967.1 1580.7 967 1582.3 967C1583.8 967 1586.2 971.4 1585.3 972.4C1584.1 973.6 1582.9 972.9 1582 970.4Z" fill="#A6AEB2"/>
<path d="M609.5 956C609.1 954.8 609 953.6 609.3 953.3C609.6 953.1 610.1 953.8 610.5 955C610.9 956.2 611 957.4 610.7 957.7C610.4 957.9 609.9 957.2 609.5 956Z" fill="#A6AEB2"/>
<path d="M1906.6 913.8C1905.1 911.7 1904.4 907 1905.5 907C1907.2 907 1910 910.9 1910 913.2C1910 916.6 1908.7 916.8 1906.6 913.8Z" fill="#A6AEB2"/>
<path d="M1987.2 912.5C1985.6 909.1 1985.7 907 1987.3 907C1988.9 907 1992.3 912.7 1991.5 914C1990.4 915.8 1988.3 915.1 1987.2 912.5Z" fill="#A6AEB2"/>
<path d="M883.1 900.4C881.8 897.5 882.5 895.7 884 898C884.9 899.4 885.4 903 884.7 903C884.5 903 883.8 901.8 883.1 900.4Z" fill="#A6AEB2"/>
<path d="M1366.7 844.2C1364.6 841.9 1364.5 839 1366.4 839C1368 839 1371 842.7 1371 844.7C1371 846.6 1368.6 846.3 1366.7 844.2Z" fill="#A6AEB2"/>
<path d="M1835 829.1C1833.7 826.6 1833.7 825.7 1835 826.5C1836.6 827.5 1838.2 831 1837.1 831C1836.5 831 1835.6 830.1 1835 829.1Z" fill="#A6AEB2"/>
<path d="M342.6 824.8C341.6 821 341.9 819 343.5 819C345.3 819 347.2 823.3 346.4 825.5C345.5 827.7 343.3 827.3 342.6 824.8Z" fill="#A6AEB2"/>
<path d="M1977.6 803.4C1976.6 800.9 1977.7 800.5 1979 802.9C1979.6 804.1 1979.7 805 1979.1 805C1978.6 805 1977.9 804.3 1977.6 803.4Z" fill="#A6AEB2"/>
<path d="M79.5999 801.5C78.7999 799.2 78.7999 798 79.8999 798C81.1999 798 82.1999 801.2 81.1999 802.2C80.5999 802.8 79.9999 802.5 79.5999 801.5Z" fill="#A6AEB2"/>
<path d="M525.2 797.5C523.4 793.6 523.7 791 525.9 791C528.5 791 530.7 796.4 529 798.5C527.3 800.6 526.5 800.4 525.2 797.5Z" fill="#A6AEB2"/>
<path d="M1481.1 783.2C1480.4 781.9 1480 780.4 1480.3 779.7C1480.5 779 1481.2 779.5 1481.9 780.8C1482.6 782.1 1483 783.6 1482.7 784.3C1482.5 785 1481.8 784.5 1481.1 783.2Z" fill="#A6AEB2"/>
<path d="M451 775.1C451 774.6 450.7 773.3 450.4 772.3C449.9 770.7 450 770.7 451.4 772.4C453.2 774.7 453.4 776 452 776C451.5 776 451 775.6 451 775.1Z" fill="#A6AEB2"/>
<path d="M1979.2 764C1977.8 761.7 1977.6 760 1978.9 760C1979.4 760 1980.3 761.4 1980.9 763C1982 766.4 1981.1 767 1979.2 764Z" fill="#A6AEB2"/>
<path d="M987.6 761.4C986.6 758.9 987.7 758.5 989 760.9C989.6 762.1 989.7 763 989.1 763C988.6 763 987.9 762.3 987.6 761.4Z" fill="#A6AEB2"/>
<path d="M1852.8 738.9C1850.9 737.8 1850.3 734 1852 734C1852.5 734 1853.6 735.4 1854.5 737C1856.1 740.1 1855.7 740.6 1852.8 738.9Z" fill="#A6AEB2"/>
<path d="M1196.6 730.4C1195.7 728.1 1195.9 726.8 1196.9 727.4C1198.1 728.2 1199 732 1198 732C1197.6 732 1196.9 731.3 1196.6 730.4Z" fill="#A6AEB2"/>
<path d="M971.2 716.8C969.8 715.4 969.6 712.4 970.9 711.5C972.2 710.8 975 714.9 974.3 716.6C973.7 718.3 972.8 718.4 971.2 716.8Z" fill="#A6AEB2"/>
<path d="M932 684.1C932 680.2 933.5 679.4 935.4 682.2C937.7 685.4 937.4 687 934.5 687C932.4 687 932 686.5 932 684.1Z" fill="#A6AEB2"/>
<path d="M1197.7 667.4C1197.3 667 1197 665.7 1197 664.6C1197.1 662.7 1197.1 662.6 1198.1 664.3C1199.2 666.2 1198.9 668.6 1197.7 667.4Z" fill="#A6AEB2"/>
<path d="M746.3 649.2C744.5 648.1 743.6 643.2 745 641.5C746.7 639.4 748.7 640.7 750.1 644.7C751 647.6 751 648.4 749.9 649.1C748.2 650.2 747.8 650.2 746.3 649.2Z" fill="#A6AEB2"/>
<path d="M234.7 638.8C234.1 636.7 234.5 635.2 235.4 636.1C236.4 637.2 237 641 236.2 641C235.7 641 235 640 234.7 638.8Z" fill="#A6AEB2"/>
<path d="M131.1 637.4C129.8 634.5 130.5 632.7 132 635C132.9 636.4 133.4 640 132.7 640C132.5 640 131.8 638.8 131.1 637.4Z" fill="#A6AEB2"/>
<path d="M540.7 638.4C540.3 638 540 637 540 636.1C540 635 540.3 634.9 541.1 635.7C541.7 636.3 542.1 637.3 541.8 638C541.6 638.6 541.1 638.8 540.7 638.4Z" fill="#A6AEB2"/>
<path d="M1816.3 626.8C1814.7 624.7 1814 622.1 1815 621.5C1816 620.9 1819 624.8 1819 626.7C1819 628.4 1817.5 628.4 1816.3 626.8Z" fill="#A6AEB2"/>
<path d="M1325 625.1C1323.6 622.4 1323.7 621 1325.5 621C1326.8 621 1329 624.6 1329 626.6C1329 627.9 1325.9 626.7 1325 625.1Z" fill="#A6AEB2"/>
<path d="M698.7 614.6C698.3 613.6 698.2 612.5 698.5 612.2C699.4 611.3 700.2 612.8 699.8 614.7C699.5 616.4 699.4 616.4 698.7 614.6Z" fill="#A6AEB2"/>
<path d="M1801.8 613.6C1799.9 612.2 1799.3 609 1801 609C1802.1 609 1804.3 612.7 1803.8 614C1803.6 614.5 1802.7 614.3 1801.8 613.6Z" fill="#A6AEB2"/>
<path d="M1483 611C1482.4 609.8 1482.1 608.6 1482.3 608.3C1482.6 608.1 1483.4 608.8 1484 610C1484.6 611.2 1484.9 612.4 1484.7 612.7C1484.4 612.9 1483.6 612.2 1483 611Z" fill="#A6AEB2"/>
<path d="M62.6 609.4C61.7 607.1 61.9 604.8 62.9 605.4C64.1 606.2 65 609.9 64 610.5C63.6 610.8 62.9 610.3 62.6 609.4Z" fill="#A6AEB2"/>
<path d="M1785 607.5C1784.3 606.6 1783.9 605.7 1784.2 605.5C1784.5 605.2 1785.3 605.6 1786 606.5C1786.7 607.4 1787.1 608.3 1786.8 608.5C1786.5 608.8 1785.7 608.4 1785 607.5Z" fill="#A6AEB2"/>
<path d="M1228.6 586.4C1227.7 584.1 1227.9 582.8 1228.9 583.4C1230.1 584.2 1231 588 1230 588C1229.6 588 1228.9 587.3 1228.6 586.4Z" fill="#A6AEB2"/>
<path d="M1304.8 581.3C1301.5 577.4 1301.6 573 1305 573C1307.2 573 1310 577.1 1310 580.5C1310 583.5 1307.1 583.9 1304.8 581.3Z" fill="#A6AEB2"/>
<path d="M714.2 559.8C712.8 558.4 712.6 554.4 713.8 553.6C716.2 552.2 718.9 558 716.7 559.8C715.7 560.7 715 560.6 714.2 559.8Z" fill="#A6AEB2"/>
<path d="M108.2 526.6C106.9 523.5 107.4 522 109.1 523.7C109.7 524.3 110 525.8 109.8 527.1C109.4 529.5 109.3 529.4 108.2 526.6Z" fill="#A6AEB2"/>
<path d="M857 499.5C855.5 497.7 856.4 495 858.5 495C859.3 495 860 495.3 860 495.8C860 496.2 860.3 497.5 860.6 498.8C861.3 501.4 859 501.9 857 499.5Z" fill="#A6AEB2"/>
<path d="M1077.7 495.3C1076.7 494.3 1076.9 490.8 1077.9 491.4C1079 492.1 1080 496 1079.1 496C1078.7 496 1078 495.7 1077.7 495.3Z" fill="#A6AEB2"/>
<path d="M51.1 490.9C49.5 486.2 49.7 484 51.9 484C54.4 484 55.5 489.4 53.6 492.1C52.3 494 52.2 494 51.1 490.9Z" fill="#A6AEB2"/>
<path d="M1358 482.1C1356.6 479.4 1356.7 477 1358.3 477C1360.4 477 1361.8 478.4 1362.5 481.3C1363.1 483.6 1362.9 484 1361.1 484C1360 484 1358.6 483.1 1358 482.1Z" fill="#A6AEB2"/>
<path d="M1904.2 475.6C1901.7 472.4 1901.3 470 1903.3 470C1905.1 470 1907.3 474.2 1906.8 476.6C1906.5 478.2 1906.2 478.1 1904.2 475.6Z" fill="#A6AEB2"/>
<path d="M1123.4 462.4C1122.1 457.2 1126.9 457.5 1128.5 462.8C1129 464.7 1128.8 465 1126.6 465C1124.7 465 1123.9 464.3 1123.4 462.4Z" fill="#A6AEB2"/>
<path d="M1236.6 462.8C1235.5 461.3 1235.3 460.3 1236 459.6C1237.5 458.1 1240.4 460.2 1240.8 462.9C1241.2 465.7 1238.6 465.7 1236.6 462.8Z" fill="#A6AEB2"/>
<path d="M444.7 447.3C444.3 447 444 445.6 444 444.2C444 442.1 444.2 442 445.5 443C446.3 443.7 447 445.1 447 446.1C447 448 445.9 448.6 444.7 447.3Z" fill="#A6AEB2"/>
<path d="M2111.4 436.5C2109.4 433.5 2110.4 431.8 2112.5 434.6C2113.9 436.4 2114.5 439 2113.5 439C2113.3 439 2112.3 437.9 2111.4 436.5Z" fill="#A6AEB2"/>
<path d="M1607 426.1C1606.4 424.9 1606.3 424 1606.9 424C1607.9 424 1609.3 427 1608.6 427.7C1608.4 428 1607.7 427.2 1607 426.1Z" fill="#A6AEB2"/>
<path d="M331.7 353.3C331.3 353 331 351.4 331 349.8C331 347.7 331.5 347 332.9 347C334.8 347 336.6 351.2 335.5 353C334.8 354.1 332.6 354.3 331.7 353.3Z" fill="#A6AEB2"/>
<path d="M1372.2 350.8C1370.6 349.2 1370.6 344 1372.3 344C1374.5 344 1375.7 345.4 1376.5 348.8C1377.1 351.5 1376.9 352 1375.3 352C1374.2 352 1372.9 351.5 1372.2 350.8Z" fill="#A6AEB2"/>
<path d="M998.6 347.3C997.7 346.3 997.9 341.8 998.9 342.4C1000.1 343.2 1001 346.9 1000 347.5C999.6 347.7 999 347.7 998.6 347.3Z" fill="#A6AEB2"/>
<path d="M1709.1 341.1C1708.5 340.1 1708.4 339 1708.7 338.6C1709.6 337.8 1712 340 1712 341.6C1712 343.6 1710.2 343.3 1709.1 341.1Z" fill="#A6AEB2"/>
<path d="M672.7 338.3C671.6 337.3 671.9 334 673 334C673.6 334 674 334.4 674 334.9C674 335.4 674.3 336.5 674.6 337.4C675.2 339 673.9 339.6 672.7 338.3Z" fill="#A6AEB2"/>
<path d="M1407.5 336.7C1404.7 334.4 1404.7 332 1407.5 332C1408.7 332 1411.5 337.9 1410.6 338.7C1410.4 338.9 1409 338 1407.5 336.7Z" fill="#A6AEB2"/>
<path d="M1612.7 336.3C1612.3 336 1612 335 1612 334.2C1612 333 1612.3 333 1613.5 334C1614.3 334.7 1615 335.6 1615 336.1C1615 337.2 1613.6 337.3 1612.7 336.3Z" fill="#A6AEB2"/>
<path d="M354.9 329.6C353.6 326.8 354.8 324.2 356.8 325.4C358.5 326.4 358.9 329.9 357.4 331.1C356.3 332 355.8 331.6 354.9 329.6Z" fill="#A6AEB2"/>
<path d="M501.7 325.4C501.3 325 501 323.6 501 322.3C501 319.5 503.3 319.6 503.8 322.4C504.2 324.4 502.7 326.4 501.7 325.4Z" fill="#A6AEB2"/>
<path d="M1196.8 313.5C1196.5 312.1 1196.7 311 1197.1 311C1197.6 311 1198 311.4 1198 311.9C1198 312.4 1198.3 313.5 1198.6 314.4C1198.9 315.3 1198.8 316 1198.2 316C1197.7 316 1197 314.9 1196.8 313.5Z" fill="#A6AEB2"/>
<path d="M1916 288.6C1915.4 287.7 1915 286.5 1915.2 285.8C1915.5 285 1916.1 285.4 1916.9 286.8C1918.4 289.6 1917.8 290.7 1916 288.6Z" fill="#A6AEB2"/>
<path d="M180.6 279.5C179.7 277.1 179.9 273 180.9 273C182.5 273 184.2 275.9 183.8 278.1C183.4 280.8 181.5 281.7 180.6 279.5Z" fill="#A6AEB2"/>
<path d="M69.6 263.9C68.9 260.4 69.5 259 71.5 259C73.3 259 74.4 263.9 72.9 265.6C71.1 267.7 70.3 267.3 69.6 263.9Z" fill="#A6AEB2"/>
<path d="M724.4 259.5C724 258.1 724.1 256.6 724.4 256.2C725.3 255.4 727 258 727 260.3C727 262.9 725.1 262.3 724.4 259.5Z" fill="#A6AEB2"/>
<path d="M1912.3 236.8C1909.8 234.1 1909.3 231 1911.3 231C1913 231 1915.3 235.2 1914.8 237.5C1914.5 238.9 1914.2 238.9 1912.3 236.8Z" fill="#A6AEB2"/>
<path d="M1189.7 223.9C1189.4 222.6 1189.6 222 1190.3 222.3C1191.8 222.8 1192.5 226 1191.2 226C1190.7 226 1190 225.1 1189.7 223.9Z" fill="#A6AEB2"/>
<path d="M943.7 178.3C943.3 178 943 176.8 943 175.7C943 174.1 943.3 174 944.5 175C945.3 175.7 946 176.9 946 177.6C946 179.1 944.8 179.5 943.7 178.3Z" fill="#A6AEB2"/>
<path d="M1595.3 161.5C1594.5 159.3 1595.9 158.2 1597 160C1598.3 162 1598.2 163 1597 163C1596.4 163 1595.7 162.3 1595.3 161.5Z" fill="#A6AEB2"/>
<path d="M1580.3 159.3C1579.6 159 1579 157.9 1579 156.7C1579 154.7 1579.1 154.7 1580.6 156.2C1582.4 158 1582.2 159.9 1580.3 159.3Z" fill="#A6AEB2"/>
<path d="M1595.2 110.7C1592.9 109.6 1592.6 107 1594.7 106.3C1595.9 105.9 1598.4 109.5 1597.8 110.9C1597.6 111.4 1596.5 111.3 1595.2 110.7Z" fill="#A6AEB2"/>
<path d="M2099.1 109.6C2097 107.3 2096.9 105 2099 105C2099.8 105 2102.3 111 2101.7 111.7C2101.5 111.8 2100.3 110.9 2099.1 109.6Z" fill="#A6AEB2"/>
<path d="M857 104.5C855.6 102.8 856.1 98.8 857.6 98.3C859.2 97.8 862 100.8 862 103C862 105.2 858.5 106.3 857 104.5Z" fill="#A6AEB2"/>
<path d="M1049.5 97.1C1046.9 96.6 1046.5 96 1046.2 92.7C1045.8 88.3 1047.8 87 1051.4 89.3C1052.9 90.3 1053.7 91.9 1053.8 93.9C1053.9 97.5 1053.5 97.8 1049.5 97.1Z" fill="#A6AEB2"/>
<path d="M945 93.5C943.8 92 944.3 89 945.7 89C947 89 949.1 93 948.5 94C947.6 95.4 946.4 95.2 945 93.5Z" fill="#A6AEB2"/>
<path d="M1753.3 87.5C1750.8 85.8 1750.2 83 1752.3 83C1754.6 83 1756.2 84.7 1755.8 86.9C1755.5 88.9 1755.4 89 1753.3 87.5Z" fill="#A6AEB2"/>
<path d="M197.8 82C197.1 79.6 197.5 78.2 198.6 79.2C198.9 79.6 199 80.9 198.8 82.2L198.5 84.5L197.8 82Z" fill="#A6AEB2"/>
<path d="M1068.7 65.7999C1068.1 63.6999 1068.5 62.1999 1069.4 63.0999C1070.4 64.1999 1071 67.9999 1070.2 67.9999C1069.7 67.9999 1069 66.9999 1068.7 65.7999Z" fill="#A6AEB2"/>
<path d="M1497.3 65.2C1494.1 64.7 1492.9 58 1496.1 58C1497 58 1500.5 65 1499.8 65.4C1499.6 65.5 1498.5 65.4 1497.3 65.2Z" fill="#A6AEB2"/>
<path d="M1546.3 52.5001C1545.4 50.0001 1546.7 49.6001 1548 51.9001C1548.7 53.4001 1548.7 54.0001 1548 54.0001C1547.4 54.0001 1546.7 53.3001 1546.3 52.5001Z" fill="#A6AEB2"/>
<path d="M1601.2 35.8C1599.8 34.4 1599.6 33 1601 33C1601.5 33 1602.4 33.9 1603 35C1604.2 37.2 1603.1 37.7 1601.2 35.8Z" fill="#A6AEB2"/>
<path d="M1742.9 19.9C1740.6 17.6 1740.8 15.5 1743.5 15.5C1744.7 15.5 1745.9 16.7 1746.7 18.8C1747.8 21.6 1747.8 22 1746.5 22C1745.7 22 1744.1 21.1 1742.9 19.9Z" fill="#A6AEB2"/>
</g>
<defs>
<clipPath id="clip0_525_204469">
<rect width="2130" height="2224" fill="white"/>
</clipPath>
</defs>
</svg>
