<svg width="24" height="24" viewBox="0 0 24 24" fill="none" xmlns="http://www.w3.org/2000/svg">
<path d="M9.65339 20.8652C9.65321 20.717 9.58741 20.5764 9.4737 20.4814C9.35908 20.3877 9.20948 20.3482 9.06355 20.373C7.47273 20.6679 5.45515 20.6718 4.86921 19.0263C4.5088 18.1468 3.93122 17.373 3.1905 16.7773C3.03718 16.6987 2.899 16.5936 2.7823 16.4668C2.74287 16.2259 2.53517 16.0488 2.29109 16.0478H2.28907C2.01374 16.0478 1.79017 16.2705 1.78907 16.5459C1.78614 17.1162 2.50001 17.5429 2.71095 17.6552C3.24098 18.1313 3.65827 18.7195 3.93269 19.377C4.28132 20.3565 5.34382 21.8721 8.65534 21.4492C8.65827 21.8135 8.66316 22.002 8.66706 22.1455L8.67195 22.4405C8.67195 22.7166 8.89582 22.9405 9.17195 22.9405C9.44807 22.9405 9.67195 22.7166 9.67195 22.4405L9.66706 22.1181C9.6612 21.917 9.65339 21.627 9.65339 20.8652ZM20.921 5.2236C20.8907 5.18551 20.8585 5.14547 20.8253 5.10543C20.8924 4.89407 20.9452 4.67843 20.9835 4.45999C21.1383 3.38681 21.001 2.29171 20.586 1.28994C20.5313 1.15231 20.4182 1.04605 20.2774 0.999966C20.1358 0.953091 18.8438 0.605435 16.1475 2.3818C13.8886 1.80758 11.5218 1.80758 9.26277 2.3818C6.56745 0.625943 5.28327 0.955044 5.1407 0.997037C4.9972 1.04232 4.88148 1.14944 4.82527 1.28903C4.40272 2.30594 4.26631 3.41897 4.43073 4.50778C4.469 4.70742 4.51759 4.90493 4.57624 5.09958C4.54109 5.14261 4.50788 5.18551 4.47663 5.2275C3.63007 6.30154 3.17964 7.63461 3.20124 9.00198C3.1988 9.3121 3.21314 9.6221 3.24421 9.93069C3.58405 14.5948 6.59284 15.8926 9.19154 16.336C9.02229 16.6394 8.89576 16.9647 8.8155 17.3028C8.7497 17.5708 8.91364 17.8415 9.18171 17.9073C9.44978 17.973 9.72041 17.8091 9.7862 17.541C9.87873 17.0814 10.111 16.6615 10.4512 16.3389C10.6592 16.1569 10.6804 15.8407 10.4984 15.6326C10.4164 15.5389 10.3024 15.4791 10.1787 15.4649C7.42194 15.1524 4.56062 14.2412 4.24024 9.83987C4.21198 9.56149 4.19898 9.28177 4.20124 9.00198C4.18238 7.85421 4.56043 6.73513 5.27155 5.83395C5.34675 5.73239 5.43073 5.63961 5.51374 5.54782C5.64051 5.40792 5.67793 5.20858 5.61042 5.03219C5.52509 4.80667 5.46003 4.574 5.41609 4.33688C5.29633 3.53299 5.37617 2.712 5.64851 1.94626C6.83607 2.1116 7.95759 2.59213 8.89649 3.33786C9.01771 3.41964 9.16883 3.44394 9.30958 3.40426C11.534 2.80075 13.8791 2.80075 16.1035 3.40426C16.2451 3.44381 16.3968 3.41916 16.5185 3.33688C17.4508 2.58346 18.5719 2.10006 19.7598 1.93942C20.0289 2.69363 20.1104 3.5021 19.9971 4.29489C19.9529 4.54684 19.8839 4.79385 19.791 5.03219C19.7235 5.20858 19.7609 5.40786 19.8877 5.54782C19.9756 5.6445 20.0635 5.7529 20.1406 5.84958C20.8534 6.7438 21.2319 7.85861 21.211 9.00198C21.2133 9.28799 21.1993 9.57394 21.169 9.85843C20.8516 14.2393 17.9796 15.1504 15.212 15.4649C14.9374 15.4964 14.7403 15.7446 14.7719 16.0193C14.7861 16.1429 14.8458 16.2569 14.9395 16.3388C15.2842 16.6638 15.5151 17.0912 15.5978 17.5576C15.683 17.8869 15.7227 18.2263 15.7159 18.5664V21.0254C15.7052 21.7012 15.7052 22.208 15.7052 22.4404C15.7056 22.7165 15.9298 22.9401 16.2059 22.9397C16.4815 22.9393 16.7048 22.716 16.7052 22.4404C16.7052 22.2099 16.7052 21.7089 16.7159 21.0332V18.5664C16.7238 18.1429 16.6735 17.7204 16.5665 17.3105C16.4913 16.9698 16.3677 16.6416 16.1993 16.3359C18.8077 15.8935 21.8282 14.5966 22.1652 9.95114C22.1983 9.63583 22.2136 9.31894 22.2111 9.00192C22.2338 7.6307 21.7776 6.29452 20.921 5.2236Z" fill="#9DA4BF" stroke="#9DA4BF"/>
</svg>
