<svg width="48" height="48" viewBox="0 0 48 48" fill="none" xmlns="http://www.w3.org/2000/svg">
<rect width="48" height="48" rx="8" fill="#9DA4BF"/>
<path d="M19.63 38.0513V33.1444C19.6299 31.9009 20.6411 30.8907 21.8935 30.8829H26.4921C27.7502 30.8829 28.77 31.8954 28.77 33.1444V38.0371C28.77 39.1156 29.6464 39.9921 30.7327 39.9999H33.8701C35.3354 40.0037 36.742 39.4284 37.7794 38.4011C38.8169 37.3737 39.4 35.9788 39.4 34.524V20.5853C39.4 19.4102 38.8753 18.2955 37.9673 17.5416L27.3087 9.07883C25.4456 7.5986 22.7846 7.64641 20.9766 9.19261L10.5472 17.5416C9.59638 18.2733 9.02808 19.3913 9 20.5853V34.5098C9 37.5419 11.4758 39.9999 14.5299 39.9999H17.5957C18.1187 40.0037 18.6216 39.8001 18.9927 39.4342C19.3639 39.0684 19.5727 38.5706 19.5727 38.0513H19.63Z" fill="#15171E"/>
</svg>
