<svg width="24" height="24" viewBox="0 0 24 24" fill="none" xmlns="http://www.w3.org/2000/svg">
<path d="M0 3.16397C0 2.39179 0.270278 1.75475 0.810811 1.25286C1.35134 0.750946 2.05406 0.5 2.91892 0.5C3.76835 0.5 4.45559 0.747077 4.98069 1.24128C5.52123 1.75091 5.79151 2.41495 5.79151 3.23346C5.79151 3.97474 5.52897 4.59246 5.00386 5.08666C4.46333 5.59629 3.7529 5.8511 2.87259 5.8511H2.84942C1.99999 5.8511 1.31275 5.59629 0.787645 5.08666C0.262541 4.57703 0 3.93613 0 3.16397ZM0.301158 23.4333V7.95911H5.44402V23.4333H0.301158ZM8.29344 23.4333H13.4363V14.7928C13.4363 14.2522 13.4981 13.8353 13.6216 13.5419C13.8378 13.0168 14.166 12.5728 14.6062 12.2099C15.0463 11.847 15.5984 11.6655 16.2625 11.6655C17.9923 11.6655 18.8571 12.8315 18.8571 15.1634V23.4333H24V14.5611C24 12.2755 23.4595 10.542 22.3784 9.36059C21.2973 8.17918 19.8687 7.58847 18.0927 7.58847C16.1004 7.58847 14.5483 8.44558 13.4363 10.1598V10.2061H13.4131L13.4363 10.1598V7.95911H8.29344C8.32432 8.45329 8.33977 9.98989 8.33977 12.5689C8.33977 15.148 8.32432 18.7694 8.29344 23.4333Z" fill="#9DA4BF"/>
</svg>
