<svg width="48" height="48" viewBox="0 0 48 48" fill="none" xmlns="http://www.w3.org/2000/svg">
<rect width="48" height="48" rx="8" fill="#9DA4BF"/>
<path d="M27.7513 28.6724C27.7513 28.6724 40.5867 19.4099 39.163 8.80918C39.1489 8.62916 39.0775 8.45839 38.9593 8.32187C38.8281 8.20019 38.6595 8.12649 38.4811 8.11276C28.1222 6.6563 19.0724 19.79 19.0724 19.79C11.221 18.8499 11.7919 20.4155 8.20985 29.0197C7.52435 30.6598 8.63534 31.2253 9.8536 30.7635L13.7593 29.2888L18.4688 34.1037L17.0268 38.1022C16.5759 39.3495 17.1269 40.486 18.7324 39.7859C27.1403 36.1202 28.6713 36.7057 27.7513 28.6724V28.6724ZM29.5859 17.9153C29.0628 17.3747 28.7703 16.6519 28.7703 15.8997C28.7703 15.1474 29.0628 14.4247 29.5859 13.8841C29.8417 13.6205 30.1478 13.4109 30.486 13.2678C30.8243 13.1247 31.1879 13.0509 31.5552 13.0509C31.9225 13.0509 32.286 13.1247 32.6243 13.2678C32.9625 13.4109 33.2686 13.6205 33.5244 13.8841C34.0475 14.4247 34.34 15.1474 34.34 15.8997C34.34 16.6519 34.0475 17.3747 33.5244 17.9153C33.2686 18.1789 32.9625 18.3885 32.6243 18.5316C32.286 18.6747 31.9225 18.7484 31.5552 18.7484C31.1879 18.7484 30.8243 18.6747 30.486 18.5316C30.1478 18.3885 29.8417 18.1789 29.5859 17.9153Z" fill="#15171E"/>
</svg>
