<svg width="36" height="36" viewBox="0 0 36 36" fill="none" xmlns="http://www.w3.org/2000/svg">
<rect width="36" height="36" rx="8" fill="#9DA4BF"/>
<path d="M20.8134 21.5043C20.8134 21.5043 30.44 14.5575 29.3722 6.60688C29.3617 6.47187 29.3081 6.34379 29.2195 6.2414C29.1211 6.15014 28.9947 6.09487 28.8608 6.08457C21.0916 4.99222 14.3043 14.8425 14.3043 14.8425C8.41573 14.1374 8.84394 15.3116 6.15739 21.7648C5.64326 22.9949 6.4765 23.419 7.3902 23.0726L10.3195 21.9666L13.8516 25.5778L12.7701 28.5766C12.4319 29.5122 12.8451 30.3645 14.0493 29.8395C20.3552 27.0902 21.5035 27.5293 20.8134 21.5043V21.5043ZM22.1894 13.4365C21.7971 13.031 21.5778 12.489 21.5778 11.9248C21.5778 11.3606 21.7971 10.8185 22.1894 10.4131C22.3813 10.2154 22.6108 10.0582 22.8645 9.95085C23.1182 9.84352 23.3909 9.78821 23.6664 9.78821C23.9418 9.78821 24.2145 9.84352 24.4682 9.95085C24.7219 10.0582 24.9515 10.2154 25.1433 10.4131C25.5356 10.8185 25.755 11.3606 25.755 11.9248C25.755 12.489 25.5356 13.031 25.1433 13.4365C24.9515 13.6342 24.7219 13.7913 24.4682 13.8987C24.2145 14.006 23.9418 14.0613 23.6664 14.0613C23.3909 14.0613 23.1182 14.006 22.8645 13.8987C22.6108 13.7913 22.3813 13.6342 22.1894 13.4365Z" fill="#15171E"/>
</svg>
