<svg width="36" height="36" viewBox="0 0 36 36" fill="none" xmlns="http://www.w3.org/2000/svg">
<rect width="36" height="36" rx="8" fill="#9DA4BF"/>
<path d="M19.4651 25.6V29.5C19.4651 29.75 19.6651 30 19.9651 30C20.2651 30 20.4651 29.75 20.4651 29.5V25.6C20.4651 25.35 20.2651 25.1 19.9651 25.1C19.6651 25.1 19.4651 25.35 19.4651 25.6Z" fill="#15171E"/>
<path d="M8.31502 13.25C8.16502 13.8 8.26502 14.4 8.71502 14.75L12.265 18.2C12.365 18.3 12.415 18.45 12.415 18.65L11.515 23.5C11.415 23.95 11.565 24.4 11.865 24.7C12.315 25.2 13.065 25.4 13.715 25.05L18.065 22.75C18.215 22.65 18.365 22.65 18.515 22.75L22.865 25.05C23.565 25.4 24.265 25.2 24.715 24.7C25.015 24.35 25.115 23.95 25.065 23.5L24.215 18.65C24.215 18.5 24.265 18.35 24.365 18.2L27.915 14.75C28.315 14.35 28.465 13.75 28.315 13.25C28.115 12.7 27.665 12.3 27.115 12.25L22.165 11.5C22.015 11.5 21.865 11.4 21.815 11.25L19.615 6.85C19.365 6.3 18.815 6 18.265 6C17.715 6 17.165 6.3 16.915 6.85L14.765 11.25C14.715 11.4 14.565 11.5 14.415 11.5L9.51502 12.2C8.96502 12.3 8.46502 12.7 8.31502 13.25Z" fill="#15171E"/>
<path d="M16.0649 25.25V28.55C16.0649 28.8 16.2649 29.05 16.5649 29.05C16.8649 29.05 17.0649 28.8 17.0649 28.55V25.25C17.0649 24.95 16.8649 24.75 16.5649 24.75C16.3149 24.75 16.0649 24.95 16.0649 25.25Z" fill="#15171E"/>
</svg>
