<svg width="48" height="48" viewBox="0 0 48 48" fill="none" xmlns="http://www.w3.org/2000/svg">
<rect width="48" height="48" rx="8" fill="#9DA4BF"/>
<path d="M25.9534 34.1333V39.3333C25.9534 39.6667 26.22 40 26.62 40C27.02 40 27.2867 39.6667 27.2867 39.3333V34.1333C27.2867 33.8 27.02 33.4667 26.62 33.4667C26.22 33.4667 25.9534 33.8 25.9534 34.1333Z" fill="#15171E"/>
<path d="M11.0867 17.6667C10.8867 18.4 11.02 19.2 11.62 19.6667L16.3534 24.2667C16.4867 24.4 16.5534 24.6 16.5534 24.8667L15.3534 31.3333C15.22 31.9333 15.42 32.5333 15.82 32.9333C16.42 33.6 17.42 33.8667 18.2867 33.4L24.0867 30.3333C24.2867 30.2 24.4867 30.2 24.6867 30.3333L30.4867 33.4C31.42 33.8667 32.3534 33.6 32.9534 32.9333C33.3534 32.4667 33.4867 31.9333 33.42 31.3333L32.2867 24.8667C32.2867 24.6667 32.3534 24.4667 32.4867 24.2667L37.22 19.6667C37.7534 19.1333 37.9534 18.3333 37.7534 17.6667C37.4867 16.9333 36.8867 16.4 36.1534 16.3333L29.5534 15.3333C29.3534 15.3333 29.1534 15.2 29.0867 15L26.1534 9.13333C25.82 8.4 25.0867 8 24.3534 8C23.62 8 22.8867 8.4 22.5534 9.13333L19.6867 15C19.62 15.2 19.42 15.3333 19.22 15.3333L12.6867 16.2667C11.9534 16.4 11.2867 16.9333 11.0867 17.6667Z" fill="#15171E"/>
<path d="M21.42 33.6667V38.0667C21.42 38.4 21.6867 38.7333 22.0867 38.7333C22.4867 38.7333 22.7534 38.4 22.7534 38.0667V33.6667C22.7534 33.2667 22.4867 33 22.0867 33C21.7534 33 21.42 33.2667 21.42 33.6667Z" fill="#15171E"/>
</svg>
