<svg width="256" height="256" viewBox="0 0 256 256" fill="none" xmlns="http://www.w3.org/2000/svg">
<path d="M46.5932 64C66.96 64 82.0928 69.3857 91.9917 80.1571C101.891 90.8088 106.84 106.128 106.84 126.115C106.84 139.16 104.394 150.59 99.5013 160.404C94.7225 170.098 87.725 177.638 78.5087 183.024C69.2925 188.41 58.142 191.102 45.0572 191.102C43.3505 191.102 41.0748 191.043 38.2303 190.923C35.3858 190.803 32.4275 190.743 29.3554 190.743C26.3971 190.624 23.6664 190.564 21.1632 190.564C17.1809 190.564 13.2555 190.624 9.38691 190.743C5.51837 190.743 2.3894 190.863 0 191.102V187.512C3.86855 187.273 6.76995 186.794 8.70423 186.076C10.7523 185.358 12.1176 183.921 12.8003 181.767C13.483 179.613 13.8244 176.381 13.8244 172.073V83.0294C13.8244 78.6012 13.483 75.3698 12.8003 73.3352C12.1176 71.1809 10.7523 69.7447 8.70423 69.0266C6.76995 68.1889 3.86855 67.7101 0 67.5905V64C2.3894 64.1197 5.51837 64.2992 9.38691 64.5386C13.2555 64.6582 17.0671 64.6582 20.8219 64.5386C24.8042 64.4189 29.2985 64.2992 34.3049 64.1795C39.3112 64.0598 43.4074 64 46.5932 64ZM42.3264 67.2314C37.0925 67.2314 33.6791 68.2487 32.0862 70.2833C30.4932 72.3179 29.6968 76.4469 29.6968 82.6704V172.432C29.6968 178.655 30.4932 182.784 32.0862 184.819C33.7929 186.854 37.2632 187.871 42.4971 187.871C54.8992 187.871 64.5137 185.537 71.3405 180.87C78.1674 176.082 82.9462 169.141 85.6769 160.045C88.4076 150.949 89.773 139.878 89.773 126.833C89.773 113.429 88.237 102.358 85.1649 93.6213C82.2066 84.7648 77.2571 78.1823 70.3165 73.8738C63.4897 69.4455 54.1596 67.2314 42.3264 67.2314Z" fill="#9DA4BF"/>
<path d="M256 64V67.5905C253.838 68.0692 251.449 69.4455 248.832 71.7195C246.215 73.8738 244.11 77.7036 242.517 83.209L210.26 192C210.033 192 209.805 192 209.577 192C209.35 192 209.122 192 208.895 192C208.667 192 208.44 192 208.212 192C207.985 192 207.757 192 207.529 192L171.347 79.0799C169.868 74.4123 168.218 71.3604 166.398 69.9243C164.577 68.4881 162.87 67.7101 161.278 67.5905V64C163.326 64.1197 165.886 64.2394 168.958 64.359C172.03 64.4787 174.988 64.5386 177.833 64.5386C182.27 64.5386 186.423 64.4787 190.292 64.359C194.16 64.2394 197.289 64.1197 199.679 64V67.5905C196.265 67.7101 193.534 68.0692 191.486 68.6676C189.552 69.266 188.414 70.5825 188.073 72.6171C187.845 74.6517 188.414 78.0028 189.78 82.6704L215.21 165.431L212.82 167.585L235.349 93.0828C237.397 86.5002 238.307 81.4137 238.08 77.8233C237.966 74.1131 236.714 71.54 234.325 70.1038C231.935 68.5479 228.351 67.7101 223.572 67.5905V64C226.872 64.1197 230.229 64.2394 233.642 64.359C237.056 64.4787 240.241 64.5386 243.2 64.5386C246.158 64.5386 248.604 64.4787 250.539 64.359C252.473 64.2394 254.293 64.1197 256 64ZM136.701 64V67.5905C133.743 67.8298 131.581 68.4282 130.215 69.3857C128.964 70.3431 128.338 71.899 128.338 74.0533C128.452 76.0879 129.078 78.9603 130.215 82.6704L156.669 167.585L152.403 172.073L176.297 91.8261L178.857 96.1346L150.696 192C150.468 192 150.241 192 150.013 192C149.786 192 149.558 192 149.331 192C149.103 192 148.875 192 148.648 192C148.42 192 148.193 192 147.965 192L111.783 79.0799C110.304 74.4123 108.426 71.3604 106.151 69.9243C103.875 68.4881 101.827 67.7101 100.007 67.5905V64C102.282 64.1197 105.07 64.2394 108.369 64.359C111.783 64.4787 115.083 64.5386 118.268 64.5386C122.023 64.5386 125.493 64.4787 128.679 64.359C131.979 64.2394 134.653 64.1197 136.701 64Z" fill="#9DA4BF"/>
</svg>
